<svg xmlns="http://www.w3.org/2000/svg" width="108.1" height="94.4">
  <path fill="#FFF" d="M54.4 11l-32 9.1v16a51.4 51.4 0 0031.1 47.3l.9.4.8-.4a51.4 51.4 0 0031.2-47.2v-16l-32-9.2z"/>
  <path fill="none" stroke="#FFF" stroke-width="6.6" stroke-miterlimit="10" d="M54.4 11l-32 9.1v16a51.4 51.4 0 0031.1 47.3l.9.4.8-.4a51.4 51.4 0 0031.2-47.2v-16l-32-9.2z"/>
  <path fill="#FFF" stroke="#FFF" stroke-width="8.8" stroke-miterlimit="10" d="M54.4 11l-32 9.1v16a51.4 51.4 0 0031.1 47.3l.9.4.8-.4a51.4 51.4 0 0031.2-47.2v-16l-32-9.2z"/>
  <path fill="#582D8F" d="M54.7 85l-1.3-.5a52.5 52.5 0 01-31.8-48.3v-17l33-9.4 33.2 9.5v16.9c0 21-12.5 40-31.8 48.3l-1.3.5zM23.8 21v15.2c0 20.1 12 38.3 30.5 46.2l.4.2.4-.2c18.5-8 30.4-26 30.4-46.2V21l-30.8-8.8L23.8 21z"/>
  <path fill="#582D8F" d="M54.7 19.9l-23.5 6.7v9.6c0 15.8 8.6 30.2 22.4 37.7l1 .5 1.1-.5a42.9 42.9 0 0022.4-37.7v-9.6l-23.4-6.7z"/>
  <path fill="#FFF" d="M56.9 45v-5.9h-4.4V45h-5.9v4.4h5.9v5.8h4.4v-5.8h5.8V45z"/>
</svg>
