<svg xmlns="http://www.w3.org/2000/svg" width="108.1" height="94.4">
  <path fill="#FFF" d="M52 86.6c-1 .4-2.1 0-2.5-1-1.1-2.4-2-3.8-2.8-4.7-.7-.7-1.6-1-3-1.2l-1.5-.2c-5.1-.7-12.9-1.8-15-5.3V74c-1-2.3-.5-4.1 0-5.7.1-.7.3-1.3-.8-1.6a1.9 1.9 0 01-.4-3.5h-.1c-1-.4-1.3-1.6-.9-2.5l1-2.5a44.7 44.7 0 01-4-1.1c-.8-.4-1.4-1-1.8-1.9a3.8 3.8 0 01.2-3.6c.8-1.6 1.9-3.3 3-5 2.2-3.8 4.3-7.4 4.1-8.1a18 18 0 01-.3-3.5c0-6 3-12 7.6-17A33.5 33.5 0 0157.7 7.9c8.3 0 15.9 2.8 21.3 7.7A25.6 25.6 0 0187.5 35c0 8.2-2.8 13.3-5.5 18.2a34.2 34.2 0 00-4.2 10.4c-1 5.2 4 13.3 6.4 17.2l1 1.7c.6.9.2 2-.7 2.5L52 86.6z"/>
  <path fill="#FFF" stroke="#FFF" stroke-width="4.6" stroke-miterlimit="10" d="M51.8 89.3a2 2 0 01-2.6-1 18 18 0 00-3-5c-.7-.8-1.7-1.2-3.2-1.4l-1.6-.2c-5.5-.7-13.8-1.9-16-5.7h0l-.1-.2c-1-2.4-.5-4.4 0-6 .2-.8.4-1.4-.8-1.8a2 2 0 01-.5-3.6s0 0 0 0a2 2 0 01-1-2.8c.6-1 .9-1.9 1.2-2.7a45.8 45.8 0 01-4.4-1.1 4.5 4.5 0 01-2-2 4 4 0 01.2-3.9c1-1.7 2-3.6 3.2-5.4 2.4-4 4.7-7.9 4.5-8.6l-.3-3.7a27 27 0 018-18.2A35.9 35.9 0 0158 5c8.9 0 17 3 22.8 8.3a27.4 27.4 0 019 20.7A37 37 0 0184 53.5c-2 3.5-3.8 7-4.5 11.1-1 5.6 4.3 14.3 6.9 18.4l1 1.8a2 2 0 01-.7 2.8l-34.9 1.7z"/>
  <path fill="gray" d="M42 37.3v.3l.2.3.8.7.6.1h1.7l1.6-.6a7.7 7.7 0 011.5-2.4c.5-.6 1.4-1.4 2.5-1.7.6-.1 1.2-.2 1.9 0 .5-.7 1.1-1.3 2-1.8 1-.5 2.2-1 3.8-1 .6-1 1.8-2 3.3-2.6 1.4-.6 3.2-.8 5.2-.3.6.2 1 .9.8 1.5-.1.7-.8 1-1.5 1a5.9 5.9 0 00-3.6 0c-1.2.5-2 1.3-2.2 2-.2.5-.7.9-1.2.9-1.5 0-2.6.2-3.4.7a5 5 0 00-1.7 1.7c-.3.5-1 .7-1.6.4-.4-.2-.8-.2-1.1-.1-.6.1-1 .6-1.3 1a6.2 6.2 0 00-1 1.6v.3c.1.7.3 1.3.6 1.7.5.5 1.2 1 2 1.2 1 .3 2 .4 3 .3.4 0 .8-.4 1.3-.8.5-.5 1.3-.5 1.8 0l.2.5c.2.4.3.6.5.7.4.1.9 0 1.4-.3.5-.1 1 0 1.3.3a42.2 42.2 0 015.4 5.2v-.6l.2-.7h-.3c-.7-.1-1.2-.7-1-1.4 0-.7.7-1.1 1.3-1h1.1a6 6 0 001.9-.3c1-.4 2-1 2.8-2a5 5 0 001-2c.2-.6.3-1 .2-1.3a2 2 0 00-1.2-.9c-.9-.2-2-.2-3.2 0a22.4 22.4 0 00-6.7 2.6c-.6.4-1.4.2-1.7-.4-.4-.6-.2-1.3.4-1.7h.1a25 25 0 017.4-2.9 10 10 0 014 0c.8-.5 1.5-1 1.8-1.6.4-.6.4-1.5-.1-2.8l-.6-1-.6-.3c-.5-.1-.9-.5-1-1-.5-2.2-1.6-3.2-2.8-4.1l-.4-.4c-2.2-1.9-5-2.6-7.8-3.3l-1.7-.5c-2-.5-3.7-.6-5.1-.4-1.7.3-3 1-4 1.7l-.7.3c-1.8.2-3.5.6-4.8 1.4a6.2 6.2 0 00-2.9 3.4c0 .4-.3.7-.7.8-.6.2-1.1.8-1.6 1.6a7 7 0 00-.7 2.5c-.1 1 0 1.8.3 2.7 0 .3.2.6.4.9.4-.4 1-.6 1.5-.3.6.2.9 1 .6 1.6l-.1.4v.2m-2.3 1c-1.2-.7-2-1.8-2.5-3a8.3 8.3 0 01-.4-3.7c.1-1.3.5-2.5 1-3.5.7-1 1.5-2 2.4-2.4.8-2 2.1-3.4 3.7-4.4 1.6-1 3.5-1.4 5.5-1.6 1.3-1 3-1.7 5-2 1.7-.3 3.7-.2 6 .5l1.7.4c3.1.8 6.2 1.6 8.8 3.9l.4.3c1.3 1.1 2.7 2.3 3.5 4.8l1 .8c.5.4.9 1 1.1 1.8.9 2 .8 3.7 0 5-.3.6-.8 1.2-1.5 1.6l.5.7c.6.9.5 2.1.2 3.3-.3 1.1-1 2.3-1.6 3a10.3 10.3 0 01-5.2 3l-.1 1c-.2 1-.3 2 0 3.8.3 1.2.4 2.5.3 3.9 0 1.3-.3 2.6-.6 3.9a47 47 0 00-1.5 10.8c0 3.4.7 6.6 2.4 9.3a1.2 1.2 0 11-2 1.4c-2-3.1-2.8-6.9-2.9-10.7 0-3.8.7-7.8 1.6-11.4.3-1.2.5-2.3.5-3.5.1-1 0-2-.2-3l-3-3.7a43.7 43.7 0 00-3.5-3.4c-.9.2-1.6.3-2.3 0-.6 0-1-.3-1.4-.8a3 3 0 01-1.6.6c-1.4 0-2.7-.1-3.9-.5a7 7 0 01-3-1.8c-.7-.7-1-1.3-1.1-2l-1.3.3c-.8.2-1.7.3-2.6.2a5 5 0 01-1.2-.4c-.8-.4-1.4-1-1.9-1.6l-.3-.8"/>
  <path fill="gray" d="M85 82.4c.4.9.1 2-.8 2.5-.9.6-2 .2-2.6-.7l-.9-1.5c-2.6-4.3-8.2-13.3-7-19.9.9-4.5 2.8-8 4.7-11.5 2.5-4.5 5-9.2 5-16.4a22 22 0 00-7.3-16.6A27.8 27.8 0 0052.7 12c-6 1.1-11.5 4.4-15.5 8.6-4 4.2-6.6 9.4-6.6 14.4 0 1 .1 1.9.3 2.8.4 2-2 6.3-4.7 10.6l-2.9 5v.2s0 .2.2.2h.2l3.5.9 1.4.2c1 .2 1.7 1.2 1.4 2.3v.3l-.4 1-.6 1.8.6.2 2.4.3c1 0 1.9.9 1.8 2 0 1-.9 1.8-1.9 1.8a17 17 0 01-2.1-.3c1.7 1.3 1.2 3 .6 5-.2 1-.5 2-.2 3 1.3 2 7.8 2.8 12.2 3.4l1.5.2c2.3.4 3.8 1 5.2 2.3 1.2 1.3 2.2 3 3.5 6a1.9 1.9 0 11-3.5 1.4c-1-2.4-1.8-3.8-2.7-4.7-.7-.7-1.6-1-3-1.2l-1.5-.2c-5.2-.7-12.9-1.8-15-5.3V74c-1-2.3-.5-4.1-.1-5.7.2-.7.4-1.3-.8-1.6-1-.4-1.5-1.4-1.2-2.4.1-.5.5-.8.8-1-1-.5-1.3-1.7-.9-2.6l1-2.5a47.2 47.2 0 01-4-1.1c-.8-.4-1.4-1-1.8-1.9a3.8 3.8 0 01.1-3.6l3-5c2.2-3.8 4.4-7.4 4.2-8.1-.2-1.2-.3-2.3-.3-3.5 0-6 3-12 7.6-17A33.5 33.5 0 0157.4 7.9c8.3 0 15.8 2.8 21.3 7.7A25.6 25.6 0 0187.2 35c0 8.2-2.8 13.3-5.5 18.2a34.2 34.2 0 00-4.3 10.4c-1 5.2 4.1 13.3 6.5 17.2l1 1.7"/>
</svg>