<svg xmlns="http://www.w3.org/2000/svg" width="108.1" height="94.4">
  <path fill="none" stroke="#FFF" stroke-width="8.8" stroke-miterlimit="10" d="M83.8 47.5a36 36 0 00-40.5-35.7l-1.5 4S35 32.9 27 46.7c-8 13.7 5.3 18.8 11.7 19.6 6 .8 11.6 1.4 10.5 9.1l-.3 4.4.1 3.6a36 36 0 0034.7-36z"/>
  <path fill="#FDDC0D" d="M39.6 63.1a7 7 0 01-4.8-1.7c-.6-.7-.8-1.6-.4-2.3.5-.8 1.7-3 18.6 0 7 1.4 11.8.7 13.6-1.8 2.4-3.4-.6-10-1.9-12.3a1.2 1.2 0 012.1-1.2c.3.4 5.6 9.5 1.8 15-2.4 3.4-7.8 4.4-16 2.8a52.4 52.4 0 00-15.2-1.4c1 .4 2.5.7 3.5.2.6-.3 1.3 0 1.6.6.3.7 0 1.4-.6 1.7-.7.3-1.5.4-2.3.4"/>
  <path fill="none" stroke="#FFF" stroke-width="4.4" stroke-miterlimit="10" d="M39.6 63.1a7 7 0 01-4.8-1.7c-.6-.7-.8-1.6-.4-2.3.5-.8 1.7-3 18.6 0 7 1.4 11.8.7 13.6-1.8 2.4-3.4-.6-10-1.9-12.3a1.2 1.2 0 012.1-1.2c.3.4 5.6 9.5 1.8 15-2.4 3.4-7.8 4.4-16 2.8a52.4 52.4 0 00-15.2-1.4c1 .4 2.5.7 3.5.2.6-.3 1.3 0 1.6.6.3.7 0 1.4-.6 1.7-.7.3-1.5.4-2.3.4"/>
  <path fill="#FFF" d="M43.7 12.8l-1.3 3.4c0 .1-6.7 17.4-14.7 31-2.4 4.3-3 8-1.5 11 2.3 4.6 9 6.6 12.5 7.1h.3c4 .6 7.8 1 9.8 3.8 1.3 1.6 1.7 3.7 1.3 6.5a27 27 0 00-.3 4.2v2.6a35 35 0 10-6.1-69.5"/>
  <path fill="#0987A5" d="M47.8 84.5v-4.6c-.1-1.4 0-2.8.2-4.6.3-2.2 0-3.9-.8-5-1.5-2-4.9-2.4-8.4-2.9h-.4c-5-.7-11.5-3.3-14-8.4-1.8-3.6-1.3-8 1.6-12.9 7.8-13.4 14.4-30.5 14.5-30.7l1.7-4.5h.7a37 37 0 116 73.6h-1zm-4-71.7l-1.4 3.3c0 .2-6.7 17.5-14.7 31-2.4 4.3-3 8-1.5 11 2.3 4.7 9 6.7 12.5 7.2h.4c4 .6 7.7 1 9.7 3.7 1.3 1.6 1.7 3.8 1.3 6.6l-.3 4.2v2.5a35 35 0 10-6.1-69.5z"/>
  <path fill="#0987A5" d="M39.3 63.1a7 7 0 01-4.8-1.7c-.6-.7-.8-1.6-.3-2.3.4-.8 1.6-3 18.5.1 7.1 1.3 11.8.6 13.6-1.9 2.4-3.4-.5-10-1.9-12.3a1.2 1.2 0 112.2-1.2c.2.4 5.5 9.5 1.7 15-2.4 3.4-7.8 4.4-16 2.8A52.3 52.3 0 0037 60.2c1 .4 2.5.7 3.5.2.6-.3 1.4 0 1.7.6.2.7 0 1.4-.7 1.7-.6.3-1.4.4-2.3.4"/>
</svg>
