<svg xmlns="http://www.w3.org/2000/svg" width="108.1" height="94.4">
  <path fill="#FFF" d="M99.4 47.5a45.5 45.5 0 11-91 0 45.5 45.5 0 0191 0"/>
  <path fill="#0C77E2" d="M75 44a1.6 1.6 0 01-2.4 2.2 50 50 0 00-13-10.8 14 14 0 11-24 8.7c0-.3.3-.5.5-.5.3 0 .5 0 .6.3a6.5 6.5 0 103.9-8.8c-4.4 2.2-9 6-13.9 11.4-.6.7-1.6.7-2.3.1-.6-.6-.7-1.6 0-2.3 9-10 17.4-14.9 25.7-14.8 8.3 0 16.3 5 24.9 14.6"/>
  <path fill="#0C77E2" d="M77.8 52c-9.6 10-18.7 15.2-28 15.3-9 0-18-4.8-27.5-14.8-1.3.9-2.7 1-3.9.7a4.7 4.7 0 01-3.1-3.2 6.4 6.4 0 011.3-5.9 93 93 0 014.5-5c10-10.7 19.7-16 29.5-15.6C61.3 23.8 72 30.7 83 44a1.6 1.6 0 01-2.5 2C70 33.6 60.2 27.2 50.5 26.8c-8.8-.3-17.7 4.6-27 14.6-1.5 1.5-3 3.2-4.3 4.9-.9 1-1 2-.8 2.9.1.4.4.9 1 1 .3.1.8 0 1.4-.5.6-.5 1.2-.7 1.8-.6.7 0 1.2.4 1.6.8 9 9.6 17.3 14.3 25.6 14.2 7.7 0 15.5-4.3 23.8-12.4 1.2-1.2 6-1.6 4.2.3"/>
</svg>
