<svg xmlns="http://www.w3.org/2000/svg" width="108.1" height="94.4">
  <path fill="#DD1C4E" stroke="#FFF" stroke-width="9.6" stroke-linecap="round" stroke-linejoin="round" stroke-miterlimit="10" d="M53 31.2c1.4 2.6 3 4.9 4.6 7.2 1.8 2.6 3.6 5.2 4.8 8 1.2 2.8 2 5.6 2 8.5-.2 2.8-1 5.3-2.2 7.7-1 2.1-2.3 4.1-3.4 6.1l-.7 1.4c-.1.2-.2.3 0 .4 2.6 3.1 4.1 6.7 4.8 10.7l1 6v.4l.2.1a47.9 47.9 0 009.4-26.1 27.2 27.2 0 00-12.6-23.4c-4.9-3.3-7.5-8-8.8-13.5-.6-2.7-.9-5.5-.7-8.3v-.5l-.7 3.2c-.7 4.4.4 8.3 2.4 12.1"/>
  <path fill="#DD1C4E" stroke="#FFF" stroke-width="9.6" stroke-linecap="round" stroke-linejoin="round" stroke-miterlimit="10" d="M57.4 69.8c1.7-3 3.3-6 4.3-9.4 1.2-4 .9-8-.6-11.9a39 39 0 00-4.2-7.8c-1.8-2.6-3.7-5.2-5.2-8a24.2 24.2 0 01-3-8c-.3-2.7 0-5.3.7-7.9.9-3 2-5.9 3.3-8.8l.2-.6v-.1a27 27 0 00-7.6 8.6c-1.2 2-2.4 4-3 6.3-.7 1.9-.9 3.9-.8 5.9v1.2c-.2.4-.2.4-.6.2a4 4 0 01-1.7-2.4 2 2 0 00-.1 1c0 1 .3 1.7.8 2.4.3.2.2.4 0 .6l-7.7 6c-1.1.7-1.3 2.7-.3 3.6l1.2 1c.4.3.9.7 1.2 1.2.4.4.4.8 0 1.2 0 .2-.2.3-.3.4-.5.5-1 1-1.5 1.3-.6.5-.6 1-.5 1.7.2 1 .8 1.6 1.6 2 .4 0 .4.2.1.4L32.4 51c-.6.5-.5 1-.4 1.6.1.5.4.8.8 1 1.3.7 1.6 1.5.9 3-.4.7-.8 1.4-1 2.2-.5 2.4 1 4.7 3.3 5.4 1.5.5 3 .4 4.6.3 1.7-.1 3.5-.4 5.2-.4 3 0 5.5 1 7.9 2.5 1.4 1 2.6 2 3.7 3.2"/>
  <g>
    <path fill="#D53191" d="M53 31.2c1.4 2.6 3 4.9 4.6 7.2 1.8 2.6 3.6 5.2 4.8 8 1.2 2.8 2 5.6 2 8.5-.2 2.8-1 5.3-2.2 7.7-1 2.1-2.3 4.1-3.4 6.1l-.7 1.4c-.1.2-.2.3 0 .4 2.6 3.1 4.1 6.7 4.8 10.7l1 6v.4l.2.1a47.9 47.9 0 009.4-26.1 27.2 27.2 0 00-12.6-23.4c-4.9-3.3-7.5-8-8.8-13.5-.6-2.7-.9-5.5-.7-8.3v-.5l-.7 3.2c-.7 4.4.4 8.3 2.4 12.1"/>
    <path fill="#D53191" d="M57.4 69.8c1.7-3 3.3-6 4.3-9.4 1.2-4 .9-8-.6-11.9a39 39 0 00-4.2-7.8c-1.8-2.6-3.7-5.2-5.2-8a24.2 24.2 0 01-3-8c-.3-2.7 0-5.3.7-7.9.9-3 2-5.9 3.3-8.8l.2-.6v-.1a27 27 0 00-7.6 8.6c-1.2 2-2.4 4-3 6.3-.7 1.9-.9 3.9-.8 5.9v1.2c-.2.4-.2.4-.6.2a4 4 0 01-1.7-2.4 2 2 0 00-.1 1c0 1 .3 1.7.8 2.4.3.2.2.4 0 .6l-7.7 6c-1.1.7-1.3 2.7-.3 3.6l1.2 1c.4.3.9.7 1.2 1.2.4.4.4.8 0 1.2 0 .2-.2.3-.3.4-.5.5-1 1-1.5 1.3-.6.5-.6 1-.5 1.7.2 1 .8 1.6 1.6 2 .4 0 .4.2.1.4L32.4 51c-.6.5-.5 1-.4 1.6.1.5.4.8.8 1 1.3.7 1.6 1.5.9 3-.4.7-.8 1.4-1 2.2-.5 2.4 1 4.7 3.3 5.4 1.5.5 3 .4 4.6.3 1.7-.1 3.5-.4 5.2-.4 3 0 5.5 1 7.9 2.5 1.4 1 2.6 2 3.7 3.2"/>
    <g>
      <path fill="#D53191" d="M68.5 23.1c-1.2 1-2.2 2-3.2 3.2.7-1.3 1.4-2.6 2-4.1-1.1.1-2.2.3-3.2.6-1.3.5-2.4 1-3.4 2-.7.6-1.2 1.4-1.2 2.3 0 1.5 1 2.6 2.6 2.8.4 0 .5.2.7.5.5 1.1 1.4 1.8 2.7 1.8.9 0 1.6-.4 2.1-1.1.7-1 1-2.1 1.2-3.3.2-1.5.1-3-.2-4.5V23M76.2 18.5l-2.2 1c-.7.4-1.4.7-2 1.2 1.2.8 2.5 1.3 4 1.6 1.1.3 2.3.4 3.4 0 1.3-.2 2.1-1 2.3-2.4 0-1-.3-1.7-1-2.3-.2-.3-.3-.6-.2-1 .1-1.1-.2-2.1-1-2.8-1-.7-2-.8-3-.3-1.6.7-2.7 1.9-3.7 3.3-.5.7-1 1.5-1.3 2.4l2.4-.2 2.3-.5M73.5 26.4c-1-1.1-2.1-2.2-3.3-3.2-.2.4-.2.9-.3 1.4-.2 1.8-.2 3.6.5 5.3l.5 1c1.3 1.9 3.8 1.8 4.9-.2.2-.4.5-.7 1-.8 2.2-.3 3-2.6 1.8-4.4a6.1 6.1 0 00-2-1.7c-1.5-.9-3.2-1.3-4.9-1.5-.3 0-.3 0-.2.3.5 1.2 1 2.3 1.8 3.4l.2.4M68.5 18.6l.5-2.4.3-2.3c.1 1.6.3 3.1.7 4.7l2-2c.9-1.2 1.6-2.6 1.9-4.1.3-1.6-.3-3-1.7-3.4-.8-.4-1.6-.3-2.3.1-.5.2-.8.2-1.2 0-1.3-.6-2.6-.4-3.4.6-.8.8-.8 1.7-.7 2.7.4 2 1.5 3.7 2.9 5.1l1 1M67.2 19.2c-1-2.3-2.4-4.4-4.7-5.6a3 3 0 00-2.4-.3c-1.3.5-2.1 1.8-1.9 3.2 0 .4.2.6-.1 1-1 .8-1.3 1.8-1 3 .4 1.3 1.4 1.8 2.6 2 1.7.2 3.4-.1 5-.8l2-1c-1.3-1-2.7-1.6-4.2-2.2 1.5.4 3 .7 4.7.7M71 20.9c0-1-.7-1.7-1.7-1.7s-1.7.8-1.7 1.7c0 1 .8 1.7 1.7 1.7 1 0 1.7-.8 1.7-1.7"/>
    </g>
  </g>
</svg>