<svg xmlns="http://www.w3.org/2000/svg" width="108.1" height="94.4">
  <path stroke="#FFF" stroke-width="8.8" stroke-miterlimit="10" d="M53 87.7c-3-.1-7.1.3-11.2-.2-3-.4-5.7-1.7-8-4a28.7 28.7 0 01-5-35.6c1.5-2.5 1-4.7-.7-7a20 20 0 016.4-30.2c3.7-2 7.7-3 11.9-3.5 7-.7 14-.7 21 1.1 4 1 7.5 2.8 10.5 5.6 6.3 6 8 13.5 4.9 21.5-.8 2-1.7 4-3 5.7-1.7 2.5-1.7 4.8-.2 7.5a29 29 0 01-5 34.6c-3 3-6.5 4.4-10.6 4.5H53m1-70.5h-4.3c-3.8.3-7.5.8-10.8 2.9-4.5 2.8-5.9 7-4 11.9l1.1 2.4c1.3 2.5 2.8 3 5.4 1.8l1-.5a29 29 0 0124.4.5c2.3 1.1 3.8.7 5-1.6.8-1.3 1.5-2.8 1.8-4.3.8-3 .2-5.6-1.8-7.9-1.8-2-4-3.2-6.5-4A34.4 34.4 0 0054 17.2M31 64.4a38.4 38.4 0 0125-25 23.1 23.1 0 00-25 25"/>
  <path fill="#FFF" d="M75.5 26.2c0 6.5-5.3 11.7-11.7 11.7H42a11.7 11.7 0 010-23.4h21.8c6.4 0 11.7 5.3 11.7 11.7z"/>
  <path fill="#F5BF16" d="M53 87.7c-3-.1-7.1.3-11.2-.2-3-.4-5.7-1.7-8-4a28.7 28.7 0 01-5-35.6c1.5-2.5 1-4.7-.7-7a20 20 0 016.4-30.2c3.7-2 7.7-3 11.9-3.5 7-.7 14-.7 21 1.1 4 1 7.5 2.8 10.5 5.6 6.3 6 8 13.5 4.9 21.5-.8 2-1.7 4-3 5.7-1.7 2.5-1.7 4.8-.2 7.5a29 29 0 01-5 34.6c-3 3-6.5 4.4-10.6 4.5H53m1-70.5h-4.3c-3.8.3-7.5.8-10.8 2.9-4.5 2.8-5.9 7-4 11.9l1.1 2.4c1.3 2.5 2.8 3 5.4 1.8l1-.5a29 29 0 0124.4.5c2.3 1.1 3.8.7 5-1.6.8-1.3 1.5-2.8 1.8-4.3.8-3 .2-5.6-1.8-7.9-1.8-2-4-3.2-6.5-4A34.4 34.4 0 0054 17.2M31 64.4a38.4 38.4 0 0125-25 23.1 23.1 0 00-25 25"/>
</svg>