<svg xmlns="http://www.w3.org/2000/svg" width="108.1" height="100.7">
  <path fill="#5FBA46" stroke="#FFF" stroke-width="9.6" stroke-miterlimit="10" d="M47.6 33.1s-1-10.4-14.6-15.4c0 0-2.5-3.2 3.7-8.7 0 0 11.4 7 12.7 24.1h-1.8z"/>
  <path fill="#5FBA46" stroke="#FFF" stroke-width="3.7" stroke-miterlimit="10" d="M47.3 23.2S46 2.5 70.8 4.6c0 0-2.7 24.5-23.5 18.6"/>
  <path fill="#5FBA46" stroke="#FFF" stroke-width="9.6" stroke-miterlimit="10" d="M75.2 33.4c-12-8.6-25.8-1.7-25.8-1.7s-13.9-7-25.8 1.7c-12 8.6-10.3 25-5 36.7C23.7 81.8 33.7 90 38.4 90c5.1 0 6-3.5 10.9-3.5 4.8 0 5.7 3.5 10.9 3.5C65 90 75 81.8 80.3 70c5.2-11.8 6.9-28.1-5.1-36.7"/>
  <path fill="#FFF" stroke="#FFF" stroke-width="3.7" stroke-miterlimit="10" d="M33.6 34s-25.8 9.2 0 41.5c0 0-15-23.4 0-41.6"/>
  <path fill="#74D81D" d="M47.6 33.1s-1-10.4-14.6-15.4c0 0-2.5-3.2 3.7-8.7 0 0 11.4 7 12.7 24.1h-1.8z"/>
  <path fill="#74D81D" d="M47.3 23.2S46 2.5 70.8 4.6c0 0-2.7 24.5-23.5 18.6M75.2 33.4c-12-8.6-25.8-1.7-25.8-1.7s-13.9-7-25.8 1.7c-12 8.6-10.3 25-5 36.7C23.7 81.8 33.7 90 38.4 90c5.1 0 6-3.5 10.9-3.5 4.8 0 5.7 3.5 10.9 3.5C65 90 75 81.8 80.3 70c5.2-11.8 6.9-28.1-5.1-36.7"/>
  <path fill="#FFF" d="M33.6 34s-25.8 9.2 0 41.5c0 0-15-23.4 0-41.6"/>
  <path fill="#D7CB25" stroke="#FFF" stroke-width="2.9" stroke-miterlimit="10" d="M72.4 71.3h24.1v20.5H72.4z"/>
  <path fill="#5FBA46" stroke="#FFF" stroke-width="2.9" stroke-miterlimit="10" d="M72.4 71.3c0 1.2 5.4 2.2 12 2.2 6.7 0 12-1 12-2.2 0-1.3-5.3-2.3-12-2.3-6.6 0-12 1-12 2.3"/>
  <path fill="#5FBA46" stroke="#FFF" stroke-width="2.9" stroke-miterlimit="10" d="M84 96.8c9.1 0 13-2.4 13-2.5l.6-.4V69.5l-1.7 1a23.2 23.2 0 01-11 1.9c-5 0-10.8-.5-16.4-1-5.6-.5-11.4-1-16.3-1-6 0-10 .8-12.3 2.4l-.5.3V95l1.5-.5s3.5-1.2 10.7-1.2c5.4 0 11.5.6 18 2 5.2 1 10 1.6 14.4 1.6"/>
  <path fill="#FFF" stroke="#FFF" stroke-width="2.9" stroke-miterlimit="10" d="M96.5 71.4v22s-3.6 2.3-12.5 2.3c-3.8 0-8.4-.4-14.2-1.6-7.6-1.5-13.6-2-18.2-2-7.5 0-11 1.3-11 1.3V73.7c2.3-1.7 6.5-2.3 11.6-2.3 9.7 0 22.8 2 32.7 2 5 0 9-.5 11.6-2m-1.1-1.8a22.6 22.6 0 01-10.5 1.7c-4.9 0-10.7-.5-16.3-1-5.6-.5-11.5-1-16.4-1-6.3 0-10.4.8-13 2.6l-.8.7v23.8l2.8-1s3.5-1.2 10.4-1.2c5.3 0 11.3.7 17.8 2C74.7 97.3 79.6 98 84 98c9.3 0 13.2-2.5 13.7-2.7l1-.7V67.7l-3.3 1.9z"/>
  <path fill="#FFF" stroke="#FFF" stroke-width="2.9" stroke-miterlimit="10" d="M76.5 80.1a.4.4 0 01-.4-.4v-4h.9v4c0 .2-.2.4-.5.4M73.3 75.5V82c0 .4-.3.7-.7.7a.6.6 0 01-.6-.7v-6.7h1.3M83.8 77.5a.4.4 0 01-.5-.4v-3.7h.9v3.7c0 .2-.2.4-.4.4M80.3 80.1a.4.4 0 01-.5-.4v-3.8h.9v3.8c0 .2-.2.4-.4.4M50.5 79.3a.4.4 0 01-.4-.5v-4.7h.8v4.7c0 .3-.2.5-.4.5M44.1 74.8V81c0 .3-.3.6-.6.6a.6.6 0 01-.6-.6v-5.8l1.2-.4M46.8 79.3a.4.4 0 01-.4-.5v-4.4h.8v4.4c0 .3-.2.5-.4.5M90.5 77.5a.4.4 0 01-.4-.4v-4h.9v4c0 .2-.2.4-.5.4M54.4 74.1v4.7c0 .3-.2.5-.4.5a.4.4 0 01-.4-.5v-4.7h.8M94 77.5a.4.4 0 01-.4-.4v-4.5l.9-.3v4.8c0 .2-.2.4-.5.4M68.7 80.1a.4.4 0 01-.4-.4V75h.8v4.6c0 .2-.1.4-.4.4M88.3 73.3v6.2c0 .3-.3.6-.6.6a.6.6 0 01-.7-.6v-6.1h1.3M57.9 82a.6.6 0 01-.6-.7v-7h1.2v7c0 .3-.2.6-.6.6M65.2 80.1a.4.4 0 01-.4-.4v-5l.8.1v4.9c0 .2-.1.4-.4.4M61.5 80.1a.4.4 0 01-.4-.4v-5.2h.8v5.2c0 .2-.2.4-.4.4"/>
  <path fill="#D7CB25" d="M72.4 71.3h24.1v20.5H72.4z"/>
  <path fill="#74D81D" d="M72.4 71.3c0 1.2 5.4 2.2 12 2.2 6.7 0 12-1 12-2.2 0-1.3-5.3-2.3-12-2.3-6.6 0-12 1-12 2.3"/>
  <path fill="#74D81D" d="M84 96.8c9.1 0 13-2.4 13-2.5l.6-.4V69.5l-1.7 1a23.2 23.2 0 01-11 1.9c-5 0-10.8-.5-16.4-1-5.6-.5-11.4-1-16.3-1-6 0-10 .8-12.3 2.4l-.5.3V95l1.5-.5s3.5-1.2 10.7-1.2c5.4 0 11.5.6 18 2 5.2 1 10 1.6 14.4 1.6"/>
  <path fill="#FFF" d="M96.5 71.4v22s-3.6 2.3-12.5 2.3c-3.8 0-8.4-.4-14.2-1.6-7.6-1.5-13.6-2-18.2-2-7.5 0-11 1.3-11 1.3V73.7c2.3-1.7 6.5-2.3 11.6-2.3 9.7 0 22.8 2 32.7 2 5 0 9-.5 11.6-2m-1.1-1.8a22.6 22.6 0 01-10.5 1.7c-4.9 0-10.7-.5-16.3-1-5.6-.5-11.5-1-16.4-1-6.3 0-10.4.8-13 2.6l-.8.7v23.8l2.8-1s3.5-1.2 10.4-1.2c5.3 0 11.3.7 17.8 2C74.7 97.3 79.6 98 84 98c9.3 0 13.2-2.5 13.7-2.7l1-.7V67.7l-3.3 1.9z"/>
  <path fill="#FFF" d="M76.5 80.1a.4.4 0 01-.4-.4v-4h.9v4c0 .2-.2.4-.5.4M73.3 75.5V82c0 .4-.3.7-.7.7a.6.6 0 01-.6-.7v-6.7h1.3M83.8 77.5a.4.4 0 01-.5-.4v-3.7h.9v3.7c0 .2-.2.4-.4.4M80.3 80.1a.4.4 0 01-.5-.4v-3.8h.9v3.8c0 .2-.2.4-.4.4M50.5 79.3a.4.4 0 01-.4-.5v-4.7h.8v4.7c0 .3-.2.5-.4.5M44.1 74.8V81c0 .3-.3.6-.6.6a.6.6 0 01-.6-.6v-5.8l1.2-.4M46.8 79.3a.4.4 0 01-.4-.5v-4.4h.8v4.4c0 .3-.2.5-.4.5M90.5 77.5a.4.4 0 01-.4-.4v-4h.9v4c0 .2-.2.4-.5.4M54.4 74.1v4.7c0 .3-.2.5-.4.5a.4.4 0 01-.4-.5v-4.7h.8M94 77.5a.4.4 0 01-.4-.4v-4.5l.9-.3v4.8c0 .2-.2.4-.5.4M68.7 80.1a.4.4 0 01-.4-.4V75h.8v4.6c0 .2-.1.4-.4.4M88.3 73.3v6.2c0 .3-.3.6-.6.6a.6.6 0 01-.7-.6v-6.1h1.3M57.9 82a.6.6 0 01-.6-.7v-7h1.2v7c0 .3-.2.6-.6.6M65.2 80.1a.4.4 0 01-.4-.4v-5l.8.1v4.9c0 .2-.1.4-.4.4M61.5 80.1a.4.4 0 01-.4-.4v-5.2h.8v5.2c0 .2-.2.4-.4.4"/>
</svg>