<svg xmlns="http://www.w3.org/2000/svg" width="108.1" height="100.7">
  <path fill="#05738C" stroke="#FFF" stroke-width="9.2" stroke-miterlimit="10" d="M74.7 48.3V48l.1-.6c0-2.7-2.8-4.8-6.2-4.8-3.5 0-6.3 2.1-6.3 4.8v.6l.1.3H56V29.5l.3.1.9.1c2.5 0 4.5-2.6 4.5-5.8 0-3.2-2-5.8-4.5-5.8a3 3 0 00-.9.1l-.3.1v-7.5h.3A37.2 37.2 0 0193.5 48v.3H74.7z"/>
  <path fill="#FFF" stroke="#FFF" stroke-width="9.2" stroke-miterlimit="10" d="M56.3 11.1a36.9 36.9 0 0136.9 37H75v-.7c0-2.8-2.9-5.1-6.5-5.1s-6.6 2.3-6.6 5v.7h-5.7V30h.9c2.7 0 4.9-2.7 4.9-6 0-3.4-2.2-6.2-5-6.2l-.8.1v-6.8m0-.6h-.6v8.2l.7-.2h.8c2.3 0 4.2 2.4 4.2 5.4 0 3-1.9 5.5-4.2 5.5h-.8l-.7-.3V48.6h7.1l-.1-.7v-.5c0-2.5 2.6-4.5 5.9-4.5 3.3 0 6 2 6 4.5l-.1.5-.1.7h19.4V48a37.5 37.5 0 00-37.5-37.5"/>
  <path fill="#05738C" stroke="#FFF" stroke-width="9.2" stroke-miterlimit="10" d="M56 88.3V75.8h.4c.3.2.6.2 1 .2 2.8 0 5.2-2.8 5.2-6.3s-2.4-6.2-5.2-6.2l-1 .1H56V50.9h8.5a4.2 4.2 0 01-1.5-2.3v-.7c0-2.5 2.5-4.5 5.6-4.5 3 0 5.6 2 5.6 4.5v.7c-.3.8-.8 1.6-1.5 2.3h20.8v.3a37.2 37.2 0 01-37.2 37.2H56v0z"/>
  <path fill="#FFF" stroke="#FFF" stroke-width="9.2" stroke-miterlimit="10" d="M68.6 43.6c3 0 5.3 1.9 5.3 4.2v.6c-.3 1-1 2-2.2 2.7h21.5a36.9 36.9 0 01-37 36.9V76.2l1.2.1c3 0 5.5-3 5.5-6.6 0-3.6-2.5-6.5-5.5-6.5l-1.1.1V51.1h9.1c-1-.7-1.8-1.6-2-2.7l-.1-.6c0-2.3 2.3-4.2 5.3-4.2m0-.6c-3.3 0-6 2.1-6 4.8l.1.7c.2.7.5 1.4 1 2h-8V64l.7-.2a4 4 0 011-.1c2.7 0 4.9 2.7 4.9 6s-2.2 5.9-5 5.9l-.9-.1-.7-.2V88.6h.6A37.5 37.5 0 0093.8 51v-.6H73.4a4.1 4.1 0 001-2.7c0-2.7-2.6-4.8-5.8-4.8"/>
  <path fill="#05738C" stroke="#FFF" stroke-width="9.2" stroke-miterlimit="10" d="M53.5 87.9a37.2 37.2 0 01-37.2-37.2v-.3h11.8l-.1.4-.1.8c0 2.7 2.7 4.8 6 4.8 3.4 0 6.2-2.1 6.2-4.8l-.1-.8v-.4h13.8v15.2c.6-.6 1.3-1 2-1.3l1.2-.2c2.6 0 4.8 2.5 4.8 5.6 0 3.1-2.2 5.6-4.8 5.6a4 4 0 01-1.2-.1c-.7-.3-1.4-.7-2-1.4V88h-.3 0z"/>
  <path fill="#FFF" stroke="#FFF" stroke-width="9.2" stroke-miterlimit="10" d="M53.5 50.7v15.8c.6-1 1.4-1.6 2.4-2H57c2.5 0 4.4 2.3 4.4 5.2 0 3-2 5.3-4.4 5.3a4 4 0 01-1-.1c-1-.3-2-1-2.5-2v14.7a36.9 36.9 0 01-36.9-36.9h11v1c0 2.7 2.9 5 6.4 5s6.4-2.3 6.4-5l-.1-1h13.2m.6-.6H39.5l.2.7v.8c0 2.5-2.5 4.5-5.7 4.5s-5.8-2-5.8-4.5v-.8l.3-.7H16v.6a37.5 37.5 0 0037.5 37.5h.6V74.6a4.7 4.7 0 003 1c2.7 0 5-2.6 5-5.9 0-3.2-2.3-5.9-5-5.9a4.4 4.4 0 00-3 1.1V50.1h0z"/>
  <path fill="#05738C" stroke="#FFF" stroke-width="9.2" stroke-miterlimit="10" d="M34 55.8c-3.2 0-5.7-2-5.7-4.6l.1-1c.2-.7.6-1.3 1.2-1.9H16.3V48a37.2 37.2 0 0137.2-37.2h.3v9.5c.5-.7 1.2-1.2 2-1.4l1-.2c2.3 0 4.2 2.4 4.2 5.2 0 2.9-1.9 5.2-4.2 5.2l-1-.1c-.8-.3-1.5-.8-2-1.5v20.8H38.4c.6.6 1 1.2 1.2 2v1c0 2.5-2.5 4.5-5.6 4.5"/>
  <path fill="#FFF" stroke="#FFF" stroke-width="9.2" stroke-miterlimit="10" d="M53.5 11.1v10.3c.5-1.1 1.4-2 2.4-2.2l.9-.2c2.2 0 3.9 2.2 3.9 5s-1.7 4.8-3.9 4.8l-1-.1c-1-.3-1.8-1.2-2.3-2.3V48h-16c1 .6 1.5 1.4 1.8 2.3l.1 1c0 2.3-2.4 4.2-5.4 4.2-3 0-5.4-1.9-5.4-4.3l.1-.9c.3-.9.9-1.7 1.7-2.3H16.6a36.9 36.9 0 0136.9-36.9m.6-.6h-.6A37.5 37.5 0 0016 48v.6h12.9a4.5 4.5 0 00-1 2.6c0 2.7 2.8 5 6 5 3.4 0 6-2.3 6-5a4.2 4.2 0 00-.8-2.6h15V28.3c.5.4 1 .8 1.6 1l1.1.1c2.5 0 4.5-2.5 4.5-5.5s-2-5.5-4.5-5.5c-.4 0-.7 0-1 .2-.7.2-1.2.5-1.7 1v-9.1h0z"/>
  <g>
    <path fill="#3ADBD2" d="M74.7 48.3V48l.1-.6c0-2.7-2.8-4.8-6.2-4.8-3.5 0-6.3 2.1-6.3 4.8v.6l.1.3H56V29.5l.3.1.9.1c2.5 0 4.5-2.6 4.5-5.8 0-3.2-2-5.8-4.5-5.8a3 3 0 00-.9.1l-.3.1v-7.5h.3A37.2 37.2 0 0193.5 48v.3H74.7z"/>
    <path fill="#FFF" d="M56.3 11.1a36.9 36.9 0 0136.9 37H75v-.7c0-2.8-2.9-5.1-6.5-5.1s-6.6 2.3-6.6 5v.7h-5.7V30h.9c2.7 0 4.9-2.7 4.9-6 0-3.4-2.2-6.2-5-6.2l-.8.1v-6.8m0-.6h-.6v8.2l.7-.2h.8c2.3 0 4.2 2.4 4.2 5.4 0 3-1.9 5.5-4.2 5.5h-.8l-.7-.3V48.6h7.1l-.1-.7v-.5c0-2.5 2.6-4.5 5.9-4.5 3.3 0 6 2 6 4.5l-.1.5-.1.7h19.4V48a37.5 37.5 0 00-37.5-37.5"/>
    <path fill="#3ADBD2" d="M56 88.3V75.8h.4c.3.2.6.2 1 .2 2.8 0 5.2-2.8 5.2-6.3s-2.4-6.2-5.2-6.2l-1 .1H56V50.9h8.5a4.2 4.2 0 01-1.5-2.3v-.7c0-2.5 2.5-4.5 5.6-4.5 3 0 5.6 2 5.6 4.5v.7c-.3.8-.8 1.6-1.5 2.3h20.8v.3a37.2 37.2 0 01-37.2 37.2H56z"/>
    <path fill="#FFF" d="M68.6 43.6c3 0 5.3 1.9 5.3 4.2v.6c-.3 1-1 2-2.2 2.7h21.5a36.9 36.9 0 01-37 36.9V76.2l1.2.1c3 0 5.5-3 5.5-6.6 0-3.6-2.5-6.5-5.5-6.5l-1.1.1V51.1h9.1c-1-.7-1.8-1.6-2-2.7l-.1-.6c0-2.3 2.3-4.2 5.3-4.2m0-.6c-3.3 0-6 2.1-6 4.8l.1.7c.2.7.5 1.4 1 2h-8V64l.7-.2a4 4 0 011-.1c2.7 0 4.9 2.7 4.9 6s-2.2 5.9-5 5.9l-.9-.1-.7-.2V88.6h.6A37.5 37.5 0 0093.8 51v-.6H73.4a4.1 4.1 0 001-2.7c0-2.7-2.6-4.8-5.8-4.8"/>
    <path fill="#3ADBD2" d="M53.5 87.9a37.2 37.2 0 01-37.2-37.2v-.3h11.8l-.1.4-.1.8c0 2.7 2.7 4.8 6 4.8 3.4 0 6.2-2.1 6.2-4.8l-.1-.8v-.4h13.8v15.2c.6-.6 1.3-1 2-1.3l1.2-.2c2.6 0 4.8 2.5 4.8 5.6 0 3.1-2.2 5.6-4.8 5.6a4 4 0 01-1.2-.1c-.7-.3-1.4-.7-2-1.4V88h-.3z"/>
    <path fill="#FFF" d="M53.5 50.7v15.8c.6-1 1.4-1.6 2.4-2H57c2.5 0 4.4 2.3 4.4 5.2 0 3-2 5.3-4.4 5.3a4 4 0 01-1-.1c-1-.3-2-1-2.5-2v14.7a36.9 36.9 0 01-36.9-36.9h11v1c0 2.7 2.9 5 6.4 5s6.4-2.3 6.4-5l-.1-1h13.2m.6-.6H39.5l.2.7v.8c0 2.5-2.5 4.5-5.7 4.5s-5.8-2-5.8-4.5v-.8l.3-.7H16v.6a37.5 37.5 0 0037.5 37.5h.6V74.6a4.7 4.7 0 003 1c2.7 0 5-2.6 5-5.9 0-3.2-2.3-5.9-5-5.9a4.4 4.4 0 00-3 1.1V50.1z"/>
    <path fill="#3ADBD2" d="M34 55.8c-3.2 0-5.7-2-5.7-4.6l.1-1c.2-.7.6-1.3 1.2-1.9H16.3V48a37.2 37.2 0 0137.2-37.2h.3v9.5c.5-.7 1.2-1.2 2-1.4l1-.2c2.3 0 4.2 2.4 4.2 5.2 0 2.9-1.9 5.2-4.2 5.2l-1-.1c-.8-.3-1.5-.8-2-1.5v20.8H38.4c.6.6 1 1.2 1.2 2v1c0 2.5-2.5 4.5-5.6 4.5"/>
    <path fill="#FFF" d="M53.5 11.1v10.3c.5-1.1 1.4-2 2.4-2.2l.9-.2c2.2 0 3.9 2.2 3.9 5s-1.7 4.8-3.9 4.8l-1-.1c-1-.3-1.8-1.2-2.3-2.3V48h-16c1 .6 1.5 1.4 1.8 2.3l.1 1c0 2.3-2.4 4.2-5.4 4.2-3 0-5.4-1.9-5.4-4.3l.1-.9c.3-.9.9-1.7 1.7-2.3H16.6a36.9 36.9 0 0136.9-36.9m.6-.6h-.6A37.5 37.5 0 0016 48v.6h12.9a4.5 4.5 0 00-1 2.6c0 2.7 2.8 5 6 5 3.4 0 6-2.3 6-5a4.2 4.2 0 00-.8-2.6h15V28.3c.5.4 1 .8 1.6 1l1.1.1c2.5 0 4.5-2.5 4.5-5.5s-2-5.5-4.5-5.5c-.4 0-.7 0-1 .2-.7.2-1.2.5-1.7 1v-9.1z"/>
  </g>
</svg>