<svg xmlns="http://www.w3.org/2000/svg" width="108.1" height="100.7">
  <path fill="#FFF" stroke="#FFF" stroke-width="9.4" stroke-miterlimit="10" d="M20.1 65.5c.9 1 .9 2.4 1.3 3.7a33.6 33.6 0 0045.1 19.5 32.3 32.3 0 0114.1-50 33.6 33.6 0 00-61 18.9c0 .6-.2 1.2-.3 1.7l.8 6.2z"/>
  <path fill="#FFF" stroke="#FFF" stroke-width="9.4" stroke-miterlimit="10" d="M61 22.6c8.6 0 15.6-6.3 16.7-14.8.2-1.5-.3-2-1.5-2.3a17 17 0 00-21.7 14.7c0 1 .3 1.3 1.1 1.5 1.8.6 3.6.9 5.4.9M40 10.8c-4.7.4-4.7.7-3.2 4.8 2 5 7.6 7.7 12.7 6.3 1-.3 1.5-.7 1.3-2-1-5.3-5.4-9.1-10.8-9"/>
  <path fill="#F89E1B" d="M61 22.6c8.6 0 15.6-6.3 16.7-14.8.2-1.5-.3-2-1.5-2.3a17 17 0 00-21.7 14.7c0 1 .3 1.3 1.1 1.5 1.8.6 3.6.9 5.4.9M40 10.8c-4.7.4-4.7.7-3.2 4.8 2 5 7.6 7.7 12.7 6.3 1-.3 1.5-.7 1.3-2-1-5.3-5.4-9.1-10.8-9"/>
  <circle fill="#F89E1B" cx="52.2" cy="58" r="33.6"/>
  <circle fill="#FFF" cx="70.7" cy="67.9" r="23.6"/>
  <path fill="#FFF" stroke="#FFF" stroke-width="8.2" stroke-miterlimit="10" d="M95.8 67.4l-.2 1A25 25 0 0146 73.2 25.1 25.1 0 0190 52c2.4 3 3.8 6.5 5 10l.8 5.3zM92 65.2a21.8 21.8 0 00-24.4-19 22 22 0 00-18.8 24.5 22 22 0 0024.2 19 21.9 21.9 0 0019-24.5"/>
  <path fill="#F89E1B" d="M68 64.3l-2.7-13.1c-.2-1-.6-1.2-1.6-.8a20 20 0 00-7.2 5c-.7.7-.7 1.1.2 1.7l11.4 7.2M66.2 67.3c-4.1-2.7-7.9-5-11.5-7.5-.9-.6-1.1-.2-1.4.5a20 20 0 00-1.6 8.8c0 1 .5 1.3 1.5 1l13-2.8M67 70.7l-13.4 2.9c-.8.1-1 .4-.6 1.1 1.2 3 3 5.5 5.4 7.6.6.5.9.5 1.3-.2L67 70.7M69.9 72.5L62.5 84c-.5.7 0 1 .4 1.2 3 1.3 6 1.6 9 1.6.7 0 1.1-.2 1-1l-3-13.3"/>
  <path fill="#FFF" stroke="#FFF" stroke-width="8.2" stroke-miterlimit="10" d="M74.4 65.5c4.6-1 8.8-2 13-2.8.7-.2 1.1-.4.8-1.3A19 19 0 0083 54c-.5-.5-.9-.5-1.3.2l-7.3 11.4M75 68.8l11.3 7.3c.7.5 1 .3 1.4-.5 1.2-2.8 1.7-5.7 1.6-8.7 0-1-.4-1-1.2-.9l-13 2.8"/>
  <path fill="#F89E1B" d="M85.3 79.5L73.6 72c-.2 1.9.5 3.4.8 5l1.7 7.8c.2.8.5 1 1.3.7 3.1-1.3 5.8-3.2 8-6"/>
  <path fill="#F89E1B" d="M95.8 67.4l-.2 1A25 25 0 0146 73.2 25.1 25.1 0 0190 52c2.4 3 3.8 6.5 5 10l.8 5.3zM92 65.2a21.8 21.8 0 00-24.4-19 22 22 0 00-18.8 24.5 22 22 0 0024.2 19 21.9 21.9 0 0019-24.5"/>
  <path fill="#F89E1B" d="M74.4 65.5c4.6-1 8.8-2 13-2.8.7-.2 1.1-.4.8-1.3A19 19 0 0083 54c-.5-.5-.9-.5-1.3.2l-7.3 11.4M71.5 63.7l7.2-11.2c.5-.6.6-1-.3-1.4a19 19 0 00-9-1.8c-.7 0-.9.3-.7 1.1l2.8 13.3M75 68.8l11.3 7.3c.7.5 1 .3 1.4-.5 1.2-2.8 1.7-5.7 1.6-8.7 0-1-.4-1-1.2-.9l-13 2.8"/>
</svg>