<svg xmlns="http://www.w3.org/2000/svg" width="108.1" height="100.7">
  <path fill="#FFF" stroke="#FFF" stroke-width="6" stroke-miterlimit="10" d="M21.3 44A39 39 0 0048 81.3c6.4 2 12.7 1.6 19-1 1.5-.7 3-1.7 4-3a6 6 0 001.6-2.8c.3-1.3 0-1.8-1.3-2-11.9-2-17.5-10.5-18.9-20.6-.6-4.1-.2-8.3 0-12.5.2-2.2.3-4.5-.2-6.7a13.5 13.5 0 00-18.5-10c-7 2.7-10.5 8.2-12 15.3-.4 2-.5 4.2-.5 5.8"/>
  <path fill="#E85025" stroke="#FFF" stroke-width="6" stroke-miterlimit="10" d="M55.4 22c.3-1 .4-2 .5-3 .4-4 .2-8.2.2-12.2 0-.8.1-1.2 1-1.2h10.4c.8 0 1 .2 1 1V12A47 47 0 0163 36.6a22.4 22.4 0 00-.1 20c2 5 6 8 11.5 8.8 3.3.5 6.5-.1 9.7-.7 9.7-1.9 16.4 3 17.6 12.7.5 5 .2 9.9.3 14.8 0 .9-.6.8-1.1.8H90.7c-1 0-1.2-.3-1.2-1.2v-8.3c0-1 0-2-.4-2.9-.8-2.6-3.7-4-6.2-2l-4.4 3.7a33.9 33.9 0 01-36.8 5.5 45.2 45.2 0 01-26.3-29.4c-2.6-8-3.4-16.1-1-24.3 3.2-10.8 12.9-19.6 23.9-20 6.6-.1 12.5 1.6 16.5 7.5.1.2.2.4.6.5M21.3 44A39 39 0 0048 81.4c6.4 2 12.7 1.6 18.9-1 1.6-.7 3-1.7 4.2-3a6 6 0 001.5-2.8c.3-1.3 0-1.7-1.3-2-12-2-17.5-10.4-19-20.5-.5-4.2 0-8.4.2-12.5.1-2.3.2-4.6-.3-6.8a13.5 13.5 0 00-18.5-10c-7 2.8-10.5 8.3-12 15.3-.4 2.1-.5 4.3-.5 5.9"/>
  <path fill="#E85025" stroke="#FFF" stroke-width="6" stroke-miterlimit="10" d="M56 79.4c3.4 0 6.8-.5 10-2 .6-.4 1.4-.7 1.3-1.6 0-1-.8-1-1.5-1.3a24.9 24.9 0 01-16-19.3C49.2 53 49.2 53 47 53H26.6c-.7 0-1 0-.8 1 4 13 12.4 21.3 25.5 25 1.5.4 3 .4 4.6.4"/>
  <g>
    <path fill="#FFF" d="M21.3 44A39 39 0 0048 81.3c6.4 2 12.7 1.6 19-1 1.5-.7 3-1.7 4-3a6 6 0 001.6-2.8c.3-1.3 0-1.8-1.3-2-11.9-2-17.5-10.5-18.9-20.6-.6-4.1-.2-8.3 0-12.5.2-2.2.3-4.5-.2-6.7a13.5 13.5 0 00-18.5-10c-7 2.7-10.5 8.2-12 15.3-.4 2-.5 4.2-.5 5.8"/>
    <path fill="#71BF54" d="M55.4 22c.3-1 .4-2 .5-3 .4-4 .2-8.2.2-12.2 0-.8.1-1.2 1-1.2h10.4c.8 0 1 .2 1 1V12A47 47 0 0163 36.6a22.4 22.4 0 00-.1 20c2 5 6 8 11.5 8.8 3.3.5 6.5-.1 9.7-.7 9.7-1.9 16.4 3 17.6 12.7.5 5 .2 9.9.3 14.8 0 .9-.6.8-1.1.8H90.7c-1 0-1.2-.3-1.2-1.2v-8.3c0-1 0-2-.4-2.9-.8-2.6-3.7-4-6.2-2l-4.4 3.7a33.9 33.9 0 01-36.8 5.5 45.2 45.2 0 01-26.3-29.4c-2.6-8-3.4-16.1-1-24.3 3.2-10.8 12.9-19.6 23.9-20 6.6-.1 12.5 1.6 16.5 7.5.1.2.2.4.6.5M21.3 44A39 39 0 0048 81.4c6.4 2 12.7 1.6 18.9-1 1.6-.7 3-1.7 4.2-3a6 6 0 001.5-2.8c.3-1.3 0-1.7-1.3-2-12-2-17.5-10.4-19-20.5-.5-4.2 0-8.4.2-12.5.1-2.3.2-4.6-.3-6.8a13.5 13.5 0 00-18.5-10c-7 2.8-10.5 8.3-12 15.3-.4 2.1-.5 4.3-.5 5.9"/>
    <path fill="#71BF54" d="M56 79.4c3.4 0 6.8-.5 10-2 .6-.4 1.4-.7 1.3-1.6 0-1-.8-1-1.5-1.3a24.9 24.9 0 01-16-19.3C49.2 53 49.2 53 47 53H26.6c-.7 0-1 0-.8 1 4 13 12.4 21.3 25.5 25 1.5.4 3 .4 4.6.4"/>
  </g>
</svg>