<svg xmlns="http://www.w3.org/2000/svg" width="108.1" height="100.7">
  <path fill="#D21C5E" stroke="#FFF" stroke-width="8.3" stroke-miterlimit="10" d="M94.4 45.3l2-3c3.8-6.2 7.4-12 6-15.4-1.7-4-10.5-6-26.3-6h-.5c-4 6.9-5.3 15.2-5.7 21 .9 6.3.1 13-2.2 20a38 38 0 0026.7-16.6M61.7 21.3h-.9c3.2 4.2 5.5 8.2 7 12.4A48 48 0 0172 21c-3.2 0-6.6.2-10.3.4M64.2 62.9a42.4 42.4 0 002.6-20.7c-1-7.1-4.4-14-10-20.7h-1c-3.9 0-7.8-.2-11.7-.4l-11-.3C21.9 20.8 15 22.1 10 32 2.5 45.9 4 60.1 5.5 72.6l.8 7.9c.7 9 1.9 15 5.4 15 2.8 0 2.8-3.2 8.7-9.6l.6-.4C21.3 85.5 56 73 64.2 63"/>
  <g>
    <path fill="#E85325" d="M94.3 45.3l2-3c3.8-6.2 7.4-12 6-15.4-1.7-4-10.5-6-26.3-6h-.5c-4 6.9-5.3 15.2-5.7 21 .9 6.3.2 13-2.1 20 5.5-.8 19-4 26.6-16.6M61.6 21.3h-.8c3.1 4.2 5.4 8.2 7 12.4A48 48 0 0172 21c-3.2 0-6.7.2-10.4.4M64 62.9a42.5 42.5 0 002.7-20.5v-.2c-1-7.1-4.3-14-10-20.7h-.9c-3.9 0-7.9-.2-11.7-.4l-11-.3C21.8 20.8 15 22.1 10 32 2.5 45.9 4 60.1 5.5 72.6l.8 7.9c.7 9 1.9 15 5.4 15 2.8 0 10.7-6.6 16.5-13l.6-.3c.4-.2 27.3-9.3 35.3-19.3"/>
  </g>
</svg>