<svg xmlns="http://www.w3.org/2000/svg" width="108.1" height="100.7">
  <path fill="#5854A1" stroke="#FFF" stroke-width="10" stroke-miterlimit="10" d="M43 94.4l.3-3.7c.2-2.3.5-4.6 0-6.9-.5-2-1.1-4.1-2-6a8.6 8.6 0 00-7.3-5.5c-1.8-.3-3.5-.2-5.3-.3-2.2-.1-4.3-.4-6.2-1.3-.6-.2-1-.6-1.5-1a3.3 3.3 0 01-1.1-3.6c.1-.6.4-1.2.7-1.7.7-.8.8-1.8.6-2.8-.3-1-.5-2-1.2-2.8l-.2-.4c-.4-.9-.3-1.5.6-2l-.3-.1c-.8-.3-1-1.3-.5-1.9.4-.4.7-.8.9-1.3l.7-2.6c.1-.4 0-.7-.4-1l-1-.6-1.5-.8c-1-.7-1.2-1.5-.3-2.5a9 9 0 01.9-.9l3.2-3c2.2-2.4 3.3-5 3.7-8.1.4-3.1 1-6.1 2.2-9 1.7-4.3 4.6-7.6 8.5-10a36.5 36.5 0 0123.4-5.2c5.5.6 10.7 2 15.6 4.9 4.4 2.6 7.4 6.4 9.2 11 1.5 4 2.1 8 1.8 12-.3 3.5-1.3 6.7-3.2 9.6l-4.6 7.4a52.3 52.3 0 00-7.4 21c-.2 2-.1 4 .1 6l1.1 9.5.6 3.6H43h0zm16.4-64.7l1.4-.1c.3-.1.4-.3.4-.7l-.3-1.1c0-.4 0-.7.4-.8.5-.2 1-.8 1.6-.3l.2.1.6.7c.4.4.5.4 1 0l.7-.7c.6-.5.6-.6 0-1.1-1.2-1.1-1.1-.9-.4-2.3.2-.4.5-.5.8-.4l1.1.3c.4 0 .6 0 .7-.4l.3-1.5c0-.4-.2-.6-.6-.6l-1.1-.2c-.3 0-.6-.2-.6-.5 0-.6-.4-1.1.1-1.7h.3l1-.5c.3-.2.4-.4.2-.7l-.6-1.3c-.2-.4-.4-.5-.8-.3l-1 .6c-.4.2-.7.1-.8-.1-.3-.5-1-.7-.9-1.4l.2-.2.4-.9c.3-.4.2-.6-.2-.8l-1-.5c-.7-.4-.8-.4-1.1.4-.6 1.3-.4 1.2-2 1-.4-.1-.6-.3-.6-.7l-.1-1c0-.5-.2-.7-.7-.6l-1.1.2c-.8 0-.8.2-.7 1 .3 1.5.4 1.3-1 2-.4.1-.6 0-.9-.2l-.8-.9c-.2-.3-.5-.3-.7 0l-.8.8c-.6.6-.6.7 0 1.2 1.1 1 1 .8.3 2.3-.2.3-.4.4-.8.3l-1.1-.2c-.4 0-.6 0-.7.4a9 9 0 00-.2 1.5c0 .4.1.5.5.6l1 .1c.5 0 .7.2.7.7l.2.8c0 .4-.1.7-.5.8l-1 .5c-.4.1-.5.3-.3.7l.5 1c.4.8.5.8 1.2.4 1.4-.8 1-.8 2.2.4.3.2.3.5.1.8l-.6 1c-.2.3 0 .6.2.7l1 .6c.8.4.9.3 1.2-.4.7-1.3.4-1.3 2-1 .4 0 .6.3.6.6l.2 1.2c0 .4.2.5.7.4m14-5.8c0-.3-.2-.5-.6-.5l-1.3-.1c-.5 0-.7.1-.7.6V25c0 .3-.2.5-.6.5-.5 0-1 .6-1.5 0l-.2-.2-.5-.9c-.2-.3-.4-.4-.8-.2L66 25c-.3.2-.4.5-.1.8l.6 1c.2.3.2.6 0 .8-.4.4-.6 1-1.3 1l-.3-.1-1-.5c-.3-.1-.5 0-.7.3l-.6 1.3c-.1.4 0 .7.4.8l1.1.4c.3 0 .5.3.4.7 0 .5.2 1.2-.4 1.5h-.4c-.3.2-.6.2-1 .3-.4 0-.5.3-.4.6l.3 1.1c.2.8.2.9 1 .6 1.5-.4 1.2-.5 2.1 1 .2.2.2.5 0 .8l-.9.9c-.2.2-.2.4 0 .7l1 .8c.6.5.7.5 1.2-.2 1-1.2.6-1.1 2.2-.5.3.1.5.4.4.8l-.1 1.1c0 .4 0 .5.4.6l1.5.1c.4 0 .6-.1.6-.5V40c0-.4.3-.6.6-.6.6 0 1.1-.6 1.6 0l.2.3.4.8c.2.4.5.4.8.2l1.2-.7c.3-.2.4-.5.2-.8l-.6-1c-.2-.2-.3-.5 0-.7.3-.4.5-1.1 1.2-1h.4l.9.5c.3.2.6 0 .7-.3l.5-1.1c.2-.7.2-.8-.5-1-1.6-.6-1.3-.4-1.2-2 0-.4.2-.6.5-.6l1.2-.3c.4 0 .5-.2.4-.5 0-.5-.2-.9-.3-1.3-.2-.7-.2-.8-1-.6-1.4.4-1.2.7-2-.8-.3-.3-.3-.6 0-.9l.8-.8c.2-.3.2-.5 0-.7l-1.2-1c-.3-.3-.5-.3-.8 0l-.2.3c-.9 1-.9 1-2.1.5 0 0 0 0 0 0-.4-.1-.5-.4-.5-.7l.2-1.3m-32-8.4h-.7c-.4 0-.5.2-.5.5l.1 1.2c0 .3 0 .6-.4.7-.5.1-1 .6-1.6.2l-.3-.3-.5-.8c-.2-.3-.5-.3-.8-.1l-1.2.9c-.3.2-.3.5 0 .8l.7.8c.3.3.3.6 0 .9-.3.4-.3 1-1 1h-.3l-1-.4c-.3 0-.6 0-.7.3l-.5 1.6c-.1.3 0 .5.3.6l1.2.3c.3 0 .6.2.5.6 0 .5.4 1.1-.2 1.6l-.4.1-.9.3c-.4 0-.5.4-.4.8l.4 1c.3.7.4.8 1 .5 1.5-.6 1.3-.7 2.3.6.2.3.2.6 0 .9l-.7.9c-.2.3-.2.6.2.8l.9.6c.6.5.7.5 1.2-.2.8-1.4.6-1.2 2.1-.8.4.1.5.3.5.7v1.2c0 .4.2.5.5.5h1.6c.3 0 .4-.2.4-.5v-.5c-.1-1.5-.3-1.2 1.3-1.8.3-.1.6 0 .8.3l.7 1c.2.2.4.3.7 0l1.2-.9c.3-.2.3-.5 0-.7l-.7-1c-.2-.2-.3-.5 0-.7.3-.4.4-1.2 1.1-1.2l.3.1 1 .4c.4.1.6 0 .7-.4l.3-1.1c.3-.8.2-.9-.6-1-1.4-.4-1.3-.2-1.3-1.9 0-.3.1-.5.5-.6l1-.3c.5-.2.6-.3.4-.8a8 8 0 00-.4-1.3c-.2-.4-.4-.5-.8-.3l-1.1.4c-.4.2-.7 0-.9-.4-.2-.4-.9-.7-.5-1.4l.2-.2.5-.7c.3-.4.3-.6 0-.9l-1.3-.8c-.3-.2-.6-.1-.8.2l-.6 1c-.5.7-1 .1-1.5 0-.4 0-.7-.2-.7-.6v-.5c0-1.2.2-1.4-1.2-1.2m3.4 24.2l.2 1.3c.1.4.3.5.7.5l1.2-.3c.3 0 .6 0 .7.4.2.5.8 1 .4 1.6l-.3.2-.7.6c-.3.4-.3.6 0 .9l1 1c.3.3.5.3.8 0l.2-.3c1-1 1-1 2.2-.3.4.2.5.5.4.8l-.2 1.1c-.1.4 0 .6.4.7l1.5.2c.3 0 .5 0 .6-.4l.1-1.3c0-.3.3-.5.6-.5.5 0 1.1-.5 1.6 0l.1.4.4 1c.2.2.4.4.7.2l1.4-.7c.3-.1.4-.4.2-.7l-.6-1c-.2-.4 0-.7.3-1 .4-.3.6-1 1.4-.7l1 .7c.3.1.6 0 .7-.3l.7-1.2c.2-.4.1-.6-.3-.8l-1-.5c-.3-.2-.5-.4-.4-.8.2-.5 0-1.1.6-1.4h.2l1.1-.2c.4 0 .6-.2.5-.6 0-.5 0-1-.2-1.4 0-.4-.3-.6-.6-.5l-1.2.2c-.3.1-.6 0-.7-.3-.2-.5-.8-1-.5-1.6l.3-.2.7-.7c.3-.2.4-.5 0-.8l-.7-.8c-.6-.6-.7-.6-1.2 0-1.1 1.2-.9 1-2.3.4-.3-.2-.4-.5-.3-.8l.2-1.1c0-.4 0-.6-.4-.7l-1.2-.2c-.8-.1-.9 0-1 .7-.1 1.7 0 1.4-1.5 1.7-.4 0-.7-.1-.8-.5l-.4-.9c-.3-.5-.4-.6-1-.3l-.8.4c-.8.4-.8.4-.4 1.2.7 1.3.8 1-.4 2.2-.2.3-.5.3-.8.1l-1-.6c-.3-.1-.6-.1-.8.2l-.7 1.4c-.1.3 0 .5.3.7l1 .5c.4.1.5.4.5.7-.3 1.7-.2 1.5-1.6 1.6h-.2c-.6.1-.7.2-.7.8"/>
  <path fill="#2424B2" d="M43 94.4l.3-3.7c.2-2.3.5-4.6 0-6.9-.5-2-1.1-4.1-2-6a8.6 8.6 0 00-7.3-5.5c-1.8-.3-3.5-.2-5.3-.3-2.2-.1-4.3-.4-6.2-1.3-.6-.2-1-.6-1.5-1a3.3 3.3 0 01-1.1-3.6c.1-.6.4-1.2.7-1.7.7-.8.8-1.8.6-2.8-.3-1-.5-2-1.2-2.8l-.2-.4c-.4-.9-.3-1.5.6-2l-.3-.1c-.8-.3-1-1.3-.5-1.9.4-.4.7-.8.9-1.3l.7-2.6c.1-.4 0-.7-.4-1l-1-.6-1.5-.8c-1-.7-1.2-1.5-.3-2.5a9 9 0 01.9-.9l3.2-3c2.2-2.4 3.3-5 3.7-8.1.4-3.1 1-6.1 2.2-9 1.7-4.3 4.6-7.6 8.5-10a36.5 36.5 0 0123.4-5.2c5.5.6 10.7 2 15.6 4.9 4.4 2.6 7.4 6.4 9.2 11 1.5 4 2.1 8 1.8 12-.3 3.5-1.3 6.7-3.2 9.6l-4.6 7.4a52.3 52.3 0 00-7.4 21c-.2 2-.1 4 .1 6l1.1 9.5.6 3.6H43zm16.4-64.7l1.4-.1c.3-.1.4-.3.4-.7l-.3-1.1c0-.4 0-.7.4-.8.5-.2 1-.8 1.6-.3l.2.1.6.7c.4.4.5.4 1 0l.7-.7c.6-.5.6-.6 0-1.1-1.2-1.1-1.1-.9-.4-2.3.2-.4.5-.5.8-.4l1.1.3c.4 0 .6 0 .7-.4l.3-1.5c0-.4-.2-.6-.6-.6l-1.1-.2c-.3 0-.6-.2-.6-.5 0-.6-.4-1.1.1-1.7h.3l1-.5c.3-.2.4-.4.2-.7l-.6-1.3c-.2-.4-.4-.5-.8-.3l-1 .6c-.4.2-.7.1-.8-.1-.3-.5-1-.7-.9-1.4l.2-.2.4-.9c.3-.4.2-.6-.2-.8l-1-.5c-.7-.4-.8-.4-1.1.4-.6 1.3-.4 1.2-2 1-.4-.1-.6-.3-.6-.7l-.1-1c0-.5-.2-.7-.7-.6l-1.1.2c-.8 0-.8.2-.7 1 .3 1.5.4 1.3-1 2-.4.1-.6 0-.9-.2l-.8-.9c-.2-.3-.5-.3-.7 0l-.8.8c-.6.6-.6.7 0 1.2 1.1 1 1 .8.3 2.3-.2.3-.4.4-.8.3l-1.1-.2c-.4 0-.6 0-.7.4a9 9 0 00-.2 1.5c0 .4.1.5.5.6l1 .1c.5 0 .7.2.7.7l.2.8c0 .4-.1.7-.5.8l-1 .5c-.4.1-.5.3-.3.7l.5 1c.4.8.5.8 1.2.4 1.4-.8 1-.8 2.2.4.3.2.3.5.1.8l-.6 1c-.2.3 0 .6.2.7l1 .6c.8.4.9.3 1.2-.4.7-1.3.4-1.3 2-1 .4 0 .6.3.6.6l.2 1.2c0 .4.2.5.7.4m14-5.8c0-.3-.2-.5-.6-.5l-1.3-.1c-.5 0-.7.1-.7.6V25c0 .3-.2.5-.6.5-.5 0-1 .6-1.5 0l-.2-.2-.5-.9c-.2-.3-.4-.4-.8-.2L66 25c-.3.2-.4.5-.1.8l.6 1c.2.3.2.6 0 .8-.4.4-.6 1-1.3 1l-.3-.1-1-.5c-.3-.1-.5 0-.7.3l-.6 1.3c-.1.4 0 .7.4.8l1.1.4c.3 0 .5.3.4.7 0 .5.2 1.2-.4 1.5h-.4c-.3.2-.6.2-1 .3-.4 0-.5.3-.4.6l.3 1.1c.2.8.2.9 1 .6 1.5-.4 1.2-.5 2.1 1 .2.2.2.5 0 .8l-.9.9c-.2.2-.2.4 0 .7l1 .8c.6.5.7.5 1.2-.2 1-1.2.6-1.1 2.2-.5.3.1.5.4.4.8l-.1 1.1c0 .4 0 .5.4.6l1.5.1c.4 0 .6-.1.6-.5V40c0-.4.3-.6.6-.6.6 0 1.1-.6 1.6 0l.2.3.4.8c.2.4.5.4.8.2l1.2-.7c.3-.2.4-.5.2-.8l-.6-1c-.2-.2-.3-.5 0-.7.3-.4.5-1.1 1.2-1h.4l.9.5c.3.2.6 0 .7-.3l.5-1.1c.2-.7.2-.8-.5-1-1.6-.6-1.3-.4-1.2-2 0-.4.2-.6.5-.6l1.2-.3c.4 0 .5-.2.4-.5 0-.5-.2-.9-.3-1.3-.2-.7-.2-.8-1-.6-1.4.4-1.2.7-2-.8-.3-.3-.3-.6 0-.9l.8-.8c.2-.3.2-.5 0-.7l-1.2-1c-.3-.3-.5-.3-.8 0l-.2.3c-.9 1-.9 1-2.1.5-.4-.1-.5-.4-.5-.7l.2-1.3m-32-8.4h-.7c-.4 0-.5.2-.5.5l.1 1.2c0 .3 0 .6-.4.7-.5.1-1 .6-1.6.2l-.3-.3-.5-.8c-.2-.3-.5-.3-.8-.1l-1.2.9c-.3.2-.3.5 0 .8l.7.8c.3.3.3.6 0 .9-.3.4-.3 1-1 1h-.3l-1-.4c-.3 0-.6 0-.7.3l-.5 1.6c-.1.3 0 .5.3.6l1.2.3c.3 0 .6.2.5.6 0 .5.4 1.1-.2 1.6l-.4.1-.9.3c-.4 0-.5.4-.4.8l.4 1c.3.7.4.8 1 .5 1.5-.6 1.3-.7 2.3.6.2.3.2.6 0 .9l-.7.9c-.2.3-.2.6.2.8l.9.6c.6.5.7.5 1.2-.2.8-1.4.6-1.2 2.1-.8.4.1.5.3.5.7v1.2c0 .4.2.5.5.5h1.6c.3 0 .4-.2.4-.5v-.5c-.1-1.5-.3-1.2 1.3-1.8.3-.1.6 0 .8.3l.7 1c.2.2.4.3.7 0l1.2-.9c.3-.2.3-.5 0-.7l-.7-1c-.2-.2-.3-.5 0-.7.3-.4.4-1.2 1.1-1.2l.3.1 1 .4c.4.1.6 0 .7-.4l.3-1.1c.3-.8.2-.9-.6-1-1.4-.4-1.3-.2-1.3-1.9 0-.3.1-.5.5-.6l1-.3c.5-.2.6-.3.4-.8a8 8 0 00-.4-1.3c-.2-.4-.4-.5-.8-.3l-1.1.4c-.4.2-.7 0-.9-.4-.2-.4-.9-.7-.5-1.4l.2-.2.5-.7c.3-.4.3-.6 0-.9l-1.3-.8c-.3-.2-.6-.1-.8.2l-.6 1c-.5.7-1 .1-1.5 0-.4 0-.7-.2-.7-.6v-.5c0-1.2.2-1.4-1.2-1.2m3.4 24.2l.2 1.3c.1.4.3.5.7.5l1.2-.3c.3 0 .6 0 .7.4.2.5.8 1 .4 1.6l-.3.2-.7.6c-.3.4-.3.6 0 .9l1 1c.3.3.5.3.8 0l.2-.3c1-1 1-1 2.2-.3.4.2.5.5.4.8l-.2 1.1c-.1.4 0 .6.4.7l1.5.2c.3 0 .5 0 .6-.4l.1-1.3c0-.3.3-.5.6-.5.5 0 1.1-.5 1.6 0l.1.4.4 1c.2.2.4.4.7.2l1.4-.7c.3-.1.4-.4.2-.7l-.6-1c-.2-.4 0-.7.3-1 .4-.3.6-1 1.4-.7l1 .7c.3.1.6 0 .7-.3l.7-1.2c.2-.4.1-.6-.3-.8l-1-.5c-.3-.2-.5-.4-.4-.8.2-.5 0-1.1.6-1.4h.2l1.1-.2c.4 0 .6-.2.5-.6 0-.5 0-1-.2-1.4 0-.4-.3-.6-.6-.5l-1.2.2c-.3.1-.6 0-.7-.3-.2-.5-.8-1-.5-1.6l.3-.2.7-.7c.3-.2.4-.5 0-.8l-.7-.8c-.6-.6-.7-.6-1.2 0-1.1 1.2-.9 1-2.3.4-.3-.2-.4-.5-.3-.8l.2-1.1c0-.4 0-.6-.4-.7l-1.2-.2c-.8-.1-.9 0-1 .7-.1 1.7 0 1.4-1.5 1.7-.4 0-.7-.1-.8-.5l-.4-.9c-.3-.5-.4-.6-1-.3l-.8.4c-.8.4-.8.4-.4 1.2.7 1.3.8 1-.4 2.2-.2.3-.5.3-.8.1l-1-.6c-.3-.1-.6-.1-.8.2l-.7 1.4c-.1.3 0 .5.3.7l1 .5c.4.1.5.4.5.7-.3 1.7-.2 1.5-1.6 1.6h-.2c-.6.1-.7.2-.7.8"/>
  <path fill="#5854A1" d="M43.9 24.2c0 1-.9 2-2 2-1 0-2-1-2-2 0-1.1 1-2 2-2 1.1 0 2 .9 2 2zM60.3 20.8c0 1-1 2-2 2s-2-1-2-2 1-2 2-2 2 1 2 2zM56 39.2c0 1-1 2-2 2-1.1 0-2-1-2-2 0-1.1.9-2 2-2 1 0 2 .9 2 2zM73.4 32.3c0 1-.8 2-2 2-1 0-1.9-1-1.9-2s.9-2 2-2c1 0 2 1 2 2z"/>
</svg>