<svg xmlns="http://www.w3.org/2000/svg" width="108.1" height="100.7">
  <circle fill="#FFF" cx="48.7" cy="52.3" r="37"/>
  <path fill="#FFF" stroke="#FFF" stroke-width="8.8" stroke-miterlimit="10" d="M81 43.1h-2.5l.7 2.7L81 45l3.8-1.9H81M83 53.4l-3.3.4c0 .8 0 1.5-.2 2.3.6.4.8.9.8 1.1.1.4.3 1.3-.6 2.2l-1 1-.6 1.7a2 2 0 011.6 1.5c.2.8 0 2-1.2 2.7-.8.4-1.7.8-2.7 1a31 31 0 11.3-29.8c1.2-.4 2.5-.6 3.8-.6h2.8a37.2 37.2 0 103.2 16l-2.9.5"/>
  <path fill="#FFF" stroke="#FFF" stroke-width="8.8" stroke-miterlimit="10" d="M31.8 87.3l-4.5 7.2A4.2 4.2 0 1120 90l4.5-7.2c2.3 1.8 4.7 3.3 7.2 4.5M76.1 95.9a4.2 4.2 0 01-5.8-1.4l-4.5-7.2c2.5-1.2 4.9-2.7 7.1-4.5l4.6 7.2c1.2 2 .6 4.6-1.4 5.9M40 12L15.4 26.5c-3.5-6-2.2-13.4 2.8-17.9l-.2-.2c-.8-1.3-.4-3 1-3.9a2.8 2.8 0 014 1.3c6.3-2.2 13.5.2 17 6.2M82 26.7L57.6 11.6a14.2 14.2 0 0117.1-5.8l.2-.3a2.8 2.8 0 114.8 3l-.2.3c4.9 4.5 6 12 2.3 17.9M46.3 53.3a2.4 2.4 0 004.9 0V35a2.4 2.4 0 00-5 0v18.3z"/>
  <path fill="#FFF" stroke="#FFF" stroke-width="8.8" stroke-miterlimit="10" d="M40.3 43.7c-.8-.6-2-.2-2.9.8-.8 1.1-.8 2.4 0 3l10.3 8c.7.5 2 .1 2.8-1 .8-1 .9-2.3.1-2.9l-10.3-8zM36.2 42.3c-3.4 0-6.8-1.8-8.7-4.6a1.7 1.7 0 112.8-1.9c1.4 2 3.7 3.1 6 3.1 1.5 0 3.5-.6 5-3a1.7 1.7 0 012.9 1.7 9 9 0 01-7.7 4.7h-.3M61.8 42.3c-3.4 0-6.8-1.8-8.7-4.6a1.7 1.7 0 112.8-1.9c1.4 2 3.7 3.1 6 3.1 1.5 0 3.5-.6 5-3a1.7 1.7 0 012.9 1.7 9 9 0 01-7.7 4.7h-.3M50.8 68.3v.6c-.2-.6-.4-1.3-.4-2 0-2.3 1.7-4.1 3.7-4.1h.3c-2 .9-3.6 3-3.6 5.5M57.8 67c0 2.2-1.6 4-3.7 4h-.6c-.5-.8-.9-1.7-.9-2.7 0-2.3 1.7-4 3.7-4h.7c.5.7.8 1.6.8 2.6M102 49.4a9 9 0 01-4.7 1.2c-4.8 0-9.7.2-14.5 1-2.8.5-5.6.9-8.5.7-1.3 0-1.4-.7-.4-1.4 5.3-3.7 11.8-5.6 17-9.6H75.8c-1.3 0-1.4-.7-.4-1.4a9 9 0 014.6-1.2c5.8 0 11.5-.2 17.2 0 .7 0 1.7.3.9 1-5 4.5-11.2 6.6-16.8 9.9 3.1-.3 6.3-1 9.4-1.2 3.6-.3 7.2-.4 10.9-.5 1.2 0 1.4.8.3 1.5M78.5 58.1c-2.5 2.5-5.7 4-8.7 5.7 2.5.2 5 0 7.6 0 .8 0 1 .5.3 1-1 .5-2.1.8-3.1.8-3.2 0-6.3.1-9.5-.2-.7-.1-.2-.7.1-1 2.9-1.8 6.3-3.1 8.8-5.4-2.4-.4-4.9 0-7.4 0-.8 0-1-.5-.2-1 .9-.5 2-.8 3-.8 3 0 6-.5 9 .2.4.2.4.4.1.7"/>
  <g>
    <path fill="#FFF200" d="M81 43.1h-2.5l.7 2.7L81 45l3.8-1.9H81M83 53.4l-3.3.4c0 .8 0 1.5-.2 2.3.6.4.8.9.8 1.1.1.4.3 1.3-.6 2.2l-1 1-.6 1.7a2 2 0 011.6 1.5c.2.8 0 2-1.2 2.7-.8.4-1.7.8-2.7 1a31 31 0 11.3-29.8c1.2-.4 2.5-.6 3.8-.6h2.8a37.2 37.2 0 103.2 16l-2.9.5"/>
    <path fill="#FFF200" d="M31.8 87.3l-4.5 7.2A4.2 4.2 0 1120 90l4.5-7.2c2.3 1.8 4.7 3.3 7.2 4.5M76.1 95.9a4.2 4.2 0 01-5.8-1.4l-4.5-7.2c2.5-1.2 4.9-2.7 7.1-4.5l4.6 7.2c1.2 2 .6 4.6-1.4 5.9M40 12L15.4 26.5c-3.5-6-2.2-13.4 2.8-17.9l-.2-.2c-.8-1.3-.4-3 1-3.9a2.8 2.8 0 014 1.3c6.3-2.2 13.5.2 17 6.2M82 26.7L57.6 11.6a14.2 14.2 0 0117.1-5.8l.2-.3a2.8 2.8 0 114.8 3l-.2.3c4.9 4.5 6 12 2.3 17.9M46.3 53.3a2.4 2.4 0 004.9 0V35a2.4 2.4 0 00-5 0v18.3z"/>
    <path fill="#FFF200" d="M40.3 43.7c-.8-.6-2-.2-2.9.8-.8 1.1-.8 2.4 0 3l10.3 8c.7.5 2 .1 2.8-1 .8-1 .9-2.3.1-2.9l-10.3-8zM36.2 42.3c-3.4 0-6.8-1.8-8.7-4.6a1.7 1.7 0 112.8-1.9c1.4 2 3.7 3.1 6 3.1 1.5 0 3.5-.6 5-3a1.7 1.7 0 012.9 1.7 9 9 0 01-7.7 4.7h-.3M61.8 42.3c-3.4 0-6.8-1.8-8.7-4.6a1.7 1.7 0 112.8-1.9c1.4 2 3.7 3.1 6 3.1 1.5 0 3.5-.6 5-3a1.7 1.7 0 012.9 1.7 9 9 0 01-7.7 4.7h-.3M50.8 68.3v.6c-.2-.6-.4-1.3-.4-2 0-2.3 1.7-4.1 3.7-4.1h.3c-2 .9-3.6 3-3.6 5.5M57.8 67c0 2.2-1.6 4-3.7 4h-.6c-.5-.8-.9-1.7-.9-2.7 0-2.3 1.7-4 3.7-4h.7c.5.7.8 1.6.8 2.6M102 49.4a9 9 0 01-4.7 1.2c-4.8 0-9.7.2-14.5 1-2.8.5-5.6.9-8.5.7-1.3 0-1.4-.7-.4-1.4 5.3-3.7 11.8-5.6 17-9.6H75.8c-1.3 0-1.4-.7-.4-1.4a9 9 0 014.6-1.2c5.8 0 11.5-.2 17.2 0 .7 0 1.7.3.9 1-5 4.5-11.2 6.6-16.8 9.9 3.1-.3 6.3-1 9.4-1.2 3.6-.3 7.2-.4 10.9-.5 1.2 0 1.4.8.3 1.5M78.5 58.1c-2.5 2.5-5.7 4-8.7 5.7 2.5.2 5 0 7.6 0 .8 0 1 .5.3 1-1 .5-2.1.8-3.1.8-3.2 0-6.3.1-9.5-.2-.7-.1-.2-.7.1-1 2.9-1.8 6.3-3.1 8.8-5.4-2.4-.4-4.9 0-7.4 0-.8 0-1-.5-.2-1 .9-.5 2-.8 3-.8 3 0 6-.5 9 .2.4.2.4.4.1.7"/>
  </g>
</svg>