<svg xmlns="http://www.w3.org/2000/svg" width="108.1" height="100.7">
  <path fill="#005B53" stroke="#FFF" stroke-width="7.8" stroke-miterlimit="10" d="M58 22.5v11.4c0 .6-.3 1.6.6 1.7.7 0 .8-1 .9-1.6l4.7-20.4c.4-1.7 1.1-2.4 2.3-2.2 1.4.2 2.1 1.2 2 3-.3 6.3-1.4 12.7-2.4 19-.6 4.1-1 8.2-.6 12.3 0 1.3 0 3 1.6 3.4 1.6.4 2.6-.8 3.5-2 1.3-1.6 2.5-3.4 3.9-5a7.5 7.5 0 018.9-2.2c.5.2 1.1.4 1.2 1 0 .7-.4 1.2-.9 1.5a24.4 24.4 0 00-7.4 8.9 63 63 0 01-9 12.7l-3.6 3.8c-1.4 1.4-2 3-2.1 5-.3 4.4.4 8.6 1 13L64 94c.1 1-.1 1.2-1.1 1.2H40.6c-1.1 0-1.4-.3-1.2-1.3L41 77.4c.3-2.8.2-5.7-.7-8.5-2.6-8.4-3.4-17-2.7-25.7.4-5.1-.6-10.2-1-15.3-.1-2.2-.6-4.5-.3-6.8.1-.8.4-1.4 1.3-1.6.8-.2 1.3.3 1.7 1 .4.6.5 1.4.7 2l2.5 13.1.1.6c.3.6.4 1.5 1.3 1.3.8 0 .7-1 .6-1.6L44 26c-.2-3.7-.4-7.3.1-11l.5-2.2c.2-1 .7-1.7 1.9-1.7s2.1.4 2.5 1.6l.4 2.3.9 18.7v.4c.2.5.1 1.3.8 1.3.6 0 .7-.8.7-1.3l.9-12 1.2-12c.2-1.6 1-2.5 2.3-2.5 1.5 0 2.6 1 2.6 2.6.2 4.1-.2 8.3-.6 12.4m6.4 29.6c-.2-1-.7-1.7-1.7-1.7-1.1 0-1.7.8-1.7 1.9 0 1 .7 1.7 1.6 1.6 1 0 1.7-.6 1.8-1.8m-13.6.7c-1 0-1.9.8-2 1.7 0 1 1 2 2 1.8 1-.1 1.6-.8 1.6-1.8s-.6-1.6-1.6-1.7M45 54.5c1.3 0 1.9-.7 1.8-1.8 0-1-.6-1.6-1.6-1.7-1-.1-2 1-1.8 2 .1 1 .8 1.4 1.6 1.5m5.8-6.3c0-1-.6-1.7-1.6-1.7s-1.8.6-1.8 1.6c0 1.1.6 1.8 1.7 1.8 1 0 1.6-.7 1.7-1.7M43.4 47c1 0 1.7-.7 1.7-1.7s-.6-1.7-1.7-1.7c-1 0-1.7.7-1.7 1.8 0 1 .7 1.5 1.7 1.6m10.3 15c1-.2 1.7-.7 1.7-1.7 0-1.1-.7-1.8-1.8-1.8-1 0-1.6.7-1.6 1.7s.6 1.6 1.7 1.7m7.4-.5c1-.1 1.6-.7 1.7-1.7 0-1-.7-1.8-1.7-1.8-1.1 0-1.8.7-1.7 1.8 0 1 .6 1.6 1.7 1.7m-2.8-6.5c-.2-1-.7-1.6-1.8-1.6-1 0-1.7.5-1.7 1.6s.6 1.7 1.7 1.8c1.2 0 1.7-.7 1.8-1.8m-9.7 5.4c0-1.1-.7-1.8-1.8-1.8-1 0-1.6.6-1.6 1.6s.5 1.7 1.5 1.8c1.1 0 1.7-.6 1.9-1.6m.5-16.7c1-.1 1.7-.7 1.7-1.8 0-1-.7-1.6-1.7-1.6-1.1 0-1.7.7-1.7 1.7s.6 1.6 1.7 1.7m9.2 1.7c1-.1 1.6-.7 1.7-1.7 0-1-.7-1.7-1.8-1.7-1 0-1.6.6-1.6 1.6 0 1.1.6 1.7 1.7 1.8m-.7 3.5c0-1.1-.7-1.8-1.7-1.8s-1.6.7-1.7 1.7c0 1 .8 1.8 1.9 1.8 1 0 1.3-.8 1.5-1.7"/>
  <path fill="#0E6C60" d="M58 22.5v11.4c0 .6-.3 1.6.6 1.7.7 0 .8-1 .9-1.6l4.7-20.4c.4-1.7 1.1-2.4 2.3-2.2 1.4.2 2.1 1.2 2 3-.3 6.3-1.4 12.7-2.4 19-.6 4.1-1 8.2-.6 12.3 0 1.3 0 3 1.6 3.4 1.6.4 2.6-.8 3.5-2 1.3-1.6 2.5-3.4 3.9-5a7.5 7.5 0 018.9-2.2c.5.2 1.1.4 1.2 1 0 .7-.4 1.2-.9 1.5a24.4 24.4 0 00-7.4 8.9 63 63 0 01-9 12.7l-3.6 3.8c-1.4 1.4-2 3-2.1 5-.3 4.4.4 8.6 1 13L64 94c.1 1-.1 1.2-1.1 1.2H40.6c-1.1 0-1.4-.3-1.2-1.3L41 77.4c.3-2.8.2-5.7-.7-8.5-2.6-8.4-3.4-17-2.7-25.7.4-5.1-.6-10.2-1-15.3-.1-2.2-.6-4.5-.3-6.8.1-.8.4-1.4 1.3-1.6.8-.2 1.3.3 1.7 1 .4.6.5 1.4.7 2l2.5 13.1.1.6c.3.6.4 1.5 1.3 1.3.8 0 .7-1 .6-1.6L44 26c-.2-3.7-.4-7.3.1-11l.5-2.2c.2-1 .7-1.7 1.9-1.7s2.1.4 2.5 1.6l.4 2.3.9 18.7v.4c.2.5.1 1.3.8 1.3.6 0 .7-.8.7-1.3l.9-12 1.2-12c.2-1.6 1-2.5 2.3-2.5 1.5 0 2.6 1 2.6 2.6.2 4.1-.2 8.3-.6 12.4m6.4 29.6c-.2-1-.7-1.7-1.7-1.7-1.1 0-1.7.8-1.7 1.9 0 1 .7 1.7 1.6 1.6 1 0 1.7-.6 1.8-1.8m-13.6.7c-1 0-1.9.8-2 1.7 0 1 1 2 2 1.8 1-.1 1.6-.8 1.6-1.8s-.6-1.6-1.6-1.7M45 54.5c1.3 0 1.9-.7 1.8-1.8 0-1-.6-1.6-1.6-1.7-1-.1-2 1-1.8 2 .1 1 .8 1.4 1.6 1.5m5.8-6.3c0-1-.6-1.7-1.6-1.7s-1.8.6-1.8 1.6c0 1.1.6 1.8 1.7 1.8 1 0 1.6-.7 1.7-1.7M43.4 47c1 0 1.7-.7 1.7-1.7s-.6-1.7-1.7-1.7c-1 0-1.7.7-1.7 1.8 0 1 .7 1.5 1.7 1.6m10.3 15c1-.2 1.7-.7 1.7-1.7 0-1.1-.7-1.8-1.8-1.8-1 0-1.6.7-1.6 1.7s.6 1.6 1.7 1.7m7.4-.5c1-.1 1.6-.7 1.7-1.7 0-1-.7-1.8-1.7-1.8-1.1 0-1.8.7-1.7 1.8 0 1 .6 1.6 1.7 1.7m-2.8-6.5c-.2-1-.7-1.6-1.8-1.6-1 0-1.7.5-1.7 1.6s.6 1.7 1.7 1.8c1.2 0 1.7-.7 1.8-1.8m-9.7 5.4c0-1.1-.7-1.8-1.8-1.8-1 0-1.6.6-1.6 1.6s.5 1.7 1.5 1.8c1.1 0 1.7-.6 1.9-1.6m.5-16.7c1-.1 1.7-.7 1.7-1.8 0-1-.7-1.6-1.7-1.6-1.1 0-1.7.7-1.7 1.7s.6 1.6 1.7 1.7m9.2 1.7c1-.1 1.6-.7 1.7-1.7 0-1-.7-1.7-1.8-1.7-1 0-1.6.6-1.6 1.6 0 1.1.6 1.7 1.7 1.8m-.7 3.5c0-1.1-.7-1.8-1.7-1.8s-1.6.7-1.7 1.7c0 1 .8 1.8 1.9 1.8 1 0 1.3-.8 1.5-1.7"/>
</svg>