<svg xmlns="http://www.w3.org/2000/svg" width="108.1" height="100.7">
  <path fill="#D61F2E" stroke="#FFF" stroke-width="8.8" stroke-miterlimit="10" d="M43 15.5c-.3 2.5-.5 5.7-.5 9l1 .5h.3c2-5.4 6.8-11.4 17.6-12.8-2.5-2.3-4.6-2.2-4.7-2.2-.4 0-1.3-.1-1.5-.4-.2-.2-1-.5-1-.9V6.4l-6 .3-.5 4.2c0 .4-.2.7-.5.9-1.7 1-3 2.3-4.2 3.7M35 22.6c1.6 0 3.3.3 5 .8 0-5.2.7-10 1-12l-4.7-2.6c-2 3-3.4 9.2-4.3 14.1 1-.2 1.9-.3 3-.3M74.5 20.1l.3 1.1a1.2 1.2 0 01-1.2 1.6c-2.5 0-9.4 1-10.9 4.5-1.8 4.1 3.3 7 4.1 7.5 3.8 1 7 2.3 9.7 3.9 1-3.6 2.7-8.2 6.3-9.6L82 27c-1.8.3-4.2.9-5.2 1.7-.4.3-1 .3-1.5 0-.4-.3-.6-.8-.5-1.3.1-.5 1.2-4 3.5-5.8l-1-2-2.8.6zM26.8 28.5c-3.8 3.7-3 13.8-2 20l1.5-5a29.2 29.2 0 0114.2-17.2c-1.8-.8-3.7-1.2-5.6-1.2-3.1 0-6 1.1-8.1 3.4M81.7 47.4c-2.4-4.5-6.7-7.6-13.2-9.6 1 2.6 2 6.9 1.3 11.7-.1.8-.5 7.4 3.4 10.2 2 1.5 4.7 1.2 6.8-.9.4-.5 1.2-.5 1.7 0s.5 1.3 0 1.8A8.5 8.5 0 0177 63c2 3.8.3 9.2.2 9.5-.2.5-.6.9-1.2.9l-.3-.1c-.7-.2-1-1-.9-1.6 0 0 2.3-7.2-1.7-9.2a10.3 10.3 0 01-5.3-7.2 80 80 0 01-1.2 2.3s0 0 0 0l-1.6 3c-5.2 9.5-12.8 23.7-9 33 2.7 1 5.3 1.5 7.6 1.5 6.5 0 11.3-3.8 14-11.6 5-13.7 9.1-26.8 4.1-36"/>
  <path fill="#D61F2E" stroke="#FFF" stroke-width="8.8" stroke-miterlimit="10" d="M42.7 86.2c3.6 2.7 7 4.7 10.2 6.2-2.3-9.9 4.5-23 9.5-32.1a41 41 0 01-6 1.7L53 63.2l-1.1.7c-3.4 2.3-3.1 6.9-3.1 7 0 .6-.5 1.2-1.2 1.2 0 0 0 0 0 0-.7 0-1.2-.5-1.3-1.1 0-.2-.2-3.1 1.3-6a34 34 0 01-9.7 1.7c-.7 0-1.2-.5-1.2-1.2s.5-1.3 1.2-1.3c2.6 0 5.4-.5 8.4-1.4-5.4-.2-6.5-1.8-7-2.4a1.2 1.2 0 112-1.4c.5.6 2.8 2.4 14.4.6l1.7-.4c2.7-.7 5.2-1.4 7.1-3l1.6-3c3.3-7.4 0-14.8-.7-16.3-2.8-1.6-7.1-5.6-5-10.6 2-4.4 8.5-5.6 11.6-5.9l-1.7-5.7c-1.5-.2-2.9-.2-4.3-.2-7.2 0-16.6 2-20.1 11.9-.1.4-.5.7-.9.8-.4 0-11.4 2.9-16.3 17.2-2.6 7.5-8.6 25 14 41.8"/>
  <g>
    <path fill="red" d="M43 15.5c-.3 2.5-.5 5.7-.5 9l1 .5h.3c2-5.4 6.8-11.4 17.6-12.8-2.5-2.3-4.6-2.2-4.7-2.2-.4 0-1.3-.1-1.5-.4-.2-.2-1-.5-1-.9V6.4l-6 .3-.5 4.2c0 .4-.2.7-.5.9-1.7 1-3 2.3-4.2 3.7M35 22.6c1.6 0 3.3.3 5 .8 0-5.2.7-10 1-12l-4.7-2.6c-2 3-3.4 9.2-4.3 14.1 1-.2 1.9-.3 3-.3M74.5 20.1l.3 1.1a1.2 1.2 0 01-1.2 1.6c-2.5 0-9.4 1-10.9 4.5-1.8 4.1 3.3 7 4.1 7.5 3.8 1 7 2.3 9.7 3.9 1-3.6 2.7-8.2 6.3-9.6L82 27c-1.8.3-4.2.9-5.2 1.7-.4.3-1 .3-1.5 0-.4-.3-.6-.8-.5-1.3.1-.5 1.2-4 3.5-5.8l-1-2-2.8.6zM26.8 28.5c-3.8 3.7-3 13.8-2 20l1.5-5a29.2 29.2 0 0114.2-17.2c-1.8-.8-3.7-1.2-5.6-1.2-3.1 0-6 1.1-8.1 3.4M81.7 47.4c-2.4-4.5-6.7-7.6-13.2-9.6 1 2.6 2 6.9 1.3 11.7-.1.8-.5 7.4 3.4 10.2 2 1.5 4.7 1.2 6.8-.9.4-.5 1.2-.5 1.7 0s.5 1.3 0 1.8A8.5 8.5 0 0177 63c2 3.8.3 9.2.2 9.5-.2.5-.6.9-1.2.9l-.3-.1c-.7-.2-1-1-.9-1.6 0 0 2.3-7.2-1.7-9.2a10.3 10.3 0 01-5.3-7.2 170 170 0 01-2.8 5.3c-5.2 9.5-12.8 23.7-9 33 2.7 1 5.3 1.5 7.6 1.5 6.5 0 11.3-3.8 14-11.6 5-13.7 9.1-26.8 4.1-36"/>
    <path fill="red" d="M42.7 86.2c3.6 2.7 7 4.7 10.2 6.2-2.3-9.9 4.5-23 9.5-32.1a41 41 0 01-6 1.7L53 63.2l-1.1.7c-3.4 2.3-3.1 6.9-3.1 7 0 .6-.5 1.2-1.2 1.2s-1.2-.5-1.3-1.1c0-.2-.2-3.1 1.3-6a34 34 0 01-9.7 1.7c-.7 0-1.2-.5-1.2-1.2s.5-1.3 1.2-1.3c2.6 0 5.4-.5 8.4-1.4-5.4-.2-6.5-1.8-7-2.4a1.2 1.2 0 112-1.4c.5.6 2.8 2.4 14.4.6l1.7-.4c2.7-.7 5.2-1.4 7.1-3l1.6-3c3.3-7.4 0-14.8-.7-16.3-2.8-1.6-7.1-5.6-5-10.6 2-4.4 8.5-5.6 11.6-5.9l-1.7-5.7c-1.5-.2-2.9-.2-4.3-.2-7.2 0-16.6 2-20.1 11.9-.1.4-.5.7-.9.8-.4 0-11.4 2.9-16.3 17.2-2.6 7.5-8.6 25 14 41.8"/>
  </g>
</svg>