<svg xmlns="http://www.w3.org/2000/svg" width="108.1" height="100.7">
  <circle fill="#FFF" cx="53.5" cy="50.2" r="35.3"/>
  <path fill="#94519C" stroke="#FFF" stroke-width="8.8" stroke-miterlimit="10" d="M13.8 50c0-21.6 17.5-38.8 39.4-38.8a39 39 0 11-.2 78 39 39 0 01-39.2-39.1m39.5 34.7l5.1-.4A34.5 34.5 0 0080 28.5c-1.1-1.4-2.4-3-4.4-2.4-1.9.7-1.8 2.8-1.7 4.5.2 6.8-2 12.3-7.8 16.3a6.6 6.6 0 00-3 5c-.1 2.2-1 3-3.3 2.8-1.1-.2-1.3-.3-1-1.4.6-3.7 2.2-6.8 5.2-9 6-4.2 7-10 5.5-16.6-1.2-5.2-3.7-10-9.3-11.3a34.7 34.7 0 00-41.7 30.7 34.7 34.7 0 0034.9 37.7"/>
  <path fill="#94519C" stroke="#FFF" stroke-width="8.8" stroke-miterlimit="10" d="M42.7 49.3c2 1.2 4.4 1.5 6 3.3.4.4 1.4.8.7 1.5-.5.6-1-.2-1.5-.6-1.3-1-2.7-2-4.3-2.7-3-1.2-5.7-.2-7 2.4-1.3 2.6-.5 5.2 2.5 6.7 4.2 2.2 8.7 3.7 13.8 2l-1 4.4c1.3-2.1 2-4.5 3.3-6.6 3-4.9 5.6-5.5 10.4-2.4 1.3.8 2.5 1.7 3.8 2.4 2 1 2.8.7 3.5-1.4l.2-.6c.5-1 .3-3 1.8-2.7 1.4.3 2.5 1.8 2.4 3.6 0 3.9-4.6 6.6-7.9 4.7-.8-.4-1.6-.6-2.5-.7a8.9 8.9 0 01-5-1.8c0 3 .4 5.7-.2 8.3-1 4.8-4 7.4-8.7 8-7.3.7-15-4-18.4-11.4a22.5 22.5 0 01-2.3-10.4c0-4-.7-7.7-2.2-11.3-.7-1.9-1.3-3.8-1.5-5.8a11 11 0 019.7-11.8c6.3-.6 12 3.8 12.4 9.8 0 1-.1 1.9-.3 2.9 0 .4-.3.8 0 1.2.3 1 1.5 1.5 1 2.8-.9 2.1-2 4.3-3.7 5.8-1.5 1.3-3.2.7-5 .4"/>
  <path fill="#94519C" stroke="#FFF" stroke-width="8.8" stroke-miterlimit="10" d="M48.3 61.8c-3-.4-6.5-1-9.4-3-2-1.4-2.5-3.2-1.5-5.2 1.1-2.2 3.1-3 5.4-2.1 2 .7 3.8 2 5.5 3.4.9.7 1.4.7 2-.3 1.7-2.6 3.1-5.1 3.2-8.2 0-.8.3-1.5.5-2.2.4-1 1.4-1.6 2.4-1.6s1.8.7 2.2 1.7c.5 1 .5 1.7-.4 2.5-2.3 2-2.3 4.7-2.7 7.4-.1 1-.2 1.9-.5 2.8-.8 3.3-2.8 4.8-6.7 4.8M62.6 62.6c2.6.1 4.2 1.5 5.7 3.2 2 2.1 4.7 2 7.3 1.6.8 0 1.7-.4 2 .7.2 1-.7 1.5-1.4 1.7-2.1.4-3.8 1.5-5.5 2.8-1.4 1.1-2.7.7-3.3-1a9 9 0 00-3.5-4.4c-1.6-1.2-.9-3.1-1.3-4.6"/>
  <g>
    <path fill="#D17EB3" d="M13.8 50c0-21.6 17.5-38.8 39.4-38.8a39 39 0 11-.2 78 39 39 0 01-39.2-39.1m39.5 34.7l5.1-.4A34.5 34.5 0 0080 28.5c-1.1-1.4-2.4-3-4.4-2.4-1.9.7-1.8 2.8-1.7 4.5.2 6.8-2 12.3-7.8 16.3a6.6 6.6 0 00-3 5c-.1 2.2-1 3-3.3 2.8-1.1-.2-1.3-.3-1-1.4.6-3.7 2.2-6.8 5.2-9 6-4.2 7-10 5.5-16.6-1.2-5.2-3.7-10-9.3-11.3a34.7 34.7 0 00-41.7 30.7 34.7 34.7 0 0034.9 37.7"/>
    <path fill="#D17EB3" d="M42.7 49.3c2 1.2 4.4 1.5 6 3.3.4.4 1.4.8.7 1.5-.5.6-1-.2-1.5-.6-1.3-1-2.7-2-4.3-2.7-3-1.2-5.7-.2-7 2.4-1.3 2.6-.5 5.2 2.5 6.7 4.2 2.2 8.7 3.7 13.8 2l-1 4.4c1.3-2.1 2-4.5 3.3-6.6 3-4.9 5.6-5.5 10.4-2.4 1.3.8 2.5 1.7 3.8 2.4 2 1 2.8.7 3.5-1.4l.2-.6c.5-1 .3-3 1.8-2.7 1.4.3 2.5 1.8 2.4 3.6 0 3.9-4.6 6.6-7.9 4.7-.8-.4-1.6-.6-2.5-.7a8.9 8.9 0 01-5-1.8c0 3 .4 5.7-.2 8.3-1 4.8-4 7.4-8.7 8-7.3.7-15-4-18.4-11.4a22.5 22.5 0 01-2.3-10.4c0-4-.7-7.7-2.2-11.3-.7-1.9-1.3-3.8-1.5-5.8a11 11 0 019.7-11.8c6.3-.6 12 3.8 12.4 9.8 0 1-.1 1.9-.3 2.9 0 .4-.3.8 0 1.2.3 1 1.5 1.5 1 2.8-.9 2.1-2 4.3-3.7 5.8-1.5 1.3-3.2.7-5 .4"/>
    <path fill="#D17EB3" d="M48.3 61.8c-3-.4-6.5-1-9.4-3-2-1.4-2.5-3.2-1.5-5.2 1.1-2.2 3.1-3 5.4-2.1 2 .7 3.8 2 5.5 3.4.9.7 1.4.7 2-.3 1.7-2.6 3.1-5.1 3.2-8.2 0-.8.3-1.5.5-2.2.4-1 1.4-1.6 2.4-1.6s1.8.7 2.2 1.7c.5 1 .5 1.7-.4 2.5-2.3 2-2.3 4.7-2.7 7.4-.1 1-.2 1.9-.5 2.8-.8 3.3-2.8 4.8-6.7 4.8M62.6 62.6c2.6.1 4.2 1.5 5.7 3.2 2 2.1 4.7 2 7.3 1.6.8 0 1.7-.4 2 .7.2 1-.7 1.5-1.4 1.7-2.1.4-3.8 1.5-5.5 2.8-1.4 1.1-2.7.7-3.3-1a9 9 0 00-3.5-4.4c-1.6-1.2-.9-3.1-1.3-4.6"/>
  </g>
</svg>