<svg xmlns="http://www.w3.org/2000/svg" width="108.1" height="100.7">
  <path fill="#FFF" d="M71 59.3a22.3 22.3 0 11-44.7 0 22.3 22.3 0 0144.7 0z"/>
  <path fill="#3D71B7" stroke="#FFF" stroke-width="6.7" stroke-miterlimit="10" d="M60.8 13.2v8.4h20L66 36.3a28.5 28.5 0 106 6l14.7-14.8v20H95V13H60.8h0zM49 78.4A19.1 19.1 0 1149 40a19.1 19.1 0 010 38.3"/>
  <path fill="#231F20" d="M60.8 13.2v8.4h20L66 36.3a28.5 28.5 0 106 6l14.7-14.8v20H95V13H60.8zM49 78.4A19.1 19.1 0 1149 40a19.1 19.1 0 010 38.3"/>
</svg>