<svg xmlns="http://www.w3.org/2000/svg" width="108.1" height="107.3">
  <path fill="#FFF" stroke="#FFF" stroke-width="14" stroke-miterlimit="10" d="M54.5 92c3-4.4 2.2-10.4-1.7-14.1L75.2 43a11.2 11.2 0 101.6-21.3 11 11 0 00-4.9-7.2A11.2 11.2 0 0058.2 32L35.7 67a11.2 11.2 0 10-1.6 21.2A11.2 11.2 0 0054.5 92h0z"/>
  <path fill="#FFF" stroke="#BF7A1F" stroke-width="5.6" stroke-miterlimit="10" d="M54.5 92c3-4.4 2.2-10.4-1.7-14.1L75.2 43a11.2 11.2 0 101.6-21.3 11 11 0 00-4.9-7.2A11.2 11.2 0 0058.2 32L35.7 67a11.2 11.2 0 10-1.6 21.2A11.2 11.2 0 0054.5 92h0z"/>
  <g>
    <path fill="#FFF" d="M-136.8 47c1.8 0 3.3.2 4.7 1.3 2 1.5 2.4 3.7 2.4 5 0 2.1-.8 4-2.5 5.1a7.3 7.3 0 01-4.6 1.2h-2.6V47h2.6zm-.7 10.8h.8c1 0 2.3 0 3.4-.9 1-.8 1.6-2 1.6-3.5s-.5-2.9-1.6-3.7a5.4 5.4 0 00-3.4-.9h-.8v9zM-127.4 50.2c.1-1 .4-1.6.7-2 .7-1.1 2-1.4 3-1.4 2.4 0 3.8 1.5 3.8 3.5 0 1.5-.8 2.3-1.4 2.7 1.2.6 1.6 1.7 1.6 2.9 0 1.5-.8 4-4 4-2.4 0-3.4-1.3-3.7-2.3l-.4-1.4h2c0 1.1.8 2 2 2 1.3 0 2.2-1 2.2-2.3 0-1.2-.8-2.1-2.2-2.1h-.3v-1.7h.3c.7 0 2 0 2-1.7 0-1.2-.7-1.9-1.9-1.9-1 0-1.7.6-1.8 1.7h-1.9z"/>
  </g>
</svg>