<svg xmlns="http://www.w3.org/2000/svg" width="108.1" height="100.7">
  <path fill="#FFF" d="M93.9 50.5a38 38 0 11-76 0 38 38 0 0176 0z"/>
  <path fill="#AEBC36" d="M55.4 84c-5.9 0-11.5-1.5-16.2-4.3-9-5.2-14.1-19-11.2-30 2.5-9 9.6-14.2 19.6-14.2 2.3 0 4.6.2 6.8.7 10.9 2.4 14.7 10 14.7 16.2A15 15 0 0160.7 66a16.4 16.4 0 01-7.4 1.8 5.3 5.3 0 010-10.5c1.6 0 3-.6 4-1.5.8-1 1.2-2.1 1.2-3.4 0-3-2.8-6.4-11-6.4-5.1 0-8 2-9.3 6.5-1.7 6.4 1.4 15.2 6.3 18a21.6 21.6 0 0021.2.3c4.8-2.5 10.5-8.3 11-21 .3-6.8-1.4-12-5-15.7-6.1-6.1-16-6.4-18-6.4h-.2c-3 0-5.4-2.3-5.5-5.1 0-1.4.5-2.8 1.4-3.8 1-1 2.3-1.6 3.7-1.7h.7a38 38 0 0125.3 9.5 30.1 30.1 0 018.2 23.5A41.6 41.6 0 0183 67.2c-2.8 5.6-7 10-12.3 13C66.3 82.5 61 84 55.4 84zm-7.8-47.1c-9.3 0-16 4.8-18.2 13.2-2.8 10.4 2 23.5 10.5 28.4 4.5 2.7 9.9 4 15.5 4a28.2 28.2 0 0026.5-16l.7.2-.6-.3a40.1 40.1 0 003.9-16.3c.3-9.4-2.3-17-7.8-22.5a36.5 36.5 0 00-25-9 3.8 3.8 0 00-3.7 4 4 4 0 004 3.7h.3c2 0 12.5.3 19 6.8 3.9 4 5.7 9.5 5.4 16.7-.5 13.4-6.6 19.5-11.7 22.3a23 23 0 01-11 2.7 23 23 0 01-11.6-3c-5.4-3.2-8.8-12.7-7-19.7 1.4-5 5-7.5 10.8-7.5 9.1 0 12.3 4.2 12.3 7.8 0 1.6-.6 3.2-1.7 4.3-1.2 1.3-2.9 2-4.9 2a3.9 3.9 0 100 7.7c2.3 0 4.7-.5 6.8-1.6h.1c4.8-2.6 7.5-7 7.5-12.4 0-5.7-3.5-12.6-13.5-14.8H54c-2-.5-4.3-.7-6.5-.7zm8.2 44.8H55c-2 0-4-.3-5.8-.7h-.5v-.6c-.2-2.4 1.7-4.3 2.3-4.8l.2-.3h.3c1.3.3 2.6.4 4 .4h1.1l-.4 1c-.4 1-1 2.5-.5 4l.2 1zm-5.8-2c1.3.3 2.7.5 4 .5 0-1.1.2-2.2.5-3.1l-3-.3c-.4.5-1.4 1.6-1.5 3zm7 2l-.3-.5c-1-2.1.4-4.6.9-5.3l.2-.3h.3l3.6-.7 1.1-.3-.2 1.1a7.1 7.1 0 000 4.3l.4.7-.9.2c-1.5.4-3.1.6-4.7.7h-.5zm1.6-4.8c-.4.6-1.1 2-.8 3.3l3.3-.5c-.3-1-.3-2-.1-3.2l-2.4.4zm-11 3.8l-.8-.2c-2.3-.7-4.4-1.6-6.3-2.7l-.5-.2.1-.6c.5-1.8 2.9-3.1 4.1-3.6l.3-.2.4.2c1.2.6 2.6 1 4 1.4l1 .3-.6.9a6.8 6.8 0 00-1.6 3.8v1zM41.7 77c1.5.8 3 1.5 4.7 2 .2-1 .6-2 1.2-3l-3-1.1c-.9.3-2.3 1.1-2.9 2zm22.2 3.6l-.2-.5c-1.2-2 .1-5.4.2-5.6l.1-.2.3-.2c1-.3 1.8-.7 2.5-1.1l.5-.3 1-.6.1 1.1c.1 1.6.7 2.8 1.7 3.7l.7.6-.8.5-.3.2c-1.6 1-3.4 1.6-5.2 2.2l-.6.2zm1.2-5.3a7 7 0 00-.4 3.6l3.8-1.6a6.9 6.9 0 01-1.3-3l-2.1 1zm-26 1.8l-.7-.6c-1-.8-2-1.8-3-3L35 73l.5-.4c.3-.3 3-2.3 4-2.6h.1l.5-.1.3.2a13 13 0 002.2 2l.9.7-1 .5c-1 .6-2.4 1.6-3 3l-.4.8zM37 73l1.6 1.7c.7-1 1.5-1.7 2.3-2.2l-1.3-1.3-2.6 1.8zM71.8 77l-.4-.3c-2.4-1.5-2.2-4.4-2.1-5v-.2l.3-.3 2.4-2.2.8-.9.4 1a6 6 0 002.7 3.2l.8.5-.7.6a26.2 26.2 0 01-3.9 3.3l-.3.3zm-1.1-5c0 .6-.1 2.3 1 3.3 1-.7 1.9-1.5 2.7-2.3-1-.7-1.6-1.6-2-2.3L70.6 72zm-36.3.3l-.4-.6-2-3.5-.3-.7 5.7-2 .3.5c.3.8.8 1.5 1.3 2.3l.4.7-.7.4c-.9.4-2.2 1.3-3.7 2.4l-.6.5zm-.7-4l1 2a27 27 0 012.7-1.8l-.7-1.3-3 1zm43.6 3.7l-.5-.2a5 5 0 01-3.1-4.6V67l.1-.2 1.6-2.5.5-.9.6.8c.8.8 2 1.8 3.5 2.3l.8.3-.4.8a29 29 0 01-2.7 4l-.4.4zm-2.2-4.6c0 .6.3 2 1.8 2.9l1.9-2.7c-1-.5-2-1.2-2.6-1.8l-1 1.6zm-43.7-.7l-.3-.7-1-3.3-.1-.8h.8c1 0 3-.2 4.4-.7l.7-.3.2.7.7 2.4.3.6-5.7 2zm.3-3.5l.5 1.7 3-1.1a25 25 0 01-.3-1c-1 .2-2.2.4-3.2.4zM81.3 66l-.6-.2c-2-.5-3.6-2.3-4.1-3l-.3-.3.2-.4.7-2 .3-.7.7.4c1 .5 2.4 1.1 4 1.1h1l-.3 1-1.4 3.5-.2.6zm-3.4-3.7c.5.5 1.5 1.5 2.6 2l.8-2c-1.2-.2-2.2-.6-3-1l-.4 1zm-24.6 3.3a3 3 0 01-1.5-.4l-1.3-.8 4.1-1.3c.2-.1.4-.4.3-.6 0-.2-.3-.4-.6-.3l-4 1.4v-1a3 3 0 013-3c1.3 0 2.6-.2 3.6-.7l.4-.2.4.2c.7.6 1.6 1.9 1.8 4.8v.5l-.4.2c-1.8.8-3.8 1.2-5.8 1.2zm1.8-4.7c.5.2 1 .6 1.1 1.2.3.7 0 1.4-.5 1.9a13 13 0 002.3-.7 5.8 5.8 0 00-1-3 9 9 0 01-1.9.6zm-1.7.2c-.4 0-.8 0-1 .3l1-.3zm7 2.6l-.1-1a7.3 7.3 0 00-1.7-4l-.4-.6.7-.6 1.1-1.6.1-.2.4-.2c.5-.2 1.6-.7 2.7-.7h.1l1 .2c.7.1 1.3.5 1.7 1l.3.4-.2.4c-.8 2.5-2.5 4.7-4.7 6.3l-1 .6zm-.3-5.5c.6.8 1 1.8 1.3 3a11 11 0 003.3-4.5l-.7-.4h-.8c-.9 0-1.7.3-2 .5A8 8 0 0160 58zm-30.3 2.8v-.6l-.3-3.6v-1l.9.3c1.3.4 2.7.5 4.2.1l.9-.2v.9c0 .8 0 1.7.2 2.5v.5l-.4.2c-1 .6-3.2.8-4.9.9h-.6zm1-3.3l.2 1.8a13 13 0 003.2-.4v-1.3c-1.2.1-2.3.1-3.3-.1zm51.5 2.3c-1.7 0-3.3-.8-4.1-1.3l-.5-.3.2-.5.6-3 .1-.8.9.3a8 8 0 004.1.6l1-.1-.2 1-.8 3.6v.4H83l-.8.1zm-3-2.2c.8.4 2 .9 3.1.8l.5-2.1a9 9 0 01-3.2-.5 37 37 0 01-.3 1.8zm-46.6-2.2c-1.3 0-2.3-.4-2.7-.6l-.5-.2v-.5a22.3 22.3 0 01.8-4.1l.4-1.2.8.7c.8.6 2 1.4 3.9 1.6h.8l-.2.8-.4 2.5v.4l-.5.2c-.8.2-1.6.4-2.4.4zM31 53.8c.7.2 2 .4 3.2 0l.2-1.3a8.2 8.2 0 01-3-1.2l-.4 2.5zM66.6 55l-1-.6c-1-.7-2.4-.8-4-.5l-1 .3.2-1a6.7 6.7 0 00-.2-2.5v-.3l.1-.3c.4-.7 2-3 4.3-3.4h.5l.2.4a13.2 13.2 0 011 6.7v1.2zm-3.3-2.7c.7 0 1.5.2 2.1.4v-.4c0-1.4-.2-2.7-.7-4a6.1 6.1 0 00-2.6 2.3l.1 1.7v.1h1zm19.3 1.7c-1.8 0-3-.7-3.5-1l-.3-.2v-.4l.2-2.7v-.2-1.1l.8.1c1.4.3 3 .3 4.3 0l1-.3-.1 1.1v.7c0 1.2-.2 2.3-.3 3.2v.5h-.5c-.5.2-1 .3-1.6.3zm-2.4-2a5.6 5.6 0 003.2.5l.2-2.5c-1 .1-2.2.2-3.2 0 0 .7 0 1.3-.2 2zM36 50.4a6 6 0 01-4.5-2l-.3-.4.2-.4c.5-1.2 1.2-2.4 2-3.5l.8-1 .4 1.3c.4 1 1.2 2.5 2.7 3.2l.7.3-.4.7-.7 1.4-.2.4h-.7zm-3.2-2.7c.6.5 1.6 1.2 3 1.3l.2-.5c-1-.7-1.7-1.6-2.2-2.5l-1 1.7zm27.5 1.7l-.6-.8c-.3-.5-.8-1-1.3-1.5l-.2-.2v-.3c0-1 .1-3.5 2.1-5l.4-.3.5.3c1.3 1 2.5 2.2 3.4 3.5l.6.8-1 .3a7.4 7.4 0 00-3.3 2.5l-.6.7zm-.7-3.1l.8.8c.6-.7 1.5-1.4 2.5-1.9-.6-.8-1.3-1.5-2.1-2.1-1 1-1.2 2.4-1.2 3.2zm22.2 1.7a11 11 0 01-2.1-.2l-.6-.1V47c0-1.1-.2-2.3-.4-3.5l-.1-.9h1.2c1 0 2.5 0 3.9-.7l.8-.4.1 1c.3 1.3.4 2.8.5 4.3v.5l-.5.2a9 9 0 01-2.8.4zm-1.3-1.5c.8.1 2.1.1 3.2-.1l-.3-2.8c-1.1.4-2.3.5-3.2.6l.3 2.3zm-41.8.6h-.4a4 4 0 01-1-.5l-.2-.2-1.5-2c-.3-.7-.4-1.4-.4-1.8v-.3l.2-.3c1-1 2.3-1.7 3.6-2.3l1-.5v1.1c0 1.2.2 2.8 1.2 4l.5.7-.7.4c-.7.4-1.4.9-2 1.5l-.3.2zm-.6-1.7l.2.2 1.3-1c-.6-1-.9-2.2-1-3.2l-2 1.4.3 1 1.2 1.6zm19.2.7l-1-.4a13 13 0 00-2.1-1h-.3l-.2-.4c-.1-.4-.5-1.2-.7-2.2l.3-2.4.6-.8.3-.3h.4c1.6.5 3 1 4.4 1.7l.9.4-.7.7a6.7 6.7 0 00-1.8 3.7l-.1 1zm-2.4-2.6l1.3.5a8 8 0 011.4-2.8c-1-.4-1.9-.8-2.9-1l-.3 1.8c.1.7.4 1.2.5 1.5zm-12.2 1.1l-.3-.2c-1.6-1.4-1.6-3.8-1.4-5v-.5l.5-.2 3.4-.7h1l-.2.8a9 9 0 00.6 4.2l.3.9h-.9c-.9.2-1.8.3-2.6.6l-.4.1zm-.4-4.7c0 1 0 2.3.8 3.1l1.6-.3c-.3-1-.5-2-.5-3.2l-1.9.4zm10.4 4.4l-1.1-.2-3.5-.2h-.5l-.2-.5c-.2-.6-1.5-3.8-.5-5.2l.2-.3h.6c1.5 0 3 0 4.4.3l1 .1-.5.9a5.4 5.4 0 00-.2 4l.3 1.1zm-4.2-1.8l2.3.1c-.2-1.1-.2-2.2.2-3.2l-3-.1c-.2.6 0 1.8.5 3.2zm31.2-.6h-.8l-.5-.1-.2-.5c-.3-1.2-.6-2.2-1-3l-.4-.8.8-.2c1-.3 2.6-.9 3.9-2l.7-.6.4.9c.6 1.4 1.1 3 1.5 4.5l.2.5-.4.2c-1.2.9-3 1-4.2 1zm-.2-1.4h.2a7 7 0 003-.6l-1-3c-1 .7-2.1 1.2-3 1.5l.8 2zm-3-3.8L76 36l-1.6-2.3-.6-.6.8-.4c.9-.5 2.1-1.3 3-3l.5-.8.7.7c1 1.2 1.8 2.4 2.5 3.6l.2.4-.3.4a10 10 0 01-4.5 2.3l-.5.2zm-.3-3L77 35c1-.3 2.1-.8 2.9-1.4l-1.5-2c-.7 1-1.6 1.6-2.3 2.1zm-3-1.2L73 32a21 21 0 00-2.6-2l-.8-.6.7-.6a8 8 0 002.3-3.5l.3-.9.8.6c1.2.8 2.4 1.7 3.5 2.8l.4.3-.2.4a5.9 5.9 0 01-3.8 3.7h-.4zm-1.3-3l1.7 1.4c.6-.3 1.6-.9 2.3-2.2l-2.3-1.9c-.5 1.2-1.1 2-1.7 2.7zm-3.2-.4l-.4-.2-2.2-1-.8-.3.6-.8a8 8 0 001.6-3.9l.1-.9.9.4 3.1 1.5.5.2-.2.6a7 7 0 01-2.9 4.2l-.3.2zM67.4 27l1 .5c.6-.4 1.4-1.2 2-2.7l-1.8-.8a9.6 9.6 0 01-1.2 3zM64 27h-.3c-.9-.4-1.6-.6-2.2-.7l-1-.2.6-.9c.9-1.4 1-3 .8-4v-1l.9.2 3.2 1 .5.1v.6a7.1 7.1 0 01-2.2 4.7l-.3.2zm-1.3-1.8l1 .2c.4-.5 1-1.4 1.3-3l-1.6-.4c0 1-.2 2-.7 3.2zm-3.2.6h-.4c-2.8-.5-5-.5-5.5-.5h-.3c-1 0-2-.6-2.6-1.5l-.7-1h4.4c.2 0 .4-.2.4-.5 0-.2-.2-.4-.4-.4H50l.6-1a3 3 0 012.5-1.6h.7c1.1 0 3.5 0 6.5.6h.5v.5c.3.8.7 3.3-1 5l-.3.4zm-4.3-1.8l3.7.3c.9-1 .8-2.3.7-3-1.7-.4-3.1-.5-4.2-.5a1.9 1.9 0 01-.2 3.2z"/>
</svg>