<svg xmlns="http://www.w3.org/2000/svg" width="108.1" height="100.7">
  <path fill="#19753B" stroke="#FFF" stroke-width="8.8" stroke-miterlimit="10" d="M36.8 71.5a34 34 0 01-4-4.5c-.5-.7-.4-1.3 0-2a428 428 0 018.4-16.2c.5-.8.7-1 1.5-.3 1.6 1.4 3.6 2.4 5.8 3-1.6-1.5-3-3.3-4.4-5-.6-1-.7-1.6 0-2.5a24 24 0 015.5-6.1c2.8-2 5.8-2.5 9-.9 3.7 1.9 7 4.3 9.7 7.4a9 9 0 01.3 10.7c-.4.6-.8.3-1.3.2L63.7 54c-1.1-.4-2.2-1-3.5-2.1.6 1.6 1.7 2.4 2.5 3.3.9 1 2 1.8 3.1 2.4 1 .5.7.8.2 1.4-2.2 2.7-4.8 5-7 7.6-1.8 2.2-3.5 2-5.7 1-1.4-.6-2.7-1.3-4.4-2.3 1.4 2.2 3 3.7 4.7 4.9.8.5.9.8.2 1.5l-13 12c-.7.4-1.2.5-1.9.2-1.5-.6-3-1.4-4.5-2.2.7 1.3 1.7 2.4 2.8 3.3.8.6.8 1 0 1.6-3 2.4-6 5-9.2 7.2a9.4 9.4 0 01-3.7 1.8c-1.6.3-2.5-.4-2.7-2-.2-1.3.1-2.5.5-3.6a216 216 0 018.5-20.6c.4-.8.7-.6 1.3-.2a15 15 0 005 2.3M88.5 17.1c2.5 2 2.4 3-.4 4.2-1.2.6-2.4 1-3.6 1.4v.3c.6.7 1.3 1.5.8 2.5-.5 1.1-1.6 1-2.6 1-5.4-.5-9.2 2-12.4 6.4 3.7-.7 7.3-.1 10.1-2.7.6-.6 1.6-1 2.4-1.2 2.6-1 3.4-.3 2.9 2.5.9 0 1.8-.2 2.6 0 1.3.3 2.4 1 2.3 2.5 0 .5.2.7.7.8.7.1 1.4.4 2 .8 1 .8 1.3 1.8.5 2.8-.5.6-.3 1 0 1.5.5 1 1 2 .4 3-.8 1.2-2 1.2-3.1.9-.9-.2-1.1 0-1.3.8-.3 1.4-1.2 1.8-2.4 1.2-1.1-.6-2-1.4-2.8-2.2-.4-.4-.6-.7-1-.1-1 1-1.7 1-2.6-.2-.3-.3-.5-.7-.7-1.2-.4-1-.7-1.8-2-.8-.6.4-1.2-.1-1.5-.7-.4-.8-.5-1.6-.5-2.4-.1-2.1-1.4-3.1-3.5-2.7a8.8 8.8 0 00-4.5 3c-1.7 1.8-1.7 1.8-3.8.2-2-1.5-2-1.5-.8-3.7.7-1.3 1.4-2.7 1.5-4.2.2-2.7-1.2-4-3.8-3.4l-1.8.1c-1.1 0-1.8-.6-1.4-1.7.3-1-.2-1-.9-1.1l-2-.5c-1.4-.5-1.6-1.1-.9-2.3.4-.5.3-.7-.2-1-1.1-.5-2.2-1.1-3-2-1-1.1-1-2 .4-2.8.8-.4 1-.7.4-1.3l-.2-.5c-.4-1-.6-1.9 0-2.7.8-1 1.7-1 2.7-.7.8.2 1.5.4 2.1-.6.5-.8 1.4-.7 2.2-.3a4 4 0 011.5 1.5c.4.6.6 1.1 1.6.8 1.1-.4 1.9.3 2.5 1.2.5.8.6 1.8.8 2.7h.3c2.1-1.4 3.2-.5 3.1 2.1 0 1.2-.2 2.3-.6 3.4a8.6 8.6 0 00-.3 5.5l.7 4.2c3-4 4.4-8 3-12.8-.2-.5-.5-1-.6-1.6-.5-1.8.5-2.8 2.3-2.3l1 .4c.2-1.6 0-3.2.4-4.7.5-2.3 1.3-2.6 3-1.3.8.6 1 .2 1.1-.4a16 16 0 011.7-3.9c1-1.7 2.4-1.8 3.4 0 .8 1.3 1.4 1.2 2.4.3l.3-.1c1-.6 2.3-1.2 3.4-.4 1.3 1 1 2.3.7 3.6v.1c-.6 1.2-.5 1.9 1 2.3 2 .5 2.2 1.8.9 3.3-1.1 1.3-2.5 2.2-4 3.2"/>
  <g>
    <path fill="#19753B" d="M36.8 71.5a34 34 0 01-4-4.5c-.5-.7-.4-1.3 0-2a428 428 0 018.4-16.2c.5-.8.7-1 1.5-.3 1.6 1.4 3.6 2.4 5.8 3-1.6-1.5-3-3.3-4.4-5-.6-1-.7-1.6 0-2.5a24 24 0 015.5-6.1c2.8-2 5.8-2.5 9-.9 3.7 1.9 7 4.3 9.7 7.4a9 9 0 01.3 10.7c-.4.6-.8.3-1.3.2L63.7 54c-1.1-.4-2.2-1-3.5-2.1.6 1.6 1.7 2.4 2.5 3.3.9 1 2 1.8 3.1 2.4 1 .5.7.8.2 1.4-2.2 2.7-4.8 5-7 7.6-1.8 2.2-3.5 2-5.7 1-1.4-.6-2.7-1.3-4.4-2.3 1.4 2.2 3 3.7 4.7 4.9.8.5.9.8.2 1.5l-13 12c-.7.4-1.2.5-1.9.2-1.5-.6-3-1.4-4.5-2.2.7 1.3 1.7 2.4 2.8 3.3.8.6.8 1 0 1.6-3 2.4-6 5-9.2 7.2a9.4 9.4 0 01-3.7 1.8c-1.6.3-2.5-.4-2.7-2-.2-1.3.1-2.5.5-3.6a216 216 0 018.5-20.6c.4-.8.7-.6 1.3-.2a15 15 0 005 2.3M88.5 17.1c2.5 2 2.4 3-.4 4.2-1.2.6-2.4 1-3.6 1.4v.3c.6.7 1.3 1.5.8 2.5-.5 1.1-1.6 1-2.6 1-5.4-.5-9.2 2-12.4 6.4 3.7-.7 7.3-.1 10.1-2.7.6-.6 1.6-1 2.4-1.2 2.6-1 3.4-.3 2.9 2.5.9 0 1.8-.2 2.6 0 1.3.3 2.4 1 2.3 2.5 0 .5.2.7.7.8.7.1 1.4.4 2 .8 1 .8 1.3 1.8.5 2.8-.5.6-.3 1 0 1.5.5 1 1 2 .4 3-.8 1.2-2 1.2-3.1.9-.9-.2-1.1 0-1.3.8-.3 1.4-1.2 1.8-2.4 1.2-1.1-.6-2-1.4-2.8-2.2-.4-.4-.6-.7-1-.1-1 1-1.7 1-2.6-.2-.3-.3-.5-.7-.7-1.2-.4-1-.7-1.8-2-.8-.6.4-1.2-.1-1.5-.7-.4-.8-.5-1.6-.5-2.4-.1-2.1-1.4-3.1-3.5-2.7a8.8 8.8 0 00-4.5 3c-1.7 1.8-1.7 1.8-3.8.2-2-1.5-2-1.5-.8-3.7.7-1.3 1.4-2.7 1.5-4.2.2-2.7-1.2-4-3.8-3.4l-1.8.1c-1.1 0-1.8-.6-1.4-1.7.3-1-.2-1-.9-1.1l-2-.5c-1.4-.5-1.6-1.1-.9-2.3.4-.5.3-.7-.2-1-1.1-.5-2.2-1.1-3-2-1-1.1-1-2 .4-2.8.8-.4 1-.7.4-1.3l-.2-.5c-.4-1-.6-1.9 0-2.7.8-1 1.7-1 2.7-.7.8.2 1.5.4 2.1-.6.5-.8 1.4-.7 2.2-.3a4 4 0 011.5 1.5c.4.6.6 1.1 1.6.8 1.1-.4 1.9.3 2.5 1.2.5.8.6 1.8.8 2.7h.3c2.1-1.4 3.2-.5 3.1 2.1 0 1.2-.2 2.3-.6 3.4a8.6 8.6 0 00-.3 5.5l.7 4.2c3-4 4.4-8 3-12.8-.2-.5-.5-1-.6-1.6-.5-1.8.5-2.8 2.3-2.3l1 .4c.2-1.6 0-3.2.4-4.7.5-2.3 1.3-2.6 3-1.3.8.6 1 .2 1.1-.4a16 16 0 011.7-3.9c1-1.7 2.4-1.8 3.4 0 .8 1.3 1.4 1.2 2.4.3l.3-.1c1-.6 2.3-1.2 3.4-.4 1.3 1 1 2.3.7 3.6v.1c-.6 1.2-.5 1.9 1 2.3 2 .5 2.2 1.8.9 3.3-1.1 1.3-2.5 2.2-4 3.2"/>
  </g>
</svg>