<svg xmlns="http://www.w3.org/2000/svg" width="108.1" height="107.3" viewBox="0 -2.9 108.1 107.3">
  <path fill="#FFF" stroke="#FFF" stroke-width="10.5" stroke-miterlimit="10" d="M42.5 45.9h32.7v38.8H42.5z"/>
  <path fill="#3E55A3" stroke="#FFF" stroke-width="10.5" stroke-miterlimit="10" d="M79.6 49.4c0-7.2-2.7-13-8.4-17.3-.5-.4-1.3-.6-2-.6h-20c-.7 0-1.5.2-2 .6-5.4 4.1-8.3 9.6-8.4 16.4v41.9c0 4.3 2.8 7.2 7 7.3h26.7c2.1 0 4-.8 5.4-2.4a7.3 7.3 0 001.7-5c0-13.7-.1-27.3 0-41m-6.2 33.9H45V48.5h28.5v34.7zM56.2 75h6v-6.1h6v-6h-6v-6H56v6h-6v6h6v6zm7.4-71.6h-2.9C55 4 49.1 4.8 43.3 5.8c-2.6.4-5.1 1.2-7.8 1.9l1.3 3.2c2.9-.5 5.6-1 8.4-1.3 2.8-.4 5.6-.6 8.6-.9V19h10.7V9.2l4 .5c.6-4-1-6-4.9-6.3M40.4 27.3c-.4-1.4-.9-2.9-1.6-4.1l-5-8-2.6 3.6-2.3 3.7c-.7 1.6-1.5 3.2-2 4.9-.8 2.9.4 5.7 2.8 7.3a7.3 7.3 0 008 0 6.7 6.7 0 002.7-7.4m-10 4.2c-1.2-1.5-1-4 .5-6 .2 3.1 1.7 5.4 4.2 7-1.7.8-3.5.4-4.6-1m19.8-2.3H68v-8H50.3v8z"/>
  <path fill="#3E55A3" stroke="#FFF" stroke-width="10.5" stroke-miterlimit="10" d="M68.5 9.7l-4-.5v9.6H53.8v-10c-3 .2-5.8.4-8.6.8-2.7.3-5.5.8-8.4 1.3l-1.3-3.2c2.7-.7 5.2-1.5 7.8-2 5.8-.9 11.6-1.6 17.4-2.3h2.9c3.9.3 5.5 2.3 4.9 6.3M40.4 27.3c-.4-1.4-.9-2.9-1.6-4.1l-5-8-2.6 3.6-2.3 3.7c-.7 1.6-1.5 3.2-2 4.9-.8 2.9.4 5.7 2.8 7.3a7.3 7.3 0 008 0 6.7 6.7 0 002.7-7.4m-10 4.2c-1.2-1.5-1-4 .5-6 .2 3.1 1.7 5.4 4.2 7-1.7.8-3.5.4-4.6-1M50.3 21.1H68v8.1H50.3zM68.2 62.8v6.1h-5.9V75h-6.1v-6h-6.1v-6.1h6v-6h6.1v5.9z"/>
  <path fill="#3E55A3" stroke="#FFF" stroke-width="10.5" stroke-miterlimit="10" d="M79.6 49.4c0-7.2-2.7-13-8.4-17.3-.5-.4-1.3-.6-2-.6h-20c-.7 0-1.5.2-2 .6-5.4 4.1-8.3 9.6-8.4 16.4v41.9c0 4.3 2.8 7.2 7 7.3h26.7c2.1 0 4-.8 5.4-2.4a7.3 7.3 0 001.7-5c0-13.7-.1-27.3 0-41m-6.2 33.9H45V48.5h28.5v34.7z"/>
  <g>
    <path fill="#FFF" d="M42.5 45.9h32.7v38.8H42.5z"/>
    <path fill="#3E55A3" d="M79.6 49.4c0-7.2-2.7-13-8.4-17.3-.5-.4-1.3-.6-2-.6h-20c-.7 0-1.5.2-2 .6-5.4 4.1-8.3 9.6-8.4 16.4v41.9c0 4.3 2.8 7.2 7 7.3h26.7c2.1 0 4-.8 5.4-2.4a7.3 7.3 0 001.7-5c0-13.7-.1-27.3 0-41m-6.2 33.9H45V48.5h28.5v34.7zM56.2 75h6v-6.1h6v-6h-6v-6H56v6h-6v6h6v6zm7.4-71.6h-2.9C55 4 49.1 4.8 43.3 5.8c-2.6.4-5.1 1.2-7.8 1.9l1.3 3.2c2.9-.5 5.6-1 8.4-1.3 2.8-.4 5.6-.6 8.6-.9V19h10.7V9.2l4 .5c.6-4-1-6-4.9-6.3M40.4 27.3c-.4-1.4-.9-2.9-1.6-4.1l-5-8-2.6 3.6-2.3 3.7c-.7 1.6-1.5 3.2-2 4.9-.8 2.9.4 5.7 2.8 7.3a7.3 7.3 0 008 0 6.7 6.7 0 002.7-7.4m-10 4.2c-1.2-1.5-1-4 .5-6 .2 3.1 1.7 5.4 4.2 7-1.7.8-3.5.4-4.6-1m19.8-2.3H68v-8H50.3v8z"/>
    <path fill="#3E55A3" d="M68.5 9.7l-4-.5v9.6H53.8v-10c-3 .2-5.8.4-8.6.8-2.7.3-5.5.8-8.4 1.3l-1.3-3.2c2.7-.7 5.2-1.5 7.8-2 5.8-.9 11.6-1.6 17.4-2.3h2.9c3.9.3 5.5 2.3 4.9 6.3M40.4 27.3c-.4-1.4-.9-2.9-1.6-4.1l-5-8-2.6 3.6-2.3 3.7c-.7 1.6-1.5 3.2-2 4.9-.8 2.9.4 5.7 2.8 7.3a7.3 7.3 0 008 0 6.7 6.7 0 002.7-7.4m-10 4.2c-1.2-1.5-1-4 .5-6 .2 3.1 1.7 5.4 4.2 7-1.7.8-3.5.4-4.6-1M50.3 21.1H68v8.1H50.3zM68.2 62.8v6.1h-5.9V75h-6.1v-6h-6.1v-6.1h6v-6h6.1v5.9z"/>
    <path fill="#3E55A3" d="M79.6 49.4c0-7.2-2.7-13-8.4-17.3-.5-.4-1.3-.6-2-.6h-20c-.7 0-1.5.2-2 .6-5.4 4.1-8.3 9.6-8.4 16.4v41.9c0 4.3 2.8 7.2 7 7.3h26.7c2.1 0 4-.8 5.4-2.4a7.3 7.3 0 001.7-5c0-13.7-.1-27.3 0-41m-6.2 33.9H45V48.5h28.5v34.7z"/>
  </g>
</svg>