<svg xmlns="http://www.w3.org/2000/svg" width="108.1" height="107.3" viewBox="0 -2.9 108.1 107.3">
  <path fill="#FFF" stroke="#FFF" stroke-width="9.9" stroke-miterlimit="10" d="M68.3 30c0 6.4-4.8 11.5-10.7 11.5H53c-5.9 0-10.6-5.1-10.6-11.5h0c0-6.3 4.7-11.5 10.6-11.5h4.7c6 0 10.7 5.2 10.7 11.5h0zM46.1 87.4c0 5-3.8 9-8.5 9H34c-4.7 0-8.5-4-8.5-9h0c0-5 3.8-9 8.5-9h3.7c4.7 0 8.5 4 8.5 9h0zM86.6 80.1A9.9 9.9 0 0183.8 93l-3.2 2c-4 2.7-9.3 1.3-11.8-3.2h0A9.9 9.9 0 0171.7 79l3.2-2.1c4-2.7 9.2-1.2 11.7 3.2h0z"/>
  <path fill="#67C29C" stroke="#FFF" stroke-width="9.9" stroke-miterlimit="10" d="M76.6 23.3l-.1-.3c-1.7-6.3-5-11.8-9.8-15C65 6.6 63 5.7 61 5.2 57 4.4 50 2.5 43.8 7.5c0 0 0 0 0 0l-.7.6s0 0 0 0a23.9 23.9 0 00-9 12.7c-1.2 5.3 0 12.3 3 16a13 13 0 003.6 3.4c4 2.5 9 3 13.5 3 5.6 0 8.6.8 13.9-2a15.5 15.5 0 004.2-3.4 17 17 0 004.3-14.5m-13 13.4C61.5 40.1 57.4 40 54 40c-3 0-5.7-1.5-7.5-4a7.5 7.5 0 01-.5-8.3 9 9 0 013-3s0 0 0 0c-1 0-1.9-.8-1.9-1.9 0-1 .8-2 1.8-2s1.8 1 1.8 2c0 .5-.2 1-.5 1.3l1.6-.5h.4c1.3-.3 3.4-.3 4.4-.3a7 7 0 012.5.6 2 2 0 01-.2-1c0-1.2.7-2 1.7-2s1.8.8 1.8 2c0 1-.7 1.7-1.6 1.8 1.7 1.1 3 2.7 3.9 4.5 1.5 3.2.3 5.2-1.2 7.6"/>
  <path fill="#67C29C" stroke="#FFF" stroke-width="9.9" stroke-miterlimit="10" d="M42.4 6.5l-.5.4a25.6 25.6 0 00-9.1 12.8L32 19c-3.2-3.7-4.6-10 .3-13 1.9-1.1 4.3-1.6 6.5-1.2 1.4.2 2.5 1 3.6 1.8M78.1 22.4H78A28 28 0 0068 7c1.9-1 4.5-1 6-.8 2.6.5 5.2 1.6 6.6 4 2.3 4 1 9.8-2.5 12.3M79 65.6h-.1a10.2 10.2 0 00-8.2-1.8s0 0 0 0H70v.2c-3.4.8-6 3-7.3 6.1-.8 2.1-.5 4.2-.3 6 .2 1.6.4 3-.1 4h0l-.1.1-.6 1.2c-.6.9-1.1 2-1.3 3.4l.1 2.3-2.6.1c-2.9 0-5.8.2-8.6 0a15.3 15.3 0 00-.2-4.4c-.2-.5-.2-1-.3-1.7v-.4c0-.6 0-1 .3-1.7.2-.6.5-1.2.6-2 .3-2.8-.5-5.6-2.3-7.9a13.6 13.6 0 00-11.2-5c1.6-7.3 3.3-14.7 4.3-22.1A28 28 0 0054 44.9h5.5a17.8 17.8 0 0011-3.4c2.2 7.6 7 16 8.3 24M39 41v.8c-.9 6.5-2.3 13-3.7 19.4l-.7 3-.3.2H34l-.2.1s0 0 0 0c-3.7 1.2-7.5 5-8.2 5.7l-.2.3c-6.9-2.6-5.8-11.1-2.2-16.5 2.3-3.5 5.3-6.5 8.2-9.3 1.4-1.3 3-2.3 4.7-3.4a26 26 0 001.7-1.2l.5.4.8.6M92 64.9c-.5 3.1-2.9 5.2-5.7 6.3-1.6-2-3.5-3.4-5.7-4.6a64 64 0 00-5-16.1A91 91 0 0172 41l-.2-.5 1.5-1.5.4-.4c9.2 5 20 13.5 18.2 26.3M59.7 29.1c0 .7-.4 1.3-1 1.7-.8.6-1.7 1.4-2.6 1.7-1.6.5-3.6-.2-5-1-.6-.4-1.5-1-1.7-1.8-.2-.6 0-1.5.4-2 .5-1 1.8-1.6 3-1.8h0c2.4-.4 7 0 6.9 3.2"/>
  <path fill="#67C29C" stroke="#FFF" stroke-width="9.9" stroke-miterlimit="10" d="M35 66s0 0 0 0h-.4s0 0 0 0h0l-.4.1c-2.7.9-5.9 3.6-7.6 5.4-3 3-5.5 7.7-4.4 12.4 1.2 4.9 3.7 9.3 8 11.7 4.3 2.4 11 3.5 14.7-.7 1.8-2.1 3-6 3-9 0-1.5-.5-3-.6-4.6v-.5c-.2-1.7.7-2.5.9-4 .8-6.8-7-12.2-13.2-10.9m8.4 26.7l-.3 1.2c-3.4 3-8.8 2-12.4 0a12 12 0 01-3.6-3l-.6-2.6c-.3-1.6-.3-3.4.2-5 1-2.7 4.6-4.3 7.1-4.6 3.7-.4 7 .8 8.9 4.4 1.5 3 1.4 6.1.7 9.6M86 73.7a16.1 16.1 0 00-7.2-6.3c-2-1.2-4-2.8-7.9-2 0 0 0 0 0 0h-.1a8.9 8.9 0 00-6.6 5.4c-1.3 3.3 1 7.1-.5 10v.1c-.6 1.5-1.6 2.5-1.8 4-.2 2.3 1 4.7 2 6.5a9.4 9.4 0 006.7 4.8c4.8.6 12.4.4 15.5-4.6a17.1 17.1 0 000-18M85.3 90l-.1.3c-2.8 4.5-9.6 4.7-14 4.1l-1.5-.4a26 26 0 01-.6-4.9c0-2.7.3-5.2 1.7-7.6 2.3-3.5 6-4.9 9.9-4.6 6.3.4 6.4 7.3 4.6 13"/>
  <g>
    <path fill="#FFF" d="M68.3 30c0 6.4-4.8 11.5-10.7 11.5H53c-5.9 0-10.6-5.1-10.6-11.5 0-6.3 4.7-11.5 10.6-11.5h4.7c6 0 10.7 5.2 10.7 11.5zM46.1 87.4c0 5-3.8 9-8.5 9H34c-4.7 0-8.5-4-8.5-9s3.8-9 8.5-9h3.7c4.7 0 8.5 4 8.5 9zM86.6 80.1A9.9 9.9 0 0183.8 93l-3.2 2c-4 2.7-9.3 1.3-11.8-3.2A9.9 9.9 0 0171.7 79l3.2-2.1c4-2.7 9.2-1.2 11.7 3.2z"/>
    <path fill="#FF8D27" d="M76.6 23.3l-.1-.3c-1.7-6.3-5-11.8-9.8-15C65 6.6 63 5.7 61 5.2 57 4.4 50 2.5 43.8 7.5l-.7.6a23.9 23.9 0 00-9 12.7c-1.2 5.3 0 12.3 3 16a13 13 0 003.6 3.4c4 2.5 9 3 13.5 3 5.6 0 8.6.8 13.9-2a15.5 15.5 0 004.2-3.4 17 17 0 004.3-14.5m-13 13.4C61.5 40.1 57.4 40 54 40c-3 0-5.7-1.5-7.5-4a7.5 7.5 0 01-.5-8.3 9 9 0 013-3c-1 0-1.9-.8-1.9-1.9 0-1 .8-2 1.8-2s1.8 1 1.8 2c0 .5-.2 1-.5 1.3l1.6-.5h.4c1.3-.3 3.4-.3 4.4-.3a7 7 0 012.5.6 2 2 0 01-.2-1c0-1.2.7-2 1.7-2s1.8.8 1.8 2c0 1-.7 1.7-1.6 1.8 1.7 1.1 3 2.7 3.9 4.5 1.5 3.2.3 5.2-1.2 7.6"/>
    <path fill="#FF8D27" d="M42.4 6.5l-.5.4a25.6 25.6 0 00-9.1 12.8L32 19c-3.2-3.7-4.6-10 .3-13 1.9-1.1 4.3-1.6 6.5-1.2 1.4.2 2.5 1 3.6 1.8M78.1 22.4H78A28 28 0 0068 7c1.9-1 4.5-1 6-.8 2.6.5 5.2 1.6 6.6 4 2.3 4 1 9.8-2.5 12.3M79 65.6h-.1a10.2 10.2 0 00-8.2-1.8H70v.2c-3.4.8-6 3-7.3 6.1-.8 2.1-.5 4.2-.3 6 .2 1.6.4 3-.1 4l-.1.1-.6 1.2c-.6.9-1.1 2-1.3 3.4l.1 2.3-2.6.1c-2.9 0-5.8.2-8.6 0a15.3 15.3 0 00-.2-4.4c-.2-.5-.2-1-.3-1.7v-.4c0-.6 0-1 .3-1.7.2-.6.5-1.2.6-2 .3-2.8-.5-5.6-2.3-7.9a13.6 13.6 0 00-11.2-5c1.6-7.3 3.3-14.7 4.3-22.1A28 28 0 0054 44.9h5.5a17.8 17.8 0 0011-3.4c2.2 7.6 7 16 8.3 24M39 41v.8c-.9 6.5-2.3 13-3.7 19.4l-.7 3-.3.2H34l-.2.1c-3.7 1.2-7.5 5-8.2 5.7l-.2.3c-6.9-2.6-5.8-11.1-2.2-16.5 2.3-3.5 5.3-6.5 8.2-9.3 1.4-1.3 3-2.3 4.7-3.4a26 26 0 001.7-1.2l.5.4.8.6M92 64.9c-.5 3.1-2.9 5.2-5.7 6.3-1.6-2-3.5-3.4-5.7-4.6a64 64 0 00-5-16.1A91 91 0 0172 41l-.2-.5 1.5-1.5.4-.4c9.2 5 20 13.5 18.2 26.3M59.7 29.1c0 .7-.4 1.3-1 1.7-.8.6-1.7 1.4-2.6 1.7-1.6.5-3.6-.2-5-1-.6-.4-1.5-1-1.7-1.8-.2-.6 0-1.5.4-2 .5-1 1.8-1.6 3-1.8 2.4-.4 7 0 6.9 3.2"/>
    <path fill="#FF8D27" d="M35 66h-.4l-.4.1c-2.7.9-5.9 3.6-7.6 5.4-3 3-5.5 7.7-4.4 12.4 1.2 4.9 3.7 9.3 8 11.7 4.3 2.4 11 3.5 14.7-.7 1.8-2.1 3-6 3-9 0-1.5-.5-3-.6-4.6v-.5c-.2-1.7.7-2.5.9-4 .8-6.8-7-12.2-13.2-10.9m8.4 26.7l-.3 1.2c-3.4 3-8.8 2-12.4 0a12 12 0 01-3.6-3l-.6-2.6c-.3-1.6-.3-3.4.2-5 1-2.7 4.6-4.3 7.1-4.6 3.7-.4 7 .8 8.9 4.4 1.5 3 1.4 6.1.7 9.6M86 73.7a16.1 16.1 0 00-7.2-6.3c-2-1.2-4-2.8-7.9-2h-.1a8.9 8.9 0 00-6.6 5.4c-1.3 3.3 1 7.1-.5 10v.1c-.6 1.5-1.6 2.5-1.8 4-.2 2.3 1 4.7 2 6.5a9.4 9.4 0 006.7 4.8c4.8.6 12.4.4 15.5-4.6a17.1 17.1 0 000-18M85.3 90l-.1.3c-2.8 4.5-9.6 4.7-14 4.1l-1.5-.4a26 26 0 01-.6-4.9c0-2.7.3-5.2 1.7-7.6 2.3-3.5 6-4.9 9.9-4.6 6.3.4 6.4 7.3 4.6 13"/>
  </g>
</svg>