<svg xmlns="http://www.w3.org/2000/svg" width="73" height="83" viewBox="0 0 73 83"><g><g><path fill="#fff" d="M36.46 5.01L4.48 14.137v16.038c0 20.606 12.23 39.164 31.125 47.268l.855.34.855-.34a51.382 51.382 0 0 0 31.149-47.268V14.137z"/></g><g><path fill="#fff" d="M36.46 82.518l-2.59-1.032C13.343 72.683.079 52.542.079 30.175V10.817L36.459.435l36.405 10.38v19.36a55.76 55.76 0 0 1-33.815 51.312l-.963.385zM8.88 17.457v12.718c0 18.522 10.793 35.23 27.58 42.837a46.969 46.969 0 0 0 27.604-42.837V17.458L36.46 9.586z"/></g><g><path fill="#582d8f" d="M36.769 78.998l-1.273-.506A52.496 52.496 0 0 1 3.659 30.175v-16.89l33.11-9.45 33.132 9.45v16.89A52.494 52.494 0 0 1 38.069 78.48zM5.917 14.988v15.187c0 20.152 11.949 38.298 30.441 46.23l.411.163.438-.175c18.479-7.923 30.437-26.068 30.437-46.218V14.989L36.769 6.184z"/></g><g><path fill="#582d8f" d="M36.769 13.88l-23.445 6.698v9.595a42.879 42.879 0 0 0 22.418 37.709l1.027.554 1.035-.554a42.874 42.874 0 0 0 22.43-37.71v-9.594z"/></g><g><path fill="#fff" d="M38.956 38.987v-5.856h-4.363v5.856H28.73v4.371h5.864v5.854h4.363v-5.854h5.871v-4.37z"/></g></g></svg>