<svg xmlns="http://www.w3.org/2000/svg" width="57" height="97" viewBox="0 0 57 97"><g><g><path fill="#005b53" d="M25.953 19.579c0 3.809-.021 7.603.01 11.403.006.604-.352 1.637.514 1.7.76.056.78-.992.924-1.633 1.59-6.77 3.157-13.557 4.727-20.337.419-1.776 1.099-2.44 2.299-2.264 1.327.2 2.068 1.253 1.974 2.95-.35 6.426-1.428 12.773-2.39 19.128-.613 4.063-.972 8.132-.641 12.23.109 1.317-.033 2.977 1.639 3.416 1.603.422 2.596-.828 3.475-1.943 1.33-1.678 2.53-3.458 3.91-5.102 2.267-2.72 5.56-3.48 8.857-2.174.549.22 1.16.439 1.249 1.1.085.653-.39 1.085-.886 1.42-3.341 2.232-5.542 5.499-7.422 8.878-2.543 4.594-5.42 8.884-9.004 12.717-1.2 1.275-2.343 2.618-3.597 3.834-1.431 1.383-1.97 3.044-2.103 4.968-.301 4.372.419 8.652 1.038 12.942.394 2.749.785 5.497 1.245 8.23.162.978-.103 1.25-1.095 1.242-7.4-.028-14.814-.032-22.215.008-1.057.004-1.318-.31-1.204-1.328.573-5.474 1.062-10.961 1.632-16.435.305-2.891.224-5.715-.651-8.522-2.617-8.382-3.458-16.94-2.722-25.702.43-5.12-.655-10.196-.993-15.294-.154-2.276-.582-4.536-.297-6.841.098-.82.374-1.402 1.229-1.59.882-.196 1.346.33 1.733 1.008.379.639.529 1.35.67 2.067.864 4.345 1.726 8.697 2.589 13.042.037.187.045.388.097.57.208.65.404 1.5 1.242 1.367.785-.121.67-1.02.638-1.601-.158-3.361-.411-6.71-.597-10.066-.196-3.648-.404-7.3.097-10.947.098-.765.329-1.517.492-2.274.22-1.011.716-1.66 1.872-1.678 1.212-.013 2.13.429 2.514 1.588.244.72.32 1.518.359 2.293.333 6.225.626 12.458.93 18.689.013.143-.003.295.037.437.135.534.07 1.343.814 1.317.61-.023.672-.773.708-1.294.268-3.983.468-7.971.805-11.954.334-4.027.786-8.041 1.225-12.065.176-1.611 1.029-2.462 2.352-2.48 1.44-.008 2.547.973 2.616 2.578zm6.464 29.614c-.182-.944-.704-1.75-1.765-1.704-1.05.034-1.685.8-1.656 1.847.028.968.667 1.7 1.639 1.678zm-13.573.668c-1.05.007-1.936.868-1.97 1.749-.027.903.998 1.884 1.934 1.768.993-.12 1.559-.82 1.595-1.768zm-5.915 1.696c1.285-.044 1.847-.708 1.798-1.778-.045-.98-.671-1.62-1.656-1.71-.883-.084-1.9 1.016-1.786 1.926zm5.789-6.32c-.105-.94-.61-1.634-1.62-1.691-1.081-.055-1.785.598-1.81 1.668-.024 1.066.639 1.745 1.734 1.74zm-7.376-1.138c1.037-.102 1.676-.693 1.685-1.682.008-1.07-.672-1.768-1.75-1.736-1.062.03-1.725.717-1.652 1.813zm10.293 14.926c.986-.12 1.636-.687 1.649-1.686.015-1.075-.656-1.754-1.738-1.742-.993.004-1.664.637-1.673 1.652zm7.349-.59c1.009-.075 1.643-.627 1.684-1.637.04-1.093-.623-1.764-1.701-1.772-1.082-.011-1.737.694-1.7 1.772zm-2.812-6.45c-.154-.957-.687-1.636-1.8-1.597-.983.04-1.663.514-1.626 1.617.042 1.078.598 1.704 1.7 1.758zm-9.7 5.403c-.053-1.124-.654-1.791-1.725-1.795-.984-.004-1.64.596-1.668 1.634-.033 1.02.525 1.674 1.539 1.76zm.537-16.73c1.038-.117 1.709-.676 1.673-1.777-.024-1.007-.663-1.615-1.681-1.623-1.11-.006-1.737.683-1.713 1.739zm9.163 1.718c1.046-.101 1.668-.661 1.68-1.672.005-1.088-.63-1.741-1.721-1.73-1.012.019-1.64.623-1.647 1.653zm-.655 3.49c-.094-1.103-.684-1.767-1.75-1.744-.984.018-1.595.626-1.647 1.656-.045 1.003.809 1.853 1.843 1.822z"/><path fill="none" stroke="#fff" stroke-miterlimit="20" stroke-width="7.85" d="M25.953 19.579c0 3.809-.021 7.603.01 11.403.006.604-.352 1.637.514 1.7.76.056.78-.992.924-1.633 1.59-6.77 3.157-13.557 4.727-20.337.419-1.776 1.099-2.44 2.299-2.264 1.327.2 2.068 1.253 1.974 2.95-.35 6.426-1.428 12.773-2.39 19.128-.613 4.063-.972 8.132-.641 12.23.109 1.317-.033 2.977 1.639 3.416 1.603.422 2.596-.828 3.475-1.943 1.33-1.678 2.53-3.458 3.91-5.102 2.267-2.72 5.56-3.48 8.857-2.174.549.22 1.16.439 1.249 1.1.085.653-.39 1.085-.886 1.42-3.341 2.232-5.542 5.499-7.422 8.878-2.543 4.594-5.42 8.884-9.004 12.717-1.2 1.275-2.343 2.618-3.597 3.834-1.431 1.383-1.97 3.044-2.103 4.968-.301 4.372.419 8.652 1.038 12.942.394 2.749.785 5.497 1.245 8.23.162.978-.103 1.25-1.095 1.242-7.4-.028-14.814-.032-22.215.008-1.057.004-1.318-.31-1.204-1.328.573-5.474 1.062-10.961 1.632-16.435.305-2.891.224-5.715-.651-8.522-2.617-8.382-3.458-16.94-2.722-25.702.43-5.12-.655-10.196-.993-15.294-.154-2.276-.582-4.536-.297-6.841.098-.82.374-1.402 1.229-1.59.882-.196 1.346.33 1.733 1.008.379.639.529 1.35.67 2.067.864 4.345 1.726 8.697 2.589 13.042.037.187.045.388.097.57.208.65.404 1.5 1.242 1.367.785-.121.67-1.02.638-1.601-.158-3.361-.411-6.71-.597-10.066-.196-3.648-.404-7.3.097-10.947.098-.765.329-1.517.492-2.274.22-1.011.716-1.66 1.872-1.678 1.212-.013 2.13.429 2.514 1.588.244.72.32 1.518.359 2.293.333 6.225.626 12.458.93 18.689.013.143-.003.295.037.437.135.534.07 1.343.814 1.317.61-.023.672-.773.708-1.294.268-3.983.468-7.971.805-11.954.334-4.027.786-8.041 1.225-12.065.176-1.611 1.029-2.462 2.352-2.48 1.44-.008 2.547.973 2.616 2.578zm6.464 29.614c-.182-.944-.704-1.75-1.765-1.704-1.05.034-1.685.8-1.656 1.847.028.968.667 1.7 1.639 1.678zm-13.573.668c-1.05.007-1.936.868-1.97 1.749-.027.903.998 1.884 1.934 1.768.993-.12 1.559-.82 1.595-1.768zm-5.915 1.696c1.285-.044 1.847-.708 1.798-1.778-.045-.98-.671-1.62-1.656-1.71-.883-.084-1.9 1.016-1.786 1.926zm5.789-6.32c-.105-.94-.61-1.634-1.62-1.691-1.081-.055-1.785.598-1.81 1.668-.024 1.066.639 1.745 1.734 1.74zm-7.376-1.138c1.037-.102 1.676-.693 1.685-1.682.008-1.07-.672-1.768-1.75-1.736-1.062.03-1.725.717-1.652 1.813zm10.293 14.926c.986-.12 1.636-.687 1.649-1.686.015-1.075-.656-1.754-1.738-1.742-.993.004-1.664.637-1.673 1.652zm7.349-.59c1.009-.075 1.643-.627 1.684-1.637.04-1.093-.623-1.764-1.701-1.772-1.082-.011-1.737.694-1.7 1.772zm-2.812-6.45c-.154-.957-.687-1.636-1.8-1.597-.983.04-1.663.514-1.626 1.617.042 1.078.598 1.704 1.7 1.758zm-9.7 5.403c-.053-1.124-.654-1.791-1.725-1.795-.984-.004-1.64.596-1.668 1.634-.033 1.02.525 1.674 1.539 1.76zm.537-16.73c1.038-.117 1.709-.676 1.673-1.777-.024-1.007-.663-1.615-1.681-1.623-1.11-.006-1.737.683-1.713 1.739zm9.163 1.718c1.046-.101 1.668-.661 1.68-1.672.005-1.088-.63-1.741-1.721-1.73-1.012.019-1.64.623-1.647 1.653zm-.655 3.49c-.094-1.103-.684-1.767-1.75-1.744-.984.018-1.595.626-1.647 1.656-.045 1.003.809 1.853 1.843 1.822z"/></g><g><path fill="#0e6c60" d="M25.964 30.982c.005.604-.353 1.637.513 1.7.76.056.78-.992.924-1.633 1.59-6.77 3.157-13.557 4.727-20.337.419-1.776 1.099-2.44 2.299-2.264 1.327.2 2.068 1.253 1.974 2.95-.35 6.426-1.428 12.773-2.39 19.128-.613 4.063-.972 8.132-.641 12.23.109 1.317-.033 2.977 1.639 3.416 1.603.422 2.596-.828 3.475-1.943 1.33-1.678 2.53-3.458 3.91-5.102 2.267-2.72 5.56-3.48 8.857-2.174.549.22 1.16.439 1.249 1.1.085.653-.39 1.085-.886 1.42-3.341 2.232-5.542 5.499-7.422 8.878-2.543 4.594-5.42 8.884-9.004 12.717-1.2 1.275-2.343 2.618-3.597 3.834-1.431 1.383-1.97 3.044-2.103 4.968-.301 4.372.419 8.652 1.038 12.942.394 2.749.785 5.497 1.245 8.23.162.978-.103 1.25-1.095 1.242-7.4-.028-14.814-.032-22.215.008-1.057.004-1.318-.31-1.204-1.328.573-5.474 1.062-10.961 1.632-16.435.305-2.891.224-5.715-.651-8.522-2.617-8.382-3.458-16.94-2.722-25.702.43-5.12-.655-10.196-.993-15.294-.154-2.276-.582-4.536-.297-6.841.098-.82.374-1.402 1.229-1.59.882-.196 1.346.33 1.733 1.008.379.639.529 1.35.67 2.067.864 4.345 1.726 8.697 2.589 13.042.037.187.045.388.097.57.208.65.404 1.5 1.242 1.367.785-.121.67-1.02.638-1.601-.158-3.361-.411-6.71-.597-10.066-.196-3.648-.404-7.3.097-10.947.098-.765.329-1.517.492-2.274.22-1.011.716-1.66 1.872-1.678 1.212-.013 2.13.429 2.514 1.588.244.72.32 1.518.359 2.293.333 6.225.626 12.458.93 18.689.013.143-.003.295.037.437.135.534.07 1.343.814 1.317.61-.023.672-.773.708-1.294.268-3.983.468-7.971.805-11.954.334-4.027.786-8.041 1.225-12.065.176-1.611 1.029-2.462 2.352-2.48 1.44-.008 2.547.973 2.616 2.578.167 4.135-.244 8.267-.695 12.402 0 3.809-.021 7.603.01 11.403zm4.688 16.507c-1.05.034-1.685.8-1.656 1.847.028.968.667 1.7 1.639 1.678 1.01-.016 1.689-.661 1.782-1.821-.182-.944-.704-1.75-1.765-1.704zm-13.777 4.12c-.028.904.997 1.885 1.933 1.769.993-.12 1.559-.82 1.595-1.768.028-1.078-.64-1.656-1.56-1.75-1.048.008-1.935.869-1.968 1.75zm-2.148-1.83c-.045-.98-.671-1.62-1.656-1.71-.883-.084-1.9 1.016-1.786 1.926.13.997.838 1.458 1.644 1.562 1.285-.044 1.847-.708 1.798-1.778zm2.372-6.233c-1.082-.055-1.786.598-1.811 1.668-.024 1.066.639 1.745 1.734 1.74 1.017-.013 1.554-.67 1.696-1.717-.105-.94-.61-1.634-1.62-1.691zm-4.072-1.13c.008-1.07-.672-1.767-1.75-1.735-1.062.03-1.725.717-1.652 1.813.057 1.019.724 1.534 1.717 1.605 1.037-.102 1.676-.693 1.685-1.682zM23.284 57.34c.015-1.075-.656-1.754-1.738-1.742-.993.004-1.664.637-1.673 1.652-.007 1.097.652 1.67 1.762 1.776.986-.12 1.636-.687 1.649-1.686zm7.384-.541c.04-1.093-.623-1.764-1.701-1.772-1.082-.011-1.737.694-1.7 1.772.036.988.663 1.57 1.717 1.637 1.009-.075 1.643-.627 1.684-1.637zm-6.295-6.41c-.984.04-1.664.514-1.627 1.617.042 1.078.598 1.704 1.7 1.758 1.169.054 1.629-.646 1.726-1.777-.154-.958-.687-1.637-1.8-1.598zm-9.626 5.205c-.984-.004-1.64.596-1.668 1.634-.033 1.02.525 1.674 1.539 1.76 1.106.083 1.683-.57 1.855-1.6-.054-1.123-.655-1.79-1.726-1.794zm3.935-16.712c-.024-1.007-.663-1.615-1.681-1.623-1.11-.006-1.737.683-1.713 1.739.02.995.656 1.58 1.72 1.662 1.039-.118 1.71-.677 1.674-1.778zm9.17 1.823c.005-1.088-.63-1.741-1.721-1.73-1.012.019-1.64.623-1.647 1.653-.013 1.1.638 1.652 1.688 1.749 1.046-.101 1.668-.661 1.68-1.672zm-4.084 3.418c-.985.018-1.596.626-1.648 1.656-.045 1.003.809 1.853 1.843 1.822 1.115-.036 1.387-.85 1.554-1.733-.094-1.104-.684-1.768-1.75-1.745z"/></g></g></svg>