<svg xmlns="http://www.w3.org/2000/svg" width="78" height="90" viewBox="0 0 78 90"><g><g><path fill="#fff" d="M36.808 87.335a1.999 1.999 0 0 1-2.645-1.011c-1.156-2.578-2-4.16-2.917-5.083-.75-.757-1.723-1.1-3.223-1.31-.766-.114-1.188-.169-1.617-.227-5.52-.74-13.785-1.862-16.004-5.663l.008-.005c-.032-.066-.075-.139-.106-.217-1.062-2.447-.504-4.382-.027-6.036.234-.783.402-1.393-.828-1.767A2.011 2.011 0 0 1 8.128 63.5c.16-.496.489-.892.899-1.133l-.082-.033a2.007 2.007 0 0 1-.903-2.69c.512-1.044.84-1.903 1.114-2.692-1.184-.23-2.465-.492-3.301-.728a5.182 5.182 0 0 1-1.031-.436c-.856-.465-1.532-1.159-1.934-1.994a4.078 4.078 0 0 1-.242-2.933c.086-.297.219-.608.39-.939.918-1.67 2.055-3.574 3.153-5.439 2.39-4.023 4.668-7.836 4.512-8.623a19.265 19.265 0 0 1-.352-3.679c0-6.475 3.145-12.973 8.109-18.173C23.355 8.874 30.062 4.97 37.277 3.581a30.01 30.01 0 0 1 5.703-.555c8.887 0 16.969 3.03 22.773 8.281 5.653 5.098 9.129 12.265 9.129 20.732 0 8.73-2.972 14.183-5.883 19.483-1.91 3.488-3.77 6.9-4.546 11.106-1.016 5.536 4.37 14.286 6.918 18.425.496.796.89 1.446 1.085 1.797a2.002 2.002 0 0 1-.77 2.737z"/></g><g><path fill="none" stroke="#fff" stroke-miterlimit="20" stroke-width="4.64" d="M36.808 87.335a1.999 1.999 0 0 1-2.645-1.011c-1.156-2.578-2-4.16-2.917-5.083-.75-.757-1.723-1.1-3.223-1.31-.766-.114-1.188-.169-1.617-.227-5.52-.74-13.785-1.862-16.004-5.663l.008-.005c-.032-.066-.075-.139-.106-.217-1.062-2.447-.504-4.382-.027-6.036.234-.783.402-1.393-.828-1.767A2.011 2.011 0 0 1 8.128 63.5c.16-.496.489-.892.899-1.133l-.082-.033a2.007 2.007 0 0 1-.903-2.69c.512-1.044.84-1.903 1.114-2.692-1.184-.23-2.465-.492-3.301-.728a5.182 5.182 0 0 1-1.031-.436c-.856-.465-1.532-1.159-1.934-1.994a4.078 4.078 0 0 1-.242-2.933c.086-.297.219-.608.39-.939.918-1.67 2.055-3.574 3.153-5.439 2.39-4.023 4.668-7.836 4.512-8.623a19.265 19.265 0 0 1-.352-3.679c0-6.475 3.145-12.973 8.109-18.173C23.355 8.874 30.062 4.97 37.277 3.581a30.01 30.01 0 0 1 5.703-.555c8.887 0 16.969 3.03 22.773 8.281 5.653 5.098 9.129 12.265 9.129 20.732 0 8.73-2.972 14.183-5.883 19.483-1.91 3.488-3.77 6.9-4.546 11.106-1.016 5.536 4.37 14.286 6.918 18.425.496.796.89 1.446 1.085 1.797a2.002 2.002 0 0 1-.77 2.737l-34.878 1.748v0z"/></g><g><path fill="gray" d="M27.042 35.3c0-.073.012-.141.02-.221a1.27 1.27 0 0 1 .129-.399 1.234 1.234 0 0 0-.61-1.626 1.22 1.22 0 0 0-1.45.321 4.267 4.267 0 0 1-.48-.91c-.308-.814-.394-1.729-.292-2.626a6.942 6.942 0 0 1 .78-2.546c.427-.77.973-1.346 1.555-1.57.368-.14.629-.449.747-.797.562-1.639 1.566-2.735 2.832-3.471 1.363-.785 3.054-1.191 4.87-1.393.235-.027.458-.12.622-.253 1.008-.793 2.35-1.427 4.023-1.67 1.46-.213 3.172-.129 5.125.404.53.149 1.094.291 1.645.436 2.855.73 5.664 1.455 7.879 3.358.175.155.277.241.386.327 1.133.961 2.317 1.958 2.782 4.178.105.499.496.863.968.956.21.048.414.16.602.351.238.219.445.528.598.928.523 1.319.51 2.226.148 2.876-.344.609-1.008 1.092-1.844 1.512-1.18-.266-2.547-.21-3.965.053-2.593.487-5.402 1.691-7.351 2.822-.02.008-.043.022-.063.03l-.074.047a1.232 1.232 0 0 0-.437 1.682 1.222 1.222 0 0 0 1.679.435l.075-.037a.326.326 0 0 0 .054-.03c1.754-1.016 4.27-2.097 6.574-2.529 1.21-.228 2.344-.271 3.188-.021a.58.58 0 0 0 .117.041c.449.157.813.417 1.047.794l.027.033.012.019c.117.213.05.722-.11 1.304-.214.802-.62 1.596-1.034 2.03-.852.88-1.801 1.551-2.821 1.938a5.963 5.963 0 0 1-1.88.378h-.053c-.34.005-.68-.019-1.028-.072a1.226 1.226 0 0 0-1.406 1.023c-.105.671.356 1.3 1.02 1.407.1.014.203.026.304.041-.02.191-.058.402-.093.621-.036.211-.071.43-.098.666a49.319 49.319 0 0 0-1.031-1.156c-1.653-1.796-3.352-3.358-4.317-4.117a1.236 1.236 0 0 0-1.273-.219c-.594.242-1.09.353-1.406.261-.204-.053-.375-.27-.516-.708a1.31 1.31 0 0 0-.262-.484 1.238 1.238 0 0 0-1.742-.077l-.035.026c-.527.482-.883.812-1.192.834-1.136.077-2.16-.031-3.035-.308-.851-.26-1.54-.666-2.015-1.182-.383-.41-.504-.988-.657-1.71l-.054-.279c.109-.313.25-.593.402-.838.188-.322.422-.616.633-.863.277-.331.742-.766 1.289-.922.324-.085.703-.065 1.129.153.59.302 1.308.084 1.637-.488.42-.653.945-1.256 1.69-1.691.802-.46 1.864-.741 3.368-.712a1.239 1.239 0 0 0 1.199-.868c.21-.686 1.012-1.44 2.18-1.904 1.024-.404 2.3-.542 3.69-.174a1.23 1.23 0 1 0 .622-2.382c-1.95-.521-3.757-.314-5.214.261-1.473.585-2.621 1.574-3.24 2.619-1.608.072-2.846.458-3.834 1.032a7.127 7.127 0 0 0-2 1.739 3.874 3.874 0 0 0-1.872.048c-1.156.318-2.031 1.109-2.535 1.71-.25.304-.55.678-.847 1.171a7.65 7.65 0 0 0-.586 1.185 8.61 8.61 0 0 1-1.641.548c-.582.131-1.176.174-1.687.093a2.488 2.488 0 0 1-.586-.179 1.816 1.816 0 0 1-.793-.664 1.083 1.083 0 0 1-.145-.313 1.61 1.61 0 0 0-.043-.282zm-2.285 1.096c.105.288.23.559.387.808.429.689 1.09 1.237 1.85 1.591.384.172.794.301 1.224.372.844.138 1.738.07 2.6-.114.43-.09.849-.217 1.25-.358.189.707.459 1.336 1.076 1.997.785.827 1.832 1.465 3.074 1.85 1.156.363 2.492.513 3.93.416a3.066 3.066 0 0 0 1.546-.523c.379.423.848.693 1.383.85.7.191 1.469.133 2.278-.108.914.776 2.242 2.035 3.566 3.472 1.098 1.201 2.184 2.511 2.988 3.746.243.922.305 1.914.239 2.938-.067 1.123-.282 2.298-.563 3.475-.86 3.642-1.555 7.563-1.535 11.357.019 3.876.78 7.599 2.859 10.714a1.232 1.232 0 0 0 1.703.338 1.228 1.228 0 0 0 .34-1.707c-1.77-2.666-2.43-5.921-2.441-9.356-.02-3.534.64-7.273 1.469-10.78.312-1.281.55-2.598.625-3.898.082-1.328-.004-2.634-.348-3.871-.281-1.826-.102-2.892.027-3.744a9.35 9.35 0 0 0 .145-1.078 8.121 8.121 0 0 0 1.433-.405c1.368-.522 2.618-1.392 3.719-2.535.696-.712 1.32-1.918 1.645-3.078.32-1.166.34-2.369-.133-3.198v-.005l-.02-.02a4.178 4.178 0 0 0-.523-.714c.629-.464 1.148-1.012 1.512-1.672.726-1.28.832-2.884-.008-4.984a4.925 4.925 0 0 0-1.156-1.789 3.906 3.906 0 0 0-1.043-.733c-.723-2.565-2.106-3.735-3.442-4.866-.152-.129-.304-.255-.38-.318-2.635-2.267-5.73-3.063-8.866-3.867-.535-.138-1.058-.276-1.617-.424-2.301-.633-4.344-.735-6.105-.479-1.997.295-3.645 1.027-4.918 1.957-1.993.257-3.88.743-5.49 1.673-1.64.949-2.96 2.333-3.768 4.343-.914.514-1.696 1.379-2.285 2.441a9.235 9.235 0 0 0-1.075 3.461c-.136 1.27-.011 2.58.438 3.769a6.356 6.356 0 0 0 2.41 3.056z"/></g><g><path fill="gray" d="M69.925 80.392a1.874 1.874 0 0 1-.72 2.552 1.877 1.877 0 0 1-2.557-.715c-.254-.454-.555-.943-.926-1.552-2.621-4.258-8.176-13.279-6.97-19.855.833-4.525 2.724-7.978 4.65-11.499 2.476-4.533 5.03-9.194 5.03-16.416 0-6.8-2.78-12.536-7.288-16.607-4.731-4.278-11.395-6.755-18.77-6.755-1.562 0-3.117.161-4.621.45-5.97 1.14-11.52 4.382-15.586 8.643-4 4.193-6.527 9.348-6.527 14.394 0 .93.082 1.847.258 2.74.41 2.115-2.078 6.28-4.684 10.673-.984 1.641-1.984 3.33-2.88 4.967-.011.032-.03.068-.042.113-.012.048-.012.073-.004.093.032.068.102.132.215.195a.957.957 0 0 0 .21.075c.837.243 2.32.528 3.517.768.527.101 1.007.2 1.363.27a1.888 1.888 0 0 1 1.453 2.228 1.83 1.83 0 0 1-.105.316c-.106.314-.207.626-.317.94a31.58 31.58 0 0 1-.652 1.922c.199.05.394.085.6.135.904.18 1.822.326 2.43.341 1.028.024 1.857.884 1.82 1.91a1.863 1.863 0 0 1-1.91 1.833c-.604-.015-1.35-.107-2.124-.232 1.696 1.315 1.219 3 .629 5.022-.258.914-.566 1.984-.203 2.983 1.25 1.936 7.789 2.82 12.164 3.412.68.09 1.324.174 1.547.211 2.238.317 3.754.91 5.137 2.3 1.242 1.236 2.226 3.032 3.492 5.861a1.873 1.873 0 1 1-3.422 1.525c-1.078-2.406-1.867-3.884-2.723-4.743-.707-.708-1.61-1.03-3.011-1.229-.723-.1-1.11-.162-1.516-.21-5.148-.696-12.88-1.743-14.95-5.292h.009a.965.965 0 0 1-.102-.203c-.988-2.293-.473-4.1-.035-5.645.219-.732.383-1.295-.77-1.654a1.893 1.893 0 0 1-1.238-2.35c.156-.463.457-.828.844-1.058a.491.491 0 0 0-.074-.029 1.872 1.872 0 0 1-.848-2.512c.48-.984.793-1.78 1.047-2.516-1.113-.222-2.305-.468-3.086-.69a4.707 4.707 0 0 1-.965-.404 4.169 4.169 0 0 1-1.805-1.865 3.819 3.819 0 0 1-.23-2.737c.082-.279.203-.57.363-.878.86-1.562 1.922-3.342 2.949-5.08 2.235-3.757 4.364-7.322 4.215-8.058a18.195 18.195 0 0 1-.332-3.448c0-6.043 2.942-12.115 7.582-16.977 4.57-4.8 10.84-8.449 17.582-9.745 1.77-.342 3.555-.52 5.336-.52 8.309 0 15.856 2.836 21.285 7.735 5.278 4.77 8.528 11.464 8.528 19.382 0 8.156-2.782 13.255-5.492 18.206-1.786 3.26-3.528 6.447-4.254 10.38-.946 5.173 4.082 13.351 6.468 17.218.457.744.825 1.35 1.016 1.681z"/></g></g></svg>