<svg xmlns="http://www.w3.org/2000/svg" width="82" height="104" viewBox="0 0 82 104"><g><g><path fill="none" stroke="#fff" stroke-miterlimit="20" stroke-width="9.87" d="M52.95 30.908c0 6.346-4.786 11.498-10.689 11.498h-4.664c-5.898 0-10.683-5.152-10.683-11.498 0-6.355 4.785-11.508 10.683-11.508h4.664c5.903 0 10.688 5.153 10.688 11.508z"/></g><g><path fill="#fff" d="M30.764 88.275c0 4.996-3.803 9.053-8.5 9.053h-3.718c-4.692 0-8.497-4.057-8.497-9.053 0-4.994 3.805-9.055 8.497-9.055h3.718c4.697 0 8.5 4.061 8.5 9.055z"/></g><g><path fill="none" stroke="#fff" stroke-miterlimit="20" stroke-width="9.87" d="M30.764 88.275c0 4.996-3.803 9.053-8.5 9.053h-3.718c-4.692 0-8.497-4.057-8.497-9.053 0-4.994 3.805-9.055 8.497-9.055h3.718c4.697 0 8.5 4.061 8.5 9.055z"/></g><g><path fill="#fff" d="M71.24 80.996c2.463 4.455 1.186 10.213-2.836 12.87l-3.187 2.101c-4.014 2.65-9.259 1.185-11.719-3.262-2.445-4.447-1.166-10.209 2.847-12.86l3.192-2.097c4.017-2.656 9.263-1.195 11.703 3.248z"/></g><g><path fill="none" stroke="#fff" stroke-miterlimit="20" stroke-width="9.87" d="M71.24 80.996c2.463 4.455 1.186 10.213-2.836 12.87l-3.187 2.101c-4.014 2.65-9.259 1.185-11.719-3.262-2.445-4.447-1.166-10.209 2.847-12.86l3.192-2.097c4.017-2.656 9.263-1.195 11.703 3.248z"/></g><g><path fill="#67c29c" d="M56.993 38.715a16.609 16.609 0 0 1-2.13 2.011 15.379 15.379 0 0 1-2.117 1.397c-5.25 2.804-8.29 1.98-13.945 1.98-4.514 0-9.504-.504-13.425-2.968a13.16 13.16 0 0 1-3.682-3.348c-2.916-3.785-4.122-10.789-2.962-16.11.196-.93.468-1.822.825-2.617 1.943-4.422 4.677-7.584 8.11-10.072.01-.02.036-.029.043-.037.26-.19.51-.37.775-.55-.026 0-.047-.022-.08-.036 6.328-5.006 13.31-3.072 17.115-2.17a17.77 17.77 0 0 1 5.855 2.61c4.81 3.277 8.034 8.783 9.76 15.06.015.107.05.22.086.312zm-7.57-8.758c-.82-1.727-2.225-3.33-3.882-4.438.896-.086 1.584-.906 1.584-1.916 0-1.062-.79-1.926-1.765-1.926-.974 0-1.756.864-1.756 1.926 0 .387.093.742.278 1.043-.832-.322-1.68-.506-2.516-.506-1.024 0-3.133-.039-4.392.162-.068.01-.13.022-.186.036-.096.007-.19.033-.268.05a10.13 10.13 0 0 0-1.584.541c.293-.347.488-.81.488-1.326 0-1.062-.788-1.926-1.762-1.926-.985 0-1.77.864-1.77 1.926 0 1.061.785 1.928 1.77 1.928.042 0 .085 0 .115-.012-1.218.74-2.278 1.741-3.01 2.934a7.492 7.492 0 0 0 .437 8.307c1.866 2.527 4.59 3.988 7.529 3.988 3.322 0 7.408.262 9.492-3.133z"/><path fill="none" stroke="#fff" stroke-miterlimit="20" stroke-width="9.87" d="M56.993 38.715a16.609 16.609 0 0 1-2.13 2.011 15.379 15.379 0 0 1-2.117 1.397c-5.25 2.804-8.29 1.98-13.945 1.98-4.514 0-9.504-.504-13.425-2.968a13.16 13.16 0 0 1-3.682-3.348c-2.916-3.785-4.122-10.789-2.962-16.11.196-.93.468-1.822.825-2.617 1.943-4.422 4.677-7.584 8.11-10.072.01-.02.036-.029.043-.037.26-.19.51-.37.775-.55-.026 0-.047-.022-.08-.036 6.328-5.006 13.31-3.072 17.115-2.17a17.77 17.77 0 0 1 5.855 2.61c4.81 3.277 8.034 8.783 9.76 15.06.015.107.05.22.086.312zm-7.57-8.758c-.82-1.727-2.225-3.33-3.882-4.438.896-.086 1.584-.906 1.584-1.916 0-1.062-.79-1.926-1.765-1.926-.974 0-1.756.864-1.756 1.926 0 .387.093.742.278 1.043-.832-.322-1.68-.506-2.516-.506-1.024 0-3.133-.039-4.392.162-.068.01-.13.022-.186.036-.096.007-.19.033-.268.05a10.13 10.13 0 0 0-1.584.541c.293-.347.488-.81.488-1.326 0-1.062-.788-1.926-1.762-1.926-.985 0-1.77.864-1.77 1.926 0 1.061.785 1.928 1.77 1.928.042 0 .085 0 .115-.012-1.218.74-2.278 1.741-3.01 2.934a7.492 7.492 0 0 0 .437 8.307c1.866 2.527 4.59 3.988 7.529 3.988 3.322 0 7.408.262 9.492-3.133z"/></g><g><path fill="#67c29c" d="M27.007 7.441l-.457.371c-3.726 2.766-6.473 6.21-8.371 10.531a16.143 16.143 0 0 0-.772 2.29c-.26-.227-.51-.477-.738-.72-3.205-3.765-4.653-10.09.242-13.077 1.917-1.043 4.325-1.5 6.498-1.147 1.407.172 2.502.971 3.598 1.752"/><path fill="none" stroke="#fff" stroke-miterlimit="20" stroke-width="9.87" d="M27.007 7.441v0l-.457.371c-3.726 2.766-6.473 6.21-8.371 10.531a16.143 16.143 0 0 0-.772 2.29c-.26-.227-.51-.477-.738-.72-3.205-3.765-4.653-10.09.242-13.077 1.917-1.043 4.325-1.5 6.498-1.147 1.407.172 2.502.971 3.598 1.752"/></g><g><path fill="#67c29c" d="M62.759 23.242c-.05.047-.121.082-.188.125-1.9-6.902-5.303-12.28-9.893-15.619 1.824-.963 4.489-.985 5.992-.736 2.566.515 5.139 1.582 6.566 4.04 2.336 3.936.966 9.731-2.477 12.19"/><path fill="none" stroke="#fff" stroke-miterlimit="20" stroke-width="9.87" d="M62.759 23.242c-.05.047-.121.082-.188.125-1.9-6.902-5.303-12.28-9.893-15.619 1.824-.963 4.489-.985 5.992-.736 2.566.515 5.139 1.582 6.566 4.04 2.336 3.936.966 9.731-2.477 12.19"/></g><g><path fill="#67c29c" d="M63.568 66.486a.192.192 0 0 0-.057-.03c-1.427-.91-3.193-2.01-5.83-2.01-.728 0-1.509.08-2.308.247l-.044.004h-.554l-.113.15c-3.287.801-5.828 2.98-7.2 6.184-.81 2.062-.54 4.125-.3 5.965.213 1.572.387 2.94-.129 3.982l-.033.043-.05.104c-.168.39-.393.77-.624 1.174-.526.896-1.12 1.923-1.303 3.402a8.304 8.304 0 0 0 .132 2.27 26.23 26.23 0 0 1-2.626.122c-2.865 0-5.764.207-8.535-.058.031-.4.056-.79.056-1.17 0-1.125-.174-2.145-.346-3.127a26.95 26.95 0 0 1-.268-1.715c-.01-.142-.035-.289-.035-.408-.036-.637.124-1.07.375-1.723.218-.558.448-1.187.574-2.04.35-2.747-.489-5.528-2.342-7.856-2.497-3.123-6.472-5.053-10.379-5.053-.25 0-.506.008-.749.025 1.57-7.253 3.278-14.652 4.26-22.072 4.482 2.557 9.906 2.87 13.66 2.87 1.096 0 2.094.025 3.022.064.85.021 1.652.043 2.416.043 2.965 0 5.656-.387 9.16-2.26.647-.34 1.281-.738 1.906-1.207 2.17 7.617 6.952 15.996 8.264 24.08"/><path fill="none" stroke="#fff" stroke-miterlimit="20" stroke-width="9.87" d="M63.568 66.486a.192.192 0 0 0-.057-.03c-1.427-.91-3.193-2.01-5.83-2.01-.728 0-1.509.08-2.308.247l-.044.004h-.554v0l-.113.15c-3.287.801-5.828 2.98-7.2 6.184-.81 2.062-.54 4.125-.3 5.965.213 1.572.387 2.94-.129 3.982l-.033.043v0l-.05.104c-.168.39-.393.77-.624 1.174-.526.896-1.12 1.923-1.303 3.402a8.304 8.304 0 0 0 .132 2.27 26.23 26.23 0 0 1-2.626.122c-2.865 0-5.764.207-8.535-.058.031-.4.056-.79.056-1.17 0-1.125-.174-2.145-.346-3.127a26.95 26.95 0 0 1-.268-1.715c-.01-.142-.035-.289-.035-.408-.036-.637.124-1.07.375-1.723.218-.558.448-1.187.574-2.04.35-2.747-.489-5.528-2.342-7.856-2.497-3.123-6.472-5.053-10.379-5.053-.25 0-.506.008-.749.025 1.57-7.253 3.278-14.652 4.26-22.072 4.482 2.557 9.906 2.87 13.66 2.87 1.096 0 2.094.025 3.022.064.85.021 1.652.043 2.416.043 2.965 0 5.656-.387 9.16-2.26.647-.34 1.281-.738 1.906-1.207 2.17 7.617 6.952 15.996 8.264 24.08"/></g><g><path fill="#67c29c" d="M23.727 41.977l-.092.678c-.853 6.506-2.298 13.097-3.697 19.47-.232 1.014-.442 2.036-.675 3.059l-.274.068h-.378l-.161.15c-.011 0-.018 0-.018.01-3.646 1.143-7.476 4.979-8.204 5.723a4.317 4.317 0 0 1-.196.219c-6.867-2.565-5.735-11.068-2.134-16.5 2.238-3.498 5.234-6.424 8.137-9.23 1.383-1.301 2.993-2.336 4.692-3.393a25.796 25.796 0 0 0 1.759-1.252 8.4 8.4 0 0 0 .468.404c.259.215.509.408.773.594"/><path fill="none" stroke="#fff" stroke-miterlimit="20" stroke-width="9.87" d="M23.727 41.977v0l-.092.678c-.853 6.506-2.298 13.097-3.697 19.47-.232 1.014-.442 2.036-.675 3.059l-.274.068v0h-.378v0l-.161.15c-.011 0-.018 0-.018.01-3.646 1.143-7.476 4.979-8.204 5.723a4.317 4.317 0 0 1-.196.219c-6.867-2.565-5.735-11.068-2.134-16.5 2.238-3.498 5.234-6.424 8.137-9.23 1.383-1.301 2.993-2.336 4.692-3.393a25.796 25.796 0 0 0 1.759-1.252 8.4 8.4 0 0 0 .468.404c.259.215.509.408.773.594"/></g><g><path fill="#67c29c" d="M76.626 65.746c-.432 3.176-2.841 5.285-5.714 6.36-1.583-2.063-3.418-3.403-5.677-4.659-.634-5.392-2.837-10.806-4.993-16.092-1.358-3.295-2.626-6.427-3.485-9.443l-.16-.55c.516-.477 1.019-.958 1.483-1.5.11-.13.229-.253.336-.39 9.192 5.001 20.105 13.56 18.21 26.274"/><path fill="none" stroke="#fff" stroke-miterlimit="20" stroke-width="9.87" d="M76.626 65.746c-.432 3.176-2.841 5.285-5.714 6.36-1.583-2.063-3.418-3.403-5.677-4.659-.634-5.392-2.837-10.806-4.993-16.092-1.358-3.295-2.626-6.427-3.485-9.443l-.16-.55c.516-.477 1.019-.958 1.483-1.5.11-.13.229-.253.336-.39 9.192 5.001 20.105 13.56 18.21 26.274"/></g><g><path fill="#67c29c" d="M44.349 30.01c-.063.727-.398 1.25-.941 1.666-.825.58-1.735 1.37-2.666 1.693-1.606.495-3.561-.205-4.997-.992-.616-.387-1.448-1.05-1.683-1.812-.211-.616.05-1.522.349-2.037.564-.998 1.863-1.565 3.038-1.78h.016c2.409-.365 7.067.05 6.884 3.262"/><path fill="none" stroke="#fff" stroke-miterlimit="20" stroke-width="9.87" d="M44.349 30.01c-.063.727-.398 1.25-.941 1.666-.825.58-1.735 1.37-2.666 1.693-1.606.495-3.561-.205-4.997-.992-.616-.387-1.448-1.05-1.683-1.812-.211-.616.05-1.522.349-2.037.564-.998 1.863-1.565 3.038-1.78h.016c2.409-.365 7.067.05 6.884 3.262"/></g><g><path fill="#67c29c" d="M32.849 77.63c-.211 1.519-1.057 2.343-.956 4.089.006.176.016.338.039.519.164 1.565.596 3.05.596 4.627 0 2.926-1.171 6.782-2.984 8.89-3.755 4.226-10.384 3.173-14.652.71-4.378-2.334-6.837-6.793-8.02-11.705-1.162-4.67 1.393-9.357 4.387-12.4 1.702-1.754 4.899-4.495 7.584-5.354.106-.035.22-.057.317-.096h.032c.007-.011.033-.011.039-.011.143-.036.27-.07.418-.08-.015-.006-.015-.006 0-.006zm-5.535 6.224c-1.86-3.602-5.21-4.762-8.843-4.38-2.501.319-6.21 1.966-7.134 4.62-.498 1.637-.438 3.348-.16 4.998.103.592.285 1.637.564 2.62a12.027 12.027 0 0 0 3.622 2.97c3.565 2.054 8.967 3.012 12.382.025.133-.42.26-.85.347-1.242z"/><path fill="none" stroke="#fff" stroke-miterlimit="20" stroke-width="9.87" d="M32.849 77.63c-.211 1.519-1.057 2.343-.956 4.089.006.176.016.338.039.519.164 1.565.596 3.05.596 4.627 0 2.926-1.171 6.782-2.984 8.89-3.755 4.226-10.384 3.173-14.652.71-4.378-2.334-6.837-6.793-8.02-11.705-1.162-4.67 1.393-9.357 4.387-12.4 1.702-1.754 4.899-4.495 7.584-5.354.106-.035.22-.057.317-.096h.032c.007-.011.033-.011.039-.011.143-.036.27-.07.418-.08-.015-.006-.015-.006 0-.006zm-5.535 6.224c-1.86-3.602-5.21-4.762-8.843-4.38-2.501.319-6.21 1.966-7.134 4.62-.498 1.637-.438 3.348-.16 4.998.103.592.285 1.637.564 2.62a12.027 12.027 0 0 0 3.622 2.97c3.565 2.054 8.967 3.012 12.382.025.133-.42.26-.85.347-1.242z"/></g><g><path fill="#67c29c" d="M70.72 92.53c-3.034 4.98-10.634 5.188-15.484 4.528-2.84-.439-5.063-2.098-6.68-4.762-1.017-1.765-2.23-4.203-2.027-6.423.211-1.625 1.185-2.618 1.792-4.036a.072.072 0 0 0 .031-.06c1.521-2.986-.813-6.762.511-10.08 1.3-3.03 3.772-4.77 6.587-5.332h.028c.048-.007.073-.017.118-.017 3.947-.868 5.868.782 7.87 1.976.085.053.181.108.263.155 2.945 1.556 5.167 3.103 6.991 6.097zm-5.37-14.882c-3.894-.24-7.57 1.179-9.872 4.638-1.44 2.376-1.8 4.893-1.736 7.651.053 1.39.221 3.22.605 4.839.487.192 1.018.317 1.553.413 4.357.589 11.173.395 13.91-4.095.05-.104.12-.208.181-.323z"/><path fill="none" stroke="#fff" stroke-miterlimit="20" stroke-width="9.87" d="M70.72 92.53c-3.034 4.98-10.634 5.188-15.484 4.528-2.84-.439-5.063-2.098-6.68-4.762-1.017-1.765-2.23-4.203-2.027-6.423.211-1.625 1.185-2.618 1.792-4.036a.072.072 0 0 0 .031-.06c1.521-2.986-.813-6.762.511-10.08 1.3-3.03 3.772-4.77 6.587-5.332h.028c.048-.007.073-.017.118-.017 3.947-.868 5.868.782 7.87 1.976.085.053.181.108.263.155 2.945 1.556 5.167 3.103 6.991 6.097zm-5.37-14.882c-3.894-.24-7.57 1.179-9.872 4.638-1.44 2.376-1.8 4.893-1.736 7.651.053 1.39.221 3.22.605 4.839.487.192 1.018.317 1.553.413 4.357.589 11.173.395 13.91-4.095.05-.104.12-.208.181-.323z"/></g><g><path fill="#fff" d="M52.95 30.908c0 6.346-4.786 11.498-10.689 11.498h-4.664c-5.898 0-10.683-5.152-10.683-11.498 0-6.355 4.785-11.508 10.683-11.508h4.664c5.903 0 10.688 5.153 10.688 11.508z"/></g><g><path fill="#fff" d="M30.764 88.275c0 4.996-3.803 9.053-8.5 9.053h-3.718c-4.692 0-8.497-4.057-8.497-9.053 0-4.994 3.805-9.055 8.497-9.055h3.718c4.697 0 8.5 4.061 8.5 9.055z"/></g><g><path fill="#fff" d="M71.24 80.996c2.463 4.455 1.186 10.213-2.836 12.87l-3.187 2.101c-4.014 2.65-9.259 1.185-11.719-3.262-2.445-4.447-1.166-10.209 2.847-12.86l3.192-2.097c4.017-2.656 9.263-1.195 11.703 3.248z"/></g><g><path fill="#ff8d27" d="M61.22 24.177c1.172 4.948-.77 10.631-4.227 14.538a16.609 16.609 0 0 1-2.13 2.011 15.379 15.379 0 0 1-2.117 1.397c-5.25 2.804-8.29 1.98-13.945 1.98-4.514 0-9.504-.504-13.425-2.968a13.16 13.16 0 0 1-3.682-3.348c-2.916-3.785-4.122-10.789-2.962-16.11.196-.93.468-1.822.825-2.617 1.943-4.422 4.677-7.584 8.11-10.072.01-.02.036-.029.043-.037.26-.19.51-.37.775-.55-.026 0-.047-.022-.08-.036 6.328-5.006 13.31-3.072 17.115-2.17a17.77 17.77 0 0 1 5.855 2.61c4.81 3.277 8.034 8.783 9.76 15.06.015.107.05.22.086.312zM48.226 37.615c1.549-2.463 2.719-4.469 1.199-7.658-.82-1.727-2.226-3.33-3.883-4.438.896-.086 1.584-.906 1.584-1.916 0-1.062-.79-1.926-1.765-1.926-.974 0-1.756.864-1.756 1.926 0 .387.093.742.278 1.043-.832-.322-1.68-.506-2.516-.506-1.024 0-3.133-.039-4.392.162-.068.01-.13.022-.186.036-.096.007-.19.033-.268.05a10.13 10.13 0 0 0-1.584.541c.293-.347.488-.81.488-1.326 0-1.062-.788-1.926-1.762-1.926-.985 0-1.77.864-1.77 1.926 0 1.061.785 1.928 1.77 1.928.042 0 .085 0 .115-.012-1.218.74-2.278 1.741-3.01 2.934a7.492 7.492 0 0 0 .437 8.307c1.866 2.527 4.59 3.988 7.529 3.988 3.322 0 7.408.262 9.492-3.133z"/></g><g><path fill="#ff8d27" d="M27.007 7.441l-.457.371c-3.726 2.766-6.473 6.21-8.371 10.531a16.143 16.143 0 0 0-.772 2.29c-.26-.227-.51-.477-.738-.72-3.205-3.765-4.653-10.09.242-13.077 1.917-1.043 4.325-1.5 6.498-1.147 1.407.172 2.502.971 3.598 1.752z"/></g><g><path fill="#ff8d27" d="M62.759 23.242c-.05.047-.121.082-.188.125-1.9-6.902-5.303-12.28-9.893-15.619 1.824-.963 4.489-.985 5.992-.736 2.566.515 5.139 1.582 6.566 4.04 2.336 3.936.966 9.731-2.477 12.19z"/></g><g><path fill="#ff8d27" d="M63.568 66.486a.192.192 0 0 0-.057-.03c-1.427-.91-3.193-2.01-5.83-2.01-.728 0-1.509.08-2.308.247l-.044.004h-.554l-.113.15c-3.287.801-5.828 2.98-7.2 6.184-.81 2.062-.54 4.125-.3 5.965.213 1.572.387 2.94-.129 3.982l-.033.043-.05.104c-.168.39-.393.77-.624 1.174-.526.896-1.12 1.923-1.303 3.402a8.304 8.304 0 0 0 .132 2.27 26.23 26.23 0 0 1-2.626.122c-2.865 0-5.764.207-8.535-.058.031-.4.056-.79.056-1.17 0-1.125-.174-2.145-.346-3.127a26.95 26.95 0 0 1-.268-1.715c-.01-.142-.035-.289-.035-.408-.036-.637.124-1.07.375-1.723.218-.558.448-1.187.574-2.04.35-2.747-.489-5.528-2.342-7.856-2.497-3.123-6.472-5.053-10.379-5.053-.25 0-.506.008-.749.025 1.57-7.253 3.278-14.652 4.26-22.072 4.482 2.557 9.906 2.87 13.66 2.87 1.096 0 2.094.025 3.022.064.85.021 1.652.043 2.416.043 2.965 0 5.656-.387 9.16-2.26.647-.34 1.281-.738 1.906-1.207 2.17 7.617 6.952 15.996 8.264 24.08z"/></g><g><path fill="#ff8d27" d="M23.727 41.977l-.092.678c-.853 6.506-2.298 13.097-3.697 19.47-.232 1.014-.442 2.036-.675 3.059l-.274.068h-.378l-.161.15c-.011 0-.018 0-.018.01-3.646 1.143-7.476 4.979-8.204 5.723a4.317 4.317 0 0 1-.196.219c-6.867-2.565-5.735-11.068-2.134-16.5 2.238-3.498 5.234-6.424 8.137-9.23 1.383-1.301 2.993-2.336 4.692-3.393a25.796 25.796 0 0 0 1.759-1.252 8.4 8.4 0 0 0 .468.404c.259.215.509.408.773.594z"/></g><g><path fill="#ff8d27" d="M76.626 65.746c-.432 3.176-2.841 5.285-5.714 6.36-1.583-2.063-3.418-3.403-5.677-4.659-.634-5.392-2.837-10.806-4.993-16.092-1.358-3.295-2.626-6.427-3.485-9.443l-.16-.55c.516-.477 1.019-.958 1.483-1.5.11-.13.229-.253.336-.39 9.192 5.001 20.105 13.56 18.21 26.274z"/></g><g><path fill="#ff8d27" d="M44.349 30.01c-.063.727-.398 1.25-.941 1.666-.825.58-1.735 1.37-2.666 1.693-1.606.495-3.561-.205-4.997-.992-.616-.387-1.448-1.05-1.683-1.812-.211-.616.05-1.522.349-2.037.564-.998 1.863-1.565 3.038-1.78h.016c2.409-.365 7.067.05 6.884 3.262z"/></g><g><path fill="#ff8d27" d="M19.649 66.813c6.284-1.35 14.027 4.086 13.2 10.818-.211 1.518-1.057 2.342-.956 4.088.006.176.016.338.039.519.164 1.565.596 3.05.596 4.627 0 2.926-1.171 6.782-2.984 8.89-3.755 4.226-10.384 3.173-14.652.71-4.378-2.334-6.837-6.793-8.02-11.705-1.162-4.67 1.393-9.357 4.387-12.4 1.702-1.754 4.899-4.495 7.584-5.354.106-.035.22-.057.317-.096h.032c.007-.011.033-.011.039-.011.143-.036.27-.07.418-.08-.015-.006-.015-.006 0-.006zm8.443 26.652c.656-3.432.78-6.488-.778-9.611-1.86-3.602-5.21-4.762-8.843-4.38-2.501.319-6.21 1.966-7.134 4.62-.498 1.637-.438 3.348-.16 4.998.103.592.285 1.637.564 2.62a12.027 12.027 0 0 0 3.622 2.97c3.565 2.054 8.967 3.012 12.382.025.133-.42.26-.85.347-1.242z"/></g><g><path fill="#ff8d27" d="M70.72 74.576c3.451 5.768 3.34 12.192 0 17.954-3.034 4.98-10.634 5.188-15.484 4.528-2.84-.439-5.063-2.098-6.68-4.762-1.017-1.765-2.23-4.203-2.027-6.423.211-1.625 1.185-2.618 1.792-4.036a.072.072 0 0 0 .031-.06c1.521-2.986-.813-6.762.511-10.08 1.3-3.03 3.772-4.77 6.587-5.332h.028c.048-.007.073-.017.118-.017 3.947-.868 5.868.782 7.87 1.976.085.053.181.108.263.155 2.945 1.556 5.167 3.103 6.991 6.097zm-.729 16.196c1.75-5.767 1.678-12.728-4.642-13.124-3.893-.24-7.569 1.179-9.87 4.638-1.442 2.376-1.802 4.893-1.737 7.651.053 1.39.221 3.22.605 4.839.487.192 1.018.317 1.553.413 4.357.589 11.173.395 13.91-4.095.05-.104.12-.208.181-.323z"/></g></g></svg>