<svg xmlns="http://www.w3.org/2000/svg" width="101" height="102" viewBox="0 0 101 102"><g><g><path fill="#fff" d="M79.374 53.296c0 20.432-16.562 36.996-36.992 36.996-20.434 0-36.996-16.564-36.996-36.996 0-20.432 16.562-36.997 36.996-36.997 20.43 0 36.992 16.565 36.992 36.997z"/></g><g><path fill="#fff" d="M74.616 44.083c-.808 0-1.601.018-2.417.018.269.872.5 1.757.687 2.65.55-.28 1.117-.545 1.664-.811 1.277-.632 2.535-1.234 3.758-1.882zM76.76 54.31a46.793 46.793 0 0 1-3.293.49 27.398 27.398 0 0 1-.191 2.25c.53.37.726.869.8 1.118.106.344.246 1.259-.61 2.14-.323.353-.686.67-1.046.988-.168.616-.34 1.217-.562 1.805.929.22 1.44.855 1.609 1.482.227.779.02 1.883-1.223 2.652a7.858 7.858 0 0 1-2.652.967c-5.31 9.522-15.484 15.962-27.16 15.962-17.184 0-31.094-13.916-31.094-31.096 0-17.161 13.91-31.096 31.094-31.096 11.898 0 22.25 6.694 27.465 16.522 1.168-.422 2.465-.637 3.797-.65.898-.013 1.812-.013 2.718-.03-5.82-12.968-18.847-21.996-33.98-21.996-20.574 0-37.254 16.685-37.254 37.25 0 11.79 5.492 22.284 14.03 29.11a35.935 35.935 0 0 0 7.2 4.518 37.18 37.18 0 0 0 16.024 3.618 37.162 37.162 0 0 0 16.023-3.618 35.802 35.802 0 0 0 7.2-4.517c8.335-6.655 13.76-16.808 14.01-28.252z"/><path fill="none" stroke="#fff" stroke-miterlimit="20" stroke-width="8.8" d="M74.616 44.083c-.808 0-1.601.018-2.417.018.269.872.5 1.757.687 2.65.55-.28 1.117-.545 1.664-.811 1.277-.632 2.535-1.234 3.758-1.882zM76.76 54.31a46.793 46.793 0 0 1-3.293.49 27.398 27.398 0 0 1-.191 2.25c.53.37.726.869.8 1.118.106.344.246 1.259-.61 2.14-.323.353-.686.67-1.046.988-.168.616-.34 1.217-.562 1.805.929.22 1.44.855 1.609 1.482.227.779.02 1.883-1.223 2.652a7.858 7.858 0 0 1-2.652.967c-5.31 9.522-15.484 15.962-27.16 15.962-17.184 0-31.094-13.916-31.094-31.096 0-17.161 13.91-31.096 31.094-31.096 11.898 0 22.25 6.694 27.465 16.522 1.168-.422 2.465-.637 3.797-.65.898-.013 1.812-.013 2.718-.03-5.82-12.968-18.847-21.996-33.98-21.996-20.574 0-37.254 16.685-37.254 37.25 0 11.79 5.492 22.284 14.03 29.11a35.935 35.935 0 0 0 7.2 4.518 37.18 37.18 0 0 0 16.024 3.618 37.162 37.162 0 0 0 16.023-3.618 35.802 35.802 0 0 0 7.2-4.517c8.335-6.655 13.76-16.808 14.01-28.252z"/></g><g><path fill="#fff" d="M25.46 88.22l-4.535 7.245a4.233 4.233 0 0 1-3.598 2.01 4.241 4.241 0 0 1-2.25-.648c-1.98-1.246-2.597-3.863-1.332-5.847l4.512-7.267a36.518 36.518 0 0 0 7.203 4.508"/><path fill="none" stroke="#fff" stroke-miterlimit="20" stroke-width="8.8" d="M25.46 88.22v0l-4.535 7.245a4.233 4.233 0 0 1-3.598 2.01 4.241 4.241 0 0 1-2.25-.648c-1.98-1.246-2.597-3.863-1.332-5.847l4.512-7.267a36.518 36.518 0 0 0 7.203 4.508"/></g><g><path fill="#fff" d="M69.784 96.827a4.241 4.241 0 0 1-2.258.645c-1.402 0-2.773-.706-3.6-2.007l-4.5-7.232a37.566 37.566 0 0 0 7.17-4.52l4.532 7.266c1.226 1.985.64 4.602-1.344 5.848"/><path fill="none" stroke="#fff" stroke-miterlimit="20" stroke-width="8.8" d="M69.784 96.827a4.241 4.241 0 0 1-2.258.645c-1.402 0-2.773-.706-3.6-2.007l-4.5-7.232a37.566 37.566 0 0 0 7.17-4.52l4.532 7.266c1.226 1.985.64 4.602-1.344 5.848"/></g><g><path fill="#fff" d="M33.632 12.921L9.038 27.484c-3.52-5.96-2.215-13.45 2.766-17.888a1.83 1.83 0 0 1-.172-.233 2.826 2.826 0 0 1 1.004-3.879 2.828 2.828 0 0 1 3.875.983c.047.082.094.177.133.263 6.297-2.213 13.465.257 16.988 6.191"/><path fill="none" stroke="#fff" stroke-miterlimit="20" stroke-width="8.8" d="M33.632 12.921v0L9.038 27.484c-3.52-5.96-2.215-13.45 2.766-17.888a1.83 1.83 0 0 1-.172-.233 2.826 2.826 0 0 1 1.004-3.879 2.828 2.828 0 0 1 3.875.983c.047.082.094.177.133.263 6.297-2.213 13.465.257 16.988 6.191"/></g><g><path fill="#fff" d="M75.597 27.66l-24.25-15.104c3.664-5.874 10.898-8.176 17.14-5.792a.872.872 0 0 1 .13-.261 2.836 2.836 0 0 1 3.906-.916 2.835 2.835 0 0 1 .902 3.91l-.152.228c4.859 4.572 5.976 12.079 2.324 17.935"/><path fill="none" stroke="#fff" stroke-miterlimit="20" stroke-width="8.8" d="M75.597 27.66v0l-24.25-15.104c3.664-5.874 10.898-8.176 17.14-5.792a.872.872 0 0 1 .13-.261 2.836 2.836 0 0 1 3.906-.916 2.835 2.835 0 0 1 .902 3.91l-.152.228c4.859 4.572 5.976 12.079 2.324 17.935"/></g><g><path fill="#fff" d="M39.944 54.263a2.435 2.435 0 0 0 4.871 0V35.94a2.436 2.436 0 0 0-4.87 0z"/></g><g><path fill="none" stroke="#fff" stroke-miterlimit="20" stroke-width="8.8" d="M39.944 54.263a2.435 2.435 0 0 0 4.871 0V35.94a2.436 2.436 0 0 0-4.87 0v18.322z"/></g><g><path fill="#fff" d="M33.929 44.633c-.754-.58-2.027-.193-2.844.868-.812 1.074-.867 2.403-.11 2.983l10.333 7.935c.762.585 2.043.186 2.855-.872.817-1.057.864-2.406.106-2.977z"/></g><g><path fill="none" stroke="#fff" stroke-miterlimit="20" stroke-width="8.8" d="M33.929 44.633c-.754-.58-2.027-.193-2.844.868-.812 1.074-.867 2.403-.11 2.983l10.333 7.935c.762.585 2.043.186 2.855-.872.817-1.057.864-2.406.106-2.977l-10.34-7.937v0z"/></g><g><path fill="#fff" d="M29.835 43.267c-3.379 0-6.75-1.783-8.656-4.602a1.693 1.693 0 0 1 2.801-1.899c1.332 1.964 3.695 3.137 6.046 3.103 1.442-.052 3.45-.611 4.86-3.013.476-.804 1.523-1.084 2.324-.606a1.699 1.699 0 0 1 .602 2.325c-1.707 2.918-4.438 4.576-7.676 4.692h-.301"/><path fill="none" stroke="#fff" stroke-miterlimit="20" stroke-width="8.8" d="M29.835 43.267c-3.379 0-6.75-1.783-8.656-4.602a1.693 1.693 0 0 1 2.801-1.899c1.332 1.964 3.695 3.137 6.046 3.103 1.442-.052 3.45-.611 4.86-3.013.476-.804 1.523-1.084 2.324-.606a1.699 1.699 0 0 1 .602 2.325c-1.707 2.918-4.438 4.576-7.676 4.692h-.301v0"/></g><g><path fill="#fff" d="M55.425 43.267c-3.371 0-6.746-1.783-8.652-4.602a1.689 1.689 0 0 1 .449-2.35 1.697 1.697 0 0 1 2.355.45c1.336 1.965 3.7 3.138 6.047 3.104 1.442-.052 3.446-.611 4.856-3.013.48-.804 1.519-1.084 2.324-.606a1.701 1.701 0 0 1 .6 2.325c-1.71 2.918-4.432 4.576-7.678 4.692h-.301"/><path fill="none" stroke="#fff" stroke-miterlimit="20" stroke-width="8.8" d="M55.425 43.267c-3.371 0-6.746-1.783-8.652-4.602a1.689 1.689 0 0 1 .449-2.35 1.697 1.697 0 0 1 2.355.45c1.336 1.965 3.7 3.138 6.047 3.104 1.442-.052 3.446-.611 4.856-3.013.48-.804 1.519-1.084 2.324-.606a1.701 1.701 0 0 1 .6 2.325c-1.71 2.918-4.432 4.576-7.678 4.692h-.301v0"/></g><g><path fill="#fff" d="M44.499 69.272c0 .18.016.368.027.54a4.306 4.306 0 0 1-.449-1.941c0-2.282 1.672-4.112 3.699-4.112.071 0 .168 0 .25.013-2.062.847-3.527 2.99-3.527 5.5"/><path fill="none" stroke="#fff" stroke-miterlimit="20" stroke-width="8.8" d="M44.499 69.272c0 .18.016.368.027.54a4.306 4.306 0 0 1-.449-1.941c0-2.282 1.672-4.112 3.699-4.112.071 0 .168 0 .25.013-2.062.847-3.527 2.99-3.527 5.5"/></g><g><path fill="#fff" d="M51.495 67.862c0 2.256-1.668 4.09-3.719 4.09a2.84 2.84 0 0 1-.62-.06 4.42 4.42 0 0 1-.86-2.617c0-2.28 1.668-4.107 3.703-4.107.22 0 .43.016.63.068.542.705.866 1.624.866 2.626"/><path fill="none" stroke="#fff" stroke-miterlimit="20" stroke-width="8.8" d="M51.495 67.862c0 2.256-1.668 4.09-3.719 4.09a2.84 2.84 0 0 1-.62-.06 4.42 4.42 0 0 1-.86-2.617c0-2.28 1.668-4.107 3.703-4.107.22 0 .43.016.63.068.542.705.866 1.624.866 2.626"/></g><g><path fill="#fff" d="M95.6 50.322c-1.343.847-3.062 1.237-4.647 1.241-4.821.04-9.711.198-14.485.985-2.851.463-5.644.863-8.54.717-1.268-.064-1.393-.743-.386-1.439 5.36-3.66 11.844-5.569 16.96-9.552-5.022-.069-10.038.03-15.061.038-1.274 0-1.406-.79-.391-1.427 1.352-.863 3.074-1.24 4.645-1.253 5.734-.009 11.457-.15 17.179 0 .653.025 1.657.373.844 1.1-4.922 4.403-11.168 6.527-16.79 9.81 3.13-.24 6.286-.985 9.392-1.23 3.625-.27 7.265-.404 10.89-.42 1.286-.018 1.41.79.39 1.43"/><path fill="none" stroke="#fff" stroke-miterlimit="20" stroke-width="8.8" d="M95.6 50.322c-1.343.847-3.062 1.237-4.647 1.241-4.821.04-9.711.198-14.485.985-2.851.463-5.644.863-8.54.717-1.268-.064-1.393-.743-.386-1.439 5.36-3.66 11.844-5.569 16.96-9.552-5.022-.069-10.038.03-15.061.038-1.274 0-1.406-.79-.391-1.427 1.352-.863 3.074-1.24 4.645-1.253 5.734-.009 11.457-.15 17.179 0 .653.025 1.657.373.844 1.1-4.922 4.403-11.168 6.527-16.79 9.81 3.13-.24 6.286-.985 9.392-1.23 3.625-.27 7.265-.404 10.89-.42 1.286-.018 1.41.79.39 1.43"/></g><g><path fill="#fff" d="M72.163 59.08c-2.465 2.495-5.707 3.888-8.695 5.653 2.52.19 5.058.061 7.578.048.855 0 .93.511.258.928-.918.555-2.063.825-3.102.825-3.16.018-6.297.147-9.437-.224-.762-.085-.176-.674.132-.88 2.86-1.92 6.235-3.18 8.79-5.492-2.442-.429-4.938-.055-7.407 0-.863.01-.94-.51-.254-.932.903-.559 2.04-.817 3.09-.825 2.981-.05 5.93-.495 8.875.22.43.116.47.368.172.678"/><path fill="none" stroke="#fff" stroke-miterlimit="20" stroke-width="8.8" d="M72.163 59.08c-2.465 2.495-5.707 3.888-8.695 5.653 2.52.19 5.058.061 7.578.048.855 0 .93.511.258.928-.918.555-2.063.825-3.102.825-3.16.018-6.297.147-9.437-.224-.762-.085-.176-.674.132-.88 2.86-1.92 6.235-3.18 8.79-5.492-2.442-.429-4.938-.055-7.407 0-.863.01-.94-.51-.254-.932.903-.559 2.04-.817 3.09-.825 2.981-.05 5.93-.495 8.875.22.43.116.47.368.172.678"/></g><g><path fill="#fff200" d="M72.199 44.1c.269.873.5 1.758.687 2.65.55-.278 1.117-.544 1.664-.81 1.277-.632 2.535-1.234 3.758-1.882-1.235 0-2.453.013-3.692.025-.808 0-1.601.018-2.417.018zm1.269 10.7a27.398 27.398 0 0 1-.191 2.25c.53.37.726.869.8 1.118.106.344.246 1.259-.61 2.14-.323.353-.686.67-1.046.988-.168.616-.34 1.217-.562 1.805.929.22 1.44.855 1.609 1.482.227.779.02 1.883-1.223 2.652a7.858 7.858 0 0 1-2.652.967c-5.31 9.522-15.484 15.962-27.16 15.962-17.184 0-31.094-13.916-31.094-31.096 0-17.161 13.91-31.096 31.094-31.096 11.898 0 22.25 6.694 27.465 16.522 1.168-.422 2.465-.637 3.797-.65.898-.013 1.812-.013 2.718-.03-5.82-12.968-18.847-21.996-33.98-21.996-20.574 0-37.254 16.685-37.254 37.25 0 11.79 5.492 22.284 14.03 29.11a35.935 35.935 0 0 0 7.2 4.518 37.18 37.18 0 0 0 16.024 3.618 37.162 37.162 0 0 0 16.023-3.618 35.802 35.802 0 0 0 7.2-4.517c8.335-6.655 13.76-16.808 14.01-28.252-.968.1-1.944.233-2.905.383a46.793 46.793 0 0 1-3.293.49z"/></g><g><path fill="#fff200" d="M25.46 88.22l-4.535 7.245a4.233 4.233 0 0 1-3.598 2.01 4.241 4.241 0 0 1-2.25-.648c-1.98-1.246-2.597-3.863-1.332-5.847l4.512-7.267a36.518 36.518 0 0 0 7.203 4.508z"/></g><g><path fill="#fff200" d="M69.784 96.827a4.241 4.241 0 0 1-2.258.645c-1.402 0-2.773-.706-3.6-2.007l-4.5-7.232a37.566 37.566 0 0 0 7.17-4.52l4.532 7.266c1.226 1.985.64 4.602-1.344 5.848z"/></g><g><path fill="#fff200" d="M33.632 12.921L9.038 27.484c-3.52-5.96-2.215-13.45 2.766-17.888a1.83 1.83 0 0 1-.172-.233 2.826 2.826 0 0 1 1.004-3.879 2.828 2.828 0 0 1 3.875.983c.047.082.094.177.133.263 6.297-2.213 13.465.257 16.988 6.191z"/></g><g><path fill="#fff200" d="M75.597 27.66l-24.25-15.104c3.664-5.874 10.898-8.176 17.14-5.792a.872.872 0 0 1 .13-.261 2.836 2.836 0 0 1 3.906-.916 2.835 2.835 0 0 1 .902 3.91l-.152.228c4.859 4.572 5.976 12.079 2.324 17.935z"/></g><g><path fill="#fff200" d="M39.944 54.263a2.435 2.435 0 0 0 4.871 0V35.94a2.436 2.436 0 0 0-4.87 0z"/></g><g><path fill="#fff200" d="M33.929 44.633c-.754-.58-2.027-.193-2.844.868-.812 1.074-.867 2.403-.11 2.983l10.333 7.935c.762.585 2.043.186 2.855-.872.817-1.057.864-2.406.106-2.977z"/></g><g><path fill="#fff200" d="M29.835 43.267c-3.379 0-6.75-1.783-8.656-4.602a1.693 1.693 0 0 1 2.801-1.899c1.332 1.964 3.695 3.137 6.046 3.103 1.442-.052 3.45-.611 4.86-3.013.476-.804 1.523-1.084 2.324-.606a1.699 1.699 0 0 1 .602 2.325c-1.707 2.918-4.438 4.576-7.676 4.692h-.301z"/></g><g><path fill="#fff200" d="M55.425 43.267c-3.371 0-6.746-1.783-8.652-4.602a1.689 1.689 0 0 1 .449-2.35 1.697 1.697 0 0 1 2.355.45c1.336 1.965 3.7 3.138 6.047 3.104 1.442-.052 3.446-.611 4.856-3.013.48-.804 1.519-1.084 2.324-.606a1.701 1.701 0 0 1 .6 2.325c-1.71 2.918-4.432 4.576-7.678 4.692h-.301z"/></g><g><path fill="#fff200" d="M44.499 69.272c0 .18.016.368.027.54a4.306 4.306 0 0 1-.449-1.941c0-2.282 1.672-4.112 3.699-4.112.071 0 .168 0 .25.013-2.062.847-3.527 2.99-3.527 5.5z"/></g><g><path fill="#fff200" d="M51.495 67.862c0 2.256-1.668 4.09-3.719 4.09a2.84 2.84 0 0 1-.62-.06 4.42 4.42 0 0 1-.86-2.617c0-2.28 1.668-4.107 3.703-4.107.22 0 .43.016.63.068.542.705.866 1.624.866 2.626z"/></g><g><path fill="#fff200" d="M95.6 50.322c-1.343.847-3.062 1.237-4.647 1.241-4.821.04-9.711.198-14.485.985-2.851.463-5.644.863-8.54.717-1.268-.064-1.393-.743-.386-1.439 5.36-3.66 11.844-5.569 16.96-9.552-5.022-.069-10.038.03-15.061.038-1.274 0-1.406-.79-.391-1.427 1.352-.863 3.074-1.24 4.645-1.253 5.734-.009 11.457-.15 17.179 0 .653.025 1.657.373.844 1.1-4.922 4.403-11.168 6.527-16.79 9.81 3.13-.24 6.286-.985 9.392-1.23 3.625-.27 7.265-.404 10.89-.42 1.286-.018 1.41.79.39 1.43z"/></g><g><path fill="#fff200" d="M72.163 59.08c-2.465 2.495-5.707 3.888-8.695 5.653 2.52.19 5.058.061 7.578.048.855 0 .93.511.258.928-.918.555-2.063.825-3.102.825-3.16.018-6.297.147-9.437-.224-.762-.085-.176-.674.132-.88 2.86-1.92 6.235-3.18 8.79-5.492-2.442-.429-4.938-.055-7.407 0-.863.01-.94-.51-.254-.932.903-.559 2.04-.817 3.09-.825 2.981-.05 5.93-.495 8.875.22.43.116.47.368.172.678z"/></g></g></svg>