<svg xmlns="http://www.w3.org/2000/svg" width="56" height="91" viewBox="0 0 56 91"><g><g><path fill="#dd1c4e" d="M27.054 29.332c1.309 2.544 2.949 4.873 4.57 7.22 1.774 2.584 3.543 5.168 4.825 8.047 1.19 2.683 1.949 5.466 1.87 8.43-.081 2.74-.933 5.275-2.12 7.718-1.016 2.09-2.274 4.055-3.391 6.087-.254.46-.5.925-.754 1.38-.086.157-.105.275.027.43 2.653 3.082 4.133 6.686 4.82 10.666.356 2.022.708 4.045 1.063 6.074.028.158.03.263-.008.328l.153.1a13.875 13.875 0 0 0 1.562-1.937c3.078-4.587 5.246-9.585 6.613-14.926.778-3.035 1.207-6.118 1.204-9.25-.016-7.157-2.368-13.416-7.164-18.759-1.63-1.81-3.465-3.347-5.47-4.685-4.84-3.247-7.445-7.922-8.737-13.458a27.716 27.716 0 0 1-.672-8.289c.01-.142 0-.292 0-.546a27.963 27.963 0 0 0-.754 3.285c-.7 4.318.414 8.284 2.363 12.085"/><path fill="none" stroke="#fff" stroke-linecap="round" stroke-linejoin="round" stroke-miterlimit="20" stroke-width="9.59" d="M27.054 29.332c1.309 2.544 2.949 4.873 4.57 7.22 1.774 2.584 3.543 5.168 4.825 8.047 1.19 2.683 1.949 5.466 1.87 8.43-.081 2.74-.933 5.275-2.12 7.718-1.016 2.09-2.274 4.055-3.391 6.087-.254.46-.5.925-.754 1.38-.086.157-.105.275.027.43 2.653 3.082 4.133 6.686 4.82 10.666.356 2.022.708 4.045 1.063 6.074.028.158.03.263-.008.328l.153.1a13.875 13.875 0 0 0 1.562-1.937c3.078-4.587 5.246-9.585 6.613-14.926.778-3.035 1.207-6.118 1.204-9.25-.016-7.157-2.368-13.416-7.164-18.759-1.63-1.81-3.465-3.347-5.47-4.685-4.84-3.247-7.445-7.922-8.737-13.458a27.716 27.716 0 0 1-.672-8.289c.01-.142 0-.292 0-.546a27.963 27.963 0 0 0-.754 3.285c-.7 4.318.414 8.284 2.363 12.085"/></g><g><path fill="#dd1c4e" d="M31.425 67.897c1.652-3.081 3.32-6.084 4.28-9.421 1.16-4.009.88-7.942-.581-11.822-1.054-2.815-2.613-5.356-4.273-7.845-1.766-2.629-3.65-5.192-5.192-7.973-1.414-2.543-2.457-5.211-2.902-8.11-.406-2.651-.078-5.224.645-7.775.867-3.03 2.03-5.949 3.246-8.849.082-.209.168-.424.254-.639.007-.016-.008-.046-.028-.102-.941.7-1.804 1.469-2.633 2.268-1.957 1.893-3.492 4.102-4.914 6.415-1.218 1.99-2.406 3.979-3.093 6.224-.594 1.941-.81 3.919-.727 5.937.016.404.012.805-.09 1.201-.117.408-.16.429-.508.21-.906-.575-1.468-1.39-1.738-2.436-.125.262-.148.62-.086 1.114.102.826.36 1.606.863 2.272.215.283.184.421-.085.636a160.153 160.153 0 0 1-7.708 5.917c-1.078.771-1.246 2.752-.296 3.672.375.362.808.673 1.226.999.442.362.875.747 1.262 1.181.35.408.375.812.035 1.233-.121.157-.27.3-.418.44-.484.445-.941.931-1.473 1.311-.628.438-.636 1.005-.496 1.632.215.924.762 1.597 1.649 1.952.332.135.312.223.062.436-.437.376-.824.812-1.285 1.162-.582.434-.566.99-.406 1.588.113.444.398.79.812 1.005 1.274.646 1.602 1.521.82 2.97-.378.698-.796 1.368-.952 2.167-.465 2.409.972 4.735 3.343 5.446 1.48.445 3 .374 4.524.277 1.758-.111 3.5-.422 5.265-.395 2.883.05 5.473 1.01 7.87 2.556 1.36.881 2.572 1.937 3.728 3.146"/><path fill="none" stroke="#fff" stroke-linecap="round" stroke-linejoin="round" stroke-miterlimit="20" stroke-width="9.59" d="M31.425 67.897c1.652-3.081 3.32-6.084 4.28-9.421 1.16-4.009.88-7.942-.581-11.822-1.054-2.815-2.613-5.356-4.273-7.845-1.766-2.629-3.65-5.192-5.192-7.973-1.414-2.543-2.457-5.211-2.902-8.11-.406-2.651-.078-5.224.645-7.775.867-3.03 2.03-5.949 3.246-8.849.082-.209.168-.424.254-.639.007-.016-.008-.046-.028-.102-.941.7-1.804 1.469-2.633 2.268-1.957 1.893-3.492 4.102-4.914 6.415-1.218 1.99-2.406 3.979-3.093 6.224-.594 1.941-.81 3.919-.727 5.937.016.404.012.805-.09 1.201-.117.408-.16.429-.508.21-.906-.575-1.468-1.39-1.738-2.436-.125.262-.148.62-.086 1.114.102.826.36 1.606.863 2.272.215.283.184.421-.085.636a160.153 160.153 0 0 1-7.708 5.917c-1.078.771-1.246 2.752-.296 3.672.375.362.808.673 1.226.999.442.362.875.747 1.262 1.181.35.408.375.812.035 1.233-.121.157-.27.3-.418.44-.484.445-.941.931-1.473 1.311-.628.438-.636 1.005-.496 1.632.215.924.762 1.597 1.649 1.952.332.135.312.223.062.436-.437.376-.824.812-1.285 1.162-.582.434-.566.99-.406 1.588.113.444.398.79.812 1.005 1.274.646 1.602 1.521.82 2.97-.378.698-.796 1.368-.952 2.167-.465 2.409.972 4.735 3.343 5.446 1.48.445 3 .374 4.524.277 1.758-.111 3.5-.422 5.265-.395 2.883.05 5.473 1.01 7.87 2.556 1.36.881 2.572 1.937 3.728 3.146"/></g><g><path fill="#d53191" d="M27.054 29.332c1.309 2.544 2.949 4.873 4.57 7.22 1.774 2.584 3.543 5.168 4.825 8.047 1.19 2.683 1.949 5.466 1.87 8.43-.081 2.74-.933 5.275-2.12 7.718-1.016 2.09-2.274 4.055-3.391 6.087-.254.46-.5.925-.754 1.38-.086.157-.105.275.027.43 2.653 3.082 4.133 6.686 4.82 10.666.356 2.022.708 4.045 1.063 6.074.028.158.03.263-.008.328l.153.1a13.875 13.875 0 0 0 1.562-1.937c3.078-4.587 5.246-9.585 6.613-14.926.778-3.035 1.207-6.118 1.204-9.25-.016-7.157-2.368-13.416-7.164-18.759-1.63-1.81-3.465-3.347-5.47-4.685-4.84-3.247-7.445-7.922-8.737-13.458a27.716 27.716 0 0 1-.672-8.289c.01-.142 0-.292 0-.546a27.963 27.963 0 0 0-.754 3.285c-.7 4.318.414 8.284 2.363 12.085z"/></g><g><path fill="#d53191" d="M31.425 67.897c1.652-3.081 3.32-6.084 4.28-9.421 1.16-4.009.88-7.942-.581-11.822-1.054-2.815-2.613-5.356-4.273-7.845-1.766-2.629-3.65-5.192-5.192-7.973-1.414-2.543-2.457-5.211-2.902-8.11-.406-2.651-.078-5.224.645-7.775.867-3.03 2.03-5.949 3.246-8.849.082-.209.168-.424.254-.639.007-.016-.008-.046-.028-.102-.941.7-1.804 1.469-2.633 2.268-1.957 1.893-3.492 4.102-4.914 6.415-1.218 1.99-2.406 3.979-3.093 6.224-.594 1.941-.81 3.919-.727 5.937.016.404.012.805-.09 1.201-.117.408-.16.429-.508.21-.906-.575-1.468-1.39-1.738-2.436-.125.262-.148.62-.086 1.114.102.826.36 1.606.863 2.272.215.283.184.421-.085.636a160.153 160.153 0 0 1-7.708 5.917c-1.078.771-1.246 2.752-.296 3.672.375.362.808.673 1.226.999.442.362.875.747 1.262 1.181.35.408.375.812.035 1.233-.121.157-.27.3-.418.44-.484.445-.941.931-1.473 1.311-.628.438-.636 1.005-.496 1.632.215.924.762 1.597 1.649 1.952.332.135.312.223.062.436-.437.376-.824.812-1.285 1.162-.582.434-.566.99-.406 1.588.113.444.398.79.812 1.005 1.274.646 1.602 1.521.82 2.97-.378.698-.796 1.368-.952 2.167-.465 2.409.972 4.735 3.343 5.446 1.48.445 3 .374 4.524.277 1.758-.111 3.5-.422 5.265-.395 2.883.05 5.473 1.01 7.87 2.556 1.36.881 2.572 1.937 3.728 3.146z"/></g><g><path fill="#d53191" d="M42.51 21.21c-1.198.98-2.237 2.083-3.253 3.23.754-1.33 1.488-2.659 2.055-4.14-1.117.107-2.168.305-3.192.65-1.273.42-2.453 1.014-3.445 1.936-.68.634-1.168 1.375-1.168 2.35-.008 1.489 1.024 2.613 2.625 2.797.34.039.496.179.629.458.55 1.143 1.418 1.82 2.734 1.803.899-.016 1.602-.424 2.137-1.128.715-.963 1.008-2.084 1.18-3.242.222-1.532.086-3.058-.235-4.566-.004-.034-.027-.071-.066-.148z"/></g><g><path fill="#d53191" d="M50.155 16.65c-.719.32-1.434.626-2.14.972a15.95 15.95 0 0 0-2.063 1.183c1.285.752 2.594 1.326 4.012 1.622 1.144.246 2.296.355 3.453.074 1.32-.321 2.101-1.146 2.261-2.486.11-.916-.234-1.708-.89-2.33-.328-.31-.399-.61-.332-1.043.164-1.085-.117-2.044-1.008-2.742-.895-.695-1.89-.756-2.914-.328-1.62.683-2.774 1.918-3.746 3.332-.508.743-.93 1.54-1.305 2.424.836-.01 1.606-.134 2.38-.258.77-.118 1.52-.3 2.292-.42z"/></g><g><path fill="#d53191" d="M47.526 24.538c-1.05-1.144-2.129-2.254-3.352-3.276-.19.476-.214.947-.285 1.41-.234 1.832-.152 3.632.52 5.374.144.346.304.675.512.984 1.265 1.862 3.77 1.769 4.851-.208.25-.465.535-.683 1.063-.776 2.125-.376 3.027-2.651 1.777-4.42-.524-.74-1.242-1.267-2.02-1.716-1.496-.885-3.148-1.3-4.859-1.525-.297-.038-.348.04-.23.322a24.41 24.41 0 0 0 1.773 3.42c.09.134.164.273.25.41z"/></g><g><path fill="#d53191" d="M42.499 16.698c.23-.788.367-1.568.48-2.351.11-.78.168-1.56.29-2.343.136 1.577.343 3.132.75 4.709a13.307 13.307 0 0 0 1.914-2.004c.953-1.23 1.671-2.568 1.957-4.113.293-1.577-.332-2.893-1.657-3.424-.812-.323-1.629-.278-2.379.139-.418.233-.753.196-1.175 0-1.297-.607-2.539-.376-3.414.58-.727.79-.805 1.747-.625 2.736.382 2.017 1.468 3.663 2.847 5.128.313.327.625.653 1.012.943z"/></g><g><path fill="#d53191" d="M41.226 17.338c-1.078-2.357-2.426-4.383-4.73-5.614-.762-.408-1.58-.55-2.415-.276-1.328.433-2.085 1.751-1.851 3.187.05.324.183.614-.172.915-.95.81-1.293 1.86-.926 3.066.39 1.248 1.367 1.796 2.59 1.968 1.727.247 3.367-.125 4.965-.763a11.782 11.782 0 0 0 2.047-1.029c-1.363-.89-2.781-1.556-4.235-2.174 1.547.34 3.086.658 4.727.72z"/></g><g><path fill="#d53191" d="M44.983 19c0-.947-.723-1.665-1.664-1.665a1.65 1.65 0 0 0-1.676 1.7c.016.928.75 1.648 1.688 1.644.937-.005 1.656-.734 1.652-1.679z"/></g></g></svg>