<svg xmlns="http://www.w3.org/2000/svg" width="88" height="89" viewBox="0 0 88 89"><g><g><path fill="#05738c" d="M64.218 43.688l.066-.357c.032-.187.047-.389.047-.604 0-2.638-2.808-4.791-6.258-4.791s-6.261 2.153-6.261 4.791c0 .215.015.417.054.604l.063.357h-6.461V24.876l.37.096c.255.068.544.102.84.102 2.513 0 4.57-2.598 4.57-5.795 0-3.195-2.057-5.792-4.57-5.792-.296 0-.585.03-.84.103l-.37.09V6.187h.3c20.505 0 37.188 16.689 37.188 37.202v.299z"/></g><g><path fill="none" stroke="#fff" stroke-miterlimit="20" stroke-width="9.19" d="M64.218 43.688v0l.066-.357c.032-.187.047-.389.047-.604 0-2.638-2.808-4.791-6.258-4.791s-6.261 2.153-6.261 4.791c0 .215.015.417.054.604l.063.357v0h-6.461v0-18.812 0l.37.096c.255.068.544.102.84.102 2.513 0 4.57-2.598 4.57-5.795 0-3.195-2.057-5.792-4.57-5.792-.296 0-.585.03-.84.103l-.37.09v0-7.493 0h.3c20.505 0 37.188 16.689 37.188 37.202v.299H64.218v0z"/></g><g><path fill="#fff" d="M45.769 6.49c.203 0 .406.002.608.005l-.608-.609h-.613v8.186l.758-.19c.23-.062.484-.09.765-.09 2.352 0 4.262 2.46 4.262 5.487 0 3.025-1.91 5.487-4.262 5.487-.281 0-.535-.03-.765-.088l-.758-.193v19.506h7.14l-.125-.714a2.692 2.692 0 0 1-.054-.55c0-2.47 2.679-4.49 5.957-4.49 3.289 0 5.96 2.02 5.96 4.49 0 .2-.02.381-.042.55l-.133.714H83.26v-.602l-.61-.61c.003.203.005.406.005.61H64.585c.047-.217.055-.435.055-.662 0-2.815-2.93-5.094-6.566-5.094-3.625 0-6.563 2.28-6.563 5.094 0 .227.016.445.063.662h-5.805V25.262c.28.075.602.114.91.114 2.688 0 4.875-2.732 4.875-6.097 0-3.37-2.187-6.097-4.875-6.097-.308 0-.63.036-.91.111zm.608.005c19.88.322 35.951 16.385 36.274 36.284z"/><path fill="none" stroke="#fff" stroke-miterlimit="20" stroke-width="9.19" d="M45.769 6.49c.203 0 .406.002.608.005l-.608-.609h-.613v8.186l.758-.19c.23-.062.484-.09.765-.09 2.352 0 4.262 2.46 4.262 5.487 0 3.025-1.91 5.487-4.262 5.487-.281 0-.535-.03-.765-.088l-.758-.193v19.506h7.14l-.125-.714a2.692 2.692 0 0 1-.054-.55c0-2.47 2.679-4.49 5.957-4.49 3.289 0 5.96 2.02 5.96 4.49 0 .2-.02.381-.042.55l-.133.714H83.26v-.602l-.61-.61c.003.203.005.406.005.61H64.585c.047-.217.055-.435.055-.662 0-2.815-2.93-5.094-6.566-5.094-3.625 0-6.563 2.28-6.563 5.094 0 .227.016.445.063.662h-5.805V25.262c.28.075.602.114.91.114 2.688 0 4.875-2.732 4.875-6.097 0-3.37-2.187-6.097-4.875-6.097-.308 0-.63.036-.91.111zm.608.005c19.88.322 35.951 16.385 36.274 36.284z"/></g><g><path fill="#05738c" d="M45.483 83.619v-12.48l.387.094c.324.084.66.122 1.023.122 2.852 0 5.176-2.81 5.176-6.26 0-3.45-2.324-6.258-5.176-6.258-.363 0-.699.04-1.023.122l-.387.093V46.12h8.47c-.736-.63-1.228-1.418-1.41-2.288a3.54 3.54 0 0 1-.072-.718c0-2.443 2.512-4.426 5.602-4.426 3.094 0 5.617 1.983 5.617 4.426 0 .252-.027.49-.078.724-.176.864-.676 1.652-1.418 2.282h20.793v.3c0 20.512-16.68 37.199-37.195 37.199z"/></g><g><path fill="none" stroke="#fff" stroke-miterlimit="20" stroke-width="9.19" d="M45.483 83.619v0-12.48 0l.387.094c.324.084.66.122 1.023.122 2.852 0 5.176-2.81 5.176-6.26 0-3.45-2.324-6.258-5.176-6.258-.363 0-.699.04-1.023.122l-.387.093v0V46.12v0h8.47c-.736-.63-1.228-1.418-1.41-2.288a3.54 3.54 0 0 1-.072-.718c0-2.443 2.512-4.426 5.602-4.426 3.094 0 5.617 1.983 5.617 4.426 0 .252-.027.49-.078.724-.176.864-.676 1.652-1.418 2.282h20.793v.3c0 20.512-16.68 37.199-37.195 37.199h-.309v0z"/></g><g><path fill="#fff" d="M58.073 38.991c.28 0 .554.017.822.05l-.822-.658c-3.254 0-5.902 2.12-5.902 4.73 0 .276.02.538.074.79.148.698.48 1.348.973 1.914H45.19v13.621l.738-.185c.313-.078.637-.112.965-.112 2.676 0 4.871 2.67 4.871 5.953 0 3.287-2.195 5.96-4.87 5.96-.329 0-.653-.038-.966-.113l-.738-.188v13.168h.602c20.672 0 37.496-16.82 37.496-37.5v-.604H62.936c.5-.566.832-1.223.973-1.925.051-.24.082-.503.082-.779l-.647-.517c.027.17.041.342.041.517 0 .222-.023.44-.07.656-.226 1.081-.992 2.026-2.078 2.651h21.45c0 20.376-16.524 36.893-36.895 36.893V71.531c.351.086.722.133 1.101.133 3.028 0 5.473-2.939 5.473-6.57 0-3.624-2.445-6.564-5.473-6.564-.379 0-.75.043-1.1.132V46.42h9.128c-1.086-.625-1.848-1.57-2.078-2.65a3.075 3.075 0 0 1-.067-.657zm.822.05c2.328.28 4.155 1.73 4.449 3.555z"/><path fill="none" stroke="#fff" stroke-miterlimit="20" stroke-width="9.19" d="M58.073 38.991c.28 0 .554.017.822.05l-.822-.658c-3.254 0-5.902 2.12-5.902 4.73 0 .276.02.538.074.79.148.698.48 1.348.973 1.914H45.19v13.621l.738-.185c.313-.078.637-.112.965-.112 2.676 0 4.871 2.67 4.871 5.953 0 3.287-2.195 5.96-4.87 5.96-.329 0-.653-.038-.966-.113l-.738-.188v13.168h.602c20.672 0 37.496-16.82 37.496-37.5v-.604H62.936c.5-.566.832-1.223.973-1.925.051-.24.082-.503.082-.779l-.647-.517c.027.17.041.342.041.517 0 .222-.023.44-.07.656-.226 1.081-.992 2.026-2.078 2.651h21.45c0 20.376-16.524 36.893-36.895 36.893V71.531c.351.086.722.133 1.101.133 3.028 0 5.473-2.939 5.473-6.57 0-3.624-2.445-6.564-5.473-6.564-.379 0-.75.043-1.1.132V46.42h9.128c-1.086-.625-1.848-1.57-2.078-2.65a3.075 3.075 0 0 1-.067-.657zm.822.05c2.328.28 4.155 1.73 4.449 3.555z"/></g><g><path fill="#05738c" d="M42.995 83.26c-20.508 0-37.199-16.684-37.199-37.194v-.303h11.785l-.098.374a3.671 3.671 0 0 0-.093.84c0 2.64 2.738 4.786 6.101 4.786 3.36 0 6.09-2.146 6.09-4.786 0-.29-.03-.576-.098-.84l-.078-.374h13.891v15.222c.578-.63 1.281-1.087 2.031-1.323a4.181 4.181 0 0 1 1.191-.177c2.61 0 4.735 2.513 4.735 5.61 0 3.093-2.125 5.606-4.735 5.606-.398 0-.796-.055-1.179-.173-.762-.235-1.465-.694-2.043-1.326V83.26z"/></g><g><path fill="none" stroke="#fff" stroke-miterlimit="20" stroke-width="9.19" d="M42.995 83.26c-20.508 0-37.199-16.684-37.199-37.194v-.303 0h11.785v0l-.098.374a3.671 3.671 0 0 0-.093.84c0 2.64 2.738 4.786 6.101 4.786 3.36 0 6.09-2.146 6.09-4.786 0-.29-.03-.576-.098-.84l-.078-.374v0h13.891v15.222c.578-.63 1.281-1.087 2.031-1.323a4.181 4.181 0 0 1 1.191-.177c2.61 0 4.735 2.513 4.735 5.61 0 3.093-2.125 5.606-4.735 5.606-.398 0-.796-.055-1.179-.173-.762-.235-1.465-.694-2.043-1.326V83.26h-.3v0z"/></g><g><path fill="#fff" d="M42.995 61.882c.59-.938 1.454-1.632 2.426-1.933a3.92 3.92 0 0 1 1.097-.162c2.445 0 4.426 2.381 4.426 5.307 0 2.933-1.98 5.307-4.426 5.307a3.92 3.92 0 0 1-1.098-.16c-.972-.304-1.836-.996-2.425-1.932v14.647c-20.367 0-36.89-16.52-36.89-36.89h11.09c-.07.288-.11.597-.11.911 0 2.812 2.875 5.094 6.407 5.094 3.53 0 6.39-2.282 6.39-5.094a3.88 3.88 0 0 0-.097-.91h13.21zm.61-16.42H29.019l.176.743c.058.247.09.501.09.772 0 2.475-2.598 4.485-5.793 4.485-3.196 0-5.801-2.01-5.801-4.485 0-.27.039-.525.094-.772l.179-.743H5.492v.604c0 20.675 16.824 37.497 37.503 37.497h.61V69.915c.496.415 1.047.72 1.645.903.418.127.843.19 1.269.19 2.777 0 5.035-2.652 5.035-5.914 0-3.263-2.259-5.912-5.036-5.912-.425 0-.85.062-1.265.186a4.734 4.734 0 0 0-1.648.903z"/></g><g><path fill="none" stroke="#fff" stroke-miterlimit="20" stroke-width="9.19" d="M42.995 46.066v15.816c.59-.938 1.454-1.632 2.426-1.933a3.92 3.92 0 0 1 1.097-.162c2.445 0 4.426 2.381 4.426 5.307 0 2.933-1.98 5.307-4.426 5.307a3.92 3.92 0 0 1-1.098-.16c-.972-.304-1.836-.996-2.425-1.932v14.647c-20.367 0-36.89-16.52-36.89-36.89h11.09c-.07.288-.11.597-.11.911 0 2.812 2.875 5.094 6.407 5.094 3.53 0 6.39-2.282 6.39-5.094a3.88 3.88 0 0 0-.097-.91zm-13.976-.604l.176.743c.057.247.09.501.09.772 0 2.475-2.599 4.485-5.794 4.485-3.196 0-5.8-2.01-5.8-4.485 0-.27.039-.525.094-.772l.179-.743H5.492v.604c0 20.675 16.824 37.497 37.503 37.497h.61V69.915c.496.415 1.047.72 1.645.903.418.127.843.19 1.269.19 2.777 0 5.035-2.652 5.035-5.914 0-3.263-2.259-5.912-5.036-5.912-.425 0-.85.062-1.265.186a4.734 4.734 0 0 0-1.648.903V45.462z"/></g><g><path fill="#05738c" d="M23.491 51.197c-3.145 0-5.707-2.068-5.707-4.606 0-.324.051-.661.13-.987.202-.71.59-1.36 1.151-1.916h-13.3v-.3c0-20.512 16.68-37.201 37.2-37.201h.3v9.504c.55-.702 1.257-1.211 2.038-1.447a3.514 3.514 0 0 1 1-.147c2.317 0 4.196 2.323 4.196 5.182 0 2.854-1.879 5.178-4.196 5.178-.335 0-.675-.051-1-.151-.78-.236-1.488-.738-2.039-1.443v20.825h-15.35c.565.556.956 1.207 1.147 1.914.09.327.133.665.133.989 0 2.538-2.558 4.606-5.703 4.606"/><path fill="none" stroke="#fff" stroke-miterlimit="20" stroke-width="9.19" d="M23.491 51.197c-3.145 0-5.707-2.068-5.707-4.606 0-.324.051-.661.13-.987.202-.71.59-1.36 1.151-1.916h-13.3v0-.3c0-20.512 16.68-37.201 37.2-37.201h.3v9.504c.55-.702 1.257-1.211 2.038-1.447a3.514 3.514 0 0 1 1-.147c2.317 0 4.196 2.323 4.196 5.182 0 2.854-1.879 5.178-4.196 5.178-.335 0-.675-.051-1-.151-.78-.236-1.488-.738-2.039-1.443v20.825h-15.35c.565.556.956 1.207 1.147 1.914.09.327.133.665.133.989 0 2.538-2.558 4.606-5.703 4.606"/></g><g><path fill="#fff" d="M42.963 16.754c.532-1.097 1.403-1.912 2.43-2.22.29-.085.598-.136.91-.136 2.16 0 3.895 2.187 3.895 4.881 0 2.692-1.735 4.873-3.895 4.873-.312 0-.62-.047-.91-.133-1.027-.308-1.898-1.12-2.43-2.224V43.39H27.085c.832.593 1.441 1.392 1.687 2.29.078.294.13.602.13.911 0 2.374-2.43 4.301-5.41 4.301-2.982 0-5.4-1.927-5.4-4.3 0-.31.047-.618.121-.912.247-.898.848-1.697 1.692-2.29H6.065c0-20.383 16.523-36.899 36.898-36.899zm.602-10.868h-.602c-20.675 0-37.5 16.818-37.5 37.503v.602h12.93a4.383 4.383 0 0 0-.769 1.53c-.09.355-.153.717-.153 1.07 0 2.71 2.707 4.91 6.02 4.91 3.308 0 6.004-2.2 6.004-4.91a4.2 4.2 0 0 0-.137-1.07 4.326 4.326 0 0 0-.773-1.53h14.98v-20.35c.492.444 1.043.78 1.652.958.356.105.711.163 1.086.163 2.485 0 4.508-2.462 4.508-5.483 0-3.027-2.023-5.487-4.508-5.487-.375 0-.73.056-1.086.163-.609.176-1.16.505-1.652.957z"/></g><g><path fill="none" stroke="#fff" stroke-miterlimit="20" stroke-width="9.19" d="M42.963 6.49v10.264c.532-1.097 1.403-1.912 2.43-2.22.29-.085.598-.136.91-.136 2.16 0 3.895 2.187 3.895 4.881 0 2.692-1.735 4.873-3.895 4.873-.312 0-.62-.047-.91-.133-1.027-.308-1.898-1.12-2.43-2.224V43.39H27.085c.832.593 1.441 1.392 1.687 2.29.078.294.13.602.13.911 0 2.374-2.43 4.301-5.41 4.301-2.982 0-5.4-1.927-5.4-4.3 0-.31.047-.618.121-.912.247-.898.848-1.697 1.692-2.29H6.065zm0-.604c-20.675 0-37.5 16.818-37.5 37.503v.602h12.93a4.383 4.383 0 0 0-.769 1.53c-.09.355-.153.717-.153 1.07 0 2.71 2.707 4.91 6.02 4.91 3.308 0 6.004-2.2 6.004-4.91a4.2 4.2 0 0 0-.137-1.07 4.326 4.326 0 0 0-.773-1.53h14.98v-20.35c.492.444 1.043.78 1.652.958.356.105.711.163 1.086.163 2.485 0 4.508-2.462 4.508-5.483 0-3.027-2.023-5.487-4.508-5.487-.375 0-.73.056-1.086.163-.609.176-1.16.505-1.652.957V5.886z"/></g><g><path fill="#3adbd2" d="M64.218 43.688l.066-.357c.032-.187.047-.389.047-.604 0-2.638-2.808-4.791-6.258-4.791s-6.261 2.153-6.261 4.791c0 .215.015.417.054.604l.063.357h-6.461V24.876l.37.096c.255.068.544.102.84.102 2.513 0 4.57-2.598 4.57-5.795 0-3.195-2.057-5.792-4.57-5.792-.296 0-.585.03-.84.103l-.37.09V6.187h.3c20.505 0 37.188 16.689 37.188 37.202v.299z"/></g><g><path fill="#fff" d="M82.656 43.39H64.585c.047-.218.055-.436.055-.663 0-2.815-2.93-5.094-6.566-5.094-3.625 0-6.563 2.28-6.563 5.094 0 .227.016.445.063.662h-5.805V25.262c.28.075.602.114.91.114 2.688 0 4.875-2.732 4.875-6.097 0-3.37-2.187-6.097-4.875-6.097-.308 0-.63.036-.91.111V6.49c20.363 0 36.887 16.516 36.887 36.9zm-37.5-37.504v8.186l.758-.19c.23-.062.484-.09.765-.09 2.352 0 4.262 2.46 4.262 5.487 0 3.025-1.91 5.487-4.262 5.487-.281 0-.535-.03-.765-.088l-.758-.193v19.506h7.14l-.125-.714a2.692 2.692 0 0 1-.054-.55c0-2.47 2.679-4.49 5.957-4.49 3.289 0 5.96 2.02 5.96 4.49 0 .2-.02.381-.042.55l-.133.714H83.26v-.602c0-20.685-16.82-37.503-37.492-37.503z"/></g><g><path fill="#3adbd2" d="M45.483 83.619v-12.48l.387.094c.324.084.66.122 1.023.122 2.852 0 5.176-2.81 5.176-6.26 0-3.45-2.324-6.258-5.176-6.258-.363 0-.699.04-1.023.122l-.387.093V46.12h8.47c-.736-.63-1.228-1.418-1.41-2.288a3.54 3.54 0 0 1-.072-.718c0-2.443 2.512-4.426 5.602-4.426 3.094 0 5.617 1.983 5.617 4.426 0 .252-.027.49-.078.724-.176.864-.676 1.652-1.418 2.282h20.793v.3c0 20.512-16.68 37.199-37.195 37.199z"/></g><g><path fill="#fff" d="M63.385 43.113c0 .222-.023.44-.07.656-.226 1.081-.992 2.026-2.078 2.651h21.45c0 20.376-16.524 36.893-36.895 36.893V71.531c.351.086.722.133 1.101.133 3.028 0 5.473-2.939 5.473-6.57 0-3.624-2.445-6.564-5.473-6.564-.379 0-.75.043-1.1.132V46.42h9.128c-1.086-.625-1.848-1.57-2.078-2.65a3.075 3.075 0 0 1-.067-.657c0-2.279 2.371-4.122 5.297-4.122 2.934 0 5.312 1.843 5.312 4.122zm-11.214 0c0 .276.02.538.074.79.148.698.48 1.348.973 1.914H45.19v13.621l.738-.185c.313-.078.637-.112.965-.112 2.676 0 4.871 2.67 4.871 5.953 0 3.287-2.195 5.96-4.87 5.96-.329 0-.653-.038-.966-.113l-.738-.188v13.168h.602c20.672 0 37.496-16.82 37.496-37.5v-.604H62.936c.5-.566.832-1.223.973-1.925.051-.24.082-.503.082-.779 0-2.61-2.656-4.73-5.918-4.73-3.254 0-5.902 2.12-5.902 4.73z"/></g><g><path fill="#3adbd2" d="M42.995 83.26c-20.508 0-37.199-16.684-37.199-37.194v-.303h11.785l-.098.374a3.671 3.671 0 0 0-.093.84c0 2.64 2.738 4.786 6.101 4.786 3.36 0 6.09-2.146 6.09-4.786 0-.29-.03-.576-.098-.84l-.078-.374h13.891v15.222c.578-.63 1.281-1.087 2.031-1.323a4.181 4.181 0 0 1 1.191-.177c2.61 0 4.735 2.513 4.735 5.61 0 3.093-2.125 5.606-4.735 5.606-.398 0-.796-.055-1.179-.173-.762-.235-1.465-.694-2.043-1.326V83.26z"/></g><g><path fill="#fff" d="M42.995 61.882c.59-.938 1.454-1.632 2.426-1.933a3.92 3.92 0 0 1 1.097-.162c2.445 0 4.426 2.381 4.426 5.307 0 2.933-1.98 5.307-4.426 5.307a3.92 3.92 0 0 1-1.098-.16c-.972-.304-1.836-.996-2.425-1.932v14.647c-20.367 0-36.89-16.52-36.89-36.89h11.09c-.07.288-.11.597-.11.911 0 2.812 2.875 5.094 6.407 5.094 3.53 0 6.39-2.282 6.39-5.094a3.88 3.88 0 0 0-.097-.91h13.21zm.61-16.42H29.019l.176.743c.058.247.09.501.09.772 0 2.475-2.598 4.485-5.793 4.485-3.196 0-5.801-2.01-5.801-4.485 0-.27.039-.525.094-.772l.179-.743H5.492v.604c0 20.675 16.824 37.497 37.503 37.497h.61V69.915c.496.415 1.047.72 1.645.903.418.127.843.19 1.269.19 2.777 0 5.035-2.652 5.035-5.914 0-3.263-2.259-5.912-5.036-5.912-.425 0-.85.062-1.265.186a4.734 4.734 0 0 0-1.648.903z"/></g><g><path fill="#3adbd2" d="M23.491 51.197c-3.145 0-5.707-2.068-5.707-4.606 0-.324.051-.661.13-.987.202-.71.59-1.36 1.151-1.916h-13.3v-.3c0-20.512 16.68-37.201 37.2-37.201h.3v9.504c.55-.702 1.257-1.211 2.038-1.447a3.514 3.514 0 0 1 1-.147c2.317 0 4.196 2.323 4.196 5.182 0 2.854-1.879 5.178-4.196 5.178-.335 0-.675-.051-1-.151-.78-.236-1.488-.738-2.039-1.443v20.825h-15.35c.565.556.956 1.207 1.147 1.914.09.327.133.665.133.989 0 2.538-2.558 4.606-5.703 4.606z"/></g><g><path fill="#fff" d="M42.963 16.754c.532-1.097 1.403-1.912 2.43-2.22.29-.085.598-.136.91-.136 2.16 0 3.895 2.187 3.895 4.881 0 2.692-1.735 4.873-3.895 4.873-.312 0-.62-.047-.91-.133-1.027-.308-1.898-1.12-2.43-2.224V43.39H27.085c.832.593 1.441 1.392 1.687 2.29.078.294.13.602.13.911 0 2.374-2.43 4.301-5.41 4.301-2.982 0-5.4-1.927-5.4-4.3 0-.31.047-.618.121-.912.247-.898.848-1.697 1.692-2.29H6.065c0-20.383 16.523-36.899 36.898-36.899zm.602-10.868h-.602c-20.675 0-37.5 16.818-37.5 37.503v.602h12.93a4.383 4.383 0 0 0-.769 1.53c-.09.355-.153.717-.153 1.07 0 2.71 2.707 4.91 6.02 4.91 3.308 0 6.004-2.2 6.004-4.91a4.2 4.2 0 0 0-.137-1.07 4.326 4.326 0 0 0-.773-1.53h14.98v-20.35c.492.444 1.043.78 1.652.958.356.105.711.163 1.086.163 2.485 0 4.508-2.462 4.508-5.483 0-3.027-2.023-5.487-4.508-5.487-.375 0-.73.056-1.086.163-.609.176-1.16.505-1.652.957z"/></g></g></svg>