<svg xmlns="http://www.w3.org/2000/svg" width="83" height="102" viewBox="0 0 83 102"><g><g><path fill="#19753b" d="M20.25 72.981a34.123 34.123 0 0 1-3.996-4.485c-.527-.722-.484-1.29-.102-2.064 2.703-5.465 5.543-10.849 8.473-16.189.445-.805.711-.924 1.426-.31 1.699 1.474 3.687 2.452 5.867 3.09-1.633-1.595-3.055-3.335-4.414-5.136-.625-.842-.68-1.543-.082-2.435 1.562-2.305 3.301-4.426 5.558-6.08 2.813-2.055 5.813-2.498 8.993-.895 3.687 1.87 7.011 4.25 9.683 7.412 2.461 2.914 2.52 7.645.332 10.678-.414.566-.836.352-1.25.22-1.226-.396-2.445-.786-3.621-1.286-1.144-.472-2.211-1.095-3.48-2.126.523 1.641 1.656 2.368 2.465 3.274.871.975 1.992 1.801 3.14 2.436.899.503.621.83.184 1.367-2.184 2.718-4.871 4.974-7.071 7.652-1.757 2.145-3.503 2.066-5.664 1.018-1.367-.666-2.722-1.348-4.378-2.379 1.41 2.2 2.921 3.717 4.726 4.927.754.502.824.825.148 1.475-4.281 4.061-8.609 8.072-13.058 11.94-.594.515-1.086.593-1.797.306-1.547-.623-3.016-1.389-4.52-2.209.704 1.285 1.661 2.393 2.797 3.317.754.62.75.962-.027 1.59-3.039 2.431-6.016 4.958-9.203 7.214-1.133.8-2.332 1.508-3.719 1.758-1.566.291-2.484-.4-2.672-1.976-.14-1.26.11-2.485.508-3.657 2.387-7.039 5.426-13.806 8.524-20.556.367-.799.695-.623 1.261-.233 1.512 1.057 3.149 1.883 4.969 2.342"/><path fill="none" stroke="#fff" stroke-miterlimit="20" stroke-width="8.8" d="M20.25 72.981a34.123 34.123 0 0 1-3.996-4.485c-.527-.722-.484-1.29-.102-2.064 2.703-5.465 5.543-10.849 8.473-16.189.445-.805.711-.924 1.426-.31 1.699 1.474 3.687 2.452 5.867 3.09-1.633-1.595-3.055-3.335-4.414-5.136-.625-.842-.68-1.543-.082-2.435 1.562-2.305 3.301-4.426 5.558-6.08 2.813-2.055 5.813-2.498 8.993-.895 3.687 1.87 7.011 4.25 9.683 7.412 2.461 2.914 2.52 7.645.332 10.678-.414.566-.836.352-1.25.22-1.226-.396-2.445-.786-3.621-1.286-1.144-.472-2.211-1.095-3.48-2.126.523 1.641 1.656 2.368 2.465 3.274.871.975 1.992 1.801 3.14 2.436.899.503.621.83.184 1.367-2.184 2.718-4.871 4.974-7.071 7.652-1.757 2.145-3.503 2.066-5.664 1.018-1.367-.666-2.722-1.348-4.378-2.379 1.41 2.2 2.921 3.717 4.726 4.927.754.502.824.825.148 1.475-4.281 4.061-8.609 8.072-13.058 11.94-.594.515-1.086.593-1.797.306-1.547-.623-3.016-1.389-4.52-2.209.704 1.285 1.661 2.393 2.797 3.317.754.62.75.962-.027 1.59-3.039 2.431-6.016 4.958-9.203 7.214-1.133.8-2.332 1.508-3.719 1.758-1.566.291-2.484-.4-2.672-1.976-.14-1.26.11-2.485.508-3.657 2.387-7.039 5.426-13.806 8.524-20.556.367-.799.695-.623 1.261-.233 1.512 1.057 3.149 1.883 4.969 2.342"/></g><g><path fill="#19753b" d="M71.863 18.608c2.578 1.97 2.465 2.947-.375 4.2-1.168.52-2.398.902-3.59 1.347 0 .117-.015.228.02.28.597.757 1.293 1.534.797 2.556-.528 1.117-1.64.984-2.633.912-5.344-.408-9.14 2.123-12.367 6.514 3.656-.713 7.257-.194 10.09-2.78.64-.586 1.558-.908 2.402-1.213 2.574-.927 3.38-.244 2.886 2.58.891-.009 1.774-.203 2.633-.005 1.313.308 2.356.894 2.301 2.445-.016.545.15.748.672.838a4.695 4.695 0 0 1 1.97.8c1.108.786 1.366 1.764.534 2.792-.485.597-.332.945-.02 1.478.56.953 1.102 1.985.387 3.068-.75 1.143-1.957 1.104-3.086.85-.855-.193-1.105-.043-1.277.848-.258 1.396-1.164 1.752-2.442 1.13-1.09-.535-1.949-1.359-2.777-2.218-.37-.387-.55-.662-1.078-.072-.988 1.107-1.606 1.031-2.488-.143-.286-.379-.567-.78-.739-1.217-.386-1.013-.73-1.804-2.027-.867-.586.426-1.18-.09-1.48-.705-.368-.73-.489-1.537-.516-2.35-.094-2.115-1.363-3.125-3.457-2.699-1.856.383-3.223 1.59-4.485 2.91-1.769 1.838-1.753 1.852-3.863.283-2.05-1.529-2.039-1.517-.793-3.673.774-1.325 1.395-2.717 1.524-4.268.23-2.685-1.215-3.96-3.789-3.402a7.331 7.331 0 0 1-1.844.158c-1.102-.039-1.766-.598-1.39-1.748.312-.942-.137-.998-.84-1.088a9.346 9.346 0 0 1-2.075-.494c-1.308-.469-1.547-1.082-.828-2.26.348-.566.32-.744-.273-1.03-1.07-.517-2.102-1.114-2.93-1.999-1.03-1.1-.942-2.059.391-2.758.746-.393.898-.7.394-1.35-.113-.15-.172-.339-.242-.51-.344-.92-.574-1.853.105-2.712.688-.877 1.664-.869 2.614-.662.855.19 1.546.425 2.132-.623.454-.788 1.387-.709 2.184-.288.648.348 1.121.897 1.492 1.508.38.645.645 1.104 1.61.756 1.093-.387 1.88.387 2.464 1.268.543.808.672 1.761.88 2.672.113.031.222.095.265.07C51 16.292 52.117 17.204 52 19.778c-.047 1.146-.239 2.271-.653 3.346-.699 1.84-.839 3.666-.296 5.591.351 1.258.464 2.59.73 4.16 3.043-3.945 4.43-8.015 2.957-12.759-.168-.54-.402-1.065-.55-1.619-.48-1.862.46-2.78 2.312-2.278.312.086.625.201.996.323.18-1.598.051-3.176.387-4.713.496-2.227 1.308-2.592 3.101-1.235.746.56.832.194 1.008-.382.422-1.366.914-2.708 1.687-3.922 1.082-1.694 2.414-1.823 3.414-.082.801 1.396 1.434 1.29 2.4.38.065-.066.16-.1.25-.144 1.112-.598 2.307-1.207 3.475-.357 1.235.894.965 2.255.711 3.55-.003.043-.003.094-.027.133-.62 1.225-.508 1.895 1.082 2.285 1.918.47 2.137 1.787.805 3.323-1.102 1.271-2.516 2.166-3.926 3.23"/><path fill="none" stroke="#fff" stroke-miterlimit="20" stroke-width="8.8" d="M71.863 18.608c2.578 1.97 2.465 2.947-.375 4.2-1.168.52-2.398.902-3.59 1.347 0 .117-.015.228.02.28.597.757 1.293 1.534.797 2.556-.528 1.117-1.64.984-2.633.912-5.344-.408-9.14 2.123-12.367 6.514 3.656-.713 7.257-.194 10.09-2.78.64-.586 1.558-.908 2.402-1.213 2.574-.927 3.38-.244 2.886 2.58.891-.009 1.774-.203 2.633-.005 1.313.308 2.356.894 2.301 2.445-.016.545.15.748.672.838a4.695 4.695 0 0 1 1.97.8c1.108.786 1.366 1.764.534 2.792-.485.597-.332.945-.02 1.478.56.953 1.102 1.985.387 3.068-.75 1.143-1.957 1.104-3.086.85-.855-.193-1.105-.043-1.277.848-.258 1.396-1.164 1.752-2.442 1.13-1.09-.535-1.949-1.359-2.777-2.218-.37-.387-.55-.662-1.078-.072-.988 1.107-1.606 1.031-2.488-.143-.286-.379-.567-.78-.739-1.217-.386-1.013-.73-1.804-2.027-.867-.586.426-1.18-.09-1.48-.705-.368-.73-.489-1.537-.516-2.35-.094-2.115-1.363-3.125-3.457-2.699-1.856.383-3.223 1.59-4.485 2.91-1.769 1.838-1.753 1.852-3.863.283-2.05-1.529-2.039-1.517-.793-3.673.774-1.325 1.395-2.717 1.524-4.268.23-2.685-1.215-3.96-3.789-3.402a7.331 7.331 0 0 1-1.844.158c-1.102-.039-1.766-.598-1.39-1.748.312-.942-.137-.998-.84-1.088a9.346 9.346 0 0 1-2.075-.494c-1.308-.469-1.547-1.082-.828-2.26.348-.566.32-.744-.273-1.03-1.07-.517-2.102-1.114-2.93-1.999-1.03-1.1-.942-2.059.391-2.758.746-.393.898-.7.394-1.35-.113-.15-.172-.339-.242-.51-.344-.92-.574-1.853.105-2.712.688-.877 1.664-.869 2.614-.662.855.19 1.546.425 2.132-.623.454-.788 1.387-.709 2.184-.288.648.348 1.121.897 1.492 1.508.38.645.645 1.104 1.61.756 1.093-.387 1.88.387 2.464 1.268.543.808.672 1.761.88 2.672.113.031.222.095.265.07C51 16.292 52.117 17.204 52 19.778c-.047 1.146-.239 2.271-.653 3.346-.699 1.84-.839 3.666-.296 5.591.351 1.258.464 2.59.73 4.16 3.043-3.945 4.43-8.015 2.957-12.759-.168-.54-.402-1.065-.55-1.619-.48-1.862.46-2.78 2.312-2.278.312.086.625.201.996.323.18-1.598.051-3.176.387-4.713.496-2.227 1.308-2.592 3.101-1.235.746.56.832.194 1.008-.382.422-1.366.914-2.708 1.687-3.922 1.082-1.694 2.414-1.823 3.414-.082.801 1.396 1.434 1.29 2.4.38.065-.066.16-.1.25-.144 1.112-.598 2.307-1.207 3.475-.357 1.235.894.965 2.255.711 3.55-.003.043-.003.094-.027.133-.62 1.225-.508 1.895 1.082 2.285 1.918.47 2.137 1.787.805 3.323-1.102 1.271-2.516 2.166-3.926 3.23"/></g><g><path fill="#19753b" d="M20.25 72.981a34.123 34.123 0 0 1-3.996-4.485c-.527-.722-.484-1.29-.102-2.064 2.703-5.465 5.543-10.849 8.473-16.189.445-.805.711-.924 1.426-.31 1.699 1.474 3.687 2.452 5.867 3.09-1.633-1.595-3.055-3.335-4.414-5.136-.625-.842-.68-1.543-.082-2.435 1.562-2.305 3.301-4.426 5.558-6.08 2.813-2.055 5.813-2.498 8.993-.895 3.687 1.87 7.011 4.25 9.683 7.412 2.461 2.914 2.52 7.645.332 10.678-.414.566-.836.352-1.25.22-1.226-.396-2.445-.786-3.621-1.286-1.144-.472-2.211-1.095-3.48-2.126.523 1.641 1.656 2.368 2.465 3.274.871.975 1.992 1.801 3.14 2.436.899.503.621.83.184 1.367-2.184 2.718-4.871 4.974-7.071 7.652-1.757 2.145-3.503 2.066-5.664 1.018-1.367-.666-2.722-1.348-4.378-2.379 1.41 2.2 2.921 3.717 4.726 4.927.754.502.824.825.148 1.475-4.281 4.061-8.609 8.072-13.058 11.94-.594.515-1.086.593-1.797.306-1.547-.623-3.016-1.389-4.52-2.209.704 1.285 1.661 2.393 2.797 3.317.754.62.75.962-.027 1.59-3.039 2.431-6.016 4.958-9.203 7.214-1.133.8-2.332 1.508-3.719 1.758-1.566.291-2.484-.4-2.672-1.976-.14-1.26.11-2.485.508-3.657 2.387-7.039 5.426-13.806 8.524-20.556.367-.799.695-.623 1.261-.233 1.512 1.057 3.149 1.883 4.969 2.342z"/></g><g><path fill="#19753b" d="M71.863 18.608c2.578 1.97 2.465 2.947-.375 4.2-1.168.52-2.398.902-3.59 1.347 0 .117-.015.228.02.28.597.757 1.293 1.534.797 2.556-.528 1.117-1.64.984-2.633.912-5.344-.408-9.14 2.123-12.367 6.514 3.656-.713 7.257-.194 10.09-2.78.64-.586 1.558-.908 2.402-1.213 2.574-.927 3.38-.244 2.886 2.58.891-.009 1.774-.203 2.633-.005 1.313.308 2.356.894 2.301 2.445-.016.545.15.748.672.838a4.695 4.695 0 0 1 1.97.8c1.108.786 1.366 1.764.534 2.792-.485.597-.332.945-.02 1.478.56.953 1.102 1.985.387 3.068-.75 1.143-1.957 1.104-3.086.85-.855-.193-1.105-.043-1.277.848-.258 1.396-1.164 1.752-2.442 1.13-1.09-.535-1.949-1.359-2.777-2.218-.37-.387-.55-.662-1.078-.072-.988 1.107-1.606 1.031-2.488-.143-.286-.379-.567-.78-.739-1.217-.386-1.013-.73-1.804-2.027-.867-.586.426-1.18-.09-1.48-.705-.368-.73-.489-1.537-.516-2.35-.094-2.115-1.363-3.125-3.457-2.699-1.856.383-3.223 1.59-4.485 2.91-1.769 1.838-1.753 1.852-3.863.283-2.05-1.529-2.039-1.517-.793-3.673.774-1.325 1.395-2.717 1.524-4.268.23-2.685-1.215-3.96-3.789-3.402a7.331 7.331 0 0 1-1.844.158c-1.102-.039-1.766-.598-1.39-1.748.312-.942-.137-.998-.84-1.088a9.346 9.346 0 0 1-2.075-.494c-1.308-.469-1.547-1.082-.828-2.26.348-.566.32-.744-.273-1.03-1.07-.517-2.102-1.114-2.93-1.999-1.03-1.1-.942-2.059.391-2.758.746-.393.898-.7.394-1.35-.113-.15-.172-.339-.242-.51-.344-.92-.574-1.853.105-2.712.688-.877 1.664-.869 2.614-.662.855.19 1.546.425 2.132-.623.454-.788 1.387-.709 2.184-.288.648.348 1.121.897 1.492 1.508.38.645.645 1.104 1.61.756 1.093-.387 1.88.387 2.464 1.268.543.808.672 1.761.88 2.672.113.031.222.095.265.07C51 16.292 52.117 17.204 52 19.778c-.047 1.146-.239 2.271-.653 3.346-.699 1.84-.839 3.666-.296 5.591.351 1.258.464 2.59.73 4.16 3.043-3.945 4.43-8.015 2.957-12.759-.168-.54-.402-1.065-.55-1.619-.48-1.862.46-2.78 2.312-2.278.312.086.625.201.996.323.18-1.598.051-3.176.387-4.713.496-2.227 1.308-2.592 3.101-1.235.746.56.832.194 1.008-.382.422-1.366.914-2.708 1.687-3.922 1.082-1.694 2.414-1.823 3.414-.082.801 1.396 1.434 1.29 2.4.38.065-.066.16-.1.25-.144 1.112-.598 2.307-1.207 3.475-.357 1.235.894.965 2.255.711 3.55-.003.043-.003.094-.027.133-.62 1.225-.508 1.895 1.082 2.285 1.918.47 2.137 1.787.805 3.323-1.102 1.271-2.516 2.166-3.926 3.23z"/></g></g></svg>