<svg xmlns="http://www.w3.org/2000/svg" width="117" height="84" viewBox="0 0 117 84"><g><g><path fill="#d21c5e" d="M103.403 29.263a383.19 383.19 0 0 1 1.981-3.033c4.055-6.196 7.89-12.049 6.387-15.4-1.786-3.963-11.082-5.969-27.63-5.969h-.525c-4.264 6.901-5.64 15.232-6.047 20.93.921 6.333.174 13.007-2.266 20.157 5.835-.842 20.066-4.147 28.1-16.685"/><path fill="none" stroke="#fff" stroke-miterlimit="20" stroke-width="8.3" d="M103.403 29.263a383.19 383.19 0 0 1 1.981-3.033c4.055-6.196 7.89-12.049 6.387-15.4-1.786-3.963-11.082-5.969-27.63-5.969h-.525c-4.264 6.901-5.64 15.232-6.047 20.93.921 6.333.174 13.007-2.266 20.157 5.835-.842 20.066-4.147 28.1-16.685"/></g><g><path fill="#d21c5e" d="M68.965 5.287c-.302.013-.591.03-.9.043 3.319 4.1 5.745 8.177 7.364 12.362.945-4.791 2.429-9.075 4.399-12.788-3.342.057-6.981.186-10.863.383"/><path fill="none" stroke="#fff" stroke-miterlimit="20" stroke-width="8.3" d="M68.965 5.287c-.302.013-.591.03-.9.043 3.319 4.1 5.745 8.177 7.364 12.362.945-4.791 2.429-9.075 4.399-12.788-3.342.057-6.981.186-10.863.383"/></g><g><path fill="#d21c5e" d="M71.55 46.834c2.68-6.949 3.688-13.369 2.965-19.487a1.928 1.928 0 0 1-.174-.942c0-.073.007-.14.015-.218-1.113-7.164-4.616-13.958-10.611-20.763-.316.004-.618.01-.93.01-4.11 0-8.296-.169-12.352-.32-4.041-.168-7.867-.318-11.617-.318-11.77 0-23.415 1.362-28.92 11.193-7.82 13.974-6.147 28.197-4.678 40.743.324 2.717.622 5.29.827 7.813.73 8.984 1.974 14.978 5.662 14.978 2.98 0 7.61-3.234 13.748-9.615.173-.18.38-.323.618-.4.365-.13 36.979-12.655 45.448-22.675"/><path fill="none" stroke="#fff" stroke-miterlimit="20" stroke-width="8.3" d="M71.55 46.834c2.68-6.949 3.688-13.369 2.965-19.487a1.928 1.928 0 0 1-.174-.942c0-.073.007-.14.015-.218-1.113-7.164-4.616-13.958-10.611-20.763-.316.004-.618.01-.93.01-4.11 0-8.296-.169-12.352-.32-4.041-.168-7.867-.318-11.617-.318-11.77 0-23.415 1.362-28.92 11.193-7.82 13.974-6.147 28.197-4.678 40.743.324 2.717.622 5.29.827 7.813.73 8.984 1.974 14.978 5.662 14.978 2.98 0 7.61-3.234 13.748-9.615.173-.18.38-.323.618-.4.365-.13 36.979-12.655 45.448-22.675"/></g><g><path fill="#e85325" d="M103.403 29.263a383.19 383.19 0 0 1 1.981-3.033c4.055-6.196 7.89-12.049 6.387-15.4-1.786-3.963-11.082-5.969-27.63-5.969h-.525c-4.264 6.901-5.64 15.232-6.047 20.93.921 6.333.174 13.007-2.266 20.157 5.835-.842 20.066-4.147 28.1-16.685z"/></g><g><path fill="#e85325" d="M68.965 5.287c-.302.013-.591.03-.9.043 3.319 4.1 5.745 8.177 7.364 12.362.945-4.791 2.429-9.075 4.399-12.788-3.342.057-6.981.186-10.863.383z"/></g><g><path fill="#e85325" d="M71.55 46.834c2.68-6.949 3.688-13.369 2.965-19.487a1.928 1.928 0 0 1-.174-.942c0-.073.007-.14.015-.218-1.113-7.164-4.616-13.958-10.611-20.763-.316.004-.618.01-.93.01-4.11 0-8.296-.169-12.352-.32-4.041-.168-7.867-.318-11.617-.318-11.77 0-23.415 1.362-28.92 11.193-7.82 13.974-6.147 28.197-4.678 40.743.324 2.717.622 5.29.827 7.813.73 8.984 1.974 14.978 5.662 14.978 2.98 0 7.61-3.234 13.748-9.615.173-.18.38-.323.618-.4.365-.13 36.979-12.655 45.448-22.675z"/></g></g></svg>