<svg xmlns="http://www.w3.org/2000/svg" width="88" height="87" viewBox="0 0 88 87"><g><g><path fill="#fff" d="M80.266 43.304c0 19.512-15.82 35.328-35.332 35.328S9.606 62.816 9.606 43.304 25.422 7.976 44.934 7.976s35.332 15.816 35.332 35.328z"/></g><g><path fill="#94519c" d="M5.234 43.167c.051-21.71 17.488-38.908 39.403-38.865 21.632.033 38.945 17.603 38.871 39.449-.07 21.18-17.774 38.629-39.12 38.55zM44.7 77.88c1.707-.141 3.434-.15 5.11-.441 26.45-4.633 38-34.651 21.484-55.81-1.102-1.417-2.364-3.136-4.348-2.438-1.902.66-1.832 2.796-1.769 4.468.257 6.823-1.98 12.369-7.75 16.328-1.719 1.182-2.879 2.909-3.02 5.014-.148 2.205-.94 3.072-3.266 2.772-1.144-.151-1.32-.288-1.125-1.372.657-3.677 2.282-6.853 5.317-9.005 5.97-4.237 7.066-10.008 5.512-16.616-1.23-5.234-3.688-9.918-9.313-11.275C31.86 4.753 11.386 19.915 9.808 40.17z"/><path fill="none" stroke="#fff" stroke-miterlimit="20" stroke-width="8.8" d="M5.234 43.167c.051-21.71 17.488-38.908 39.403-38.865 21.632.033 38.945 17.603 38.871 39.449-.07 21.18-17.774 38.629-39.12 38.55zM44.7 77.88c1.707-.141 3.434-.15 5.11-.441 26.45-4.633 38-34.651 21.484-55.81-1.102-1.417-2.364-3.136-4.348-2.438-1.902.66-1.832 2.796-1.769 4.468.257 6.823-1.98 12.369-7.75 16.328-1.719 1.182-2.879 2.909-3.02 5.014-.148 2.205-.94 3.072-3.266 2.772-1.144-.151-1.32-.288-1.125-1.372.657-3.677 2.282-6.853 5.317-9.005 5.97-4.237 7.066-10.008 5.512-16.616-1.23-5.234-3.688-9.918-9.313-11.275C31.86 4.753 11.386 19.915 9.808 40.17z"/></g><g><path fill="#94519c" d="M34.148 42.366c1.945 1.203 4.344 1.543 5.992 3.271.4.424 1.371.854.668 1.57-.535.544-1.047-.273-1.473-.599-1.37-1.035-2.742-2.062-4.335-2.728-2.903-1.213-5.696-.237-7.028 2.414-1.304 2.6-.465 5.156 2.492 6.7 4.286 2.237 8.766 3.66 13.836 2.054l-1.039 4.291c1.348-2.1 2.075-4.442 3.348-6.532 2.988-4.88 5.601-5.494 10.441-2.388 1.25.804 2.47 1.676 3.774 2.385 1.933 1.056 2.797.666 3.488-1.422.074-.207.11-.438.203-.637.457-1.01.274-2.955 1.742-2.637 1.426.313 2.5 1.8 2.481 3.571-.039 3.906-4.62 6.65-7.922 4.748a6.046 6.046 0 0 0-2.547-.762c-1.734-.137-3.37-.524-5.047-1.809.117 3.004.438 5.69-.14 8.367-1.028 4.713-3.934 7.407-8.707 7.89-7.3.741-14.879-3.925-18.39-11.366-1.552-3.283-2.446-6.768-2.329-10.377.133-3.967-.68-7.674-2.125-11.305-.746-1.869-1.344-3.787-1.574-5.8-.64-5.678 3.961-11.272 9.726-11.813 6.356-.594 12.055 3.875 12.43 9.805.058.955-.129 1.925-.262 2.88-.058.424-.316.803-.12 1.284.354.916 1.597 1.486 1.073 2.746-.902 2.156-1.918 4.293-3.69 5.861-1.466 1.297-3.228.688-4.966.338"/><path fill="none" stroke="#fff" stroke-miterlimit="20" stroke-width="8.8" d="M34.148 42.366c1.945 1.203 4.344 1.543 5.992 3.271.4.424 1.371.854.668 1.57-.535.544-1.047-.273-1.473-.599-1.37-1.035-2.742-2.062-4.335-2.728-2.903-1.213-5.696-.237-7.028 2.414-1.304 2.6-.465 5.156 2.492 6.7 4.286 2.237 8.766 3.66 13.836 2.054l-1.039 4.291c1.348-2.1 2.075-4.442 3.348-6.532 2.988-4.88 5.601-5.494 10.441-2.388 1.25.804 2.47 1.676 3.774 2.385 1.933 1.056 2.797.666 3.488-1.422.074-.207.11-.438.203-.637.457-1.01.274-2.955 1.742-2.637 1.426.313 2.5 1.8 2.481 3.571-.039 3.906-4.62 6.65-7.922 4.748a6.046 6.046 0 0 0-2.547-.762c-1.734-.137-3.37-.524-5.047-1.809.117 3.004.438 5.69-.14 8.367-1.028 4.713-3.934 7.407-8.707 7.89-7.3.741-14.879-3.925-18.39-11.366-1.552-3.283-2.446-6.768-2.329-10.377.133-3.967-.68-7.674-2.125-11.305-.746-1.869-1.344-3.787-1.574-5.8-.64-5.678 3.961-11.272 9.726-11.813 6.356-.594 12.055 3.875 12.43 9.805.058.955-.129 1.925-.262 2.88-.058.424-.316.803-.12 1.284.354.916 1.597 1.486 1.073 2.746-.902 2.156-1.918 4.293-3.69 5.861-1.466 1.297-3.228.688-4.966.338"/></g><g><path fill="#94519c" d="M39.68 54.87c-2.992-.365-6.434-.914-9.395-2.998-2-1.4-2.492-3.236-1.48-5.209 1.113-2.164 3.109-2.969 5.422-2.109 2.047.761 3.738 2.11 5.44 3.437.884.692 1.423.654 2.103-.355 1.672-2.51 3.066-5.077 3.164-8.192.027-.724.25-1.469.504-2.156.398-1.088 1.387-1.629 2.406-1.629.984 0 1.758.727 2.19 1.676.435.96.439 1.78-.475 2.56-2.25 1.934-2.281 4.711-2.645 7.354-.13.953-.246 1.916-.476 2.844-.817 3.338-2.805 4.838-6.758 4.777"/><path fill="none" stroke="#fff" stroke-miterlimit="20" stroke-width="8.8" d="M39.68 54.87c-2.992-.365-6.434-.914-9.395-2.998-2-1.4-2.492-3.236-1.48-5.209 1.113-2.164 3.109-2.969 5.422-2.109 2.047.761 3.738 2.11 5.44 3.437.884.692 1.423.654 2.103-.355 1.672-2.51 3.066-5.077 3.164-8.192.027-.724.25-1.469.504-2.156.398-1.088 1.387-1.629 2.406-1.629.984 0 1.758.727 2.19 1.676.435.96.439 1.78-.475 2.56-2.25 1.934-2.281 4.711-2.645 7.354-.13.953-.246 1.916-.476 2.844-.817 3.338-2.805 4.838-6.758 4.777"/></g><g><path fill="#94519c" d="M53.957 55.632c2.625.189 4.25 1.512 5.789 3.209 1.941 2.152 4.621 2.062 7.25 1.689.816-.111 1.746-.486 2.004.64.23 1.005-.695 1.505-1.441 1.667-2.106.45-3.77 1.578-5.426 2.867-1.395 1.086-2.77.725-3.371-.967-.676-1.912-1.844-3.293-3.461-4.457-1.629-1.171-.856-3.105-1.344-4.648"/><path fill="none" stroke="#fff" stroke-miterlimit="20" stroke-width="8.8" d="M53.957 55.632c2.625.189 4.25 1.512 5.789 3.209 1.941 2.152 4.621 2.062 7.25 1.689.816-.111 1.746-.486 2.004.64.23 1.005-.695 1.505-1.441 1.667-2.106.45-3.77 1.578-5.426 2.867-1.395 1.086-2.77.725-3.371-.967-.676-1.912-1.844-3.293-3.461-4.457-1.629-1.171-.856-3.105-1.344-4.648"/></g><g><path fill="#d17eb3" d="M44.637 4.302c21.632.033 38.945 17.603 38.871 39.449-.07 21.18-17.774 38.629-39.12 38.55-21.873-.075-39.212-17.405-39.154-39.134.051-21.71 17.488-38.908 39.403-38.865zm5.171 73.137c26.45-4.633 38-34.651 21.485-55.81-1.102-1.417-2.364-3.136-4.348-2.438-1.902.66-1.832 2.796-1.769 4.468.257 6.823-1.98 12.369-7.75 16.328-1.719 1.182-2.879 2.909-3.02 5.014-.148 2.205-.94 3.072-3.266 2.772-1.144-.151-1.32-.288-1.125-1.372.657-3.677 2.282-6.853 5.317-9.005 5.97-4.237 7.066-10.008 5.512-16.616-1.23-5.234-3.688-9.918-9.313-11.275C31.86 4.753 11.386 19.915 9.808 40.17 8.2 60.79 23.988 77.816 44.7 77.88c1.707-.141 3.434-.15 5.11-.441z"/></g><g><path fill="#d17eb3" d="M34.148 42.366c1.945 1.203 4.344 1.543 5.992 3.271.4.424 1.371.854.668 1.57-.535.544-1.047-.273-1.473-.599-1.37-1.035-2.742-2.062-4.335-2.728-2.903-1.213-5.696-.237-7.028 2.414-1.304 2.6-.465 5.156 2.492 6.7 4.286 2.237 8.766 3.66 13.836 2.054l-1.039 4.291c1.348-2.1 2.075-4.442 3.348-6.532 2.988-4.88 5.601-5.494 10.441-2.388 1.25.804 2.47 1.676 3.774 2.385 1.933 1.056 2.797.666 3.488-1.422.074-.207.11-.438.203-.637.457-1.01.274-2.955 1.742-2.637 1.426.313 2.5 1.8 2.481 3.571-.039 3.906-4.62 6.65-7.922 4.748a6.046 6.046 0 0 0-2.547-.762c-1.734-.137-3.37-.524-5.047-1.809.117 3.004.438 5.69-.14 8.367-1.028 4.713-3.934 7.407-8.707 7.89-7.3.741-14.879-3.925-18.39-11.366-1.552-3.283-2.446-6.768-2.329-10.377.133-3.967-.68-7.674-2.125-11.305-.746-1.869-1.344-3.787-1.574-5.8-.64-5.678 3.961-11.272 9.726-11.813 6.356-.594 12.055 3.875 12.43 9.805.058.955-.129 1.925-.262 2.88-.058.424-.316.803-.12 1.284.354.916 1.597 1.486 1.073 2.746-.902 2.156-1.918 4.293-3.69 5.861-1.466 1.297-3.228.688-4.966.338z"/></g><g><path fill="#d17eb3" d="M39.68 54.87c-2.992-.365-6.434-.914-9.395-2.998-2-1.4-2.492-3.236-1.48-5.209 1.113-2.164 3.109-2.969 5.422-2.109 2.047.761 3.738 2.11 5.44 3.437.884.692 1.423.654 2.103-.355 1.672-2.51 3.066-5.077 3.164-8.192.027-.724.25-1.469.504-2.156.398-1.088 1.387-1.629 2.406-1.629.984 0 1.758.727 2.19 1.676.435.96.439 1.78-.475 2.56-2.25 1.934-2.281 4.711-2.645 7.354-.13.953-.246 1.916-.476 2.844-.817 3.338-2.805 4.838-6.758 4.777z"/></g><g><path fill="#d17eb3" d="M53.957 55.632c2.625.189 4.25 1.512 5.789 3.209 1.941 2.152 4.621 2.062 7.25 1.689.816-.111 1.746-.486 2.004.64.23 1.005-.695 1.505-1.441 1.667-2.106.45-3.77 1.578-5.426 2.867-1.395 1.086-2.77.725-3.371-.967-.676-1.912-1.844-3.293-3.461-4.457-1.629-1.171-.856-3.105-1.344-4.648z"/></g></g></svg>