<svg xmlns="http://www.w3.org/2000/svg" width="67" height="83" viewBox="0 0 67 83"><g><g><path fill="#fff" d="M20.632 80.774c-3.945 0-7.578-6.005-9.398-9.577-2.551-5.032-4.512-10.706-5.227-15.173-1.184-7.395-.563-11.666-.066-15.101.343-2.312.597-3.968.078-5.972-.4-1.595-.942-3.21-1.504-4.86-2.41-7.144-5.406-16.04 2.008-22.34 4.242-3.612 8.429-5.363 12.785-5.363 3.375 0 6.367 1.005 9.258 1.977 1.953.649 3.972 1.33 5.816 1.45l.563.018c1.964 0 4.449-.557 7.078-1.15 3.265-.734 6.586-1.482 9.73-1.482 5.602 0 9.348 2.462 11.457 7.517 1.53 3.676 1.75 8.69.649 14.906-.9 5.019-2.446 9.74-3.184 12.009-.68 2.085-.285 3.765.309 6.306.632 2.664 1.496 6.316 1.35 11.802-.18 7.012-3.882 14.792-7.468 19.389-1.07 1.38-2.222 2.566-3.312 3.423-1.508 1.182-3.008 1.78-4.453 1.78-1.235-.03-2.223-.38-3.078-1.045-2.72-2.125-2.172-5.771-1.485-10.375.485-3.257 1.055-7.135.735-10.841-.352-4.17-1.715-8.2-3.72-11.061-1.124-1.608-2.944-3.53-5.183-3.53-1.925.314-3.867 2.357-5.402 5.344-1.97 3.86-3.055 8.77-3.055 13.827 0 2.17.199 4.338.57 6.434l.145.659c.219 1.082.52 2.586.52 4.096 0 6.029-4.082 6.933-6.516 6.933z"/></g><g><path fill="#fff" d="M28.015 5.997c2.106.703 4.199 1.4 6.254 1.532.227.013.445.03.676.03 2.168 0 4.8-.597 7.508-1.209 3.144-.709 6.359-1.43 9.3-1.43 4.164 0 7.778 1.453 9.868 6.455 1.632 3.92 1.406 9.077.542 13.947-.84 4.69-2.253 9.114-3.125 11.772-.824 2.546-.355 4.578.266 7.236.66 2.784 1.445 6.155 1.305 11.363-.16 6.575-3.653 13.954-7.106 18.38-1.004 1.294-2.04 2.364-3.015 3.124-1.157.906-2.317 1.415-3.387 1.415h-.086a3.168 3.168 0 0 1-1.926-.684c-1.93-1.51-1.465-4.607-.844-8.775.48-3.24 1.094-7.266.743-11.23-.371-4.378-1.817-8.76-4.024-11.9-1.801-2.57-4.066-4.26-6.593-4.26-.24 0-.454.02-.641.053-2.2.398-4.488 2.705-6.293 6.226-1.942 3.801-3.242 8.921-3.242 14.61 0 2.208.183 4.473.6 6.743.044.204.052.223.138.664.223 1.11.496 2.46.496 3.782 0 2.808-1.008 5.207-4.797 5.207-2.312 0-5.347-3.69-7.863-8.634-2.266-4.461-4.324-10.084-5.063-14.66-1.144-7.148-.543-11.26-.058-14.6.355-2.36.644-4.288.043-6.636-.41-1.628-.97-3.288-1.54-4.978-2.433-7.208-5.027-14.944 1.485-20.48 4.418-3.75 8.215-4.947 11.672-4.947 3.09 0 5.918.944 8.707 1.884zm-22.61.438C-2.902 13.5.442 23.407 2.886 30.639c.607 1.785 1.099 3.267 1.462 4.72.43 1.69.227 3.12-.105 5.288-.493 3.388-1.168 7.997.066 15.645.742 4.641 2.758 10.5 5.395 15.686 2.433 4.796 6.304 10.518 10.929 10.518 5.16 0 8.239-3.239 8.239-8.655 0-1.68-.325-3.288-.555-4.457-.086-.422-.11-.524-.15-.678a34.865 34.865 0 0 1-.53-6.055c0-4.793 1.024-9.42 2.87-13.045 1.536-2.995 3.146-4.277 3.84-4.406 1.18.006 2.556 1.027 3.802 2.797 1.805 2.585 3.082 6.4 3.41 10.218.305 3.515-.25 7.275-.7 10.3-.73 4.892-1.402 9.382 2.106 12.124a6.666 6.666 0 0 0 3.96 1.416h.009c2.016 0 3.867-.729 5.684-2.154 1.199-.938 2.449-2.225 3.605-3.722 3.484-4.458 7.633-12.488 7.84-20.398.14-5.71-.75-9.487-1.406-12.242-.602-2.593-.856-3.809-.34-5.38.754-2.292 2.32-7.096 3.234-12.232 1.168-6.549.91-11.89-.75-15.875-2.375-5.69-6.758-8.575-13.047-8.575-3.328 0-6.758.77-10.058 1.512-2.586.58-4.981 1.12-6.75 1.12-.15 0-.301 0-.45-.015-1.617-.106-3.453-.718-5.386-1.365-2.88-.968-6.145-2.064-9.801-2.064-4.785 0-9.332 1.884-13.902 5.77z"/></g><g><path fill="#ab65a8" d="M53.5 74.07c-1 1.303-2.044 2.367-3.013 3.126-1.188.93-2.375 1.445-3.473 1.414a3.119 3.119 0 0 1-1.926-.685c-1.929-1.504-1.468-4.604-.843-8.768.48-3.244 1.093-7.272.742-11.236-.37-4.374-1.817-8.755-4.024-11.898-1.8-2.565-4.074-4.26-6.593-4.26-.239 0-.457.016-.645.05-2.195.4-4.484 2.713-6.289 6.225-1.94 3.81-3.242 8.925-3.242 14.616 0 2.205.183 4.471.601 6.744.043.198.051.22.137.664.223 1.106.496 2.462.496 3.777 0 2.814-1.012 5.212-4.797 5.212-2.312 0-5.347-3.689-7.863-8.637-2.27-4.465-4.324-10.079-5.062-14.663-1.145-7.143-.543-11.254-.059-14.592.351-2.366.644-4.295.043-6.636-.41-1.63-.969-3.294-1.543-4.985-2.43-7.202-5.024-14.944 1.488-20.48 8.352-7.093 14.457-5.052 20.38-3.065 2.105.702 4.198 1.404 6.253 1.54 2.273.15 5.18-.506 8.184-1.183 7.605-1.712 15.605-3.508 19.164 5.032 1.636 3.911 1.41 9.072.547 13.94-.84 4.687-2.254 9.115-3.125 11.772-.825 2.544-.356 4.583.265 7.236.66 2.784 1.446 6.16 1.305 11.364-.16 6.571-3.652 13.954-7.109 18.376zm3.218-18.465c.124-4.679-.61-7.807-1.216-10.385-.76-3.258-1.347-5.752-.179-9.338.84-2.543 2.203-6.789 2.992-11.23.758-4.253.988-8.675-.3-11.775-2.306-5.519-8.657-4.082-14.708-2.726-3.273.741-6.473 1.457-9.28 1.271-2.556-.165-4.888-.947-7.243-1.735-4.907-1.64-9.95-3.328-16.625 2.347-4.5 3.83-2.336 10.273-.317 16.271.614 1.822 1.211 3.607 1.63 5.253.796 3.097.46 5.367.046 8.168-.453 3.081-1.02 6.882.035 13.413.664 4.17 2.574 9.356 4.695 13.52 1.891 3.712 3.665 6.486 4.383 6.486.703 0 .883-.604.883-1.306 0-.956-.226-2.1-.41-3.027a33.83 33.83 0 0 0-.137-.73 41.512 41.512 0 0 1-.672-7.428c0-6.314 1.457-12.059 3.68-16.376 2.352-4.6 5.641-7.669 9.07-8.294a7.608 7.608 0 0 1 1.325-.13c3.925 0 7.277 2.36 9.793 5.934 2.59 3.711 4.293 8.79 4.73 13.815.363 4.396-.277 8.674-.78 12.115-.36 2.325-.626 4.173-.657 4.862.167-.107.39-.254.64-.453.72-.565 1.524-1.399 2.34-2.454 3.06-3.912 6.141-10.39 6.281-16.068z"/></g><g><path fill="#ab65a8" d="M16.85 63.466c-.093-18.223 6.794-31.917 17.024-31.917 9.875 0 16.52 13.181 17.27 31.152 4-12.615-4.113-20.653-1.945-28.38 3.562-12.644 2.793-19.777-6.43-16.035-7.691 3.12-9.254 1.848-16.75-.666-7.02-2.968-14.27.482-9.945 11.231 5.172 12.88-5.184 19.991.777 34.615z"/></g></g></svg>