<svg xmlns="http://www.w3.org/2000/svg" width="80" height="96" viewBox="0 0 80 96"><g><g><path fill="none" stroke="#fff" stroke-miterlimit="20" stroke-width="10" d="M31.731 87.079c.219-2.302.5-4.614-.054-6.918-.504-2.084-1.125-4.137-1.949-6.123-1.379-3.265-3.875-5.005-7.356-5.452-1.766-.22-3.519-.184-5.281-.258-2.141-.094-4.246-.408-6.219-1.297a6.696 6.696 0 0 1-1.496-.928c-1.176-.988-1.555-2.231-1.125-3.704.172-.598.41-1.182.789-1.667.656-.843.731-1.776.527-2.764-.222-1.031-.476-2.058-1.191-2.883-.09-.103-.148-.24-.207-.365-.406-.881-.219-1.504.586-1.985-.055-.117-.184-.09-.285-.12-.778-.305-1.028-1.25-.434-1.857.387-.395.664-.85.836-1.362.266-.855.488-1.732.746-2.586.129-.417-.012-.727-.371-.945-.363-.233-.734-.435-1.121-.65-.469-.262-.961-.494-1.418-.795-1.078-.704-1.184-1.452-.355-2.462.281-.331.585-.632.91-.92 1.097-1.022 2.254-1.99 3.273-3.088 2.125-2.283 3.305-4.976 3.707-8.066.399-3.051 1.039-6.062 2.16-8.937 1.676-4.336 4.629-7.597 8.473-10.09 4.105-2.651 8.637-4.142 13.441-4.903 3.293-.52 6.614-.652 9.934-.265 5.523.63 10.777 2.122 15.605 4.945 4.418 2.578 7.411 6.372 9.27 11.086 1.512 3.85 2.113 7.842 1.785 11.958-.285 3.446-1.297 6.65-3.176 9.573-1.578 2.442-3.109 4.907-4.675 7.357-2.43 3.794-4.02 7.958-5.407 12.212-.933 2.853-1.715 5.74-1.992 8.744-.199 2.028-.055 4.039.172 6.05.363 3.167.707 6.337 1.078 9.496.141 1.224.305 2.449.555 3.66H31.399c-.003-1.233.215-2.457.332-3.691zM47.813 26.08c.336-.051.836-.12 1.34-.197.371-.06.485-.293.418-.644-.074-.371-.148-.752-.234-1.131-.074-.361.051-.64.375-.752.523-.176.937-.817 1.601-.37.059.044.106.112.161.172.203.228.41.464.605.688.379.42.566.43.953.06.258-.241.508-.494.762-.744.566-.553.566-.64 0-1.172-1.18-1.083-1.109-.826-.356-2.291.172-.326.43-.433.774-.352.375.09.754.177 1.129.258.34.073.57-.034.656-.396a7.3 7.3 0 0 0 .266-1.504c.031-.381-.145-.575-.524-.61-.386-.034-.773-.09-1.144-.137-.332-.043-.582-.215-.586-.563 0-.537-.442-1.11.094-1.615.074-.07.187-.095.285-.138.328-.146.652-.288.976-.43.332-.141.426-.378.258-.71-.219-.424-.43-.853-.648-1.288-.211-.417-.379-.468-.809-.24-.34.193-.68.378-1.016.567-.304.172-.601.12-.781-.15-.308-.435-1.031-.632-.848-1.362.024-.095.079-.172.129-.25.164-.28.336-.554.496-.842.25-.44.2-.614-.238-.855-.312-.164-.621-.331-.945-.49-.742-.378-.82-.365-1.168.404-.637 1.354-.387 1.268-2.055.98-.363-.061-.531-.271-.562-.628l-.094-1.061c-.051-.494-.203-.61-.695-.558-.375.05-.739.115-1.102.167-.754.107-.824.21-.68.967.325 1.555.399 1.319-1.074 2.04-.308.156-.566.095-.789-.154-.265-.297-.527-.592-.801-.893-.246-.276-.492-.284-.757-.035-.282.275-.559.542-.832.816-.598.58-.598.649.011 1.208 1.137 1.062 1.086.82.332 2.256-.176.33-.429.455-.793.36a21.457 21.457 0 0 0-1.14-.25c-.332-.067-.563.066-.649.418-.113.498-.215.997-.242 1.504-.027.365.137.546.492.58.356.039.703.09 1.067.125.422.043.679.24.707.695.019.276.062.555.125.822.074.382-.078.632-.422.782-.336.142-.676.283-1.012.45-.43.186-.496.358-.289.79.156.332.328.672.492.998.356.718.438.743 1.121.362 1.418-.788 1.106-.81 2.285.373.25.25.274.533.09.838-.195.339-.41.687-.597 1.036-.184.296-.102.537.183.696.364.197.719.373 1.071.554.714.374.789.348 1.144-.4.637-1.323.324-1.306 2.055-1.001.359.074.527.28.562.627.039.387.086.765.114 1.156zm13.965-5.861c.047-.262-.14-.451-.547-.485-.449-.031-.894-.074-1.339-.108-.477-.038-.641.104-.657.593-.019.392-.027.778-.039 1.16-.023.349-.238.568-.551.589-.527.052-1.042.524-1.574.034-.074-.068-.117-.18-.172-.283-.156-.288-.328-.584-.484-.89-.187-.335-.437-.412-.766-.206-.406.24-.816.503-1.226.74-.367.214-.391.48-.164.81.219.34.457.663.679 1.003.18.27.153.55-.078.756-.402.352-.547 1.06-1.281.992-.101-.008-.191-.081-.293-.133a18.706 18.706 0 0 1-.918-.433c-.344-.168-.59-.095-.769.244a9.93 9.93 0 0 0-.571 1.367c-.133.399.012.618.391.743.363.129.726.267 1.082.39.324.12.488.362.422.693-.113.52.18 1.186-.465 1.542-.105.052-.242.056-.363.082-.317.065-.633.133-.957.18-.399.065-.504.306-.418.67.078.357.172.714.25 1.075.203.825.246.85 1.066.627 1.442-.4 1.211-.588 2.098.894.183.3.156.58-.094.834-.281.29-.562.584-.828.88-.234.249-.227.49.043.722.305.258.609.524.914.787.609.524.691.507 1.195-.142.953-1.211.672-1.152 2.223-.52.351.15.48.404.418.773-.055.387-.106.77-.152 1.148-.04.339.105.532.453.567.504.043 1.015.094 1.515.133.375.034.543-.163.559-.524.012-.4.043-.8.051-1.2.004-.412.25-.605.601-.64.528-.042 1.082-.562 1.574.06.067.087.11.195.164.28.153.275.297.546.442.817.187.352.449.395.773.2.41-.248.817-.497 1.227-.746.32-.202.398-.451.176-.773-.219-.31-.422-.614-.637-.92-.188-.262-.277-.575-.035-.8.41-.382.554-1.095 1.301-1.061.109.009.222.086.343.138.301.142.606.288.914.439.34.172.598.068.75-.267.172-.387.356-.757.493-1.151.23-.654.156-.774-.504-1.01-1.602-.576-1.344-.392-1.25-1.951.019-.365.187-.58.547-.641.406-.086.82-.163 1.226-.24.332-.065.449-.258.383-.571-.094-.413-.203-.813-.293-1.225-.18-.765-.238-.782-1.016-.585-1.441.404-1.222.623-2.109-.842-.199-.331-.18-.61.086-.877.285-.287.551-.575.836-.867.207-.245.207-.481-.027-.696-.399-.353-.786-.7-1.184-1.044-.277-.22-.539-.193-.766.086-.082.107-.168.222-.254.322-.855 1.06-.855 1.06-2.101.507a.406.406 0 0 0-.086-.043c-.317-.13-.434-.37-.391-.696zm-31.89-8.426h-.739c-.398-.004-.57.198-.531.584.035.365.047.739.082 1.11.035.317-.035.627-.363.716-.543.129-1.043.64-1.656.25-.121-.07-.176-.211-.258-.322-.188-.271-.375-.533-.555-.804-.211-.3-.457-.34-.75-.12-.39.296-.781.606-1.176.907-.32.236-.324.498-.066.786.25.297.488.597.746.88.242.27.258.568.047.808-.359.392-.406 1.117-1.149 1.135-.066 0-.14-.047-.21-.073-.348-.124-.7-.262-1.051-.374-.281-.081-.582-.081-.696.257-.171.53-.32 1.062-.476 1.595-.09.31.035.503.359.57.391.09.774.186 1.164.293.317.074.567.246.532.598-.059.55.351 1.186-.278 1.628-.101.073-.261.1-.386.138-.286.094-.559.18-.856.254-.418.102-.535.378-.414.768.109.353.227.7.355 1.049.293.739.411.782 1.133.485 1.453-.605 1.203-.67 2.227.663.203.274.195.537-.004.807-.231.3-.469.614-.707.924-.25.322-.203.584.141.816.304.198.613.412.914.627.668.456.761.439 1.187-.236.852-1.383.602-1.23 2.172-.77.332.1.488.315.473.659-.012.395-.012.795-.024 1.203-.008.374.192.54.551.537.5-.013 1.016-.034 1.523-.056.325-.005.473-.184.465-.503 0-.137-.015-.275-.027-.417-.09-1.512-.266-1.271 1.293-1.842.336-.122.601-.048.808.26.223.327.461.655.688.986.203.283.449.322.715.11.422-.291.816-.61 1.215-.92.297-.227.308-.484.074-.76l-.781-.915c-.2-.24-.27-.52-.047-.764.363-.404.437-1.143 1.179-1.161.09-.003.176.048.258.082.332.112.641.237.973.344.449.146.617.056.762-.395.109-.353.211-.7.312-1.062.231-.782.192-.85-.598-1.035-1.476-.365-1.363-.177-1.39-1.813-.012-.387.164-.598.535-.692.324-.091.648-.198.969-.301.508-.15.593-.3.461-.803-.102-.443-.266-.856-.442-1.273-.172-.39-.418-.502-.812-.326-.352.159-.719.292-1.071.434-.425.176-.691-.051-.878-.373-.254-.43-.903-.731-.516-1.393.043-.086.109-.154.164-.228.188-.236.367-.5.555-.73.258-.322.234-.593-.114-.821-.398-.271-.793-.537-1.187-.812-.32-.236-.57-.155-.774.172-.21.33-.398.69-.632 1.019-.477.657-1.008.107-1.512.046-.375-.055-.684-.245-.664-.696.004-.176.004-.331.004-.515zm3.445 24.26c.008.438.105.855.191 1.285.082.396.309.537.707.455.375-.086.766-.141 1.133-.231.336-.07.617.052.715.356.176.525.805.942.399 1.599-.063.099-.153.15-.239.224-.234.206-.468.408-.695.618-.352.322-.359.52-.043.855.332.344.68.67 1.008 1.019.262.279.512.253.754-.005.093-.086.179-.176.25-.28.961-1.047.961-1.04 2.187-.331.348.199.473.473.391.847-.071.36-.149.722-.231 1.087-.078.36.047.594.438.645.488.073.972.176 1.465.257.351.057.562-.111.601-.472.047-.408.106-.824.153-1.241.043-.353.269-.525.597-.534.524-.004 1.078-.442 1.563.104.074.077.101.197.148.296.141.314.274.649.418.97.153.289.363.414.688.25.461-.227.914-.451 1.367-.678.312-.16.414-.405.219-.727l-.586-1.048c-.239-.391-.071-.692.238-.924.418-.3.641-1.07 1.383-.674.367.18.699.399 1.035.605.332.194.562.104.738-.215.215-.43.449-.841.656-1.28.211-.408.137-.598-.281-.795-.34-.16-.676-.318-1.012-.46-.339-.154-.468-.421-.375-.756.141-.52-.082-1.19.61-1.487.066-.034.144-.017.219-.025.363-.035.714-.065 1.07-.104.359-.038.547-.227.527-.605a8.239 8.239 0 0 0-.219-1.474c-.078-.365-.281-.524-.667-.442-.375.089-.758.15-1.137.222-.321.07-.625-.004-.738-.326-.176-.512-.75-.92-.438-1.564.047-.09.145-.155.234-.228.243-.231.504-.455.758-.68.305-.26.34-.523.035-.815-.277-.275-.543-.56-.808-.834-.543-.554-.656-.55-1.176.02-1.09 1.197-.852 1.084-2.25.375-.352-.184-.449-.442-.379-.803.074-.378.164-.747.25-1.121.078-.348-.043-.576-.41-.636-.398-.065-.797-.138-1.191-.206-.754-.13-.872-.07-.946.704-.16 1.659-.121 1.358-1.601 1.633-.375.06-.621-.073-.774-.421-.125-.305-.262-.593-.383-.89-.273-.584-.402-.635-.992-.347-.285.137-.554.279-.836.412-.765.378-.781.438-.367 1.18.746 1.338.801 1.072-.387 2.248-.257.25-.535.285-.839.1-.332-.202-.668-.387-.997-.594-.316-.175-.57-.136-.742.19-.242.45-.476.902-.707 1.353-.156.323-.078.563.274.709.351.15.703.326 1.05.49.325.142.457.382.403.748-.274 1.68-.117 1.426-1.567 1.602-.066.009-.125.009-.179.018z"/></g><g><path fill="#2424b2" d="M31.399 90.77c-.003-1.233.215-2.457.332-3.691.219-2.302.5-4.614-.054-6.918-.504-2.084-1.125-4.137-1.949-6.123-1.379-3.265-3.875-5.005-7.356-5.452-1.766-.22-3.519-.184-5.281-.258-2.141-.094-4.246-.408-6.219-1.297a6.696 6.696 0 0 1-1.496-.928c-1.176-.988-1.555-2.231-1.125-3.704.172-.598.41-1.182.789-1.667.656-.843.731-1.776.527-2.764-.222-1.031-.476-2.058-1.191-2.883-.09-.103-.148-.24-.207-.365-.406-.881-.219-1.504.586-1.985-.055-.117-.184-.09-.285-.12-.778-.305-1.028-1.25-.434-1.857.387-.395.664-.85.836-1.362.266-.855.488-1.732.746-2.586.129-.417-.012-.727-.371-.945-.363-.233-.734-.435-1.121-.65-.469-.262-.961-.494-1.418-.795-1.078-.704-1.184-1.452-.355-2.462.281-.331.585-.632.91-.92 1.097-1.022 2.254-1.99 3.273-3.088 2.125-2.283 3.305-4.976 3.707-8.066.399-3.051 1.039-6.062 2.16-8.937 1.676-4.336 4.629-7.597 8.473-10.09 4.105-2.651 8.637-4.142 13.441-4.903 3.293-.52 6.614-.652 9.934-.265 5.523.63 10.777 2.122 15.605 4.945 4.418 2.578 7.411 6.372 9.27 11.086 1.512 3.85 2.113 7.842 1.785 11.958-.285 3.446-1.297 6.65-3.176 9.573-1.578 2.442-3.109 4.907-4.675 7.357-2.43 3.794-4.02 7.958-5.407 12.212-.933 2.853-1.715 5.74-1.992 8.744-.199 2.028-.055 4.039.172 6.05.363 3.167.707 6.337 1.078 9.496.141 1.224.305 2.449.555 3.66zm17.754-64.886c.371-.06.485-.293.418-.644-.074-.371-.148-.752-.234-1.131-.074-.361.051-.64.375-.752.523-.176.937-.817 1.601-.37.059.044.106.112.161.172.203.228.41.464.605.688.379.42.566.43.953.06.258-.241.508-.494.762-.744.566-.553.566-.64 0-1.172-1.18-1.083-1.109-.826-.356-2.291.172-.326.43-.433.774-.352.375.09.754.177 1.129.258.34.073.57-.034.656-.396a7.3 7.3 0 0 0 .266-1.504c.031-.381-.145-.575-.524-.61-.386-.034-.773-.09-1.144-.137-.332-.043-.582-.215-.586-.563 0-.537-.442-1.11.094-1.615.074-.07.187-.095.285-.138.328-.146.652-.288.976-.43.332-.141.426-.378.258-.71-.219-.424-.43-.853-.648-1.288-.211-.417-.379-.468-.809-.24-.34.193-.68.378-1.016.567-.304.172-.601.12-.781-.15-.308-.435-1.031-.632-.848-1.362.024-.095.079-.172.129-.25.164-.28.336-.554.496-.842.25-.44.2-.614-.238-.855-.312-.164-.621-.331-.945-.49-.742-.378-.82-.365-1.168.404-.637 1.354-.387 1.268-2.055.98-.363-.061-.531-.271-.562-.628l-.094-1.061c-.051-.494-.203-.61-.695-.558-.375.05-.739.115-1.102.167-.754.107-.824.21-.68.967.325 1.555.399 1.319-1.074 2.04-.308.156-.566.095-.789-.154-.265-.297-.527-.592-.801-.893-.246-.276-.492-.284-.757-.035-.282.275-.559.542-.832.816-.598.58-.598.649.011 1.208 1.137 1.062 1.086.82.332 2.256-.176.33-.429.455-.793.36a21.457 21.457 0 0 0-1.14-.25c-.332-.067-.563.066-.649.418-.113.498-.215.997-.242 1.504-.027.365.137.546.492.58.356.039.703.09 1.067.125.422.043.679.24.707.695.019.276.062.555.125.822.074.382-.078.632-.422.782-.336.142-.676.283-1.012.45-.43.186-.496.358-.289.79.156.332.328.672.492.998.356.718.438.743 1.121.362 1.418-.788 1.106-.81 2.285.373.25.25.274.533.09.838-.195.339-.41.687-.597 1.036-.184.296-.102.537.183.696.364.197.719.373 1.071.554.714.374.789.348 1.144-.4.637-1.323.324-1.306 2.055-1.001.359.074.527.28.562.627.039.387.086.765.114 1.156.027.37.222.525.753.464.336-.051.836-.12 1.34-.197zm12.078-6.15c-.449-.03-.894-.073-1.339-.107-.477-.038-.641.104-.657.593-.019.392-.027.778-.039 1.16-.023.349-.238.568-.551.589-.527.052-1.042.524-1.574.034-.074-.068-.117-.18-.172-.283-.156-.288-.328-.584-.484-.89-.187-.335-.437-.412-.766-.206-.406.24-.816.503-1.226.74-.367.214-.391.48-.164.81.219.34.457.663.679 1.003.18.27.153.55-.078.756-.402.352-.547 1.06-1.281.992-.101-.008-.191-.081-.293-.133a18.706 18.706 0 0 1-.918-.433c-.344-.168-.59-.095-.769.244a9.93 9.93 0 0 0-.571 1.367c-.133.399.012.618.391.743.363.129.726.267 1.082.39.324.12.488.362.422.693-.113.52.18 1.186-.465 1.542-.105.052-.242.056-.363.082-.317.065-.633.133-.957.18-.399.065-.504.306-.418.67.078.357.172.714.25 1.075.203.825.246.85 1.066.627 1.442-.4 1.211-.588 2.098.894.183.3.156.58-.094.834-.281.29-.562.584-.828.88-.234.249-.227.49.043.722.305.258.609.524.914.787.609.524.691.507 1.195-.142.953-1.211.672-1.152 2.223-.52.351.15.48.404.418.773-.055.387-.106.77-.152 1.148-.04.339.105.532.453.567.504.043 1.015.094 1.515.133.375.034.543-.163.559-.524.012-.4.043-.8.051-1.2.004-.412.25-.605.601-.64.528-.042 1.082-.562 1.574.06.067.087.11.195.164.28.153.275.297.546.442.817.187.352.449.395.773.2.41-.248.817-.497 1.227-.746.32-.202.398-.451.176-.773-.219-.31-.422-.614-.637-.92-.188-.262-.277-.575-.035-.8.41-.382.554-1.095 1.301-1.061.109.009.222.086.343.138.301.142.606.288.914.439.34.172.598.068.75-.267.172-.387.356-.757.493-1.151.23-.654.156-.774-.504-1.01-1.602-.576-1.344-.392-1.25-1.951.019-.365.187-.58.547-.641.406-.086.82-.163 1.226-.24.332-.065.449-.258.383-.571-.094-.413-.203-.813-.293-1.225-.18-.765-.238-.782-1.016-.585-1.441.404-1.222.623-2.109-.842-.199-.331-.18-.61.086-.877.285-.287.551-.575.836-.867.207-.245.207-.481-.027-.696-.399-.353-.786-.7-1.184-1.044-.277-.22-.539-.193-.766.086-.082.107-.168.222-.254.322-.855 1.06-.855 1.06-2.101.507a.406.406 0 0 0-.086-.043c-.317-.13-.434-.37-.391-.696.055-.387.098-.774.164-1.307.047-.262-.14-.451-.547-.485zm-32.082-7.94c-.398-.004-.57.198-.531.584.035.365.047.739.082 1.11.035.317-.035.627-.363.716-.543.129-1.043.64-1.656.25-.121-.07-.176-.211-.258-.322-.188-.271-.375-.533-.555-.804-.211-.3-.457-.34-.75-.12-.39.296-.781.606-1.176.907-.32.236-.324.498-.066.786.25.297.488.597.746.88.242.27.258.568.047.808-.359.392-.406 1.117-1.149 1.135-.066 0-.14-.047-.21-.073-.348-.124-.7-.262-1.051-.374-.281-.081-.582-.081-.696.257-.171.53-.32 1.062-.476 1.595-.09.31.035.503.359.57.391.09.774.186 1.164.293.317.074.567.246.532.598-.059.55.351 1.186-.278 1.628-.101.073-.261.1-.386.138-.286.094-.559.18-.856.254-.418.102-.535.378-.414.768.109.353.227.7.355 1.049.293.739.411.782 1.133.485 1.453-.605 1.203-.67 2.227.663.203.274.195.537-.004.807-.231.3-.469.614-.707.924-.25.322-.203.584.141.816.304.198.613.412.914.627.668.456.761.439 1.187-.236.852-1.383.602-1.23 2.172-.77.332.1.488.315.473.659-.012.395-.012.795-.024 1.203-.008.374.192.54.551.537.5-.013 1.016-.034 1.523-.056.325-.005.473-.184.465-.503 0-.137-.015-.275-.027-.417-.09-1.512-.266-1.271 1.293-1.842.336-.122.601-.048.808.26.223.327.461.655.688.986.203.283.449.322.715.11.422-.291.816-.61 1.215-.92.297-.227.308-.484.074-.76l-.781-.915c-.2-.24-.27-.52-.047-.764.363-.404.437-1.143 1.179-1.161.09-.003.176.048.258.082.332.112.641.237.973.344.449.146.617.056.762-.395.109-.353.211-.7.312-1.062.231-.782.192-.85-.598-1.035-1.476-.365-1.363-.177-1.39-1.813-.012-.387.164-.598.535-.692.324-.091.648-.198.969-.301.508-.15.593-.3.461-.803-.102-.443-.266-.856-.442-1.273-.172-.39-.418-.502-.812-.326-.352.159-.719.292-1.071.434-.425.176-.691-.051-.878-.373-.254-.43-.903-.731-.516-1.393.043-.086.109-.154.164-.228.188-.236.367-.5.555-.73.258-.322.234-.593-.114-.821-.398-.271-.793-.537-1.187-.812-.32-.236-.57-.155-.774.172-.21.33-.398.69-.632 1.019-.477.657-1.008.107-1.512.046-.375-.055-.684-.245-.664-.696.004-.176.004-.331.004-.515.015-1.173.199-1.32-1.246-1.195zm4.375 25.545c.082.396.309.537.707.455.375-.086.766-.141 1.133-.231.336-.07.617.052.715.356.176.525.805.942.399 1.599-.063.099-.153.15-.239.224-.234.206-.468.408-.695.618-.352.322-.359.52-.043.855.332.344.68.67 1.008 1.019.262.279.512.253.754-.005.093-.086.179-.176.25-.28.961-1.047.961-1.04 2.187-.331.348.199.473.473.391.847-.071.36-.149.722-.231 1.087-.078.36.047.594.438.645.488.073.972.176 1.465.257.351.057.562-.111.601-.472.047-.408.106-.824.153-1.241.043-.353.269-.525.597-.534.524-.004 1.078-.442 1.563.104.074.077.101.197.148.296.141.314.274.649.418.97.153.289.363.414.688.25.461-.227.914-.451 1.367-.678.312-.16.414-.405.219-.727l-.586-1.048c-.239-.391-.071-.692.238-.924.418-.3.641-1.07 1.383-.674.367.18.699.399 1.035.605.332.194.562.104.738-.215.215-.43.449-.841.656-1.28.211-.408.137-.598-.281-.795-.34-.16-.676-.318-1.012-.46-.339-.154-.468-.421-.375-.756.141-.52-.082-1.19.61-1.487.066-.034.144-.017.219-.025.363-.035.714-.065 1.07-.104.359-.038.547-.227.527-.605a8.239 8.239 0 0 0-.219-1.474c-.078-.365-.281-.524-.667-.442-.375.089-.758.15-1.137.222-.321.07-.625-.004-.738-.326-.176-.512-.75-.92-.438-1.564.047-.09.145-.155.234-.228.243-.231.504-.455.758-.68.305-.26.34-.523.035-.815-.277-.275-.543-.56-.808-.834-.543-.554-.656-.55-1.176.02-1.09 1.197-.852 1.084-2.25.375-.352-.184-.449-.442-.379-.803.074-.378.164-.747.25-1.121.078-.348-.043-.576-.41-.636-.398-.065-.797-.138-1.191-.206-.754-.13-.872-.07-.946.704-.16 1.659-.121 1.358-1.601 1.633-.375.06-.621-.073-.774-.421-.125-.305-.262-.593-.383-.89-.273-.584-.402-.635-.992-.347-.285.137-.554.279-.836.412-.765.378-.781.438-.367 1.18.746 1.338.801 1.072-.387 2.248-.257.25-.535.285-.839.1-.332-.202-.668-.387-.997-.594-.316-.175-.57-.136-.742.19-.242.45-.476.902-.707 1.353-.156.323-.078.563.274.709.351.15.703.326 1.05.49.325.142.457.382.403.748-.274 1.68-.117 1.426-1.567 1.602-.066.009-.125.009-.179.018-.633.05-.719.15-.68.777.008.438.105.855.191 1.285z"/></g></g></svg>