<svg xmlns="http://www.w3.org/2000/svg" width="91" height="98" viewBox="0 0 91 98"><g><g><path fill="#5fba46" d="M38.624 31.326s-.973-10.452-14.668-15.424c0 0-2.488-3.233 3.73-8.707 0 0 11.45 6.963 12.692 24.13z"/></g><g><path fill="none" stroke="#fff" stroke-miterlimit="20" stroke-width="9.58" d="M38.624 31.326v0s-.973-10.452-14.668-15.424c0 0-2.488-3.233 3.73-8.707 0 0 11.45 6.963 12.692 24.13h-1.754v0z"/></g><g><path fill="#5fba46" d="M38.288 21.373S37.022.73 61.784 2.823c0 0-2.73 24.507-23.496 18.55"/><path fill="none" stroke="#fff" stroke-miterlimit="20" stroke-width="3.66" d="M38.288 21.373v0S37.022.73 61.784 2.823c0 0-2.73 24.507-23.496 18.55"/></g><g><path fill="#5fba46" d="M66.186 31.573c-11.957-8.6-25.809-1.68-25.809-1.68s-13.847-6.92-25.804 1.68C2.596 40.173 4.276 56.546 9.53 68.3c5.239 11.748 15.282 19.89 19.973 19.89 5.125 0 6.05-3.514 10.875-3.514 4.831 0 5.742 3.515 10.874 3.515 4.704 0 14.723-8.143 19.977-19.891 5.247-11.754 6.923-28.127-5.042-36.727"/><path fill="none" stroke="#fff" stroke-miterlimit="20" stroke-width="9.58" d="M66.186 31.573c-11.957-8.6-25.809-1.68-25.809-1.68v0s-13.847-6.92-25.804 1.68C2.596 40.173 4.276 56.546 9.53 68.3c5.239 11.748 15.282 19.89 19.973 19.89 5.125 0 6.05-3.514 10.875-3.514 4.831 0 5.742 3.515 10.874 3.515 4.704 0 14.723-8.143 19.977-19.891 5.247-11.754 6.923-28.127-5.042-36.727"/></g><g><path fill="#fff" d="M24.581 32.112s-25.77 9.243 0 41.568c0 0-14.918-23.364 0-41.568"/><path fill="none" stroke="#fff" stroke-miterlimit="20" stroke-width="3.66" d="M24.581 32.112v0s-25.77 9.243 0 41.568c0 0-14.918-23.364 0-41.568"/></g><g><path fill="#74d81d" d="M38.624 31.326s-.973-10.452-14.668-15.424c0 0-2.488-3.233 3.73-8.707 0 0 11.45 6.963 12.692 24.13z"/></g><g><path fill="#74d81d" d="M38.288 21.373S37.022.73 61.784 2.823c0 0-2.73 24.507-23.496 18.55z"/></g><g><path fill="#74d81d" d="M66.186 31.573c-11.957-8.6-25.809-1.68-25.809-1.68s-13.847-6.92-25.804 1.68C2.596 40.173 4.276 56.546 9.53 68.3c5.239 11.748 15.282 19.89 19.973 19.89 5.125 0 6.05-3.514 10.875-3.514 4.831 0 5.742 3.515 10.874 3.515 4.704 0 14.723-8.143 19.977-19.891 5.247-11.754 6.923-28.127-5.042-36.727z"/></g><g><path fill="#fff" d="M24.581 32.112s-25.77 9.243 0 41.568c0 0-14.918-23.364 0-41.568z"/></g><g><path fill="#d7cb25" d="M63.422 89.931h24.064V69.475H63.422z"/><path fill="none" stroke="#fff" stroke-miterlimit="20" stroke-width="2.9" d="M63.422 89.931v0h24.064v0-20.456 0H63.422v0z"/></g><g><path fill="#5fba46" d="M63.422 69.476c0 1.24 5.388 2.25 12.034 2.25 6.646 0 12.03-1.01 12.03-2.25 0-1.248-5.384-2.26-12.03-2.26-6.646 0-12.034 1.012-12.034 2.26"/><path fill="none" stroke="#fff" stroke-miterlimit="20" stroke-width="2.9" d="M63.422 69.476c0 1.24 5.388 2.25 12.034 2.25 6.646 0 12.03-1.01 12.03-2.25 0-1.248-5.384-2.26-12.03-2.26-6.646 0-12.034 1.012-12.034 2.26"/></g><g><path fill="#5fba46" d="M74.974 95.001c9.14 0 12.948-2.44 13.104-2.536l.485-.318V67.742l-1.626.971c-2.096 1.245-5.706 1.851-11.078 1.851-4.891 0-10.71-.504-16.331-.993-5.614-.488-11.422-.993-16.333-.993-6.077 0-9.99.777-12.3 2.44l-.455.317v21.75l1.438-.508c.033-.016 3.538-1.212 10.683-1.212 5.434 0 11.498.678 18.036 2.02 5.222 1.072 10.06 1.616 14.377 1.616"/><path fill="none" stroke="#fff" stroke-miterlimit="20" stroke-width="2.9" d="M74.974 95.001c9.14 0 12.948-2.44 13.104-2.536l.485-.318v0-24.405 0l-1.626.971c-2.096 1.245-5.706 1.851-11.078 1.851-4.891 0-10.71-.504-16.331-.993-5.614-.488-11.422-.993-16.333-.993-6.077 0-9.99.777-12.3 2.44l-.455.317v21.75l1.438-.508c.033-.016 3.538-1.212 10.683-1.212 5.434 0 11.498.678 18.036 2.02 5.222 1.072 10.06 1.616 14.377 1.616"/></g><g><path fill="#fff" d="M87.487 91.566s-3.585 2.363-12.516 2.363c-3.743 0-8.417-.411-14.167-1.597-7.595-1.557-13.65-2.04-18.243-2.04-7.465 0-11.045 1.273-11.045 1.273v-19.68c2.347-1.677 6.556-2.232 11.679-2.232 9.752 0 22.796 1.988 32.664 1.988 4.964 0 9.105-.502 11.628-2.007zm-1.1-23.776c-1.898 1.13-5.435 1.7-10.528 1.7-4.857 0-10.647-.502-16.245-.988-5.632-.49-11.467-.997-16.42-.997-6.316 0-10.426.839-12.93 2.64l-.897.64v20.78l.02 3.007 2.844-.98c.037-.013 3.43-1.153 10.33-1.153 5.359 0 11.356.671 17.814 2 5.295 1.084 10.212 1.638 14.596 1.638 9.295 0 13.273-2.438 13.69-2.715l.97-.635V65.854z"/></g><g><path fill="none" stroke="#fff" stroke-miterlimit="20" stroke-width="2.9" d="M87.487 69.633v21.933s-3.585 2.363-12.516 2.363c-3.743 0-8.417-.411-14.167-1.597-7.595-1.557-13.65-2.04-18.243-2.04-7.465 0-11.045 1.273-11.045 1.273v-19.68c2.347-1.677 6.556-2.232 11.679-2.232 9.752 0 22.796 1.988 32.664 1.988zm-11.628-.142c-4.857 0-10.647-.504-16.245-.99-5.632-.49-11.467-.996-16.42-.996-6.316 0-10.426.839-12.93 2.64l-.897.64v20.78l.02 3.007 2.844-.98c.037-.013 3.43-1.153 10.33-1.153 5.359 0 11.356.671 17.814 2 5.295 1.084 10.212 1.638 14.596 1.638 9.295 0 13.273-2.438 13.69-2.715l.97-.635V65.854l-3.244 1.936c-1.898 1.13-5.435 1.7-10.528 1.7z"/></g><g><path fill="#fff" d="M67.546 78.32a.431.431 0 0 1-.421-.428v-3.99c.278.015.564.037.848.057v3.933a.426.426 0 0 1-.427.428"/><path fill="none" stroke="#fff" stroke-miterlimit="20" stroke-width="2.9" d="M67.546 78.32a.431.431 0 0 1-.421-.428v-3.99c.278.015.564.037.848.057v3.933a.426.426 0 0 1-.427.428"/></g><g><path fill="#fff" d="M64.281 73.681v6.646c0 .35-.293.638-.65.638a.637.637 0 0 1-.632-.638v-6.75c.423.034.846.067 1.282.104"/><path fill="none" stroke="#fff" stroke-miterlimit="20" stroke-width="2.9" d="M64.281 73.681v6.646c0 .35-.293.638-.65.638a.637.637 0 0 1-.632-.638v-6.75c.423.034.846.067 1.282.104"/></g><g><path fill="#fff" d="M74.76 75.69a.428.428 0 0 1-.436-.43v-3.642c.297.005.569.015.854.015v3.627c0 .238-.191.43-.418.43"/><path fill="none" stroke="#fff" stroke-miterlimit="20" stroke-width="2.9" d="M74.76 75.69a.428.428 0 0 1-.436-.43v-3.642c.297.005.569.015.854.015v3.627c0 .238-.191.43-.418.43"/></g><g><path fill="#fff" d="M71.255 78.32a.428.428 0 0 1-.427-.428v-3.77c.287.016.582.03.854.048v3.722a.426.426 0 0 1-.427.428"/><path fill="none" stroke="#fff" stroke-miterlimit="20" stroke-width="2.9" d="M71.255 78.32a.428.428 0 0 1-.427-.428v-3.77c.287.016.582.03.854.048v3.722a.426.426 0 0 1-.427.428"/></g><g><path fill="#fff" d="M41.484 77.463a.432.432 0 0 1-.433-.428V72.32c.294-.008.576-.015.87-.02v4.735a.43.43 0 0 1-.437.428"/><path fill="none" stroke="#fff" stroke-miterlimit="20" stroke-width="2.9" d="M41.484 77.463a.432.432 0 0 1-.433-.428V72.32c.294-.008.576-.015.87-.02v4.735a.43.43 0 0 1-.437.428"/></g><g><path fill="#fff" d="M35.142 73.019v6.143a.647.647 0 0 1-.646.637.638.638 0 0 1-.633-.637V73.38c.388-.13.825-.252 1.279-.362"/><path fill="none" stroke="#fff" stroke-miterlimit="20" stroke-width="2.9" d="M35.142 73.019v6.143a.647.647 0 0 1-.646.637.638.638 0 0 1-.633-.637V73.38c.388-.13.825-.252 1.279-.362"/></g><g><path fill="#fff" d="M37.769 77.463a.422.422 0 0 1-.411-.428v-4.422c.282-.034.559-.066.848-.096v4.518c0 .238-.19.428-.437.428"/><path fill="none" stroke="#fff" stroke-miterlimit="20" stroke-width="2.9" d="M37.769 77.463a.422.422 0 0 1-.411-.428v-4.422c.282-.034.559-.066.848-.096v4.518c0 .238-.19.428-.437.428"/></g><g><path fill="#fff" d="M81.53 75.69a.43.43 0 0 1-.427-.43v-3.866c.297-.029.57-.073.863-.112v3.978a.43.43 0 0 1-.437.43"/><path fill="none" stroke="#fff" stroke-miterlimit="20" stroke-width="2.9" d="M81.53 75.69a.43.43 0 0 1-.427-.43v-3.866c.297-.029.57-.073.863-.112v3.978a.43.43 0 0 1-.437.43"/></g><g><path fill="#fff" d="M45.414 72.32v4.715a.431.431 0 0 1-.428.428.425.425 0 0 1-.426-.428v-4.74c.276.005.566.014.854.025"/><path fill="none" stroke="#fff" stroke-miterlimit="20" stroke-width="2.9" d="M45.414 72.32v4.715a.431.431 0 0 1-.428.428.425.425 0 0 1-.426-.428v-4.74c.276.005.566.014.854.025"/></g><g><path fill="#fff" d="M85.03 75.69a.427.427 0 0 1-.428-.43v-4.497c.297-.07.577-.148.853-.244v4.741c0 .238-.19.43-.426.43"/><path fill="none" stroke="#fff" stroke-miterlimit="20" stroke-width="2.9" d="M85.03 75.69a.427.427 0 0 1-.428-.43v-4.497c.297-.07.577-.148.853-.244v4.741c0 .238-.19.43-.426.43"/></g><g><path fill="#fff" d="M59.713 78.32a.423.423 0 0 1-.421-.428v-4.635c.278.029.563.05.848.079v4.556a.426.426 0 0 1-.427.428"/><path fill="none" stroke="#fff" stroke-miterlimit="20" stroke-width="2.9" d="M59.713 78.32a.423.423 0 0 1-.421-.428v-4.635c.278.029.563.05.848.079v4.556a.426.426 0 0 1-.427.428"/></g><g><path fill="#fff" d="M79.31 71.545V77.7a.64.64 0 1 1-1.28 0v-6.103c.434-.013.873-.03 1.28-.053"/><path fill="none" stroke="#fff" stroke-miterlimit="20" stroke-width="2.9" d="M79.31 71.545V77.7a.64.64 0 1 1-1.28 0v-6.103c.434-.013.873-.03 1.28-.053"/></g><g><path fill="#fff" d="M48.897 80.112a.635.635 0 0 1-.631-.64v-7.045c.418.02.857.045 1.277.075v6.97a.64.64 0 0 1-.646.64"/><path fill="none" stroke="#fff" stroke-miterlimit="20" stroke-width="2.9" d="M48.897 80.112a.635.635 0 0 1-.631-.64v-7.045c.418.02.857.045 1.277.075v6.97a.64.64 0 0 1-.646.64"/></g><g><path fill="#fff" d="M56.214 78.32a.428.428 0 0 1-.417-.428v-4.933c.278.025.556.047.844.073v4.86c0 .233-.18.428-.427.428"/><path fill="none" stroke="#fff" stroke-miterlimit="20" stroke-width="2.9" d="M56.214 78.32a.428.428 0 0 1-.417-.428v-4.933c.278.025.556.047.844.073v4.86c0 .233-.18.428-.427.428"/></g><g><path fill="#fff" d="M52.52 78.32a.437.437 0 0 1-.437-.428V72.67c.283.02.574.04.864.064v5.158a.436.436 0 0 1-.428.428"/><path fill="none" stroke="#fff" stroke-miterlimit="20" stroke-width="2.9" d="M52.52 78.32a.437.437 0 0 1-.437-.428V72.67c.283.02.574.04.864.064v5.158a.436.436 0 0 1-.428.428"/></g><g><path fill="#d7cb25" d="M63.422 89.931h24.064V69.475H63.422z"/></g><g><path fill="#74d81d" d="M63.422 69.476c0 1.24 5.388 2.25 12.034 2.25 6.646 0 12.03-1.01 12.03-2.25 0-1.248-5.384-2.26-12.03-2.26-6.646 0-12.034 1.012-12.034 2.26z"/></g><g><path fill="#74d81d" d="M74.974 95.001c9.14 0 12.948-2.44 13.104-2.536l.485-.318V67.742l-1.626.971c-2.096 1.245-5.706 1.851-11.078 1.851-4.891 0-10.71-.504-16.331-.993-5.614-.488-11.422-.993-16.333-.993-6.077 0-9.99.777-12.3 2.44l-.455.317v21.75l1.438-.508c.033-.016 3.538-1.212 10.683-1.212 5.434 0 11.498.678 18.036 2.02 5.222 1.072 10.06 1.616 14.377 1.616z"/></g><g><path fill="#fff" d="M87.487 91.566s-3.585 2.363-12.516 2.363c-3.743 0-8.417-.411-14.167-1.597-7.595-1.557-13.65-2.04-18.243-2.04-7.465 0-11.045 1.273-11.045 1.273v-19.68c2.347-1.677 6.556-2.232 11.679-2.232 9.752 0 22.796 1.988 32.664 1.988 4.964 0 9.105-.502 11.628-2.007zm-1.1-23.776c-1.898 1.13-5.435 1.7-10.528 1.7-4.857 0-10.647-.502-16.245-.988-5.632-.49-11.467-.997-16.42-.997-6.316 0-10.426.839-12.93 2.64l-.897.64v20.78l.02 3.007 2.844-.98c.037-.013 3.43-1.153 10.33-1.153 5.359 0 11.356.671 17.814 2 5.295 1.084 10.212 1.638 14.596 1.638 9.295 0 13.273-2.438 13.69-2.715l.97-.635V65.854z"/></g><g><path fill="#fff" d="M67.546 78.32a.431.431 0 0 1-.421-.428v-3.99c.278.015.564.037.848.057v3.933a.426.426 0 0 1-.427.428z"/></g><g><path fill="#fff" d="M64.281 73.681v6.646c0 .35-.293.638-.65.638a.637.637 0 0 1-.632-.638v-6.75c.423.034.846.067 1.282.104z"/></g><g><path fill="#fff" d="M74.76 75.69a.428.428 0 0 1-.436-.43v-3.642c.297.005.569.015.854.015v3.627c0 .238-.191.43-.418.43z"/></g><g><path fill="#fff" d="M71.255 78.32a.428.428 0 0 1-.427-.428v-3.77c.287.016.582.03.854.048v3.722a.426.426 0 0 1-.427.428z"/></g><g><path fill="#fff" d="M41.484 77.463a.432.432 0 0 1-.433-.428V72.32c.294-.008.576-.015.87-.02v4.735a.43.43 0 0 1-.437.428z"/></g><g><path fill="#fff" d="M35.142 73.019v6.143a.647.647 0 0 1-.646.637.638.638 0 0 1-.633-.637V73.38c.388-.13.825-.252 1.279-.362z"/></g><g><path fill="#fff" d="M37.769 77.463a.422.422 0 0 1-.411-.428v-4.422c.282-.034.559-.066.848-.096v4.518c0 .238-.19.428-.437.428z"/></g><g><path fill="#fff" d="M81.53 75.69a.43.43 0 0 1-.427-.43v-3.866c.297-.029.57-.073.863-.112v3.978a.43.43 0 0 1-.437.43z"/></g><g><path fill="#fff" d="M45.414 72.32v4.715a.431.431 0 0 1-.428.428.425.425 0 0 1-.426-.428v-4.74c.276.005.566.014.854.025z"/></g><g><path fill="#fff" d="M85.03 75.69a.427.427 0 0 1-.428-.43v-4.497c.297-.07.577-.148.853-.244v4.741c0 .238-.19.43-.426.43z"/></g><g><path fill="#fff" d="M59.713 78.32a.423.423 0 0 1-.421-.428v-4.635c.278.029.563.05.848.079v4.556a.426.426 0 0 1-.427.428z"/></g><g><path fill="#fff" d="M79.31 71.545V77.7a.64.64 0 1 1-1.28 0v-6.103c.434-.013.873-.03 1.28-.053z"/></g><g><path fill="#fff" d="M48.897 80.112a.635.635 0 0 1-.631-.64v-7.045c.418.02.857.045 1.277.075v6.97a.64.64 0 0 1-.646.64z"/></g><g><path fill="#fff" d="M56.214 78.32a.428.428 0 0 1-.417-.428v-4.933c.278.025.556.047.844.073v4.86c0 .233-.18.428-.427.428z"/></g><g><path fill="#fff" d="M52.52 78.32a.437.437 0 0 1-.437-.428V72.67c.283.02.574.04.864.064v5.158a.436.436 0 0 1-.428.428z"/></g></g></svg>