<svg xmlns="http://www.w3.org/2000/svg" width="69" height="81" viewBox="0 0 69 81"><g><g><path fill="none" stroke="#fff" stroke-miterlimit="20" stroke-width="8.8" d="M63.843 40.594c0-19.858-16.102-35.953-35.957-35.953-1.566 0-3.11.11-4.625.303l-1.508 3.918v0S15.113 26.047 7.12 39.775C-.868 53.499 12.445 58.58 18.804 59.42c5.918.789 11.586 1.364 10.523 9.105-.203 1.46-.343 2.93-.308 4.408l.086 3.582c19.289-.633 34.738-16.474 34.738-35.921z"/></g><g><path fill="#fddc0d" d="M19.608 56.243c-1.89 0-3.855-.744-4.793-1.751-.644-.696-.793-1.544-.39-2.271.453-.827 1.66-3.031 18.578.08 7.09 1.305 11.79.647 13.562-1.902 2.398-3.413-.527-10.018-1.855-12.272a1.242 1.242 0 0 1 2.14-1.257c.223.387 5.543 9.527 1.758 14.947-2.422 3.456-7.816 4.443-16.05 2.919-9.665-1.767-13.61-1.688-15.157-1.441.95.395 2.484.69 3.484.233a1.241 1.241 0 0 1 1.645.612 1.233 1.233 0 0 1-.613 1.642c-.696.318-1.493.46-2.309.46"/><path fill="none" stroke="#fff" stroke-miterlimit="20" stroke-width="4.4" d="M19.608 56.243c-1.89 0-3.855-.744-4.793-1.751-.644-.696-.793-1.544-.39-2.271.453-.827 1.66-3.031 18.578.08 7.09 1.305 11.79.647 13.562-1.902 2.398-3.413-.527-10.018-1.855-12.272a1.242 1.242 0 0 1 2.14-1.257c.223.387 5.543 9.527 1.758 14.947-2.422 3.456-7.816 4.443-16.05 2.919-9.665-1.767-13.61-1.688-15.157-1.441.95.395 2.484.69 3.484.233a1.241 1.241 0 0 1 1.645.612 1.233 1.233 0 0 1-.613 1.642c-.696.318-1.493.46-2.309.46"/></g><g><path fill="#fff" d="M23.733 5.93l-1.285 3.33c-.067.172-6.762 17.426-14.699 31.065-2.48 4.256-2.989 7.93-1.524 10.916 2.293 4.673 8.9 6.711 12.446 7.182l.367.047c3.992.528 7.761 1.024 9.808 3.707 1.215 1.591 1.617 3.725 1.235 6.52-.235 1.706-.325 3.014-.3 4.241l.061 2.523c18.414-1.146 32.696-16.25 32.696-34.835 0-19.256-15.668-34.92-34.922-34.92-1.266 0-2.57.074-3.883.224z"/></g><g><path fill="#0987a5" d="M27.818 77.592l-.11-4.628c-.03-1.341.073-2.794.321-4.578.303-2.215.03-3.845-.833-4.977-1.517-1.99-4.866-2.433-8.412-2.903l-.387-.052c-4.908-.648-11.529-3.216-14.035-8.322-1.792-3.651-1.257-7.983 1.591-12.875C13.81 25.76 20.444 8.662 20.51 8.49l1.731-4.494.615-.078a37.935 37.935 0 0 1 4.76-.312c20.4 0 36.995 16.594 36.995 36.99 0 20.068-15.7 36.302-35.746 36.96zm-5.37-68.354c-.067.174-6.759 17.422-14.7 31.064-2.476 4.254-2.989 7.926-1.522 10.916 2.293 4.67 8.901 6.709 12.443 7.177l.388.052c3.986.528 7.75 1.028 9.79 3.703 1.216 1.594 1.621 3.727 1.24 6.52-.234 1.674-.33 3.023-.304 4.247l.06 2.515c18.416-1.14 32.692-16.245 32.692-34.834 0-19.252-15.665-34.915-34.919-34.915-1.25 0-2.555.076-3.885.223z"/></g><g><path fill="#0987a5" d="M19.335 56.247c-1.891 0-3.852-.743-4.789-1.75-.645-.697-.797-1.546-.391-2.271.45-.828 1.657-3.032 18.578.079 7.09 1.307 11.786.646 13.563-1.901 2.398-3.414-.531-10.02-1.856-12.272a1.24 1.24 0 0 1 .442-1.697 1.234 1.234 0 0 1 1.695.44c.227.387 5.543 9.525 1.758 14.947-2.418 3.456-7.816 4.443-16.047 2.919-9.664-1.768-13.609-1.688-15.156-1.441.949.394 2.484.69 3.484.232a1.236 1.236 0 0 1 1.641.612 1.227 1.227 0 0 1-.609 1.64c-.696.32-1.497.463-2.313.463z"/></g></g></svg>