<svg xmlns="http://www.w3.org/2000/svg" width="72" height="100" viewBox="0 0 72 100"><g><g><path fill="#721324" d="M67.823 63.89c0 17.6-14.266 31.866-31.863 31.866-17.598 0-31.867-14.265-31.867-31.865 0-17.596 31.867-56.865 31.867-56.865S67.823 46.295 67.823 63.89"/><path fill="none" stroke="#fff" stroke-miterlimit="20" stroke-width="8.2" d="M67.823 63.89c0 17.6-14.266 31.866-31.863 31.866-17.598 0-31.867-14.265-31.867-31.865 0-17.596 31.867-56.865 31.867-56.865v0S67.823 46.295 67.823 63.89"/></g><g><path fill="#fff" d="M49.687 59.902H39.678V49.89H32.24v10.012H22.23v7.437h10.012v10.012h7.437V67.34h10.007z"/></g><g><path fill="none" stroke="#fff" stroke-miterlimit="20" stroke-width="8.2" d="M49.687 59.902v0H39.678v0V49.89v0H32.24v10.012H22.23v7.437h10.012v10.012h7.437v0V67.34v0h10.007v0-7.437 0z"/></g><g><path fill="#991422" d="M67.823 63.89c0 17.6-14.266 31.866-31.863 31.866-17.598 0-31.867-14.265-31.867-31.865 0-17.596 31.867-56.865 31.867-56.865S67.823 46.295 67.823 63.89z"/></g><g><path fill="#fff" d="M49.687 59.902H39.678V49.89H32.24v10.012H22.23v7.437h10.012v10.012h7.437V67.34h10.007z"/></g></g></svg>