<svg xmlns="http://www.w3.org/2000/svg" width="121" height="106" viewBox="0 0 121 106"><g><g><path fill="#fff" d="M25.242 41.649l2.105 54.506h93.004V52.727L68.911 16.82z"/></g><g><path fill="#72cbd2" d="M41.105 48.803h40.594v40.592H41.105zm4.309 36.296h13.848V71.251H45.414zm18.145 0h13.844V71.251H63.559zm13.843-31.995H63.558v13.85h13.844zm-18.144 0H45.406v13.85h13.852z"/><path fill="none" stroke="#fff" stroke-miterlimit="20" stroke-width="8.95" d="M41.105 48.803h40.594v40.592H41.105zm4.309 36.296h13.848V71.251H45.414zm18.145 0h13.844V71.251H63.559zm13.843-31.995H63.558v13.85h13.844zm-18.144 0H45.406v13.85h13.852z"/></g><g><path fill="#72cbd2" d="M68.945 7.7l-.023-.035-.016.01-.008-.01-.023.035-61.57 41.723 7.761 8.94 9.883-6.688v42.834a67.726 67.726 0 0 0 5.02 3.283v-49.53L68.905 21.88l26.056 18.009 7.773-8.941z"/></g><g><path fill="none" stroke="#fff" stroke-miterlimit="20" stroke-width="8.95" d="M68.945 7.7v0l-.023-.035v0l-.016.01v0l-.008-.01v0l-.023.035v0L7.305 49.423v0l7.761 8.94v0l9.883-6.688v42.834a67.726 67.726 0 0 0 5.02 3.283v-49.53 0L68.905 21.88v0l26.056 18.009v0l7.773-8.941v0L68.945 7.7v0z"/></g><g><path fill="#72cbd2" d="M41.105 48.803h40.594v40.592H41.105zm4.309 36.296h13.848V71.251H45.414zm18.145 0h13.844V71.251H63.559zm13.843-31.995H63.558v13.85h13.844zm-18.144 0H45.406v13.85h13.852z"/></g><g><path fill="#72cbd2" d="M68.945 7.7l-.023-.035-.016.01-.008-.01-.023.035-61.57 41.723 7.761 8.94 9.883-6.688v42.834a67.726 67.726 0 0 0 5.02 3.283v-49.53L68.905 21.88l24.006 16.432 7.773-8.942z"/></g></g></svg>