<svg xmlns="http://www.w3.org/2000/svg" width="85" height="100" viewBox="0 0 85 100"><g><g><path fill="#fff" d="M41.451 87.094a11.164 11.164 0 0 0-1.73-14.203l22.444-34.874c5.731 2.319 12.26-.444 14.577-6.173 2.321-5.732-.445-12.258-6.177-14.578a11.175 11.175 0 0 0-6.78-.515 11.066 11.066 0 0 0-4.898-7.281c-5.118-3.464-12.077-2.122-15.54 2.999a11.193 11.193 0 0 0 1.762 14.574L22.661 61.91c-5.73-2.32-12.256.444-14.575 6.174-2.323 5.73.443 12.255 6.174 14.576a11.207 11.207 0 0 0 6.784.516c1.17 6.07 7.042 10.04 13.111 8.87a11.188 11.188 0 0 0 7.298-4.943z"/></g><g><path fill="none" stroke="#fff" stroke-miterlimit="20" stroke-width="14" d="M41.451 87.094a11.164 11.164 0 0 0-1.73-14.203l22.444-34.874c5.731 2.319 12.26-.444 14.577-6.173 2.321-5.732-.445-12.258-6.177-14.578a11.175 11.175 0 0 0-6.78-.515 11.066 11.066 0 0 0-4.898-7.281c-5.118-3.464-12.077-2.122-15.54 2.999a11.193 11.193 0 0 0 1.762 14.574L22.661 61.91c-5.73-2.32-12.256.444-14.575 6.174-2.323 5.73.443 12.255 6.174 14.576a11.207 11.207 0 0 0 6.784.516c1.17 6.07 7.042 10.04 13.111 8.87a11.188 11.188 0 0 0 7.298-4.943l-.002-.01v0z"/></g><g><path fill="#fff" d="M41.451 87.094a11.164 11.164 0 0 0-1.73-14.203l22.444-34.874c5.731 2.319 12.26-.444 14.577-6.173 2.321-5.732-.445-12.258-6.177-14.578a11.175 11.175 0 0 0-6.78-.515 11.066 11.066 0 0 0-4.898-7.281c-5.118-3.464-12.077-2.122-15.54 2.999a11.193 11.193 0 0 0 1.762 14.574L22.661 61.91c-5.73-2.32-12.256.444-14.575 6.174-2.323 5.73.443 12.255 6.174 14.576a11.207 11.207 0 0 0 6.784.516c1.17 6.07 7.042 10.04 13.111 8.87a11.188 11.188 0 0 0 7.298-4.943z"/></g><g><path fill="none" stroke="#bf7a1f" stroke-miterlimit="20" stroke-width="5.57" d="M41.451 87.094a11.164 11.164 0 0 0-1.73-14.203l22.444-34.874c5.731 2.319 12.26-.444 14.577-6.173 2.321-5.732-.445-12.258-6.177-14.578a11.175 11.175 0 0 0-6.78-.515 11.066 11.066 0 0 0-4.898-7.281c-5.118-3.464-12.077-2.122-15.54 2.999a11.193 11.193 0 0 0 1.762 14.574L22.661 61.91c-5.73-2.32-12.256.444-14.575 6.174-2.323 5.73.443 12.255 6.174 14.576a11.207 11.207 0 0 0 6.784.516c1.17 6.07 7.042 10.04 13.111 8.87a11.188 11.188 0 0 0 7.298-4.943l-.002-.01v0z"/></g></g></svg>