<svg xmlns="http://www.w3.org/2000/svg" width="95" height="94" viewBox="0 0 95 94"><g><g><path fill="#e85025" d="M45.477 20.008c.321-1.003.441-2.051.547-3.097.409-4.062.159-8.134.196-12.202.007-.81.151-1.153 1.065-1.14 3.452.054 6.906.043 10.359.005.75-.007 1.006.197.985.968-.05 1.806-.09 3.62-.003 5.424.422 8.707-1.439 16.876-5.499 24.594-3.456 6.567-2.899 13.289-.146 19.89 2.12 5.083 6.06 8.033 11.549 8.903 3.291.525 6.461-.12 9.654-.725 9.777-1.847 16.481 2.964 17.616 12.756.568 4.909.205 9.857.288 14.788.016.86-.525.762-1.06.762-3.412 0-6.823-.04-10.234.024-.988.02-1.15-.352-1.137-1.213.044-2.754.01-5.506.017-8.262a9.413 9.413 0 0 0-.428-2.915c-.827-2.586-3.698-4.012-6.175-1.986-1.494 1.222-2.97 2.468-4.457 3.7-11.176 9.275-23.621 10.867-36.83 5.434C18.412 80.219 10.028 69.944 5.56 56.359c-2.637-8.015-3.398-16.138-.973-24.37C7.742 21.277 17.394 12.448 28.383 12.1c6.665-.21 12.542 1.52 16.512 7.412zM11.415 41.927c.085 19.234 12.622 32.939 26.811 37.45 6.38 2.028 12.734 1.576 18.903-1.053a11.619 11.619 0 0 0 4.173-2.997c.716-.808 1.314-1.691 1.527-2.774.259-1.293-.02-1.75-1.314-1.963-11.895-1.966-17.53-10.476-18.895-20.568-.567-4.196-.183-8.357.066-12.532.135-2.263.203-4.523-.223-6.76-1.61-8.49-10.412-13.254-18.556-10.001-6.945 2.774-10.475 8.268-11.928 15.34z"/><path fill="none" stroke="#fff" stroke-miterlimit="20" stroke-width="6" d="M45.477 20.008c.321-1.003.441-2.051.547-3.097.409-4.062.159-8.134.196-12.202.007-.81.151-1.153 1.065-1.14 3.452.054 6.906.043 10.359.005.75-.007 1.006.197.985.968-.05 1.806-.09 3.62-.003 5.424.422 8.707-1.439 16.876-5.499 24.594-3.456 6.567-2.899 13.289-.146 19.89 2.12 5.083 6.06 8.033 11.549 8.903 3.291.525 6.461-.12 9.654-.725 9.777-1.847 16.481 2.964 17.616 12.756.568 4.909.205 9.857.288 14.788.016.86-.525.762-1.06.762-3.412 0-6.823-.04-10.234.024-.988.02-1.15-.352-1.137-1.213.044-2.754.01-5.506.017-8.262a9.413 9.413 0 0 0-.428-2.915c-.827-2.586-3.698-4.012-6.175-1.986-1.494 1.222-2.97 2.468-4.457 3.7-11.176 9.275-23.621 10.867-36.83 5.434C18.412 80.219 10.028 69.944 5.56 56.359c-2.637-8.015-3.398-16.138-.973-24.37C7.742 21.277 17.394 12.448 28.383 12.1c6.665-.21 12.542 1.52 16.512 7.412zM11.415 41.927c.085 19.234 12.622 32.939 26.811 37.45 6.38 2.028 12.734 1.576 18.903-1.053a11.619 11.619 0 0 0 4.173-2.997c.716-.808 1.314-1.691 1.527-2.774.259-1.293-.02-1.75-1.314-1.963-11.895-1.966-17.53-10.476-18.895-20.568-.567-4.196-.183-8.357.066-12.532.135-2.263.203-4.523-.223-6.76-1.61-8.49-10.412-13.254-18.556-10.001-6.945 2.774-10.475 8.268-11.928 15.34z"/></g><g><path fill="#e85025" d="M46.06 77.335c3.473-.079 6.882-.483 10.04-2.078.64-.324 1.435-.586 1.362-1.539-.068-.899-.845-1.01-1.489-1.248-9.096-3.338-14.011-10.162-16.101-19.33-.495-2.171-.466-2.179-2.647-2.179-6.817 0-13.636.01-20.453-.01-.71-.003-1.088.05-.825.924 3.91 13.005 12.397 21.34 25.467 24.993 1.508.421 3.077.504 4.646.467"/><path fill="none" stroke="#fff" stroke-miterlimit="20" stroke-width="6" d="M46.06 77.335c3.473-.079 6.882-.483 10.04-2.078.64-.324 1.435-.586 1.362-1.539-.068-.899-.845-1.01-1.489-1.248-9.096-3.338-14.011-10.162-16.101-19.33-.495-2.171-.466-2.179-2.647-2.179-6.817 0-13.636.01-20.453-.01-.71-.003-1.088.05-.825.924 3.91 13.005 12.397 21.34 25.467 24.993 1.508.421 3.077.504 4.646.467"/></g><g><path fill="#fff" d="M11.417 41.888c.085 19.234 12.622 32.94 26.811 37.45 6.38 2.028 12.734 1.576 18.903-1.053a11.619 11.619 0 0 0 4.173-2.997c.716-.808 1.314-1.69 1.527-2.774.259-1.293-.02-1.75-1.314-1.963-11.895-1.966-17.53-10.476-18.895-20.568-.567-4.196-.183-8.357.066-12.532.135-2.263.203-4.523-.223-6.759-1.61-8.49-10.412-13.255-18.556-10.002-6.945 2.774-10.475 8.268-11.928 15.34-.431 2.101-.598 4.228-.564 5.858z"/></g><g><path fill="#71bf54" d="M46.024 16.91c.409-4.061.159-8.133.196-12.201.007-.81.151-1.153 1.065-1.14 3.452.054 6.906.043 10.359.005.75-.007 1.006.197.985.968-.05 1.806-.09 3.62-.003 5.424.422 8.707-1.439 16.876-5.499 24.594-3.456 6.567-2.899 13.289-.146 19.89 2.12 5.083 6.06 8.033 11.549 8.903 3.291.525 6.461-.12 9.654-.725 9.777-1.847 16.481 2.964 17.616 12.756.568 4.909.205 9.857.288 14.788.016.86-.525.762-1.06.762-3.412 0-6.823-.04-10.234.024-.988.02-1.15-.352-1.137-1.213.044-2.754.01-5.506.017-8.262a9.413 9.413 0 0 0-.428-2.915c-.827-2.586-3.698-4.012-6.175-1.986-1.494 1.222-2.97 2.468-4.457 3.7-11.176 9.275-23.621 10.867-36.83 5.434C18.412 80.219 10.028 69.944 5.56 56.359c-2.637-8.015-3.398-16.138-.973-24.37C7.742 21.277 17.394 12.448 28.383 12.1c6.665-.21 12.542 1.52 16.512 7.412.126.19.213.459.582.495.321-1.003.441-2.051.547-3.097zm-7.798 62.467c6.38 2.028 12.734 1.576 18.903-1.053a11.619 11.619 0 0 0 4.173-2.997c.716-.808 1.314-1.691 1.527-2.774.259-1.293-.02-1.75-1.314-1.963-11.895-1.966-17.53-10.476-18.895-20.568-.567-4.196-.183-8.357.066-12.532.135-2.263.203-4.523-.223-6.76-1.61-8.49-10.412-13.254-18.556-10.001-6.945 2.774-10.475 8.268-11.928 15.34-.431 2.1-.598 4.228-.564 5.858.085 19.234 12.622 32.939 26.811 37.45z"/></g><g><path fill="#71bf54" d="M46.06 77.335c3.473-.079 6.882-.483 10.04-2.078.64-.324 1.435-.586 1.362-1.539-.068-.899-.845-1.01-1.489-1.248-9.096-3.338-14.011-10.162-16.101-19.33-.495-2.171-.466-2.179-2.647-2.179-6.817 0-13.636.01-20.453-.01-.71-.003-1.088.05-.825.924 3.91 13.005 12.397 21.34 25.467 24.993 1.508.421 3.077.504 4.646.467z"/></g></g></svg>