<svg xmlns="http://www.w3.org/2000/svg" width="108.1" height="94.4">
  <path fill="#FFF" d="M42.6 86.8c-4 0-7.5-6-9.4-9.6-2.5-5-4.5-10.7-5.2-15.2-1.2-7.4-.6-11.6 0-15 .3-2.4.5-4 0-6l-1.5-5c-2.4-7-5.4-16 2-22.3 4.3-3.6 8.5-5.3 12.8-5.3 3.4 0 6.4 1 9.3 2 2 .6 4 1.3 5.8 1.4h.5c2 0 4.5-.5 7.1-1.1 3.3-.8 6.6-1.5 9.8-1.5 5.6 0 9.3 2.5 11.4 7.5 1.5 3.7 1.8 8.7.7 15-1 5-2.5 9.7-3.2 12-.7 2-.3 3.7.3 6.2a42 42 0 011.3 11.8c-.1 7-3.8 14.8-7.4 19.4-1.1 1.4-2.3 2.6-3.3 3.5a7.3 7.3 0 01-4.5 1.7 5 5 0 01-3-1c-2.8-2.1-2.3-5.8-1.6-10.4.5-3.2 1-7.1.8-10.8-.4-4.2-1.7-8.2-3.7-11-1.2-1.7-3-3.6-5.2-3.6-2 .3-3.9 2.3-5.4 5.3a31 31 0 00-3 13.9c0 2.1.1 4.3.5 6.4l.1.6c.2 1.1.5 2.6.5 4.1 0 6-4 7-6.5 7"/>
  <path fill="#FFF" d="M41.3 10.1c3.1 0 6 1 8.7 1.9 2.1.7 4.2 1.4 6.3 1.5h.6c2.2 0 4.8-.5 7.6-1.2 3.1-.7 6.3-1.4 9.3-1.4 4.1 0 7.7 1.5 9.8 6.5 1.7 3.9 1.4 9 .6 14-.9 4.6-2.3 9-3.2 11.7-.8 2.5-.3 4.6.3 7.2a40 40 0 011.3 11.4c-.1 6.6-3.6 14-7 18.4-1.1 1.3-2.1 2.3-3.1 3a5.7 5.7 0 01-3.4 1.5c-.8 0-1.4-.2-2-.7-2-1.5-1.5-4.6-.9-8.8.5-3.2 1.1-7.2.8-11.2A25 25 0 0063 52c-1.8-2.6-4.1-4.2-6.6-4.2h-.7c-2.2.4-4.5 2.7-6.3 6.2a37.3 37.3 0 00-2.6 21.4l.1.7c.3 1 .5 2.4.5 3.7 0 2.8-1 5.2-4.8 5.2-2.3 0-5.3-3.6-7.8-8.6-2.3-4.5-4.4-10-5-14.7-1.2-7.1-.6-11.2-.2-14.6.4-2.3.7-4.2 0-6.6-.3-1.6-.9-3.3-1.4-5-2.5-7.2-5-15 1.4-20.4 4.5-3.8 8.3-5 11.7-5m0-3.4c-4.8 0-9.3 1.8-13.9 5.7-8.3 7.1-5 17-2.5 24.2l1.4 4.8c.5 1.6.3 3 0 5.2-.5 3.4-1.2 8 0 15.7A57 57 0 0031.7 78c2.4 4.8 6.3 10.5 11 10.5 5 0 8.2-3.2 8.2-8.7 0-1.6-.4-3.2-.6-4.4l-.1-.7a29.3 29.3 0 012.3-19.1c1.5-3 3.2-4.3 3.8-4.4 1.2 0 2.6 1 3.9 2.8 1.8 2.6 3 6.4 3.4 10.2.3 3.5-.3 7.3-.7 10.3-.8 5-1.4 9.4 2 12.1 1.2 1 2.6 1.4 4 1.5a9 9 0 005.7-2.2c1.2-1 2.5-2.2 3.6-3.7a37.7 37.7 0 007.9-20.4c.1-5.7-.8-9.5-1.4-12.3-.6-2.6-.9-3.8-.4-5.3.8-2.3 2.3-7.1 3.3-12.3 1.1-6.5.9-11.9-.8-15.8a13 13 0 00-13-8.6c-3.4 0-6.8.7-10.1 1.5-2.6.6-5 1.1-6.8 1.1h-.4c-1.6-.1-3.5-.7-5.4-1.4-2.9-1-6.1-2-9.8-2"/>
  <path fill="#AB65A8" d="M82.6 61.7c-.2 6.6-3.6 14-7.1 18.4-1 1.3-2 2.3-3 3a5.6 5.6 0 01-3.5 1.5c-.7 0-1.3-.2-2-.7-1.8-1.5-1.4-4.6-.8-8.7.5-3.3 1.1-7.3.8-11.3A25 25 0 0063 52c-1.8-2.5-4.1-4.2-6.6-4.2a4 4 0 00-.7 0c-2.2.4-4.5 2.7-6.3 6.2a37.3 37.3 0 00-2.6 21.4l.1.7c.3 1 .5 2.4.5 3.7 0 2.8-1 5.2-4.8 5.2-2.3 0-5.3-3.6-7.8-8.6-2.3-4.5-4.4-10-5.1-14.7-1.1-7.1-.5-11.2 0-14.5.3-2.4.6-4.3 0-6.7-.4-1.6-1-3.3-1.6-5-2.4-7.2-5-15 1.5-20.4C38 8 44.1 10 50 12c2.1.7 4.2 1.4 6.3 1.5 2.2.2 5.1-.5 8.2-1.2 7.6-1.7 15.6-3.5 19.1 5 1.7 4 1.4 9.2.6 14-.9 4.7-2.3 9.1-3.2 11.8-.8 2.5-.3 4.6.3 7.2a40 40 0 011.3 11.4m-10.2 16c3.1-4 6.2-10.4 6.3-16.1a37 37 0 00-1.2-10.4c-.8-3.2-1.3-5.7-.2-9.3.9-2.6 2.2-6.8 3-11.2.8-4.3 1-8.7-.3-11.8-2.3-5.5-8.6-4.1-14.7-2.7-3.3.7-6.5 1.4-9.3 1.2-2.5-.1-4.9-1-7.2-1.7-5-1.7-10-3.3-16.6 2.3-4.5 3.9-2.4 10.3-.4 16.3.7 1.8 1.3 3.6 1.7 5.3.8 3 .4 5.3 0 8.1-.4 3.1-1 7 0 13.4.7 4.2 2.6 9.4 4.7 13.6 2 3.7 3.7 6.4 4.4 6.4.7 0 1-.6 1-1.3 0-1-.3-2-.5-3l-.1-.7a36.4 36.4 0 013-23.8c2.3-4.6 5.6-7.7 9-8.3l1.4-.1c3.9 0 7.2 2.3 9.8 5.9 2.6 3.7 4.3 8.8 4.7 13.8.4 4.4-.3 8.7-.8 12.1l-.6 4.9.6-.5c.7-.5 1.5-1.4 2.3-2.4"/>
  <path fill="#AB65A8" d="M38.9 69.5c-.1-18.3 6.7-32 17-32 9.8 0 16.5 13.2 17.2 31.2 4-12.6-4-20.7-1.9-28.4 3.6-12.6 2.8-19.8-6.4-16-7.7 3.1-9.3 1.8-16.8-.7-7-3-14.3.5-10 11.2 5.2 13-5.1 20 .9 34.7"/>
</svg>