<svg xmlns="http://www.w3.org/2000/svg" width="70" height="91" viewBox="0 0 70 91"><g><g><path d="M33.913 85.819c-2.996-.134-7.05.305-11.09-.217-3.078-.4-5.75-1.695-7.94-3.915-8.322-8.411-10.888-18.354-7.72-29.713.57-2.051 1.371-4.11 2.547-5.94 1.59-2.507 1.105-4.74-.594-6.965-7.883-10.266-4.934-24.091 6.426-30.28 3.683-2.011 7.672-3.032 11.808-3.454 7.063-.727 14.102-.714 21.036 1.075 3.937 1.016 7.515 2.771 10.504 5.591 6.281 5.912 8 13.501 4.882 21.525-.777 1.987-1.656 3.947-2.898 5.667-1.813 2.508-1.785 4.78-.274 7.541 6.33 11.564 3.961 25.567-5.089 34.586-2.957 2.939-6.457 4.408-10.559 4.489zm1.148-70.508c-1.445 0-2.89-.081-4.332.015-3.78.243-7.504.804-10.812 2.863-4.504 2.803-5.91 6.977-4.024 11.913.313.821.692 1.624 1.102 2.399 1.352 2.537 2.797 2.993 5.422 1.761.328-.159.656-.313.988-.451 8.2-3.398 16.313-3.213 24.348.54 2.344 1.093 3.84.629 5.105-1.62.766-1.364 1.391-2.792 1.774-4.323.726-2.932.133-5.556-1.836-7.861-1.75-2.058-4.012-3.288-6.547-4.061zm1.864 22.224C24.518 41.848 16.3 50.037 11.952 62.523z"/><path fill="none" stroke="#fff" stroke-miterlimit="20" stroke-width="8.8" d="M33.913 85.819c-2.996-.134-7.05.305-11.09-.217-3.078-.4-5.75-1.695-7.94-3.915-8.322-8.411-10.888-18.354-7.72-29.713.57-2.051 1.371-4.11 2.547-5.94 1.59-2.507 1.105-4.74-.594-6.965-7.883-10.266-4.934-24.091 6.426-30.28 3.683-2.011 7.672-3.032 11.808-3.454 7.063-.727 14.102-.714 21.036 1.075 3.937 1.016 7.515 2.771 10.504 5.591 6.281 5.912 8 13.501 4.882 21.525-.777 1.987-1.656 3.947-2.898 5.667-1.813 2.508-1.785 4.78-.274 7.541 6.33 11.564 3.961 25.567-5.089 34.586-2.957 2.939-6.457 4.408-10.559 4.489zm1.148-70.508c-1.445 0-2.89-.081-4.332.015-3.78.243-7.504.804-10.812 2.863-4.504 2.803-5.91 6.977-4.024 11.913.313.821.692 1.624 1.102 2.399 1.352 2.537 2.797 2.993 5.422 1.761.328-.159.656-.313.988-.451 8.2-3.398 16.313-3.213 24.348.54 2.344 1.093 3.84.629 5.105-1.62.766-1.364 1.391-2.792 1.774-4.323.726-2.932.133-5.556-1.836-7.861-1.75-2.058-4.012-3.288-6.547-4.061zm1.864 22.224C24.518 41.848 16.3 50.037 11.952 62.523z"/></g><g><path fill="#fff" d="M56.46 24.356c0 6.454-5.234 11.686-11.688 11.686H23.038c-6.449 0-11.683-5.232-11.683-11.686S16.589 12.67 23.038 12.67h21.734c6.454 0 11.688 5.232 11.688 11.686z"/></g><g><path fill="#f5bf16" d="M22.823 85.602c-3.078-.4-5.75-1.695-7.94-3.915-8.322-8.411-10.888-18.354-7.72-29.713.57-2.051 1.371-4.11 2.547-5.94 1.59-2.507 1.105-4.74-.594-6.965-7.883-10.266-4.934-24.091 6.426-30.28 3.683-2.011 7.672-3.032 11.808-3.454 7.063-.727 14.102-.714 21.036 1.075 3.937 1.016 7.515 2.771 10.504 5.591 6.281 5.912 8 13.501 4.882 21.525-.777 1.987-1.656 3.947-2.898 5.667-1.813 2.508-1.785 4.78-.274 7.541 6.33 11.564 3.961 25.567-5.089 34.586-2.957 2.939-6.457 4.408-10.559 4.489-3.332.066-6.66.01-11.039.01-2.996-.134-7.05.305-11.09-.217zm7.906-70.276c-3.78.243-7.504.804-10.812 2.863-4.504 2.803-5.91 6.977-4.024 11.913.313.821.692 1.624 1.102 2.399 1.352 2.537 2.797 2.993 5.422 1.761.328-.159.656-.313.988-.451 8.2-3.398 16.313-3.213 24.348.54 2.344 1.093 3.84.629 5.105-1.62.766-1.364 1.391-2.792 1.774-4.323.726-2.932.133-5.556-1.836-7.861-1.75-2.058-4.012-3.288-6.547-4.061-3.645-1.121-7.406-1.282-11.188-1.175-1.445 0-2.89-.081-4.332.015zm6.196 22.209c-14.043-1.296-26.254 10.686-24.973 24.988C16.3 50.037 24.518 41.848 36.925 37.535z"/></g></g></svg>