<svg xmlns="http://www.w3.org/2000/svg" width="64" height="106" viewBox="0 0 64 106"><g><g><path fill="#fff" d="M53.852 86.908H21.184V48.137h32.668z"/><path fill="none" stroke="#fff" stroke-miterlimit="20" stroke-width="10.47" d="M53.852 86.908v0H21.184v0-38.771 0h32.668v0z"/></g><g><path fill="#3e55a3" d="M58.211 51.613c-.102 13.625-.016 27.25.027 40.881.004 1.902-.468 3.617-1.738 5.056-1.418 1.594-3.223 2.342-5.336 2.342-8.879.014-17.769.043-26.648-.004-4.223-.031-7.047-2.99-7.055-7.271-.02-7.133-.004-14.278-.004-21.424-.004-6.836-.059-13.672.012-20.508.066-6.807 2.945-12.26 8.363-16.346.543-.404 1.336-.658 2.012-.662 6.664-.051 13.328-.051 19.992 0 .68.004 1.48.258 2.012.662 5.675 4.344 8.414 10.059 8.363 17.274zm-6.113-.852H23.539v34.633h28.559zM34.805 71.193H28.77v-6.088h5.98v-6.029h6.082v5.976h6.051v6.043h-5.946v6.114h-6.132zM42.25 5.64c3.906.276 5.461 2.256 4.875 6.313-1.297-.176-2.531-.34-3.938-.537v9.658H32.492V10.96c-2.992.274-5.805.463-8.594.817-2.796.355-5.574.875-8.472 1.336a455.58 455.58 0 0 1-1.281-3.215c2.687-.678 5.21-1.512 7.8-1.912 5.801-.924 11.621-1.637 17.434-2.385.937-.115 1.922-.029 2.871.039zM19.078 29.517c.789 2.91-.297 5.715-2.652 7.358-2.364 1.65-5.746 1.679-8.117.064-2.372-1.607-3.539-4.443-2.75-7.326.464-1.697 1.25-3.326 2.043-4.908.648-1.28 1.507-2.444 2.293-3.643.769-1.164 1.566-2.295 2.492-3.666 1.781 2.803 3.5 5.359 5.05 8.027.731 1.25 1.262 2.676 1.641 4.094zm-9.969 4.207c1.106 1.375 2.969 1.836 4.645 1.088-2.551-1.658-4-3.971-4.242-7.057-1.512 1.93-1.645 4.44-.403 5.969zm19.844-10.381h17.715v8.104H28.953z"/></g><g><path fill="none" stroke="#fff" stroke-miterlimit="20" stroke-width="10.47" d="M58.238 92.494c.004 1.902-.468 3.617-1.738 5.056-1.418 1.594-3.223 2.342-5.336 2.342-8.879.014-17.769.043-26.648-.004-4.223-.031-7.047-2.99-7.055-7.271-.02-7.133-.004-14.278-.004-21.424-.004-6.836-.059-13.672.012-20.508.066-6.807 2.945-12.26 8.363-16.346.543-.404 1.336-.658 2.012-.662 6.664-.051 13.328-.051 19.992 0 .68.004 1.48.258 2.012.662 5.675 4.344 8.414 10.059 8.363 17.274zm-6.14-41.733H23.539v34.633h28.559zM34.805 77.209v-6.016H28.77v-6.088h5.98v-6.029h6.082v5.976h6.051v6.043h-5.946v6.114zm12.32-65.256c-1.297-.176-2.531-.34-3.938-.537v9.658H32.492V10.96c-2.992.274-5.805.463-8.594.817-2.796.355-5.574.875-8.472 1.336a455.58 455.58 0 0 1-1.281-3.215c2.687-.678 5.21-1.512 7.8-1.912 5.801-.924 11.621-1.637 17.434-2.385.937-.115 1.922-.029 2.871.039zM16.426 36.875c-2.364 1.65-5.746 1.679-8.117.064-2.372-1.607-3.539-4.443-2.75-7.326.464-1.697 1.25-3.326 2.043-4.908.648-1.28 1.507-2.444 2.293-3.643.769-1.164 1.566-2.295 2.492-3.666 1.781 2.803 3.5 5.359 5.05 8.027.731 1.25 1.262 2.676 1.641 4.094zm-2.672-2.063c-2.551-1.658-4-3.971-4.242-7.057-1.512 1.93-1.645 4.44-.403 5.969zm15.199-11.469h17.715v8.104H28.953z"/></g><g><path fill="#3e55a3" d="M47.125 11.953c-1.297-.176-2.531-.34-3.938-.53v9.65H32.492V10.962c-2.992.273-5.804.463-8.597.816-2.79.356-5.571.87-8.469 1.336-.395-.98-.793-1.976-1.281-3.215 2.687-.677 5.21-1.511 7.804-1.912 5.797-.924 11.617-1.637 17.43-2.388.941-.112 1.922-.03 2.871.043 3.906.275 5.461 2.255 4.875 6.312"/><path fill="none" stroke="#fff" stroke-miterlimit="20" stroke-width="10.47" d="M47.125 11.953c-1.297-.176-2.531-.34-3.938-.53v9.65H32.492v0-10.112c-2.992.273-5.804.463-8.597.816-2.79.356-5.571.87-8.469 1.336-.395-.98-.793-1.976-1.281-3.215 2.687-.677 5.21-1.511 7.804-1.912 5.797-.924 11.617-1.637 17.43-2.388.941-.112 1.922-.03 2.871.043 3.906.275 5.461 2.255 4.875 6.312"/></g><g><path fill="#3e55a3" d="M16.425 36.874c-2.363 1.651-5.746 1.68-8.117.065-2.379-1.608-3.539-4.444-2.75-7.326.465-1.698 1.25-3.326 2.043-4.916.65-1.272 1.508-2.436 2.293-3.635.77-1.164 1.567-2.295 2.492-3.666 1.782 2.803 3.5 5.36 5.051 8.027.731 1.25 1.262 2.676 1.641 4.094zm-2.67-2.062c-2.552-1.658-4-3.97-4.244-7.057-1.51 1.93-1.644 4.44-.402 5.97z"/><path fill="none" stroke="#fff" stroke-miterlimit="20" stroke-width="10.47" d="M16.425 36.874c-2.363 1.651-5.746 1.68-8.117.065-2.379-1.608-3.539-4.444-2.75-7.326.465-1.698 1.25-3.326 2.043-4.916.65-1.272 1.508-2.436 2.293-3.635.77-1.164 1.567-2.295 2.492-3.666 1.782 2.803 3.5 5.36 5.051 8.027.731 1.25 1.262 2.676 1.641 4.094zm-2.67-2.062c-2.552-1.658-4-3.97-4.244-7.057-1.51 1.93-1.644 4.44-.402 5.97z"/></g><g><path fill="#3e55a3" d="M28.953 23.339h17.715v8.107H28.953z"/><path fill="none" stroke="#fff" stroke-miterlimit="20" stroke-width="10.47" d="M28.953 23.339v0h17.715v8.107H28.953v0z"/></g><g><path fill="#3e55a3" d="M46.883 65.052v6.043h-5.945v6.113h-6.133v-6.015H28.77V65.11h5.98v-6.034h6.082v5.977z"/></g><g><path fill="none" stroke="#fff" stroke-miterlimit="20" stroke-width="10.47" d="M46.883 65.052v6.043h-5.945v6.113h-6.133v0-6.015 0H28.77v0-6.084 0h5.98v0-6.034 0h6.082v5.977h6.05v0z"/></g><g><path fill="#3e55a3" d="M58.238 92.494c.004 1.902-.468 3.617-1.738 5.056-1.418 1.594-3.223 2.342-5.336 2.342-8.879.014-17.769.043-26.648-.004-4.223-.031-7.047-2.99-7.055-7.271-.02-7.133-.004-14.278-.004-21.424-.004-6.836-.059-13.672.012-20.508.066-6.807 2.945-12.26 8.363-16.346.543-.404 1.336-.658 2.012-.662 6.664-.051 13.328-.051 19.992 0 .68.004 1.48.258 2.012.662 5.675 4.344 8.414 10.059 8.363 17.274zm-6.14-41.733H23.539v34.633h28.559z"/><path fill="none" stroke="#fff" stroke-miterlimit="20" stroke-width="10.47" d="M58.238 92.494c.004 1.902-.468 3.617-1.738 5.056-1.418 1.594-3.223 2.342-5.336 2.342-8.879.014-17.769.043-26.648-.004-4.223-.031-7.047-2.99-7.055-7.271-.02-7.133-.004-14.278-.004-21.424-.004-6.836-.059-13.672.012-20.508.066-6.807 2.945-12.26 8.363-16.346.543-.404 1.336-.658 2.012-.662 6.664-.051 13.328-.051 19.992 0 .68.004 1.48.258 2.012.662 5.675 4.344 8.414 10.059 8.363 17.274zm-6.14-41.733H23.539v34.633h28.559z"/></g><g><path fill="#fff" d="M53.852 86.908H21.184V48.137h32.668z"/></g><g><path fill="#3e55a3" d="M58.211 51.613c-.102 13.625-.016 27.25.027 40.881.004 1.902-.468 3.617-1.738 5.056-1.418 1.594-3.223 2.342-5.336 2.342-8.879.014-17.769.043-26.648-.004-4.223-.031-7.047-2.99-7.055-7.271-.02-7.133-.004-14.278-.004-21.424-.004-6.836-.059-13.672.012-20.508.066-6.807 2.945-12.26 8.363-16.346.543-.404 1.336-.658 2.012-.662 6.664-.051 13.328-.051 19.992 0 .68.004 1.48.258 2.012.662 5.675 4.344 8.414 10.059 8.363 17.274zm-6.113-.852H23.539v34.633h28.559zM34.805 71.193H28.77v-6.088h5.98v-6.029h6.082v5.976h6.051v6.043h-5.946v6.114h-6.132zM42.25 5.64c3.906.276 5.461 2.256 4.875 6.313-1.297-.176-2.531-.34-3.938-.537v9.658H32.492V10.96c-2.992.274-5.805.463-8.594.817-2.796.355-5.574.875-8.472 1.336a455.58 455.58 0 0 1-1.281-3.215c2.687-.678 5.21-1.512 7.8-1.912 5.801-.924 11.621-1.637 17.434-2.385.937-.115 1.922-.029 2.871.039zM19.078 29.517c.789 2.91-.297 5.715-2.652 7.358-2.364 1.65-5.746 1.679-8.117.064-2.372-1.607-3.539-4.443-2.75-7.326.464-1.697 1.25-3.326 2.043-4.908.648-1.28 1.507-2.444 2.293-3.643.769-1.164 1.566-2.295 2.492-3.666 1.781 2.803 3.5 5.359 5.05 8.027.731 1.25 1.262 2.676 1.641 4.094zm-9.969 4.207c1.106 1.375 2.969 1.836 4.645 1.088-2.551-1.658-4-3.971-4.242-7.057-1.512 1.93-1.645 4.44-.403 5.969zm19.844-10.381h17.715v8.104H28.953z"/></g><g><path fill="#3e55a3" d="M47.125 11.953c-1.297-.176-2.531-.34-3.938-.53v9.65H32.492V10.962c-2.992.273-5.804.463-8.597.816-2.79.356-5.571.87-8.469 1.336-.395-.98-.793-1.976-1.281-3.215 2.687-.677 5.21-1.511 7.804-1.912 5.797-.924 11.617-1.637 17.43-2.388.941-.112 1.922-.03 2.871.043 3.906.275 5.461 2.255 4.875 6.312z"/></g><g><path fill="#3e55a3" d="M19.078 29.517c.79 2.91-.297 5.715-2.653 7.357-2.363 1.651-5.746 1.68-8.117.065-2.379-1.608-3.539-4.444-2.75-7.326.465-1.698 1.25-3.326 2.043-4.916.65-1.272 1.508-2.436 2.293-3.635.77-1.164 1.567-2.295 2.492-3.666 1.782 2.803 3.5 5.36 5.051 8.027.731 1.25 1.262 2.676 1.641 4.094zM9.11 33.724c1.105 1.375 2.97 1.836 4.645 1.088-2.55-1.658-4-3.97-4.243-7.057-1.51 1.93-1.644 4.44-.402 5.97z"/></g><g><path fill="#3e55a3" d="M28.953 23.339h17.715v8.107H28.953z"/></g><g><path fill="#3e55a3" d="M46.883 65.052v6.043h-5.945v6.113h-6.133v-6.015H28.77V65.11h5.98v-6.034h6.082v5.977z"/></g><g><path fill="#3e55a3" d="M58.211 51.613c-.102 13.625-.016 27.25.027 40.881.004 1.902-.468 3.617-1.738 5.056-1.418 1.594-3.223 2.342-5.336 2.342-8.879.014-17.769.043-26.648-.004-4.223-.031-7.047-2.99-7.055-7.271-.02-7.133-.004-14.278-.004-21.424-.004-6.836-.059-13.672.012-20.508.066-6.807 2.945-12.26 8.363-16.346.543-.404 1.336-.658 2.012-.662 6.664-.051 13.328-.051 19.992 0 .68.004 1.48.258 2.012.662 5.675 4.344 8.414 10.059 8.363 17.274zm-6.113-.852H23.539v34.633h28.559z"/></g></g></svg>