<svg xmlns="http://www.w3.org/2000/svg" width="86" height="98" viewBox="0 0 86 98"><g><g><path fill="#fff" d="M5.503 66.206c.824 1.096.84 2.471 1.28 3.704 6.435 18.373 27.333 27.443 45.138 19.57-13.61-17.98-5.707-42.212 14.055-49.966-2.832-4.29-6.524-7.56-10.926-10.032-22.36-12.574-49.766 3.23-50.141 28.891-.008.57-.125 1.141-.191 1.708z"/></g><g><path fill="none" stroke="#fff" stroke-miterlimit="20" stroke-width="9.35" d="M5.503 66.206c.824 1.096.84 2.471 1.28 3.704 6.435 18.373 27.333 27.443 45.138 19.57-13.61-17.98-5.707-42.212 14.055-49.966-2.832-4.29-6.524-7.56-10.926-10.032-22.36-12.574-49.766 3.23-50.141 28.891-.008.57-.125 1.141-.191 1.708l.785 6.125v0z"/></g><g><path fill="#fff" d="M46.39 23.302c8.547 0 15.605-6.295 16.707-14.803.19-1.428-.344-1.914-1.57-2.314-9.867-3.214-20.938 4.332-21.625 14.732-.055.954.273 1.272 1.082 1.54 1.765.593 3.558.827 5.406.845"/><path fill="none" stroke="#fff" stroke-miterlimit="20" stroke-width="9.35" d="M46.39 23.302c8.547 0 15.605-6.295 16.707-14.803.19-1.428-.344-1.914-1.57-2.314-9.867-3.214-20.938 4.332-21.625 14.732-.055.954.273 1.272 1.082 1.54 1.765.593 3.558.827 5.406.845"/></g><g><path fill="#fff" d="M25.366 11.566c-4.707.331-4.727.682-3.16 4.796 1.914 5.015 7.52 7.652 12.644 6.288 1.067-.283 1.567-.689 1.336-1.972-.984-5.378-5.402-9.155-10.82-9.112"/><path fill="none" stroke="#fff" stroke-miterlimit="20" stroke-width="9.35" d="M25.366 11.566c-4.707.331-4.727.682-3.16 4.796 1.914 5.015 7.52 7.652 12.644 6.288 1.067-.283 1.567-.689 1.336-1.972-.984-5.378-5.402-9.155-10.82-9.112"/></g><g><path fill="#f89e1b" d="M46.39 23.302c8.547 0 15.605-6.295 16.707-14.803.19-1.428-.344-1.914-1.57-2.314-9.867-3.214-20.938 4.332-21.625 14.732-.055.954.273 1.272 1.082 1.54 1.765.593 3.558.827 5.406.845z"/></g><g><path fill="#f89e1b" d="M25.366 11.566c-4.707.331-4.727.682-3.16 4.796 1.914 5.015 7.52 7.652 12.644 6.288 1.067-.283 1.567-.689 1.336-1.972-.984-5.378-5.402-9.155-10.82-9.112z"/></g><g><path fill="#f89e1b" d="M71.25 58.702c0 18.571-15.055 33.626-33.626 33.626-18.571 0-33.626-15.055-33.626-33.626 0-18.57 15.055-33.626 33.626-33.626 18.571 0 33.626 15.055 33.626 33.626z"/></g><g><path fill="#fff" d="M79.596 68.674c0 13.012-10.55 23.56-23.56 23.56-13.012 0-23.56-10.548-23.56-23.56 0-13.012 10.548-23.56 23.56-23.56 13.01 0 23.56 10.548 23.56 23.56z"/></g><g><path fill="#fff" d="M81.149 68.166c-.082.302-.208.596-.217.9-.315 14.435-12.412 25.57-26.768 24.63-10.966-.717-20.799-9.243-22.745-19.703-2.257-12.19 3.299-23.189 14.251-28.198 10.201-4.675 22.612-1.694 29.695 7.042 2.43 2.99 3.815 6.45 5.099 9.984zM53.06 47.006c-11.781 1.515-20.289 12.56-18.812 24.428 1.459 11.67 12.588 20.357 24.2 18.91 12.016-1.499 20.55-12.415 19.051-24.375-1.5-12-12.452-20.498-24.439-18.963z"/></g><g><path fill="none" stroke="#fff" stroke-miterlimit="20" stroke-width="8.16" d="M80.932 69.066c-.315 14.435-12.412 25.57-26.768 24.63-10.966-.717-20.799-9.243-22.745-19.703-2.257-12.19 3.299-23.189 14.251-28.198 10.201-4.675 22.612-1.694 29.695 7.042 2.43 2.99 3.815 6.45 5.099 9.984l.685 5.345c-.082.302-.208.596-.217.9zm-3.433-3.097c-1.5-12-12.452-20.498-24.439-18.963-11.781 1.515-20.289 12.56-18.812 24.428 1.459 11.67 12.588 20.357 24.2 18.91z"/></g><g><path fill="#f89e1b" d="M53.469 65.077c-.98-4.672-1.896-8.917-2.785-13.172-.208-.985-.583-1.188-1.581-.789-2.785 1.12-5.155 2.782-7.202 4.953-.69.728-.741 1.172.18 1.745 3.695 2.3 7.335 4.66 11.388 7.263z"/></g><g><path fill="#f89e1b" d="M51.557 68.001c-4.131-2.677-7.857-5.052-11.528-7.488-.842-.559-1.057-.137-1.35.525-1.226 2.811-1.667 5.744-1.574 8.788.03 1.082.473 1.276 1.455 1.057 4.15-.954 8.323-1.853 12.997-2.882z"/></g><g><path fill="#f89e1b" d="M52.327 71.448c-4.752 1.018-9.057 1.95-13.376 2.844-.804.165-.902.472-.623 1.17 1.23 2.954 3 5.494 5.42 7.59.593.516.886.43 1.291-.22 2.321-3.67 4.684-7.317 7.288-11.383z"/></g><g><path fill="#f89e1b" d="M55.251 73.263c-2.58 4.025-4.99 7.774-7.41 11.518-.426.657-.034.896.48 1.124 2.868 1.295 5.894 1.65 8.999 1.593.675-.015 1.105-.192.913-1.028-.981-4.28-1.935-8.569-2.982-13.207z"/></g><g><path fill="#fff" d="M59.772 66.228c4.628-1.012 8.807-1.936 12.989-2.833.743-.162 1.118-.328.77-1.248-1.097-2.936-2.808-5.424-5.122-7.523-.553-.516-.9-.48-1.327.19-2.351 3.71-4.734 7.397-7.31 11.414"/><path fill="none" stroke="#fff" stroke-miterlimit="20" stroke-width="8.16" d="M59.772 66.228c4.628-1.012 8.807-1.936 12.989-2.833.743-.162 1.118-.328.77-1.248-1.097-2.936-2.808-5.424-5.122-7.523-.553-.516-.9-.48-1.327.19-2.351 3.71-4.734 7.397-7.31 11.414"/></g><g><path fill="#fff" d="M60.442 69.564c4.053 2.607 7.66 4.898 11.221 7.237.743.487 1.036.343 1.394-.437 1.258-2.795 1.766-5.7 1.615-8.75-.037-.9-.432-1.05-1.223-.872-4.168.917-8.34 1.814-13.007 2.822"/><path fill="none" stroke="#fff" stroke-miterlimit="20" stroke-width="8.16" d="M60.442 69.564c4.053 2.607 7.66 4.898 11.221 7.237.743.487 1.036.343 1.394-.437 1.258-2.795 1.766-5.7 1.615-8.75-.037-.9-.432-1.05-1.223-.872-4.168.917-8.34 1.814-13.007 2.822"/></g><g><path fill="#f89e1b" d="M70.709 80.237c-3.902-2.51-7.71-4.949-11.708-7.52-.242 1.871.494 3.386.801 4.953.531 2.627 1.159 5.242 1.697 7.872.171.825.439 1.003 1.285.663 3.14-1.285 5.778-3.193 7.925-5.968z"/></g><g><path fill="#f89e1b" d="M81.149 68.166c-.082.302-.208.596-.217.9-.315 14.435-12.412 25.57-26.768 24.63-10.966-.717-20.799-9.243-22.745-19.703-2.257-12.19 3.299-23.189 14.251-28.198 10.201-4.675 22.612-1.694 29.695 7.042 2.43 2.99 3.815 6.45 5.099 9.984zM53.06 47.006c-11.781 1.515-20.289 12.56-18.812 24.428 1.459 11.67 12.588 20.357 24.2 18.91 12.016-1.499 20.55-12.415 19.051-24.375-1.5-12-12.452-20.498-24.439-18.963z"/></g><g><path fill="#f89e1b" d="M59.772 66.228c4.628-1.012 8.807-1.936 12.989-2.833.743-.162 1.118-.328.77-1.248-1.097-2.936-2.808-5.424-5.122-7.523-.553-.516-.9-.48-1.327.19-2.351 3.71-4.734 7.397-7.31 11.414z"/></g><g><path fill="#f89e1b" d="M56.872 64.404c2.582-3.973 4.905-7.567 7.251-11.144.414-.638.564-1.02-.33-1.43-2.845-1.317-5.81-1.884-8.932-1.75-.755.02-.976.29-.808 1.067.934 4.292 1.83 8.588 2.82 13.257z"/></g><g><path fill="#f89e1b" d="M60.442 69.564c4.053 2.607 7.66 4.898 11.221 7.237.743.487 1.036.343 1.394-.437 1.258-2.795 1.766-5.7 1.615-8.75-.037-.9-.432-1.05-1.223-.872-4.168.917-8.34 1.814-13.007 2.822z"/></g></g></svg>