<svg xmlns="http://www.w3.org/2000/svg" width="92" height="91" viewBox="0 0 92 91"><g><g><path fill="#fff" d="M91.41 45.585c0 25.136-20.38 45.518-45.524 45.518-25.137 0-45.52-20.382-45.52-45.518C.366 20.444 20.75.066 45.886.066 71.03.066 91.41 20.444 91.41 45.585z"/></g><g><path fill="#0c77e2" d="M66.999 42.182a1.623 1.623 0 0 1-.121 2.292c-.664.6-1.691.546-2.285-.122-4.504-4.99-8.782-8.637-12.977-10.878a14.035 14.035 0 0 1 4.176 10.005c0 7.785-6.305 14.094-14.094 14.094-7.781 0-14.094-6.309-14.094-14.094 0-.448.02-.893.067-1.327a.532.532 0 0 1 .449-.486.533.533 0 0 1 .586.318 6.51 6.51 0 0 0 5.969 3.898 6.507 6.507 0 0 0 6.508-6.517 6.507 6.507 0 0 0-8.582-6.172c-4.407 2.213-8.993 6.003-13.891 11.427-.59.66-1.617.711-2.285.114a1.62 1.62 0 0 1-.11-2.283c9.133-10.11 17.45-14.948 25.747-14.868 8.292.08 16.343 5.064 24.937 14.6z"/></g><g><path fill="#0c77e2" d="M69.827 50.015c-9.617 10.071-18.754 15.27-27.992 15.362-9.09.092-18.09-4.754-27.55-14.74-1.306.874-2.653 1.037-3.84.702-1.556-.439-2.68-1.702-3.145-3.225-.524-1.71-.254-3.88 1.332-5.87 1.39-1.733 2.965-3.488 4.468-5.098C23.132 26.47 32.84 21.284 42.64 21.6c10.671.344 21.23 7.212 32.238 20.627a1.62 1.62 0 0 1-.227 2.276 1.617 1.617 0 0 1-2.273-.22C61.995 31.618 52.21 25.147 42.542 24.833c-8.824-.285-17.738 4.577-27.106 14.56-1.429 1.523-2.964 3.225-4.277 4.867-.84 1.052-1.012 2.116-.766 2.913.133.448.454.914.926 1.047.4.115.93-.03 1.516-.546.566-.496 1.164-.645 1.738-.593.695.061 1.223.426 1.578.81 8.988 9.648 17.375 14.33 25.653 14.245 7.726-.073 15.48-4.329 23.812-12.464 1.227-1.193 5.973-1.517 4.211.343z"/></g></g></svg>