<svg xmlns="http://www.w3.org/2000/svg" width="82" height="82" viewBox="0 0 82 82"><g><g><path fill="#fff" d="M53.871 50.116c0 12.336-10 22.34-22.332 22.34S9.207 62.452 9.207 50.116c0-12.332 10-22.322 22.332-22.322s22.332 9.99 22.332 22.322z"/></g><g><path fill="#3d71b7" d="M77.992 3.982v34.267h-8.418V18.333L54.797 33.115a28.371 28.371 0 0 1 5.609 16.976c0 15.756-12.773 28.53-28.531 28.53-15.754 0-28.527-12.774-28.527-28.53 0-15.758 12.773-28.527 28.527-28.527a28.382 28.382 0 0 1 16.98 5.607L63.637 12.39H43.723V3.982zM31.875 69.224c10.566 0 19.133-8.566 19.133-19.133 0-10.562-8.567-19.131-19.133-19.131-10.563 0-19.133 8.569-19.133 19.13 0 10.568 8.57 19.134 19.133 19.134z"/></g><g><path fill="none" stroke="#fff" stroke-miterlimit="20" stroke-width="6.72" d="M43.723 3.982h34.269v34.267h-8.418V18.333L54.797 33.115a28.371 28.371 0 0 1 5.609 16.976c0 15.756-12.773 28.53-28.531 28.53-15.754 0-28.527-12.774-28.527-28.53 0-15.758 12.773-28.527 28.527-28.527a28.382 28.382 0 0 1 16.98 5.607L63.637 12.39H43.723zm7.285 46.109c0-10.562-8.567-19.131-19.133-19.131-10.563 0-19.133 8.569-19.133 19.13 0 10.568 8.57 19.134 19.133 19.134z"/></g><g><path fill="#231f20" d="M77.992 3.982v34.267h-8.418V18.333L54.797 33.115a28.371 28.371 0 0 1 5.609 16.976c0 15.756-12.773 28.53-28.531 28.53-15.754 0-28.527-12.774-28.527-28.53 0-15.758 12.773-28.527 28.527-28.527a28.382 28.382 0 0 1 16.98 5.607L63.637 12.39H43.723V3.982zM31.875 69.224c10.566 0 19.133-8.566 19.133-19.133 0-10.562-8.567-19.131-19.133-19.131-10.563 0-19.133 8.569-19.133 19.13 0 10.568 8.57 19.134 19.133 19.134z"/></g></g></svg>