<svg xmlns="http://www.w3.org/2000/svg" width="70" height="99" viewBox="0 0 70 99"><g><g><path fill="#d61f2e" d="M24.016 14.003c-.25 2.484-.488 5.69-.488 8.9.35.166.703.352 1.043.541a5.62 5.62 0 0 0 .254-.078c2.062-5.345 6.793-11.334 17.562-12.679-2.45-2.317-4.574-2.274-4.7-2.264-.34.016-1.214-.113-1.46-.344-.246-.236-.934-.555-.934-.894V4.868l-6.101.301-.473 4.232c-.062.362-.148.676-.457.86-1.781 1.035-3.082 2.316-4.246 3.742"/><path fill="none" stroke="#fff" stroke-miterlimit="20" stroke-width="8.8" d="M24.016 14.003c-.25 2.484-.488 5.69-.488 8.9.35.166.703.352 1.043.541a5.62 5.62 0 0 0 .254-.078c2.062-5.345 6.793-11.334 17.562-12.679-2.45-2.317-4.574-2.274-4.7-2.264-.34.016-1.214-.113-1.46-.344-.246-.236-.934-.555-.934-.894V4.868v0l-6.101.301v0l-.473 4.232c-.062.362-.148.676-.457.86-1.781 1.035-3.082 2.316-4.246 3.742"/></g><g><path fill="#d61f2e" d="M15.941 21.043c1.691 0 3.414.293 5.11.846.062-5.186.687-10.092.956-12.035l-4.71-2.647c-1.926 3.086-3.415 9.28-4.313 14.15a13.937 13.937 0 0 1 2.957-.314"/><path fill="none" stroke="#fff" stroke-miterlimit="20" stroke-width="8.8" d="M15.941 21.043c1.691 0 3.414.293 5.11.846.062-5.186.687-10.092.956-12.035l-4.71-2.647c-1.926 3.086-3.415 9.28-4.313 14.15a13.937 13.937 0 0 1 2.957-.314"/></g><g><path fill="#d61f2e" d="M55.516 18.597l.312 1.066c.118.366.043.774-.18 1.082a1.248 1.248 0 0 1-.976.512c-2.527.057-9.422.963-10.918 4.465-1.797 4.18 3.246 7.107 4.114 7.57 3.738.924 6.953 2.217 9.64 3.86 1.055-3.606 2.766-8.168 6.34-9.565l-.801-2.19c-1.804.282-4.242.862-5.246 1.626a1.24 1.24 0 0 1-1.945-1.315c.12-.44 1.137-3.953 3.433-5.76l-.933-2.08z"/></g><g><path fill="none" stroke="#fff" stroke-miterlimit="20" stroke-width="8.8" d="M55.516 18.597v0l.312 1.066c.118.366.043.774-.18 1.082a1.248 1.248 0 0 1-.976.512c-2.527.057-9.422.963-10.918 4.465-1.797 4.18 3.246 7.107 4.114 7.57 3.738.924 6.953 2.217 9.64 3.86 1.055-3.606 2.766-8.168 6.34-9.565l-.801-2.19c-1.804.282-4.242.862-5.246 1.626a1.24 1.24 0 0 1-1.945-1.315c.12-.44 1.137-3.953 3.433-5.76l-.933-2.08v0l-2.84.73v0z"/></g><g><path fill="#d61f2e" d="M7.785 26.912c-3.742 3.752-2.977 13.85-1.926 20.033a59.587 59.587 0 0 1 1.485-4.951c3.531-10.324 10.02-15.137 14.214-17.273-1.847-.782-3.76-1.2-5.617-1.2-3.117 0-5.933 1.174-8.156 3.39"/><path fill="none" stroke="#fff" stroke-miterlimit="20" stroke-width="8.8" d="M7.785 26.912c-3.742 3.752-2.977 13.85-1.926 20.033a59.587 59.587 0 0 1 1.485-4.951c3.531-10.324 10.02-15.137 14.214-17.273-1.847-.782-3.76-1.2-5.617-1.2-3.117 0-5.933 1.174-8.156 3.39"/></g><g><path fill="#d61f2e" d="M62.766 45.878c-2.414-4.482-6.738-7.609-13.2-9.586.938 2.553 2.032 6.861 1.22 11.641-.063.81-.422 7.384 3.445 10.22 2.035 1.522 4.687 1.17 6.758-.902a1.248 1.248 0 0 1 1.754 0 1.24 1.24 0 0 1 0 1.754c-1.407 1.404-3.06 2.234-4.727 2.484 1.969 3.772.309 9.153.215 9.448a1.236 1.236 0 0 1-1.18.87c-.121 0-.246-.023-.371-.062a1.24 1.24 0 0 1-.81-1.555c.025-.074 2.232-7.275-1.768-9.226-3.141-1.525-4.613-4.459-5.29-7.193a82.843 82.843 0 0 1-1.151 2.244c-.008.011-.012.025-.02.03-.5.958-1.047 1.968-1.641 3.054-5.13 9.492-12.812 23.703-9.043 32.97 2.762.971 5.34 1.454 7.71 1.454 6.497 0 11.216-3.76 14.025-11.53 4.988-13.785 9.05-26.834 4.074-36.115"/><path fill="none" stroke="#fff" stroke-miterlimit="20" stroke-width="8.8" d="M62.766 45.878c-2.414-4.482-6.738-7.609-13.2-9.586.938 2.553 2.032 6.861 1.22 11.641-.063.81-.422 7.384 3.445 10.22 2.035 1.522 4.687 1.17 6.758-.902a1.248 1.248 0 0 1 1.754 0 1.24 1.24 0 0 1 0 1.754c-1.407 1.404-3.06 2.234-4.727 2.484 1.969 3.772.309 9.153.215 9.448a1.236 1.236 0 0 1-1.18.87c-.121 0-.246-.023-.371-.062a1.24 1.24 0 0 1-.81-1.555c.025-.074 2.232-7.275-1.768-9.226-3.141-1.525-4.613-4.459-5.29-7.193a82.843 82.843 0 0 1-1.151 2.244c-.008.011-.012.025-.02.03-.5.958-1.047 1.968-1.641 3.054-5.13 9.492-12.812 23.703-9.043 32.97 2.762.971 5.34 1.454 7.71 1.454 6.497 0 11.216-3.76 14.025-11.53 4.988-13.785 9.05-26.834 4.074-36.115"/></g><g><path fill="#d61f2e" d="M23.695 84.628c3.645 2.711 7.074 4.777 10.281 6.238-2.39-9.896 4.45-22.945 9.422-32.148-1.398.531-2.87.918-4.308 1.29-.579.15-1.145.3-1.7.454a252.15 252.15 0 0 1-3.382 1.232c-.387.204-.77.418-1.118.66-3.359 2.352-3.082 6.87-3.082 6.917a1.237 1.237 0 0 1-1.144 1.322c-.032.006-.067.006-.094.006a1.232 1.232 0 0 1-1.23-1.139c-.02-.182-.207-3.15 1.335-5.99-3.507 1.053-6.675 1.701-9.726 1.701a1.237 1.237 0 1 1 0-2.475c2.601 0 5.348-.529 8.418-1.41-5.414-.179-6.55-1.783-7.024-2.435a1.24 1.24 0 1 1 2.016-1.444c.434.614 2.75 2.444 14.38.666.573-.16 1.155-.314 1.73-.465 2.675-.695 5.206-1.36 7.093-2.929a62.85 62.85 0 0 0 1.535-3.082c3.317-7.295.102-14.746-.625-16.264-2.879-1.586-7.168-5.539-5-10.596 1.883-4.396 8.457-5.55 11.54-5.85l-1.727-5.755a40.923 40.923 0 0 0-4.215-.219c-7.27 0-16.652 2.067-20.137 11.936a1.26 1.26 0 0 1-.89.791c-.46.111-11.442 2.883-16.356 17.244-2.566 7.514-8.59 24.93 14.008 41.744"/><path fill="none" stroke="#fff" stroke-miterlimit="20" stroke-width="8.8" d="M23.695 84.628c3.645 2.711 7.074 4.777 10.281 6.238-2.39-9.896 4.45-22.945 9.422-32.148-1.398.531-2.87.918-4.308 1.29-.579.15-1.145.3-1.7.454a252.15 252.15 0 0 1-3.382 1.232c-.387.204-.77.418-1.118.66-3.359 2.352-3.082 6.87-3.082 6.917a1.237 1.237 0 0 1-1.144 1.322c-.032.006-.067.006-.094.006a1.232 1.232 0 0 1-1.23-1.139c-.02-.182-.207-3.15 1.335-5.99-3.507 1.053-6.675 1.701-9.726 1.701a1.237 1.237 0 1 1 0-2.475c2.601 0 5.348-.529 8.418-1.41-5.414-.179-6.55-1.783-7.024-2.435a1.24 1.24 0 1 1 2.016-1.444c.434.614 2.75 2.444 14.38.666.573-.16 1.155-.314 1.73-.465 2.675-.695 5.206-1.36 7.093-2.929a62.85 62.85 0 0 0 1.535-3.082c3.317-7.295.102-14.746-.625-16.264-2.879-1.586-7.168-5.539-5-10.596 1.883-4.396 8.457-5.55 11.54-5.85l-1.727-5.755a40.923 40.923 0 0 0-4.215-.219c-7.27 0-16.652 2.067-20.137 11.936a1.26 1.26 0 0 1-.89.791c-.46.111-11.442 2.883-16.356 17.244-2.566 7.514-8.59 24.93 14.008 41.744"/></g><g><path fill="red" d="M24.016 14.003c-.25 2.484-.488 5.69-.488 8.9.35.166.703.352 1.043.541a5.62 5.62 0 0 0 .254-.078c2.062-5.345 6.793-11.334 17.562-12.679-2.45-2.317-4.574-2.274-4.7-2.264-.34.016-1.214-.113-1.46-.344-.246-.236-.934-.555-.934-.894V4.868l-6.101.301-.473 4.232c-.062.362-.148.676-.457.86-1.781 1.035-3.082 2.316-4.246 3.742z"/></g><g><path fill="red" d="M15.941 21.043c1.691 0 3.414.293 5.11.846.062-5.186.687-10.092.956-12.035l-4.71-2.647c-1.926 3.086-3.415 9.28-4.313 14.15a13.937 13.937 0 0 1 2.957-.314z"/></g><g><path fill="red" d="M55.516 18.597l.312 1.066c.118.366.043.774-.18 1.082a1.248 1.248 0 0 1-.976.512c-2.527.057-9.422.963-10.918 4.465-1.797 4.18 3.246 7.107 4.114 7.57 3.738.924 6.953 2.217 9.64 3.86 1.055-3.606 2.766-8.168 6.34-9.565l-.801-2.19c-1.804.282-4.242.862-5.246 1.626a1.24 1.24 0 0 1-1.945-1.315c.12-.44 1.137-3.953 3.433-5.76l-.933-2.08z"/></g><g><path fill="red" d="M7.785 26.912c-3.742 3.752-2.977 13.85-1.926 20.033a59.587 59.587 0 0 1 1.485-4.951c3.531-10.324 10.02-15.137 14.214-17.273-1.847-.782-3.76-1.2-5.617-1.2-3.117 0-5.933 1.174-8.156 3.39z"/></g><g><path fill="red" d="M62.766 45.878c-2.414-4.482-6.738-7.609-13.2-9.586.938 2.553 2.032 6.861 1.22 11.641-.063.81-.422 7.384 3.445 10.22 2.035 1.522 4.687 1.17 6.758-.902a1.248 1.248 0 0 1 1.754 0 1.24 1.24 0 0 1 0 1.754c-1.407 1.404-3.06 2.234-4.727 2.484 1.969 3.772.309 9.153.215 9.448a1.236 1.236 0 0 1-1.18.87c-.121 0-.246-.023-.371-.062a1.24 1.24 0 0 1-.81-1.555c.025-.074 2.232-7.275-1.768-9.226-3.141-1.525-4.613-4.459-5.29-7.193a82.843 82.843 0 0 1-1.151 2.244c-.008.011-.012.025-.02.03-.5.958-1.047 1.968-1.641 3.054-5.13 9.492-12.812 23.703-9.043 32.97 2.762.971 5.34 1.454 7.71 1.454 6.497 0 11.216-3.76 14.025-11.53 4.988-13.785 9.05-26.834 4.074-36.115z"/></g><g><path fill="red" d="M23.695 84.628c3.645 2.711 7.074 4.777 10.281 6.238-2.39-9.896 4.45-22.945 9.422-32.148-1.398.531-2.87.918-4.308 1.29-.579.15-1.145.3-1.7.454a252.15 252.15 0 0 1-3.382 1.232c-.387.204-.77.418-1.118.66-3.359 2.352-3.082 6.87-3.082 6.917a1.237 1.237 0 0 1-1.144 1.322c-.032.006-.067.006-.094.006a1.232 1.232 0 0 1-1.23-1.139c-.02-.182-.207-3.15 1.335-5.99-3.507 1.053-6.675 1.701-9.726 1.701a1.237 1.237 0 1 1 0-2.475c2.601 0 5.348-.529 8.418-1.41-5.414-.179-6.55-1.783-7.024-2.435a1.24 1.24 0 1 1 2.016-1.444c.434.614 2.75 2.444 14.38.666.573-.16 1.155-.314 1.73-.465 2.675-.695 5.206-1.36 7.093-2.929a62.85 62.85 0 0 0 1.535-3.082c3.317-7.295.102-14.746-.625-16.264-2.879-1.586-7.168-5.539-5-10.596 1.883-4.396 8.457-5.55 11.54-5.85l-1.727-5.755a40.923 40.923 0 0 0-4.215-.219c-7.27 0-16.652 2.067-20.137 11.936a1.26 1.26 0 0 1-.89.791c-.46.111-11.442 2.883-16.356 17.244-2.566 7.514-8.59 24.93 14.008 41.744z"/></g></g></svg>