<svg xmlns="http://www.w3.org/2000/svg" width="77" height="77" viewBox="0 0 77 77"><g><g><path fill="#fff" d="M76.273 38.76c0 20.965-16.996 37.959-37.957 37.959-20.965 0-37.96-16.994-37.96-37.96C.355 17.796 17.35.802 38.315.802 59.277.8 76.273 17.795 76.273 38.76z"/></g><g><path fill="#aebc36" d="M21.584 67.954c-9.016-5.256-14.128-18.992-11.161-29.992 2.454-9.069 9.585-14.27 19.566-14.27 2.359 0 4.637.234 6.773.696-.015-.011.062.009.135.029 10.778 2.386 14.618 9.957 14.618 16.248 0 5.779-3.063 10.822-8.198 13.499a1.206 1.206 0 0 1-.222.114 16.414 16.414 0 0 1-7.372 1.779 5.296 5.296 0 0 1-5.292-5.288 5.296 5.296 0 0 1 5.292-5.286c1.607 0 2.956-.517 3.9-1.496a4.83 4.83 0 0 0 1.32-3.323c0-2.952-2.87-6.397-10.954-6.397-5.187 0-8.16 2.051-9.354 6.456-1.73 6.405 1.324 15.197 6.286 18.09 3.163 1.848 6.916 2.825 10.85 2.824 3.728 0 7.313-.885 10.368-2.56 4.722-2.583 10.457-8.346 10.968-21.132.262-6.72-1.43-11.962-5.027-15.58-6.106-6.14-16.047-6.451-17.978-6.451l-.211.002h-.001c-2.948 0-5.35-2.286-5.447-5.096a5.23 5.23 0 0 1 1.405-3.787 5.238 5.238 0 0 1 3.674-1.682c-.005 0 .244-.012.686-.012 2.642 0 16.277.46 25.336 9.524 5.789 5.799 8.526 13.707 8.135 23.503-.256 6.308-1.617 11.989-4.045 16.884a1.474 1.474 0 0 1-.094.174c-2.83 5.642-6.98 10.01-12.315 12.935-4.567 2.499-9.91 3.82-15.447 3.82-5.847 0-11.447-1.46-16.194-4.224zM11.78 38.33C8.965 48.764 13.779 61.775 22.29 66.74c4.534 2.64 9.889 4.034 15.488 4.034 5.302 0 10.41-1.262 14.772-3.648 5.079-2.786 9.036-6.95 11.76-12.379l.694.19-.63-.312c2.34-4.718 3.654-10.207 3.9-16.316.376-9.388-2.223-16.943-7.724-22.452-8.667-8.673-21.798-9.112-24.342-9.112-.37 0-.585.008-.62.009a3.85 3.85 0 0 0-2.71 1.235 3.838 3.838 0 0 0-1.031 2.779c.07 2.066 1.844 3.744 3.95 3.744l.305-.003c2.028 0 12.475.33 18.975 6.865 3.883 3.906 5.71 9.5 5.434 16.627-.537 13.442-6.657 19.55-11.697 22.309-3.261 1.787-7.08 2.732-11.042 2.732-4.184 0-8.181-1.043-11.56-3.016-5.438-3.172-8.808-12.732-6.933-19.67 1.349-4.974 4.953-7.495 10.71-7.495 9.122 0 12.358 4.205 12.358 7.804 0 1.597-.623 3.164-1.711 4.296-1.217 1.261-2.915 1.927-4.913 1.927a3.889 3.889 0 0 0-3.888 3.881 3.889 3.889 0 0 0 3.888 3.881c2.313 0 4.665-.572 6.8-1.654l.103-.058c4.756-2.46 7.485-6.935 7.485-12.274 0-5.745-3.551-12.67-13.516-14.875l-.13-.029c-2.038-.44-4.217-.663-6.476-.663-9.297 0-15.934 4.822-18.21 13.231zm26.449 31.556l-.927-.015a31.915 31.915 0 0 1-5.752-.6l-.526-.106-.037-.536c-.166-2.436 1.704-4.326 2.28-4.848l.249-.225.33.052c1.273.199 2.606.3 3.965.3h1.092l-.372.994c-.468 1.025-.941 2.566-.538 4.088zm-1.76-1.445c-.118-1.143.093-2.235.397-3.145a26.687 26.687 0 0 1-2.89-.249c-.488.497-1.44 1.618-1.577 2.953 1.316.236 2.68.384 4.07.442zm2.849 1.413l-.208-.42c-1.07-2.149.41-4.643.889-5.356l.182-.271.326-.035a25.12 25.12 0 0 0 3.596-.666l1.128-.29-.27 1.133c-.4 1.677-.373 3.145.076 4.246l.316.773-.816.179a32.175 32.175 0 0 1-4.752.677zm.892-1.471a30.63 30.63 0 0 0 3.267-.453c-.238-.948-.27-2.022-.096-3.208-.811.177-1.6.311-2.385.407-.378.632-1.092 2.04-.786 3.254zm-10.172.548l-.847-.24a28.024 28.024 0 0 1-6.32-2.652l-.456-.262.125-.514c.453-1.845 2.824-3.176 4.065-3.645l.286-.182.38.153a22.771 22.771 0 0 0 4.027 1.487l1.03.274-.66.84c-.981 1.248-1.514 2.548-1.584 3.861zm-1.253-1.83c.182-.998.584-1.994 1.187-2.944a23.948 23.948 0 0 1-3.024-1.166c-.816.334-2.271 1.159-2.842 2.129a26.487 26.487 0 0 0 4.679 1.982zM46.33 68.71l-.277-.493c-1.156-2.042.19-5.415.249-5.558l.114-.28.282-.11a21.156 21.156 0 0 0 2.54-1.182c.168-.085.314-.174.459-.261l.955-.577.149 1.086c.15 1.564.732 2.808 1.726 3.696l.687.616-.774.5a4.383 4.383 0 0 1-.334.204 28.045 28.045 0 0 1-5.236 2.194zm.747-1.707c1.35-.447 2.64-.99 3.85-1.616-.655-.803-1.115-1.776-1.361-2.88a22.69 22.69 0 0 1-2.067.954c-.361 1.003-.675 2.498-.422 3.542zm-25.56-1.813l-.7-.55a19.571 19.571 0 0 1-2.987-2.933l-.46-.554.566-.445c.307-.242 2.945-2.31 3.988-2.621l.103-.052.522-.013.21.239a13.06 13.06 0 0 0 2.209 2.012l.897.642-.961.54c-1.03.579-2.386 1.557-3.015 2.926zm-.467-2.18c.62-.938 1.472-1.677 2.28-2.23a14.73 14.73 0 0 1-1.287-1.217c-.512.27-1.48.903-2.658 1.799a18.333 18.333 0 0 0 1.665 1.648zm33.116 2.075l-.39-.243c-2.4-1.48-2.151-4.378-2.072-4.967l-.034-.203.31-.377c.9-.7 1.705-1.424 2.457-2.213l.77-.809.396 1.046c.356.944 1.109 2.251 2.673 3.12l.8.446-.638.658a26.264 26.264 0 0 1-3.894 3.28zm-.015-1.704a25.16 25.16 0 0 0 2.666-2.21 7.21 7.21 0 0 1-2.087-2.393c-.521.5-1.067.976-1.652 1.441-.048.553-.08 2.17 1.073 3.162zm-37.327-2.938l-.421-.633a26.453 26.453 0 0 1-1.958-3.498l-.323-.697 5.702-2.042.272.574c.357.753.785 1.512 1.31 2.322l.433.668-.718.346c-.9.434-2.178 1.295-3.698 2.49zm-.77-4.029c.337.672.709 1.334 1.11 1.983.819-.622 1.78-1.305 2.658-1.81-.261-.43-.497-.85-.712-1.267zm43.668 3.72l-.488-.21c-3.047-1.314-3.135-4.26-3.135-4.59V55.1l.136-.185a22.23 22.23 0 0 0 1.578-2.499l.469-.858.664.717c.749.81 1.96 1.882 3.473 2.39l.807.27-.42.741a29.12 29.12 0 0 1-2.75 4.043zm-.404-1.74a27.793 27.793 0 0 0 1.86-2.711c-1.036-.48-1.912-1.148-2.594-1.78-.342.579-.7 1.128-1.068 1.642.054.54.334 1.983 1.802 2.85zm-45.543-3.602l-.237-.661a28.445 28.445 0 0 1-.958-3.3l-.188-.835.856-.021c1.015-.025 2.928-.147 4.342-.685l.738-.282.194.767c.228.91.45 1.646.696 2.317l.244.665zm.858-1.8l3.035-1.084a24.455 24.455 0 0 1-.318-1.062c-1.051.295-2.206.434-3.2.496.144.558.305 1.109.483 1.65zm49.027 1.087l-.558-.134c-2.01-.48-3.567-2.273-4.143-3.022l-.25-.323.16-.377c.26-.622.51-1.279.745-1.955l.272-.79.732.404c.952.525 2.427 1.156 4.049 1.172l.966.01-.306.915a33.592 33.592 0 0 1-1.425 3.581zm-.774-1.678c.286-.646.557-1.317.809-2.008-1.152-.149-2.193-.519-3.025-.909-.112.305-.227.603-.345.894.488.577 1.435 1.557 2.56 2.023zm-28.677.944l-1.315-.787 4.116-1.363a.45.45 0 0 0 .277-.567.44.44 0 0 0-.56-.28l-4.024 1.347.029-1.005a2.98 2.98 0 0 1 2.99-2.914c1.32 0 2.534-.266 3.605-.79l.4-.196.347.276c.709.563 1.6 1.844 1.826 4.747l.038.49-.45.204a14.122 14.122 0 0 1-5.765 1.262 2.945 2.945 0 0 1-1.514-.423zm4.412-3.157a1.852 1.852 0 0 1-.487 1.932 12.917 12.917 0 0 0 2.318-.697c-.193-1.682-.634-2.541-.968-2.965a9.171 9.171 0 0 1-1.975.574c.518.19.934.608 1.112 1.156zm-2.835-1.005a1.677 1.677 0 0 0-1.071.357zm7.057 2.685l-.167-1.123c-.26-1.76-.824-3.138-1.63-3.985l-.472-.496.696-.689A6.585 6.585 0 0 0 42.4 44l.113-.216.399-.159c.496-.243 1.568-.673 2.727-.677l.085.005 1.006.128c.68.188 1.256.57 1.707 1.136l.237.298-.121.362c-.852 2.559-2.506 4.75-4.78 6.34zm1.004-2.48a11.077 11.077 0 0 0 3.235-4.564 1.804 1.804 0 0 0-.678-.374l-.801-.095c-.87.013-1.72.36-2.084.532a7.96 7.96 0 0 1-1.016 1.428c.6.807 1.05 1.835 1.344 3.074zM12.21 49.09l-.086-.61a27.313 27.313 0 0 1-.26-3.59l-.01-.983.932.31c1.31.433 2.68.511 4.229.138l.85-.204.016.875c.016.84.08 1.69.194 2.528l.064.476-.421.232c-1.056.584-3.22.808-4.892.822zm1.226-1.425c1.286-.052 2.467-.223 3.18-.457-.048-.439-.085-.88-.11-1.32a8.747 8.747 0 0 1-3.214-.08c.028.635.076 1.256.144 1.856zm47.136-.83l-.441-.272.129-.5c.272-1.055.48-2.033.636-2.99l.144-.885.826.353c1.33.57 2.666.759 4.172.588l.927-.104-.156.92a41.277 41.277 0 0 1-.771 3.646l-.118.446-.456.07a5.112 5.112 0 0 1-.76.056c-1.728 0-3.331-.832-4.132-1.327zm4.229-.08a39.5 39.5 0 0 0 .465-2.157 8.989 8.989 0 0 1-3.133-.457 34.52 34.52 0 0 1-.382 1.753c.708.381 1.87.902 3.05.861zm-52.45-3.651l-.441-.213.046-.489c.132-1.38.357-2.637.686-3.84.019-.079.048-.167.077-.257l.337-1.21.839.7c.78.654 2.087 1.46 3.87 1.602l.836.064-.211.812a16.57 16.57 0 0 0-.426 2.423l-.047.453-.433.143a7.746 7.746 0 0 1-2.403.396c-1.314 0-2.274-.366-2.73-.584zm4.269-1.023c.06-.476.138-.94.23-1.387a8.174 8.174 0 0 1-3-1.19 21.11 21.11 0 0 0-.44 2.514c.686.232 1.966.383 3.21.064zm32.41 1.218l-.957-.599c-1.067-.665-2.503-.81-4.03-.43l-.996.25.13-1.02c.035-.277.054-.556.054-.834 0-.513-.072-1.078-.213-1.681l-.064-.273.143-.243c.416-.706 1.954-3.037 4.285-3.43l.545-.092.218.508a13.148 13.148 0 0 1 1.076 5.21c0 .498-.025.992-.077 1.51zm-1.218-2.28a11.701 11.701 0 0 0-.734-4.448c-1.284.481-2.245 1.79-2.628 2.382.124.603.185 1.178.185 1.713v.063c.35-.048.695-.072 1.034-.072.77 0 1.487.12 2.143.362zm13.737.38l-.387-.228.044-.446c.096-.984.159-1.863.189-2.685.004-.087.002-.164 0-.242a5.319 5.319 0 0 1 0-.252l.018-.816.803.14c1.403.24 2.984.214 4.314-.115l.884-.22-.015 1.11c-.002.21-.005.42-.014.634a50.291 50.291 0 0 1-.25 3.216l-.052.498-.488.113a7.262 7.262 0 0 1-1.628.187c-1.717 0-2.963-.625-3.418-.894zm3.418-.512c.274 0 .549-.02.824-.06.074-.74.149-1.62.187-2.53-1.02.161-2.134.18-3.191.068a44.168 44.168 0 0 1-.137 2.022c.476.218 1.293.5 2.317.5zm-46.617-2.38c-2.504 0-4.035-1.44-4.578-2.059l-.296-.338.183-.41a16.337 16.337 0 0 1 2.068-3.434l.808-1.034.413 1.245c.356 1.074 1.105 2.51 2.65 3.247l.72.342-.43.671c-.272.424-.52.88-.732 1.354l-.182.4zm-.276-1.413c.08-.16.163-.32.25-.476-1.05-.678-1.746-1.602-2.206-2.494-.366.553-.69 1.123-.977 1.719a4.673 4.673 0 0 0 2.933 1.25zm24.5.453l-.532-.8A8.32 8.32 0 0 0 40.72 35.2l-.223-.204-.004-.303c-.018-.982.156-3.435 2.136-4.958l.416-.32.425.308a14.47 14.47 0 0 1 3.46 3.534l.538.785-.908.283c-1.54.48-2.691 1.61-3.384 2.472zm.103-2.31c.649-.683 1.508-1.4 2.566-1.9a13.128 13.128 0 0 0-2.15-2.137c-.973 1.008-1.17 2.39-1.193 3.182.275.27.535.556.777.855zm19.283.686l-.543-.107-.022-.554a28.38 28.38 0 0 0-.378-3.57l-.141-.844 1.194.039c1.049 0 2.577-.131 3.884-.756l.844-.403.153.923c.228 1.388.375 2.859.434 4.374l.02.53-.504.165a8.97 8.97 0 0 1-2.777.416c-.9 0-1.673-.116-2.164-.213zm3.995-1.396c-.051-.95-.14-1.88-.26-2.779-1.11.375-2.248.506-3.164.536a29.7 29.7 0 0 1 .24 2.35c.86.121 2.165.134 3.184-.108zm-44.945.746l-.386-.106a3.825 3.825 0 0 1-1.052-.471l-.184-.17-1.51-2.051a7.52 7.52 0 0 1-.393-1.715l-.04-.362.273-.242a15.183 15.183 0 0 1 3.6-2.351l1.027-.482-.026 1.134c-.027 1.14.15 2.766 1.142 4.026l.506.642-.71.403a9.833 9.833 0 0 0-1.958 1.468zm-.582-1.7c.072.04.146.077.219.111.4-.357.825-.684 1.267-.978-.61-1.025-.87-2.144-.962-3.132-.72.407-1.396.873-2.02 1.393.046.273.118.597.232.93zm19.137.676l-.877-.468a13.078 13.078 0 0 0-2.184-.904l-.328-.104-.14-.382a7.104 7.104 0 0 1-.72-2.118l-.014-.095.31-2.315c.153-.312.359-.601.63-.884l.283-.296.396.1a20.49 20.49 0 0 1 4.408 1.643l.854.44-.68.68c-1.195 1.2-1.634 2.685-1.79 3.72zm-1.053-2.114a8.026 8.026 0 0 1 1.36-2.854 19.404 19.404 0 0 0-2.868-1.024 2.959 2.959 0 0 0-.08.127l-.204 1.761c.117.65.37 1.215.51 1.491.449.153.878.32 1.282.498zm-13.505.605l-.293-.237c-1.661-1.36-1.604-3.762-1.423-5.072l.063-.445.43-.13a20.057 20.057 0 0 1 3.422-.7l.927-.109-.151.921c-.227 1.381.216 3.036.628 4.181l.3.841-.886.096c-.92.1-1.815.282-2.656.543zm.345-1.57c.54-.15 1.097-.272 1.665-.365-.281-.94-.513-2.051-.5-3.133a18.39 18.39 0 0 0-1.882.402c-.07.869-.033 2.242.717 3.096zm9.623 1.274l-1.101-.172a23.758 23.758 0 0 0-3.508-.278l-.463-.003-.18-.427c-.263-.623-1.522-3.807-.564-5.257l.209-.316.62-.003c1.497 0 2.97.103 4.38.305l1.005.142-.488.89c-.81 1.474-.49 3.171-.228 4.051zm-1.905-1.697c-.191-1.132-.126-2.217.187-3.18a30.026 30.026 0 0 0-3.028-.172c-.095.609.09 1.814.62 3.203.757.018 1.5.068 2.22.149zm28.095-.785l-.496-.038-.13-.48c-.318-1.183-.668-2.2-1.07-3.11l-.323-.735.77-.223c.9-.261 2.602-.855 3.886-1.916l.712-.588.377.843a27.584 27.584 0 0 1 1.548 4.506l.117.466-.392.278c-1.197.85-2.91 1.029-4.136 1.029-.317 0-.61-.013-.863-.032zm.863-1.374c1.174 0 2.205-.19 2.915-.532a26.515 26.515 0 0 0-.992-2.962c-.992.657-2.065 1.107-2.896 1.394.254.646.486 1.34.704 2.097.087.002.177.003.269.003zm-3.306-3.802l-.27-.457a18.335 18.335 0 0 0-1.581-2.262l-.558-.688.798-.387a6.736 6.736 0 0 0 3.004-2.896l.49-.91.666.79a24.565 24.565 0 0 1 2.497 3.548l.26.449-.354.38c-1.263 1.359-3.524 2.06-4.438 2.299zm.658-1.637c1-.308 2.125-.792 2.886-1.404a23.404 23.404 0 0 0-1.456-2.107 8.112 8.112 0 0 1-2.333 2.202c.325.434.627.872.903 1.31zm-3.831-2.532l-.293-.277a20.785 20.785 0 0 0-2.584-2.06l-.762-.516.698-.599c.736-.632 1.738-1.756 2.335-3.526l.293-.868.762.508a26.217 26.217 0 0 1 3.512 2.814l.34.322-.167.438c-1.017 2.662-3.125 3.466-3.747 3.65zm.352-1.593c.603-.256 1.624-.87 2.285-2.245a25.062 25.062 0 0 0-2.246-1.83 9.366 9.366 0 0 1-1.771 2.667c.61.448 1.19.918 1.732 1.408zm-4.94-1.782l-.351-.183a27.988 27.988 0 0 0-2.172-1.02l-.867-.36.589-.73c.593-.737 1.36-2.012 1.644-3.907l.134-.888.829.343a31.3 31.3 0 0 1 3.142 1.506l.478.264-.138.529c-.696 2.68-2.432 3.92-2.95 4.238zm-.082-1.623c.509-.39 1.353-1.216 1.852-2.655a30.494 30.494 0 0 0-1.707-.828 9.56 9.56 0 0 1-1.24 2.956c.355.162.719.337 1.095.527zm-4.333-.266l-.384-.122a31.872 31.872 0 0 0-2.151-.61l-.97-.232.546-.835c.914-1.4.963-2.98.843-4.06l-.11-.986.967.225a34.36 34.36 0 0 1 3.21.917l.527.179-.052.552c-.255 2.74-1.572 4.2-2.127 4.701zm-.37-1.588c.442-.494 1.076-1.436 1.326-2.963-.538-.173-1.08-.33-1.62-.474.002.95-.15 2.063-.656 3.157.302.084.617.176.95.28zm-4.145.364l-.468-.006c-2.762-.462-4.885-.498-5.47-.498h-.305a3.074 3.074 0 0 1-2.627-1.485l-.634-1.062h4.34c.248 0 .45-.198.45-.44a.45.45 0 0 0-.45-.45h-4.345l.617-1.056a2.986 2.986 0 0 1 2.479-1.492c.003 0 .238-.01.653-.01 1.159 0 3.555.078 6.562.597l.453.077.11.446c.18.734.638 3.265-1.112 5.01zm-.647-1.457c.904-.975.859-2.357.736-3.14a39.701 39.701 0 0 0-4.25-.453c.512.33.85.906.85 1.559 0 .71-.404 1.328-.998 1.636.946.058 2.212.17 3.662.398z"/></g></g></svg>