<svg xmlns="http://www.w3.org/2000/svg" width="205" height="211" viewBox="0 0 205 211"><g><g><path fill="#009748" d="M93.969 79.7c6.148-.091 12.299-.227 18.43.106 4.5.364 8.436 4.21 9.028 8.679.407 3.454.213 6.968.213 10.449 3.466.017 6.937-.12 10.39.244 5.027.56 9.087 5.392 8.858 10.452.123 5.572.109 11.16.017 16.75.303 5.149-3.801 10.163-8.983 10.663-3.408.346-6.843.179-10.267.198 0 3.42.164 6.858-.198 10.282-.488 4.544-4.5 8.558-9.103 8.86-6.118.289-12.252.152-18.37.09-5.014.226-9.74-3.815-10.36-8.77-.41-3.482-.275-6.996-.29-10.495-3.512 0-7.041.212-10.542-.211-4.482-.622-8.221-4.636-8.555-9.134-.287-6.087-.164-12.191-.093-18.281-.165-4.937 3.698-9.646 8.59-10.373 3.529-.41 7.073-.243 10.615-.243.016-3.528-.15-7.087.29-10.587.68-4.907 5.377-8.83 10.33-8.678zM86.41 99.013c.62-.078 1.864-.212 2.482-.29.442-4.193-1.74-10.025 2.545-12.75 6.347-1.182 12.919-.5 19.355-.5 2.636-.305 5.378 1.77 5.346 4.512.229 12.92 0 25.839.095 38.76l2.359-.016c-.06-12.92.14-25.824-.06-38.73.08-4.056-3.724-7.54-7.74-7.252-5.613-.106-11.251-.137-16.87.014-3.333-.105-6.544 2.378-7.211 5.649-.556 3.5-.301 7.059-.301 10.603zm5.453-.078c7.132 0 14.266.06 21.398-.044-.044-3.452-.074-6.907-.515-10.327-6.858 0-13.736-.078-20.597.074-.242 3.423-.286 6.86-.286 10.297zm-24.416 29.885c2.06 6.966 10.48 5.224 16.024 5.376l.03-2.38c-4.315-.62-10.542 1.834-13.191-2.832-.894-6.407-.303-12.965-.364-19.416-.273-2.514 1.863-5.193 4.48-5.058 13.089-.318 26.206.122 39.308-.21-.378-3.137-3.894-2.076-6.06-2.303-11.134.12-22.28-.138-33.413.105-3.874-.015-7.267 3.589-7.07 7.466.016 6.409-.381 12.859.256 19.252zm67.11-21.871c1.303 4.27.38 8.89.667 13.313-.271 3.226.742 6.892-1.152 9.768-1.591 2.107-4.408 1.68-6.695 1.787-11.843-.046-23.672-.014-35.514-.03l.029 2.409c12.829-.075 25.672.09 38.5-.06 4.105.166 7.8-3.622 7.438-7.725.028-6.12.228-12.237-.137-18.342-.652-4.846-6.042-6.693-10.33-6.103-2.198.363-6.272-1.152-6.043 2.409 4.315.65 10.374-1.758 13.238 2.574zm-42.694 21.75c7.102.046 14.207.015 21.31.03v-21.252c-7.103.03-14.193 0-21.293.017.012 7.072.027 14.133-.017 21.205zm-18.904-.363c3.423.393 6.875.42 10.314.499.168-7.136.075-14.253.09-21.371-3.452 0-6.907.03-10.344.304-.18 6.846-.12 13.705-.06 20.568zm13.752-20.296c-.724 12.132-.167 24.338-.301 36.499-.393 3.866 1.967 8.18 6.057 8.77 6.089.379 12.208.166 18.31.139 3.53.27 6.939-2.364 7.623-5.833.406-3.62.179-7.27.117-10.891-5.586 1.833.865 10.98-4.967 13.51-4.875 1.167-9.995.305-14.98.576-2.65-.24-5.782.622-8.025-1.227-2.074-1.575-1.624-4.331-1.744-6.572-.118-12.117.38-24.247-.257-36.334zm34.958 20.705c3.317-.016 6.649-.031 9.982-.076.922-6.954.406-13.98.423-20.963-3.482-.212-6.981-.242-10.465-.198.076 7.074.03 14.149.06 21.237zm-29.534 18.9c6.982.016 14.01.485 20.96-.393.062-3.334.078-6.663.092-9.982-7.088-.047-14.192 0-21.295-.047-.012 3.472.015 6.954.243 10.423z"/></g><g><path fill="#e32427" d="M102.647-.027c33.97 59.175 68.304 118.122 102.214 177.326-68.259-.015-136.519-.015-204.78 0C32.81 120.382 65.752 63.57 98.513 6.667a114.858 114.858 0 0 1 4.134-6.694zM79.019 63.707c14.83-6.287 32.049-6.3 46.876-.032-7.891-13.448-15.42-27.124-23.539-40.437-7.677 13.54-15.476 27.02-23.337 40.47zm-17.904 31.17c-6.891 12.085-7.98 27.28-2.933 40.24 4.826 12.724 15.401 23.098 28.228 27.658 14.162 5.196 30.759 3.073 43.106-5.634 12.432-8.528 20.37-23.247 20.417-38.35.391-15.25-7.287-30.335-19.677-39.166-10.086-7.392-23.17-10.405-35.485-8.346-14.025 2.241-26.763 11.18-33.656 23.598zm5.864 70.685c-12.725-9.755-21.403-24.536-23.308-40.5-7.786 13.51-15.616 26.99-23.356 40.515 15.555-.03 31.11 0 46.664-.015zm70.944-.03c15.596.061 31.198.045 46.811.015-7.86-13.465-15.596-26.99-23.4-40.486-2 15.935-10.539 30.853-23.411 40.471z"/></g><g><path fill="#e32427" d="M141.133 99.072c8.57 16.675 4.345 38.635-9.77 50.967-13.98 13.098-36.913 14.75-52.677 3.906-14.764-9.571-22.355-28.716-18.023-45.8C64.312 91.863 78.309 78.61 94.74 75.762c18.417-3.71 38.333 6.376 46.392 23.31zm-57.784-.107c-3.542 0-7.086-.166-10.615.244-4.892.727-8.755 5.436-8.59 10.373-.071 6.089-.194 12.194.093 18.28.334 4.499 4.073 8.513 8.555 9.135 3.5.423 7.03.21 10.542.21.015 3.5-.12 7.013.29 10.496.62 4.955 5.346 8.996 10.36 8.77 6.118.062 12.252.198 18.37-.091 4.604-.301 8.615-4.315 9.103-8.86.362-3.423.198-6.861.198-10.281 3.423-.02 6.859.148 10.267-.198 5.182-.5 9.286-5.514 8.983-10.664.09-5.588.106-11.177-.017-16.75.229-5.06-3.831-9.891-8.858-10.452-3.453-.362-6.924-.226-10.39-.243 0-3.481.194-6.995-.213-10.45-.592-4.467-4.528-8.314-9.028-8.678-6.131-.333-12.282-.197-18.43-.105-4.953-.153-9.65 3.77-10.33 8.678-.44 3.5-.274 7.059-.29 10.586z"/></g><g><path fill="#e32427" d="M.549 184.372c2.65.016 5.284.047 7.935.077.03 5.86-.24 11.72.077 17.585-.437 3.695 6.499 3.8 6.256.058.335-5.844.058-11.723.09-17.568 2.137-.092 4.258-.152 6.392-.197.214 5.924.334 11.843.078 17.765.465 11.617-21.16 11.512-20.784.092-.164-5.936 0-11.875-.044-17.812z"/></g><g><path fill="#e32427" d="M41.82 184.418c2.713 8.586 5.408 17.19 8.089 25.81-2.698 0-5.376.015-8.058.041-.468-1.695-.939-3.377-1.407-5.056-2.38-.03-4.772-.06-7.166-.06-.454 1.68-.892 3.375-1.348 5.074-2.181 0-4.348 0-6.512.016 2.713-8.62 5.331-17.267 8.09-25.855 2.77 0 5.542 0 8.312.03zM39.421 199.3c-.539-2.162-1.189-3.785-2.054-6.815-.867 2.488-1.624 4.542-2.491 7.031.65-.195 4.674.308 4.545-.216z"/></g><g><path fill="#e32427" d="M82.198 184.886c6.015 1.091 7.68 9.452 3.591 13.465-3.029 3.104-7.74 2.38-11.678 2.635v9.241c-2.633 0-5.286 0-7.918.015-.019-8.59.028-17.193-.033-25.779 5.332.061 10.753-.516 16.038.423zm-8.07 10.39c1.741-.923 6.178.848 5.828-2.209 1.014-3.606-3.649-3.015-5.845-3.06 0 1.318 0 3.952.017 5.27z"/></g><g><path fill="#e32427" d="M92.833 184.356c2.634.032 5.27.062 7.919.107-.027 3.196-.045 6.406-.045 9.618 2.045-.045 4.106-.09 6.165-.137-.032-3.18-.046-6.361-.061-9.526 2.636-.015 5.271-.03 7.92-.03-.026 8.633.062 17.25-.045 25.882-2.62-.027-5.225-.043-7.846-.027-.014-3.394-.014-6.772-.014-10.149-1.514-.019-4.559-.046-6.074-.06-.027 3.392-.045 6.8-.045 10.223-2.65-.03-5.283-.03-7.918-.046.044-8.618 0-17.235.044-25.855z"/></g><g><path fill="#e32427" d="M134.982 184.558c3.013 8.314 5.515 17.29 8.284 25.699-2.74-.03-5.48-.03-8.221-.045-.426-1.697-.85-3.392-1.288-5.092a647.12 647.12 0 0 0-7.148.137c-.336 1.184-1.193 3.76-1.527 4.943-2.166.213-4.139.13-6.305.177 2.572-8.662 5.392-17.252 7.935-25.928 2.996-.054 6.45-.003 8.27.109zm-6.772 14.992c1.003 0 3.73.019 4.743.019-.568-1.947-1.54-5.681-2.433-7.952-.485 2.09-1.81 5.84-2.31 7.933z"/></g><g><path fill="#e32427" d="M165.363 185.114c6.362 2.197 5.787 11.45.367 14.48 1.604 3.543 3.21 7.088 4.815 10.649a837.523 837.523 0 0 0-8.682 0c-1.285-3.198-2.299-6.515-3.979-9.512-.638-.033-1.925-.061-2.577-.091.048 3.179.06 6.374.091 9.557-2.622.03-5.223.06-7.83.103-.213-8.632-.062-17.266-.108-25.898 5.954.273 12.074-.712 17.903.713zm-9.858 10.105c1.874-.275 6.573 1.044 6.343-2.151 1.093-3.942-4.149-2.91-6.556-2.986 0 1.711.063 3.421.213 5.136z"/></g><g><path fill="#e32427" d="M176.118 184.388c3.363.015 6.724-.123 10.087.09 1.332 4.327 2.65 8.998 4.227 13.375 1.56-4.423 2.722-8.967 3.966-13.481 3.514.016 7.014.03 10.527.123-.09 8.587-.015 17.174-.046 25.762-2.515-.03-5.045-.045-7.559-.06-.12-5.35.577-10.801-.588-16.071-1.59 5.317-2.91 10.692-4.317 16.07-1.257.016-3.786.06-5.042.089-1.713-5.89-3.077-11.857-5-17.674-.335 5.879-.136 11.769-.168 17.659-2.047-.027-4.074-.058-6.118-.073.047-8.603 0-17.208.031-25.81z"/></g><g><path fill="#e32427" d="M52.209 196.884h9.559c0 1.498 0 4.467.015 5.967a898.647 898.647 0 0 0-9.574 0z"/></g><g><path fill="#fff" d="M86.712 88.409c.667-3.271 3.878-5.754 7.212-5.65 5.618-.15 11.256-.12 16.869-.013 4.016-.287 7.82 3.196 7.74 7.252.2 12.906 0 25.81.06 38.73l-2.36.016c-.094-12.921.134-25.84-.094-38.76.032-2.742-2.71-4.817-5.346-4.513-6.436 0-13.01-.681-19.355.5-4.285 2.726-2.103 8.558-2.545 12.752-.62.077-1.862.21-2.483.289 0-3.544-.255-7.103.302-10.603z"/></g><g><path fill="#fff" d="M92.15 88.636c6.86-.15 13.738-.074 20.596-.074.441 3.42.471 6.876.515 10.328-7.132.104-14.266.044-21.398.044 0-3.436.044-6.875.286-10.298z"/></g><g><path fill="#fff" d="M67.191 109.567c-.197-3.877 3.196-7.481 7.07-7.466 11.133-.243 22.28.016 33.414-.105 2.165.227 5.681-.834 6.06 2.302-13.103.332-26.22-.107-39.308.21-2.618-.134-4.754 2.545-4.48 5.059.06 6.45-.53 13.009.363 19.416 2.65 4.666 8.876 2.213 13.192 2.833l-.03 2.379c-5.545-.152-13.965 1.589-16.025-5.376-.637-6.393-.239-12.843-.256-19.252z"/></g><g><path fill="#fff" d="M121.32 104.374c-.229-3.561 3.846-2.046 6.043-2.41 4.288-.59 9.68 1.258 10.33 6.104.365 6.105.165 12.223.137 18.342.362 4.103-3.332 7.89-7.438 7.725-12.828.152-25.67-.015-38.5.06l-.029-2.408c11.843.015 23.671-.017 35.515.029 2.287-.106 5.103.32 6.694-1.787 1.894-2.876.881-6.542 1.152-9.768-.287-4.422.636-9.042-.666-13.313-2.864-4.332-8.923-1.923-13.238-2.574z"/></g><g><path fill="#fff" d="M91.88 107.493c7.1-.017 14.19.014 21.294-.017v21.252c-7.104-.015-14.208.016-21.311-.03.044-7.072.03-14.133.018-21.205z"/></g><g><path fill="#fff" d="M73.02 107.767c3.437-.274 6.891-.304 10.344-.304-.016 7.118.077 14.235-.09 21.37-3.44-.077-6.892-.105-10.315-.498-.059-6.862-.12-13.722.06-20.568z"/></g><g><path fill="#fff" d="M86.712 108.039l1.833-1.363c.637 12.087.139 24.217.257 36.334.12 2.24-.33 4.997 1.744 6.572 2.243 1.85 5.376.987 8.025 1.228 4.985-.272 10.105.59 14.98-.576 5.832-2.531-.62-11.677 4.967-13.51.06 3.62.289 7.27-.118 10.89-.683 3.469-4.091 6.104-7.623 5.833-6.101.028-12.22.24-18.31-.138-4.09-.59-6.45-4.905-6.057-8.77.135-12.162-.423-24.368.302-36.5z"/></g><g><path fill="#fff" d="M121.61 107.507c3.483-.044 6.982-.014 10.464.198-.017 6.983.5 14.009-.423 20.963-3.333.045-6.665.06-9.98.076-.032-7.09.014-14.163-.062-21.237z"/></g><g><path fill="#fff" d="M91.893 137.222c7.103.047 14.207 0 21.295.047-.014 3.319-.03 6.648-.091 9.982-6.951.878-13.98.409-20.961.394-.228-3.47-.255-6.951-.243-10.423z"/></g></g></svg>