<svg width="30" height="18" viewBox="0 0 30 18" fill="none" xmlns="http://www.w3.org/2000/svg">
<g clip-path="url(#clip0)">
<path fill-rule="evenodd" clip-rule="evenodd" d="M1.02271 8.99973C1.02271 8.4349 1.4806 7.97701 2.04543 7.97701L28.9772 7.97701C29.5421 7.97701 30 8.4349 30 8.99974C30 9.56457 29.5421 10.0225 28.9772 10.0225L2.04543 10.0225C1.4806 10.0225 1.02271 9.56457 1.02271 8.99973Z" fill="#101835"/>
<path fill-rule="evenodd" clip-rule="evenodd" d="M0.299551 9.723C-0.099849 9.3236 -0.0998489 8.67604 0.299551 8.27665L7.45864 1.11756C7.85804 0.718156 8.5056 0.718156 8.905 1.11756C9.3044 1.51696 9.3044 2.16451 8.905 2.56391L2.46908 8.99982L8.905 15.4357C9.3044 15.8351 9.3044 16.4827 8.905 16.8821C8.5056 17.2815 7.85804 17.2815 7.45864 16.8821L0.299551 9.723Z" fill="#101835"/>
</g>
<defs>
<clipPath id="clip0">
<rect width="30" height="16.3636" fill="white" transform="translate(30 17.1816) rotate(-180)"/>
</clipPath>
</defs>
</svg>
