<svg xmlns="http://www.w3.org/2000/svg" width="14" height="16" viewBox="0 0 14 16"><g><g opacity=".5"><path fill="#6d7b8e" d="M6.57.153a.68.68 0 0 1 .86 0l6.3 5.091c.17.138.27.35.27.574v8c0 .579-.221 1.134-.615 1.543A2.06 2.06 0 0 1 11.9 16H2.1c-.557 0-1.091-.23-1.485-.639A2.226 2.226 0 0 1 0 13.818v-8c0-.224.1-.436.27-.574zM1.4 6.173v7.645c0 .193.074.378.205.514.131.137.31.213.495.213h2.1v.728c0 .401.313.727.7.727.387 0 .7-.326.7-.727v-.727h2.8v.727c0 .401.313.727.7.727.387 0 .7-.326.7-.727v-.727h2.1a.687.687 0 0 0 .495-.214.741.741 0 0 0 .205-.514V6.174L7 1.649zm4.2 2.554h2.8v5.819h1.4V8a.714.714 0 0 0-.7-.727H4.9c-.387 0-.7.325-.7.727v6.545h1.4z"/></g></g></svg>